G75*
%MOIN*%
%OFA0B0*%
%FSLAX25Y25*%
%IPPOS*%
%LPD*%
%AMOC8*
5,1,8,0,0,1.08239X$1,22.5*
%
%ADD10C,0.00594*%
%ADD11C,0.01102*%
%ADD12C,0.00827*%
%ADD13C,0.01654*%
%ADD14C,0.00300*%
%ADD15C,0.00500*%
D10*
X0047032Y0034277D03*
X0052528Y0030087D03*
X0054496Y0030087D03*
X0056465Y0030086D03*
X0055481Y0032056D03*
X0059378Y0032961D03*
X0063521Y0028875D03*
X0063237Y0027252D03*
X0065205Y0027410D03*
X0064901Y0024877D03*
X0068473Y0026150D03*
X0070441Y0027056D03*
X0070796Y0024811D03*
X0072213Y0025284D03*
X0073985Y0025008D03*
X0075678Y0024910D03*
X0077036Y0024870D03*
X0081629Y0027375D03*
X0084615Y0033000D03*
X0083669Y0035344D03*
X0085637Y0035344D03*
X0088983Y0036132D03*
X0091543Y0035344D03*
X0093511Y0036526D03*
X0094728Y0037516D03*
X0095901Y0038748D03*
X0097054Y0039872D03*
X0098017Y0041862D03*
X0096998Y0044203D03*
X0096695Y0046304D03*
X0096286Y0048788D03*
X0103433Y0047607D03*
X0104689Y0048451D03*
X0103394Y0045520D03*
X0103473Y0043867D03*
X0103985Y0053119D03*
X0103394Y0054496D03*
X0094733Y0057685D03*
X0093906Y0058512D03*
X0089851Y0059024D03*
X0083669Y0054242D03*
X0081859Y0056268D03*
X0081700Y0054242D03*
X0078906Y0056268D03*
X0075678Y0056268D03*
X0074378Y0057056D03*
X0072410Y0057528D03*
X0069418Y0057449D03*
X0066741Y0057882D03*
X0067489Y0058945D03*
X0068670Y0058827D03*
X0066662Y0059890D03*
X0069181Y0061622D03*
X0069181Y0064260D03*
X0066465Y0064418D03*
X0063630Y0065244D03*
X0060087Y0064418D03*
X0060205Y0058433D03*
X0060048Y0056859D03*
X0060244Y0055363D03*
X0063985Y0057292D03*
X0068906Y0055323D03*
X0071977Y0053040D03*
X0073788Y0052489D03*
X0076583Y0048670D03*
X0076544Y0046622D03*
X0074772Y0044851D03*
X0073316Y0045140D03*
X0071819Y0046229D03*
X0069851Y0046229D03*
X0070796Y0042922D03*
X0068473Y0042922D03*
X0064890Y0042922D03*
X0063827Y0045008D03*
X0062567Y0044104D03*
X0061701Y0042610D03*
X0058421Y0043816D03*
X0054851Y0040323D03*
X0055678Y0039615D03*
X0059300Y0038552D03*
X0052021Y0041572D03*
X0051115Y0042517D03*
X0050170Y0043462D03*
X0049265Y0044367D03*
X0048399Y0045273D03*
X0047533Y0046139D03*
X0046583Y0047095D03*
X0045717Y0047961D03*
X0045717Y0045481D03*
X0046667Y0044525D03*
X0047533Y0043659D03*
X0048399Y0042753D03*
X0049304Y0041848D03*
X0050249Y0040903D03*
X0051155Y0039958D03*
X0047060Y0039604D03*
X0046115Y0040273D03*
X0045446Y0041178D03*
X0051728Y0052871D03*
X0053315Y0052090D03*
X0049847Y0053549D03*
X0042685Y0053276D03*
X0039339Y0056504D03*
X0035796Y0057449D03*
X0036078Y0052640D03*
X0040441Y0064496D03*
X0041229Y0068394D03*
X0037685Y0070363D03*
X0035481Y0066111D03*
X0043355Y0074615D03*
X0046622Y0073630D03*
X0046662Y0072370D03*
X0046662Y0071307D03*
X0049260Y0073119D03*
X0050441Y0074575D03*
X0051937Y0073079D03*
X0050874Y0071977D03*
X0051937Y0070914D03*
X0052016Y0076465D03*
X0046977Y0077882D03*
X0046268Y0077174D03*
X0047457Y0080023D03*
X0041852Y0081738D03*
X0040841Y0079975D03*
X0039024Y0076741D03*
X0048119Y0086583D03*
X0049181Y0087095D03*
X0053060Y0090753D03*
X0058355Y0093630D03*
X0062764Y0089930D03*
X0063941Y0090005D03*
X0064181Y0092528D03*
X0066032Y0092961D03*
X0069654Y0092882D03*
X0069654Y0091307D03*
X0071229Y0091307D03*
X0072804Y0091307D03*
X0074378Y0091307D03*
X0075953Y0091307D03*
X0077528Y0091307D03*
X0079103Y0091307D03*
X0080678Y0091307D03*
X0082252Y0091307D03*
X0083276Y0090874D03*
X0080678Y0089733D03*
X0079890Y0088945D03*
X0080678Y0088158D03*
X0082252Y0088158D03*
X0084188Y0086741D03*
X0085993Y0086465D03*
X0088788Y0084063D03*
X0088630Y0082646D03*
X0088170Y0080048D03*
X0088800Y0079260D03*
X0091577Y0075835D03*
X0092590Y0075104D03*
X0091347Y0074103D03*
X0091307Y0072882D03*
X0091307Y0071504D03*
X0094063Y0071741D03*
X0094221Y0070678D03*
X0095599Y0070363D03*
X0096937Y0070520D03*
X0097646Y0071583D03*
X0098040Y0072646D03*
X0099142Y0072134D03*
X0099733Y0073000D03*
X0099063Y0073670D03*
X0099496Y0074536D03*
X0099884Y0075514D03*
X0098567Y0075414D03*
X0097445Y0075441D03*
X0096402Y0075748D03*
X0096504Y0074851D03*
X0095559Y0075205D03*
X0094559Y0075351D03*
X0094654Y0074457D03*
X0094228Y0073512D03*
X0095370Y0073083D03*
X0095725Y0074028D03*
X0096859Y0073867D03*
X0098119Y0073906D03*
X0096622Y0072528D03*
X0095520Y0071859D03*
X0098827Y0070599D03*
X0099890Y0071189D03*
X0100835Y0071977D03*
X0101622Y0071229D03*
X0100914Y0070363D03*
X0102764Y0069693D03*
X0101977Y0068906D03*
X0105717Y0066347D03*
X0099181Y0065619D03*
X0103296Y0073985D03*
X0096847Y0078217D03*
X0095914Y0079300D03*
X0095583Y0076292D03*
X0094390Y0076493D03*
X0085205Y0069536D03*
X0084221Y0069772D03*
X0081229Y0070087D03*
X0080520Y0070756D03*
X0079851Y0071504D03*
X0079063Y0072489D03*
X0076150Y0071268D03*
X0075914Y0070205D03*
X0076111Y0069181D03*
X0076937Y0069969D03*
X0077646Y0069142D03*
X0076819Y0068237D03*
X0074851Y0069969D03*
X0074733Y0071111D03*
X0073591Y0070323D03*
X0075481Y0072456D03*
X0071574Y0075587D03*
X0070441Y0074339D03*
X0069181Y0073158D03*
X0066071Y0076386D03*
X0064209Y0076604D03*
X0062016Y0076583D03*
X0059408Y0076267D03*
X0063433Y0080087D03*
X0063433Y0081268D03*
X0065893Y0084011D03*
X0065323Y0084851D03*
X0063315Y0084181D03*
X0060244Y0084181D03*
X0069654Y0083433D03*
X0069654Y0081859D03*
X0071229Y0081859D03*
X0071229Y0083433D03*
X0072804Y0083433D03*
X0073827Y0084457D03*
X0072804Y0085008D03*
X0072804Y0086583D03*
X0074378Y0086583D03*
X0074378Y0088158D03*
X0072804Y0088158D03*
X0072804Y0089733D03*
X0071229Y0089733D03*
X0070441Y0088949D03*
X0069654Y0088158D03*
X0071229Y0088158D03*
X0071229Y0086583D03*
X0069654Y0086583D03*
X0069654Y0085008D03*
X0072804Y0081859D03*
X0074378Y0081859D03*
X0075166Y0082646D03*
X0075953Y0081859D03*
X0075953Y0083433D03*
X0077528Y0083433D03*
X0077922Y0084615D03*
X0079103Y0085008D03*
X0079103Y0083433D03*
X0079103Y0081859D03*
X0080678Y0081859D03*
X0082252Y0081859D03*
X0082252Y0083433D03*
X0080678Y0083433D03*
X0080678Y0085008D03*
X0082252Y0085008D03*
X0079103Y0086583D03*
X0077528Y0086583D03*
X0075953Y0086583D03*
X0075953Y0088158D03*
X0075953Y0089733D03*
X0077528Y0089733D03*
X0077528Y0092882D03*
X0079103Y0092882D03*
X0081859Y0092882D03*
X0087174Y0091662D03*
X0089536Y0086386D03*
X0093387Y0085440D03*
X0094378Y0086465D03*
X0082252Y0080284D03*
X0080678Y0080284D03*
X0079103Y0080284D03*
X0077528Y0080284D03*
X0075953Y0080284D03*
X0074378Y0080284D03*
X0072804Y0080284D03*
X0071229Y0080284D03*
X0070403Y0079340D03*
X0069654Y0080284D03*
X0068787Y0078119D03*
X0074378Y0078119D03*
X0077528Y0081859D03*
X0075953Y0085008D03*
X0075953Y0092882D03*
X0074378Y0092882D03*
X0071229Y0092882D03*
X0070205Y0095796D03*
X0068394Y0095835D03*
X0072567Y0095796D03*
X0074063Y0095874D03*
X0075717Y0095756D03*
X0081032Y0075363D03*
X0081898Y0075087D03*
X0083355Y0072804D03*
X0081189Y0064575D03*
X0078079Y0064536D03*
X0076307Y0064693D03*
X0072685Y0065166D03*
X0076268Y0061819D03*
X0078119Y0061189D03*
X0078512Y0059024D03*
X0076307Y0059260D03*
X0080323Y0060678D03*
X0081465Y0061977D03*
X0082056Y0059615D03*
X0080874Y0058827D03*
X0079141Y0047746D03*
X0079141Y0045778D03*
X0079141Y0043809D03*
X0079141Y0041841D03*
X0079141Y0039872D03*
X0079141Y0037904D03*
X0076583Y0037607D03*
X0076426Y0038799D03*
X0076545Y0041761D03*
X0076583Y0044024D03*
X0073238Y0042587D03*
X0070363Y0037331D03*
X0076583Y0033630D03*
X0078473Y0033670D03*
X0072307Y0030533D03*
X0071235Y0030493D03*
X0058956Y0026899D03*
X0055487Y0027553D03*
X0066268Y0046111D03*
X0089418Y0030835D03*
X0095244Y0032764D03*
D11*
X0087567Y0037370D03*
X0081700Y0035244D03*
X0070441Y0034615D03*
X0061583Y0032922D03*
X0059142Y0028709D03*
X0055008Y0042095D03*
X0053670Y0043276D03*
X0052449Y0044575D03*
X0051189Y0045796D03*
X0049890Y0047134D03*
X0048591Y0048355D03*
X0047528Y0049575D03*
X0059619Y0052214D03*
X0076662Y0052922D03*
X0085637Y0054042D03*
X0091504Y0052725D03*
X0103709Y0055835D03*
X0104457Y0070638D03*
X0095441Y0078119D03*
X0094142Y0079890D03*
X0097134Y0084063D03*
X0090048Y0076426D03*
X0082607Y0073985D03*
X0077213Y0073788D03*
X0066622Y0068985D03*
X0062489Y0067096D03*
X0056859Y0070087D03*
X0047134Y0067843D03*
X0037528Y0066032D03*
X0037607Y0073119D03*
X0038315Y0075244D03*
X0048709Y0080223D03*
X0086036Y0085087D03*
D12*
X0088237Y0077640D03*
X0044221Y0052725D03*
X0045559Y0037213D03*
X0050835Y0030914D03*
D13*
X0084024Y0040520D03*
X0086977Y0040520D03*
X0089930Y0040520D03*
X0089930Y0043473D03*
X0092882Y0043473D03*
X0092882Y0046426D03*
X0089930Y0046426D03*
X0089930Y0049378D03*
X0086977Y0049378D03*
X0086977Y0046426D03*
X0084024Y0046426D03*
X0084024Y0049378D03*
X0084024Y0043473D03*
X0086977Y0043473D03*
D14*
X0046386Y0034533D02*
X0045195Y0034533D01*
X0045509Y0034235D02*
X0046386Y0034235D01*
X0046386Y0034009D02*
X0046765Y0033630D01*
X0047300Y0033630D01*
X0047679Y0034009D01*
X0047679Y0034544D01*
X0047300Y0034923D01*
X0046765Y0034923D01*
X0046386Y0034544D01*
X0046386Y0034009D01*
X0046458Y0033936D02*
X0045823Y0033936D01*
X0046137Y0033638D02*
X0046757Y0033638D01*
X0046451Y0033339D02*
X0058842Y0033339D01*
X0058731Y0033229D02*
X0058731Y0032693D01*
X0059110Y0032314D01*
X0059646Y0032314D01*
X0060025Y0032693D01*
X0060025Y0033229D01*
X0059646Y0033608D01*
X0059110Y0033608D01*
X0058731Y0033229D01*
X0058731Y0033041D02*
X0046765Y0033041D01*
X0047079Y0032742D02*
X0058731Y0032742D01*
X0058981Y0032444D02*
X0047393Y0032444D01*
X0047707Y0032145D02*
X0094679Y0032145D01*
X0094294Y0031847D02*
X0048021Y0031847D01*
X0048335Y0031548D02*
X0093908Y0031548D01*
X0093522Y0031250D02*
X0088152Y0031250D01*
X0088119Y0031283D02*
X0087622Y0031283D01*
X0087271Y0030931D01*
X0087271Y0030434D01*
X0087622Y0030083D01*
X0088119Y0030083D01*
X0088471Y0030434D01*
X0088471Y0030931D01*
X0088119Y0031283D01*
X0088451Y0030951D02*
X0093137Y0030951D01*
X0092751Y0030652D02*
X0088471Y0030652D01*
X0088391Y0030354D02*
X0092365Y0030354D01*
X0091980Y0030055D02*
X0072745Y0030055D01*
X0072575Y0029886D02*
X0072954Y0030265D01*
X0072954Y0030801D01*
X0072575Y0031180D01*
X0072039Y0031180D01*
X0071751Y0030892D01*
X0071503Y0031140D01*
X0070967Y0031140D01*
X0070588Y0030761D01*
X0070588Y0030225D01*
X0070967Y0029846D01*
X0071503Y0029846D01*
X0071791Y0030134D01*
X0072039Y0029886D01*
X0072575Y0029886D01*
X0072954Y0030354D02*
X0087351Y0030354D01*
X0087271Y0030652D02*
X0072954Y0030652D01*
X0072804Y0030951D02*
X0087290Y0030951D01*
X0087589Y0031250D02*
X0048649Y0031250D01*
X0048745Y0031158D02*
X0043358Y0036279D01*
X0039112Y0042379D01*
X0036181Y0049209D01*
X0035557Y0052245D01*
X0035810Y0051993D01*
X0036346Y0051993D01*
X0036725Y0052372D01*
X0036725Y0052908D01*
X0036346Y0053286D01*
X0035810Y0053286D01*
X0035431Y0052908D01*
X0035431Y0052861D01*
X0034685Y0056489D01*
X0034685Y0063921D01*
X0036181Y0071201D01*
X0037654Y0074632D01*
X0037942Y0074343D01*
X0038689Y0074343D01*
X0039217Y0074871D01*
X0039217Y0075618D01*
X0038689Y0076146D01*
X0038303Y0076146D01*
X0039112Y0078031D01*
X0040244Y0079657D01*
X0040573Y0079328D01*
X0041109Y0079328D01*
X0041488Y0079707D01*
X0041488Y0080243D01*
X0041109Y0080622D01*
X0040916Y0080622D01*
X0043358Y0084131D01*
X0048745Y0089252D01*
X0055052Y0093183D01*
X0062022Y0095764D01*
X0069368Y0096890D01*
X0076791Y0096513D01*
X0083986Y0094651D01*
X0090659Y0091377D01*
X0096536Y0086828D01*
X0101377Y0081189D01*
X0104984Y0074691D01*
X0107209Y0067599D01*
X0107961Y0060205D01*
X0107209Y0052811D01*
X0107209Y0052811D01*
X0104984Y0045720D01*
X0104110Y0044145D01*
X0103741Y0044513D01*
X0103205Y0044513D01*
X0102826Y0044134D01*
X0102826Y0043599D01*
X0103205Y0043220D01*
X0103596Y0043220D01*
X0101377Y0039221D01*
X0096536Y0033582D01*
X0090659Y0029033D01*
X0083986Y0025760D01*
X0076791Y0023897D01*
X0069368Y0023520D01*
X0062022Y0024646D01*
X0055799Y0026951D01*
X0056134Y0027286D01*
X0056134Y0027821D01*
X0055755Y0028200D01*
X0055219Y0028200D01*
X0054840Y0027821D01*
X0054840Y0027359D01*
X0048745Y0031158D01*
X0049078Y0030951D02*
X0070778Y0030951D01*
X0070588Y0030652D02*
X0056813Y0030652D01*
X0056733Y0030733D02*
X0056197Y0030733D01*
X0055818Y0030354D01*
X0055143Y0030354D01*
X0055143Y0030355D02*
X0054764Y0030734D01*
X0054229Y0030734D01*
X0053850Y0030355D01*
X0053850Y0029819D01*
X0054229Y0029440D01*
X0054764Y0029440D01*
X0055143Y0029819D01*
X0055143Y0030355D01*
X0055143Y0030055D02*
X0055818Y0030055D01*
X0055818Y0029818D02*
X0055818Y0030354D01*
X0056116Y0030652D02*
X0054846Y0030652D01*
X0054147Y0030652D02*
X0052877Y0030652D01*
X0052796Y0030734D02*
X0052260Y0030734D01*
X0051881Y0030355D01*
X0051881Y0029819D01*
X0052260Y0029440D01*
X0052796Y0029440D01*
X0053175Y0029819D01*
X0053175Y0030355D01*
X0052796Y0030734D01*
X0053175Y0030354D02*
X0053850Y0030354D01*
X0053850Y0030055D02*
X0053175Y0030055D01*
X0053113Y0029757D02*
X0053912Y0029757D01*
X0054210Y0029458D02*
X0052814Y0029458D01*
X0052242Y0029458D02*
X0051472Y0029458D01*
X0051943Y0029757D02*
X0050993Y0029757D01*
X0050514Y0030055D02*
X0051881Y0030055D01*
X0051881Y0030354D02*
X0050036Y0030354D01*
X0049557Y0030652D02*
X0052179Y0030652D01*
X0051951Y0029160D02*
X0058319Y0029160D01*
X0058241Y0029082D02*
X0058241Y0028336D01*
X0058769Y0027808D01*
X0059515Y0027808D01*
X0060043Y0028336D01*
X0060043Y0029082D01*
X0059515Y0029610D01*
X0058769Y0029610D01*
X0058241Y0029082D01*
X0058241Y0028861D02*
X0052430Y0028861D01*
X0052909Y0028563D02*
X0058241Y0028563D01*
X0058312Y0028264D02*
X0053388Y0028264D01*
X0053867Y0027966D02*
X0054985Y0027966D01*
X0054840Y0027667D02*
X0054346Y0027667D01*
X0054825Y0027369D02*
X0054840Y0027369D01*
X0055919Y0027070D02*
X0062590Y0027070D01*
X0062590Y0026984D02*
X0062969Y0026605D01*
X0063505Y0026605D01*
X0063883Y0026984D01*
X0063883Y0027520D01*
X0063505Y0027899D01*
X0062969Y0027899D01*
X0062590Y0027520D01*
X0062590Y0026984D01*
X0062802Y0026772D02*
X0056281Y0026772D01*
X0056134Y0027369D02*
X0062590Y0027369D01*
X0062737Y0027667D02*
X0056134Y0027667D01*
X0055989Y0027966D02*
X0058611Y0027966D01*
X0059673Y0027966D02*
X0064846Y0027966D01*
X0064937Y0028057D02*
X0064558Y0027678D01*
X0064558Y0027142D01*
X0064937Y0026763D01*
X0065473Y0026763D01*
X0065852Y0027142D01*
X0065852Y0027678D01*
X0065473Y0028057D01*
X0064937Y0028057D01*
X0064558Y0027667D02*
X0063736Y0027667D01*
X0063883Y0027369D02*
X0064558Y0027369D01*
X0064630Y0027070D02*
X0063883Y0027070D01*
X0063671Y0026772D02*
X0064928Y0026772D01*
X0065482Y0026772D02*
X0068180Y0026772D01*
X0068205Y0026797D02*
X0067826Y0026418D01*
X0067826Y0025882D01*
X0068205Y0025503D01*
X0068741Y0025503D01*
X0069120Y0025882D01*
X0069120Y0026418D01*
X0068741Y0026797D01*
X0068205Y0026797D01*
X0067881Y0026473D02*
X0057087Y0026473D01*
X0057893Y0026175D02*
X0067826Y0026175D01*
X0067832Y0025876D02*
X0058699Y0025876D01*
X0059505Y0025578D02*
X0068130Y0025578D01*
X0068815Y0025578D02*
X0071592Y0025578D01*
X0071566Y0025552D02*
X0071566Y0025016D01*
X0071945Y0024637D01*
X0072481Y0024637D01*
X0072860Y0025016D01*
X0072860Y0025552D01*
X0072481Y0025931D01*
X0071945Y0025931D01*
X0071566Y0025552D01*
X0071566Y0025279D02*
X0060311Y0025279D01*
X0061117Y0024981D02*
X0071601Y0024981D01*
X0071900Y0024682D02*
X0061923Y0024682D01*
X0063732Y0024384D02*
X0075289Y0024384D01*
X0075410Y0024263D02*
X0075945Y0024263D01*
X0076324Y0024642D01*
X0076324Y0025178D01*
X0075945Y0025557D01*
X0075410Y0025557D01*
X0075031Y0025178D01*
X0075031Y0024642D01*
X0075410Y0024263D01*
X0075031Y0024682D02*
X0072526Y0024682D01*
X0072825Y0024981D02*
X0075031Y0024981D01*
X0075132Y0025279D02*
X0072860Y0025279D01*
X0072834Y0025578D02*
X0083283Y0025578D01*
X0084224Y0025876D02*
X0072535Y0025876D01*
X0071891Y0025876D02*
X0069114Y0025876D01*
X0069120Y0026175D02*
X0084832Y0026175D01*
X0085441Y0026473D02*
X0070774Y0026473D01*
X0070709Y0026409D02*
X0071088Y0026788D01*
X0071088Y0027323D01*
X0070709Y0027702D01*
X0070173Y0027702D01*
X0069794Y0027323D01*
X0069794Y0026788D01*
X0070173Y0026409D01*
X0070709Y0026409D01*
X0071072Y0026772D02*
X0081317Y0026772D01*
X0081361Y0026728D02*
X0081897Y0026728D01*
X0082276Y0027107D01*
X0082276Y0027643D01*
X0081897Y0028022D01*
X0081361Y0028022D01*
X0080982Y0027643D01*
X0080982Y0027107D01*
X0081361Y0026728D01*
X0081019Y0027070D02*
X0071088Y0027070D01*
X0071043Y0027369D02*
X0080982Y0027369D01*
X0081006Y0027667D02*
X0070744Y0027667D01*
X0070138Y0027667D02*
X0065852Y0027667D01*
X0065852Y0027369D02*
X0069840Y0027369D01*
X0069794Y0027070D02*
X0065780Y0027070D01*
X0065564Y0027966D02*
X0081305Y0027966D01*
X0081953Y0027966D02*
X0088484Y0027966D01*
X0089092Y0028264D02*
X0079669Y0028264D01*
X0079627Y0028222D02*
X0079978Y0028574D01*
X0079978Y0029071D01*
X0079627Y0029422D01*
X0079130Y0029422D01*
X0078778Y0029071D01*
X0078778Y0028574D01*
X0079130Y0028222D01*
X0079627Y0028222D01*
X0079968Y0028563D02*
X0089701Y0028563D01*
X0090309Y0028861D02*
X0079978Y0028861D01*
X0079889Y0029160D02*
X0090823Y0029160D01*
X0091209Y0029458D02*
X0063852Y0029458D01*
X0063789Y0029522D02*
X0063253Y0029522D01*
X0062874Y0029143D01*
X0062874Y0028607D01*
X0063253Y0028228D01*
X0063789Y0028228D01*
X0064168Y0028607D01*
X0064168Y0029143D01*
X0063789Y0029522D01*
X0064151Y0029160D02*
X0078868Y0029160D01*
X0078778Y0028861D02*
X0064168Y0028861D01*
X0064123Y0028563D02*
X0078789Y0028563D01*
X0079087Y0028264D02*
X0063825Y0028264D01*
X0063217Y0028264D02*
X0059972Y0028264D01*
X0060043Y0028563D02*
X0062918Y0028563D01*
X0062874Y0028861D02*
X0060043Y0028861D01*
X0059966Y0029160D02*
X0062891Y0029160D01*
X0063189Y0029458D02*
X0059667Y0029458D01*
X0058617Y0029458D02*
X0056752Y0029458D01*
X0056733Y0029439D02*
X0057112Y0029818D01*
X0057112Y0030354D01*
X0070588Y0030354D01*
X0070758Y0030055D02*
X0057112Y0030055D01*
X0057112Y0030354D02*
X0056733Y0030733D01*
X0057050Y0029757D02*
X0091594Y0029757D01*
X0087875Y0027667D02*
X0082251Y0027667D01*
X0082276Y0027369D02*
X0087266Y0027369D01*
X0086658Y0027070D02*
X0082239Y0027070D01*
X0081940Y0026772D02*
X0086049Y0026772D01*
X0082130Y0025279D02*
X0077542Y0025279D01*
X0077683Y0025138D02*
X0077304Y0025517D01*
X0076768Y0025517D01*
X0076389Y0025138D01*
X0076389Y0024603D01*
X0076768Y0024224D01*
X0077304Y0024224D01*
X0077683Y0024603D01*
X0077683Y0025138D01*
X0077683Y0024981D02*
X0080978Y0024981D01*
X0079825Y0024682D02*
X0077683Y0024682D01*
X0077464Y0024384D02*
X0078672Y0024384D01*
X0077519Y0024085D02*
X0065681Y0024085D01*
X0067629Y0023787D02*
X0074621Y0023787D01*
X0076066Y0024384D02*
X0076608Y0024384D01*
X0076389Y0024682D02*
X0076324Y0024682D01*
X0076324Y0024981D02*
X0076389Y0024981D01*
X0076530Y0025279D02*
X0076223Y0025279D01*
X0070109Y0026473D02*
X0069064Y0026473D01*
X0068766Y0026772D02*
X0069810Y0026772D01*
X0071712Y0030055D02*
X0071870Y0030055D01*
X0071811Y0030951D02*
X0071692Y0030951D01*
X0070815Y0033713D02*
X0071343Y0034241D01*
X0071343Y0034988D01*
X0070815Y0035516D01*
X0070068Y0035516D01*
X0069540Y0034988D01*
X0069540Y0034241D01*
X0070068Y0033713D01*
X0070815Y0033713D01*
X0071037Y0033936D02*
X0096840Y0033936D01*
X0097096Y0034235D02*
X0071336Y0034235D01*
X0071343Y0034533D02*
X0081137Y0034533D01*
X0081327Y0034343D02*
X0082073Y0034343D01*
X0082601Y0034871D01*
X0082601Y0035618D01*
X0082073Y0036146D01*
X0081327Y0036146D01*
X0080799Y0035618D01*
X0080799Y0034871D01*
X0081327Y0034343D01*
X0080838Y0034832D02*
X0071343Y0034832D01*
X0071200Y0035130D02*
X0080799Y0035130D01*
X0080799Y0035429D02*
X0070902Y0035429D01*
X0069981Y0035429D02*
X0044253Y0035429D01*
X0044567Y0035130D02*
X0069682Y0035130D01*
X0069540Y0034832D02*
X0047392Y0034832D01*
X0047679Y0034533D02*
X0069540Y0034533D01*
X0069547Y0034235D02*
X0047679Y0034235D01*
X0047607Y0033936D02*
X0069845Y0033936D01*
X0070095Y0036684D02*
X0070631Y0036684D01*
X0071010Y0037063D01*
X0071010Y0037599D01*
X0070631Y0037978D01*
X0070095Y0037978D01*
X0069716Y0037599D01*
X0069716Y0037063D01*
X0070095Y0036684D01*
X0069858Y0036921D02*
X0046323Y0036921D01*
X0046323Y0036897D02*
X0045876Y0036450D01*
X0045243Y0036450D01*
X0044796Y0036897D01*
X0044796Y0037529D01*
X0045243Y0037976D01*
X0045876Y0037976D01*
X0046323Y0037529D01*
X0046323Y0036897D01*
X0046323Y0037220D02*
X0069716Y0037220D01*
X0069716Y0037518D02*
X0046323Y0037518D01*
X0046035Y0037817D02*
X0069934Y0037817D01*
X0070792Y0037817D02*
X0075936Y0037817D01*
X0075936Y0037875D02*
X0075936Y0037339D01*
X0076315Y0036960D01*
X0076851Y0036960D01*
X0077230Y0037339D01*
X0077230Y0037875D01*
X0076851Y0038254D01*
X0076794Y0038254D01*
X0077072Y0038531D01*
X0077072Y0039067D01*
X0076694Y0039446D01*
X0076158Y0039446D01*
X0075779Y0039067D01*
X0075779Y0038531D01*
X0076158Y0038153D01*
X0076214Y0038153D01*
X0075936Y0037875D01*
X0076177Y0038115D02*
X0042080Y0038115D01*
X0042288Y0037817D02*
X0045084Y0037817D01*
X0044796Y0037518D02*
X0042496Y0037518D01*
X0042703Y0037220D02*
X0044796Y0037220D01*
X0044796Y0036921D02*
X0042911Y0036921D01*
X0043119Y0036623D02*
X0045070Y0036623D01*
X0046049Y0036623D02*
X0087041Y0036623D01*
X0087194Y0036469D02*
X0087941Y0036469D01*
X0088468Y0036997D01*
X0088468Y0037744D01*
X0087941Y0038272D01*
X0087194Y0038272D01*
X0086666Y0037744D01*
X0086666Y0036997D01*
X0087194Y0036469D01*
X0086742Y0036921D02*
X0070868Y0036921D01*
X0071010Y0037220D02*
X0076055Y0037220D01*
X0075936Y0037518D02*
X0071010Y0037518D01*
X0075779Y0038712D02*
X0041664Y0038712D01*
X0041457Y0039011D02*
X0075779Y0039011D01*
X0076021Y0039309D02*
X0041249Y0039309D01*
X0041041Y0039608D02*
X0078494Y0039608D01*
X0078494Y0039604D02*
X0078873Y0039225D01*
X0079409Y0039225D01*
X0079788Y0039604D01*
X0079788Y0040140D01*
X0079409Y0040519D01*
X0078873Y0040519D01*
X0078494Y0040140D01*
X0078494Y0039604D01*
X0078494Y0039906D02*
X0040833Y0039906D01*
X0040626Y0040205D02*
X0078559Y0040205D01*
X0078857Y0040503D02*
X0040418Y0040503D01*
X0040210Y0040802D02*
X0102254Y0040802D01*
X0102420Y0041100D02*
X0040002Y0041100D01*
X0039795Y0041399D02*
X0078668Y0041399D01*
X0078494Y0041573D02*
X0078873Y0041194D01*
X0079409Y0041194D01*
X0079788Y0041573D01*
X0079788Y0042108D01*
X0079409Y0042487D01*
X0078873Y0042487D01*
X0078494Y0042108D01*
X0078494Y0041573D01*
X0078494Y0041697D02*
X0039587Y0041697D01*
X0039379Y0041996D02*
X0061401Y0041996D01*
X0061433Y0041963D02*
X0061969Y0041963D01*
X0062348Y0042342D01*
X0062348Y0042878D01*
X0061969Y0043257D01*
X0061433Y0043257D01*
X0061054Y0042878D01*
X0061054Y0042342D01*
X0061433Y0041963D01*
X0061102Y0042294D02*
X0039171Y0042294D01*
X0039021Y0042593D02*
X0061054Y0042593D01*
X0061068Y0042891D02*
X0038892Y0042891D01*
X0038764Y0043190D02*
X0058133Y0043190D01*
X0058153Y0043169D02*
X0058689Y0043169D01*
X0059068Y0043548D01*
X0059068Y0044084D01*
X0058689Y0044463D01*
X0058153Y0044463D01*
X0057774Y0044084D01*
X0057774Y0043548D01*
X0058153Y0043169D01*
X0057834Y0043488D02*
X0038636Y0043488D01*
X0038508Y0043787D02*
X0057774Y0043787D01*
X0057776Y0044086D02*
X0038380Y0044086D01*
X0038252Y0044384D02*
X0058074Y0044384D01*
X0058768Y0044384D02*
X0061933Y0044384D01*
X0061920Y0044372D02*
X0061920Y0043836D01*
X0062299Y0043457D01*
X0062835Y0043457D01*
X0063214Y0043836D01*
X0063214Y0044372D01*
X0062835Y0044751D01*
X0062299Y0044751D01*
X0061920Y0044372D01*
X0061920Y0044086D02*
X0059067Y0044086D01*
X0059068Y0043787D02*
X0061969Y0043787D01*
X0062268Y0043488D02*
X0059008Y0043488D01*
X0058710Y0043190D02*
X0061366Y0043190D01*
X0062036Y0043190D02*
X0064244Y0043190D01*
X0064243Y0043190D02*
X0064243Y0042654D01*
X0064622Y0042275D01*
X0065158Y0042275D01*
X0065537Y0042654D01*
X0065537Y0043190D01*
X0078845Y0043190D01*
X0078873Y0043162D02*
X0079409Y0043162D01*
X0079788Y0043541D01*
X0079788Y0044077D01*
X0079409Y0044456D01*
X0078873Y0044456D01*
X0078494Y0044077D01*
X0078494Y0043541D01*
X0078873Y0043162D01*
X0078547Y0043488D02*
X0076962Y0043488D01*
X0076851Y0043377D02*
X0077230Y0043756D01*
X0077230Y0044292D01*
X0076851Y0044671D01*
X0076315Y0044671D01*
X0075936Y0044292D01*
X0075936Y0043756D01*
X0076315Y0043377D01*
X0076851Y0043377D01*
X0077230Y0043787D02*
X0078494Y0043787D01*
X0078503Y0044086D02*
X0077230Y0044086D01*
X0077138Y0044384D02*
X0078801Y0044384D01*
X0079481Y0044384D02*
X0096352Y0044384D01*
X0096352Y0044471D02*
X0096352Y0043935D01*
X0096730Y0043556D01*
X0097266Y0043556D01*
X0097645Y0043935D01*
X0097645Y0044471D01*
X0097266Y0044850D01*
X0096730Y0044850D01*
X0096352Y0044471D01*
X0096563Y0044683D02*
X0075419Y0044683D01*
X0075419Y0044583D02*
X0075040Y0044204D01*
X0074504Y0044204D01*
X0074125Y0044583D01*
X0074125Y0045119D01*
X0074504Y0045498D01*
X0075040Y0045498D01*
X0075419Y0045119D01*
X0075419Y0044583D01*
X0075220Y0044384D02*
X0076028Y0044384D01*
X0075936Y0044086D02*
X0063214Y0044086D01*
X0063202Y0044384D02*
X0063537Y0044384D01*
X0063559Y0044361D02*
X0064095Y0044361D01*
X0064474Y0044740D01*
X0064474Y0045276D01*
X0064095Y0045655D01*
X0063559Y0045655D01*
X0063180Y0045276D01*
X0063180Y0044740D01*
X0063559Y0044361D01*
X0063238Y0044683D02*
X0062903Y0044683D01*
X0063180Y0044981D02*
X0037996Y0044981D01*
X0038124Y0044683D02*
X0062231Y0044683D01*
X0063184Y0045280D02*
X0037868Y0045280D01*
X0037740Y0045578D02*
X0063482Y0045578D01*
X0064172Y0045578D02*
X0065886Y0045578D01*
X0066000Y0045464D02*
X0066536Y0045464D01*
X0066915Y0045843D01*
X0066915Y0046379D01*
X0066536Y0046757D01*
X0066000Y0046757D01*
X0065621Y0046379D01*
X0065621Y0045843D01*
X0066000Y0045464D01*
X0065621Y0045877D02*
X0037611Y0045877D01*
X0037483Y0046175D02*
X0065621Y0046175D01*
X0065716Y0046474D02*
X0037355Y0046474D01*
X0037227Y0046772D02*
X0069479Y0046772D01*
X0069583Y0046876D02*
X0069204Y0046497D01*
X0069204Y0045961D01*
X0069583Y0045582D01*
X0070119Y0045582D01*
X0070498Y0045961D01*
X0070498Y0046497D01*
X0070119Y0046876D01*
X0069583Y0046876D01*
X0069204Y0046474D02*
X0066820Y0046474D01*
X0066915Y0046175D02*
X0069204Y0046175D01*
X0069288Y0045877D02*
X0066915Y0045877D01*
X0066650Y0045578D02*
X0072840Y0045578D01*
X0072670Y0045408D02*
X0072670Y0044872D01*
X0073049Y0044493D01*
X0073584Y0044493D01*
X0073963Y0044872D01*
X0073963Y0045408D01*
X0073872Y0045499D01*
X0073906Y0045499D01*
X0074258Y0045850D01*
X0074258Y0046347D01*
X0073906Y0046699D01*
X0073409Y0046699D01*
X0073058Y0046347D01*
X0073058Y0045850D01*
X0073121Y0045787D01*
X0073049Y0045787D01*
X0072670Y0045408D01*
X0072670Y0045280D02*
X0064471Y0045280D01*
X0064474Y0044981D02*
X0072670Y0044981D01*
X0072859Y0044683D02*
X0064416Y0044683D01*
X0064118Y0044384D02*
X0074324Y0044384D01*
X0074125Y0044683D02*
X0073774Y0044683D01*
X0073963Y0044981D02*
X0074125Y0044981D01*
X0074286Y0045280D02*
X0073963Y0045280D01*
X0073986Y0045578D02*
X0078494Y0045578D01*
X0078494Y0045510D02*
X0078873Y0045131D01*
X0079409Y0045131D01*
X0079788Y0045510D01*
X0079788Y0046045D01*
X0079409Y0046424D01*
X0078873Y0046424D01*
X0078494Y0046045D01*
X0078494Y0045510D01*
X0078724Y0045280D02*
X0075258Y0045280D01*
X0075419Y0044981D02*
X0103018Y0044981D01*
X0103126Y0044873D02*
X0102747Y0045252D01*
X0102747Y0045788D01*
X0103126Y0046167D01*
X0103662Y0046167D01*
X0104041Y0045788D01*
X0104041Y0045252D01*
X0103662Y0044873D01*
X0103126Y0044873D01*
X0103076Y0044384D02*
X0097645Y0044384D01*
X0097645Y0044086D02*
X0102826Y0044086D01*
X0102826Y0043787D02*
X0097497Y0043787D01*
X0097433Y0044683D02*
X0104408Y0044683D01*
X0104574Y0044981D02*
X0103770Y0044981D01*
X0104041Y0045280D02*
X0104740Y0045280D01*
X0104905Y0045578D02*
X0104041Y0045578D01*
X0103952Y0045877D02*
X0105033Y0045877D01*
X0105127Y0046175D02*
X0097342Y0046175D01*
X0097342Y0046036D02*
X0097342Y0046572D01*
X0096963Y0046950D01*
X0096427Y0046950D01*
X0096048Y0046572D01*
X0096048Y0046036D01*
X0096427Y0045657D01*
X0096963Y0045657D01*
X0097342Y0046036D01*
X0097183Y0045877D02*
X0102836Y0045877D01*
X0102747Y0045578D02*
X0079788Y0045578D01*
X0079788Y0045877D02*
X0096208Y0045877D01*
X0096048Y0046175D02*
X0079658Y0046175D01*
X0079558Y0045280D02*
X0102747Y0045280D01*
X0103870Y0044384D02*
X0104242Y0044384D01*
X0103580Y0043190D02*
X0079437Y0043190D01*
X0079735Y0043488D02*
X0102936Y0043488D01*
X0103414Y0042891D02*
X0065537Y0042891D01*
X0065537Y0043190D02*
X0065158Y0043568D01*
X0064622Y0043568D01*
X0064243Y0043190D01*
X0064243Y0042891D02*
X0062335Y0042891D01*
X0062348Y0042593D02*
X0064304Y0042593D01*
X0064603Y0042294D02*
X0062300Y0042294D01*
X0062002Y0041996D02*
X0078494Y0041996D01*
X0078680Y0042294D02*
X0065178Y0042294D01*
X0065476Y0042593D02*
X0103248Y0042593D01*
X0103083Y0042294D02*
X0098499Y0042294D01*
X0098664Y0042130D02*
X0098285Y0042509D01*
X0097749Y0042509D01*
X0097370Y0042130D01*
X0097370Y0041594D01*
X0097749Y0041215D01*
X0098285Y0041215D01*
X0098664Y0041594D01*
X0098664Y0042130D01*
X0098664Y0041996D02*
X0102917Y0041996D01*
X0102751Y0041697D02*
X0098664Y0041697D01*
X0098468Y0041399D02*
X0102586Y0041399D01*
X0102089Y0040503D02*
X0097338Y0040503D01*
X0097322Y0040519D02*
X0096786Y0040519D01*
X0096407Y0040140D01*
X0096407Y0039604D01*
X0096786Y0039225D01*
X0097322Y0039225D01*
X0097701Y0039604D01*
X0097701Y0040140D01*
X0097322Y0040519D01*
X0097636Y0040205D02*
X0101923Y0040205D01*
X0101757Y0039906D02*
X0097701Y0039906D01*
X0097701Y0039608D02*
X0101591Y0039608D01*
X0101426Y0039309D02*
X0097406Y0039309D01*
X0096702Y0039309D02*
X0096255Y0039309D01*
X0096169Y0039395D02*
X0095633Y0039395D01*
X0095254Y0039016D01*
X0095254Y0038480D01*
X0095633Y0038102D01*
X0096169Y0038102D01*
X0096548Y0038480D01*
X0096548Y0039016D01*
X0096169Y0039395D01*
X0096407Y0039608D02*
X0079788Y0039608D01*
X0079788Y0039906D02*
X0096407Y0039906D01*
X0096472Y0040205D02*
X0079723Y0040205D01*
X0079424Y0040503D02*
X0096771Y0040503D01*
X0097565Y0041399D02*
X0079614Y0041399D01*
X0079788Y0041697D02*
X0097370Y0041697D01*
X0097370Y0041996D02*
X0079788Y0041996D01*
X0079602Y0042294D02*
X0097534Y0042294D01*
X0096499Y0043787D02*
X0079788Y0043787D01*
X0079779Y0044086D02*
X0096352Y0044086D01*
X0096048Y0046474D02*
X0074131Y0046474D01*
X0074258Y0046175D02*
X0078624Y0046175D01*
X0078494Y0045877D02*
X0074258Y0045877D01*
X0073058Y0045877D02*
X0072382Y0045877D01*
X0072466Y0045961D02*
X0072087Y0045582D01*
X0071551Y0045582D01*
X0071172Y0045961D01*
X0071172Y0046497D01*
X0071551Y0046876D01*
X0072087Y0046876D01*
X0072466Y0046497D01*
X0072466Y0045961D01*
X0072466Y0046175D02*
X0073058Y0046175D01*
X0073184Y0046474D02*
X0072466Y0046474D01*
X0072191Y0046772D02*
X0096249Y0046772D01*
X0097142Y0046772D02*
X0105314Y0046772D01*
X0105220Y0046474D02*
X0097342Y0046474D01*
X0096554Y0048141D02*
X0096933Y0048520D01*
X0096933Y0049056D01*
X0096554Y0049435D01*
X0096018Y0049435D01*
X0095639Y0049056D01*
X0095639Y0048520D01*
X0096018Y0048141D01*
X0096554Y0048141D01*
X0096677Y0048265D02*
X0104042Y0048265D01*
X0104042Y0048183D02*
X0104421Y0047804D01*
X0104957Y0047804D01*
X0105336Y0048183D01*
X0105336Y0048719D01*
X0104957Y0049098D01*
X0104421Y0049098D01*
X0104042Y0048719D01*
X0104042Y0048183D01*
X0104259Y0047966D02*
X0079788Y0047966D01*
X0079788Y0048014D02*
X0079409Y0048393D01*
X0078873Y0048393D01*
X0078494Y0048014D01*
X0078494Y0047478D01*
X0078873Y0047099D01*
X0079409Y0047099D01*
X0079788Y0047478D01*
X0079788Y0048014D01*
X0079788Y0047668D02*
X0105595Y0047668D01*
X0105689Y0047966D02*
X0105119Y0047966D01*
X0105336Y0048265D02*
X0105782Y0048265D01*
X0105876Y0048563D02*
X0105336Y0048563D01*
X0105193Y0048862D02*
X0105970Y0048862D01*
X0106063Y0049160D02*
X0096828Y0049160D01*
X0096933Y0048862D02*
X0104185Y0048862D01*
X0104042Y0048563D02*
X0096933Y0048563D01*
X0095894Y0048265D02*
X0079537Y0048265D01*
X0078745Y0048265D02*
X0036587Y0048265D01*
X0036459Y0048563D02*
X0095639Y0048563D01*
X0095639Y0048862D02*
X0036330Y0048862D01*
X0036202Y0049160D02*
X0095743Y0049160D01*
X0092405Y0052352D02*
X0091878Y0051824D01*
X0091131Y0051824D01*
X0090603Y0052352D01*
X0090603Y0053098D01*
X0091131Y0053626D01*
X0091878Y0053626D01*
X0092405Y0053098D01*
X0092405Y0052352D01*
X0092405Y0052444D02*
X0107094Y0052444D01*
X0107187Y0052742D02*
X0092405Y0052742D01*
X0092405Y0053041D02*
X0107232Y0053041D01*
X0107262Y0053339D02*
X0092164Y0053339D01*
X0092199Y0052145D02*
X0107000Y0052145D01*
X0106906Y0051847D02*
X0091901Y0051847D01*
X0091108Y0051847D02*
X0061892Y0051847D01*
X0061832Y0051907D02*
X0062183Y0051556D01*
X0062183Y0051059D01*
X0061832Y0050707D01*
X0061335Y0050707D01*
X0060983Y0051059D01*
X0060983Y0051556D01*
X0061335Y0051907D01*
X0061832Y0051907D01*
X0062183Y0051548D02*
X0106813Y0051548D01*
X0106719Y0051250D02*
X0062183Y0051250D01*
X0062075Y0050951D02*
X0106625Y0050951D01*
X0106532Y0050653D02*
X0035885Y0050653D01*
X0035823Y0050951D02*
X0061091Y0050951D01*
X0060983Y0051250D02*
X0035762Y0051250D01*
X0035701Y0051548D02*
X0052942Y0051548D01*
X0053047Y0051443D02*
X0053583Y0051443D01*
X0053962Y0051822D01*
X0053962Y0052358D01*
X0053583Y0052737D01*
X0053047Y0052737D01*
X0052669Y0052358D01*
X0052669Y0051822D01*
X0053047Y0051443D01*
X0052669Y0051847D02*
X0035639Y0051847D01*
X0035657Y0052145D02*
X0035578Y0052145D01*
X0035564Y0053041D02*
X0035394Y0053041D01*
X0035333Y0053339D02*
X0042039Y0053339D01*
X0042039Y0053544D02*
X0042039Y0053008D01*
X0042417Y0052629D01*
X0042953Y0052629D01*
X0043332Y0053008D01*
X0043332Y0053544D01*
X0042953Y0053923D01*
X0042417Y0053923D01*
X0042039Y0053544D01*
X0042133Y0053638D02*
X0035271Y0053638D01*
X0035210Y0053936D02*
X0049320Y0053936D01*
X0049201Y0053817D02*
X0049201Y0053281D01*
X0049579Y0052903D01*
X0050115Y0052903D01*
X0050494Y0053281D01*
X0050494Y0053817D01*
X0050115Y0054196D01*
X0049579Y0054196D01*
X0049201Y0053817D01*
X0049201Y0053638D02*
X0043238Y0053638D01*
X0043332Y0053339D02*
X0043756Y0053339D01*
X0043905Y0053488D02*
X0043457Y0053041D01*
X0043457Y0052409D01*
X0043905Y0051961D01*
X0044537Y0051961D01*
X0044984Y0052409D01*
X0044984Y0053041D01*
X0044537Y0053488D01*
X0043905Y0053488D01*
X0043457Y0053041D02*
X0043332Y0053041D01*
X0043457Y0052742D02*
X0043067Y0052742D01*
X0043457Y0052444D02*
X0036725Y0052444D01*
X0036725Y0052742D02*
X0042304Y0052742D01*
X0042039Y0053041D02*
X0036591Y0053041D01*
X0036498Y0052145D02*
X0043721Y0052145D01*
X0044721Y0052145D02*
X0052669Y0052145D01*
X0052754Y0052444D02*
X0052216Y0052444D01*
X0052375Y0052603D02*
X0051996Y0052224D01*
X0051460Y0052224D01*
X0051081Y0052603D01*
X0051081Y0053139D01*
X0051460Y0053518D01*
X0051996Y0053518D01*
X0052375Y0053139D01*
X0052375Y0052603D01*
X0052375Y0052742D02*
X0058873Y0052742D01*
X0058718Y0052587D02*
X0058718Y0051841D01*
X0059246Y0051313D01*
X0059992Y0051313D01*
X0060520Y0051841D01*
X0060520Y0052587D01*
X0059992Y0053115D01*
X0059246Y0053115D01*
X0058718Y0052587D01*
X0058718Y0052444D02*
X0053876Y0052444D01*
X0053962Y0052145D02*
X0058718Y0052145D01*
X0058718Y0051847D02*
X0053962Y0051847D01*
X0053688Y0051548D02*
X0059011Y0051548D01*
X0060228Y0051548D02*
X0060983Y0051548D01*
X0061274Y0051847D02*
X0060520Y0051847D01*
X0060520Y0052145D02*
X0076164Y0052145D01*
X0076289Y0052020D02*
X0077035Y0052020D01*
X0077563Y0052548D01*
X0077563Y0053295D01*
X0077035Y0053823D01*
X0076289Y0053823D01*
X0075761Y0053295D01*
X0075761Y0052548D01*
X0076289Y0052020D01*
X0075865Y0052444D02*
X0060520Y0052444D01*
X0060365Y0052742D02*
X0075761Y0052742D01*
X0075761Y0053041D02*
X0060067Y0053041D01*
X0059171Y0053041D02*
X0052375Y0053041D01*
X0052175Y0053339D02*
X0075805Y0053339D01*
X0076104Y0053638D02*
X0050494Y0053638D01*
X0050494Y0053339D02*
X0051282Y0053339D01*
X0051081Y0053041D02*
X0050254Y0053041D01*
X0049441Y0053041D02*
X0044984Y0053041D01*
X0044984Y0052742D02*
X0051081Y0052742D01*
X0051241Y0052444D02*
X0044984Y0052444D01*
X0044686Y0053339D02*
X0049201Y0053339D01*
X0050375Y0053936D02*
X0081091Y0053936D01*
X0081053Y0053974D02*
X0081432Y0053595D01*
X0081968Y0053595D01*
X0082347Y0053974D01*
X0082347Y0054510D01*
X0081968Y0054889D01*
X0081432Y0054889D01*
X0081053Y0054510D01*
X0081053Y0053974D01*
X0081053Y0054235D02*
X0035149Y0054235D01*
X0035087Y0054533D02*
X0081077Y0054533D01*
X0081375Y0054832D02*
X0035026Y0054832D01*
X0034964Y0055130D02*
X0103113Y0055130D01*
X0103126Y0055143D02*
X0102747Y0054764D01*
X0102747Y0054229D01*
X0103126Y0053850D01*
X0103662Y0053850D01*
X0104041Y0054229D01*
X0104041Y0054764D01*
X0103662Y0055143D01*
X0103126Y0055143D01*
X0102815Y0054832D02*
X0086122Y0054832D01*
X0086010Y0054944D02*
X0085264Y0054944D01*
X0084736Y0054416D01*
X0084736Y0053669D01*
X0085264Y0053141D01*
X0086010Y0053141D01*
X0086538Y0053669D01*
X0086538Y0054416D01*
X0086010Y0054944D01*
X0086420Y0054533D02*
X0102747Y0054533D01*
X0102747Y0054235D02*
X0086538Y0054235D01*
X0086538Y0053936D02*
X0103039Y0053936D01*
X0103749Y0053936D02*
X0107323Y0053936D01*
X0107293Y0053638D02*
X0086507Y0053638D01*
X0086208Y0053339D02*
X0090844Y0053339D01*
X0090603Y0053041D02*
X0077563Y0053041D01*
X0077563Y0052742D02*
X0090603Y0052742D01*
X0090603Y0052444D02*
X0077458Y0052444D01*
X0077160Y0052145D02*
X0090809Y0052145D01*
X0085066Y0053339D02*
X0077519Y0053339D01*
X0077220Y0053638D02*
X0081389Y0053638D01*
X0082011Y0053638D02*
X0083358Y0053638D01*
X0083401Y0053595D02*
X0083936Y0053595D01*
X0084315Y0053974D01*
X0084315Y0054510D01*
X0083936Y0054889D01*
X0083401Y0054889D01*
X0083022Y0054510D01*
X0083022Y0053974D01*
X0083401Y0053595D01*
X0083059Y0053936D02*
X0082309Y0053936D01*
X0082347Y0054235D02*
X0083022Y0054235D01*
X0083045Y0054533D02*
X0082323Y0054533D01*
X0082025Y0054832D02*
X0083344Y0054832D01*
X0083993Y0054832D02*
X0085152Y0054832D01*
X0084854Y0054533D02*
X0084292Y0054533D01*
X0084315Y0054235D02*
X0084736Y0054235D01*
X0084736Y0053936D02*
X0084278Y0053936D01*
X0083979Y0053638D02*
X0084767Y0053638D01*
X0079679Y0047369D02*
X0105501Y0047369D01*
X0105408Y0047071D02*
X0037099Y0047071D01*
X0036971Y0047369D02*
X0078603Y0047369D01*
X0078494Y0047668D02*
X0036843Y0047668D01*
X0036715Y0047966D02*
X0078494Y0047966D01*
X0075936Y0043787D02*
X0063165Y0043787D01*
X0062867Y0043488D02*
X0064542Y0043488D01*
X0065238Y0043488D02*
X0076204Y0043488D01*
X0076830Y0039309D02*
X0078789Y0039309D01*
X0079493Y0039309D02*
X0095547Y0039309D01*
X0095254Y0039011D02*
X0077072Y0039011D01*
X0077072Y0038712D02*
X0095254Y0038712D01*
X0095321Y0038414D02*
X0079545Y0038414D01*
X0079409Y0038550D02*
X0078873Y0038550D01*
X0078494Y0038171D01*
X0078494Y0037636D01*
X0078873Y0037257D01*
X0079409Y0037257D01*
X0079788Y0037636D01*
X0079788Y0038171D01*
X0079409Y0038550D01*
X0079788Y0038115D02*
X0087038Y0038115D01*
X0086739Y0037817D02*
X0079788Y0037817D01*
X0079670Y0037518D02*
X0086666Y0037518D01*
X0086666Y0037220D02*
X0077111Y0037220D01*
X0077230Y0037518D02*
X0078611Y0037518D01*
X0078494Y0037817D02*
X0077230Y0037817D01*
X0076989Y0038115D02*
X0078494Y0038115D01*
X0078736Y0038414D02*
X0076955Y0038414D01*
X0075896Y0038414D02*
X0041872Y0038414D01*
X0043327Y0036324D02*
X0088337Y0036324D01*
X0088337Y0036400D02*
X0088337Y0035864D01*
X0088716Y0035485D01*
X0089251Y0035485D01*
X0089630Y0035864D01*
X0089630Y0036400D01*
X0089251Y0036779D01*
X0088716Y0036779D01*
X0088337Y0036400D01*
X0088560Y0036623D02*
X0088094Y0036623D01*
X0088393Y0036921D02*
X0092992Y0036921D01*
X0092864Y0036794D02*
X0093243Y0037172D01*
X0093779Y0037172D01*
X0094158Y0036794D01*
X0094158Y0036258D01*
X0093779Y0035879D01*
X0093243Y0035879D01*
X0092864Y0036258D01*
X0092864Y0036794D01*
X0092864Y0036623D02*
X0089407Y0036623D01*
X0089630Y0036324D02*
X0092864Y0036324D01*
X0093096Y0036026D02*
X0089630Y0036026D01*
X0089494Y0035727D02*
X0091010Y0035727D01*
X0090896Y0035612D02*
X0090896Y0035077D01*
X0091275Y0034698D01*
X0091810Y0034698D01*
X0092189Y0035077D01*
X0092189Y0035612D01*
X0091810Y0035991D01*
X0091275Y0035991D01*
X0090896Y0035612D01*
X0090896Y0035429D02*
X0086284Y0035429D01*
X0086284Y0035612D02*
X0085905Y0035991D01*
X0085369Y0035991D01*
X0084990Y0035612D01*
X0084990Y0035077D01*
X0085369Y0034698D01*
X0085905Y0034698D01*
X0086284Y0035077D01*
X0086284Y0035612D01*
X0086169Y0035727D02*
X0088473Y0035727D01*
X0088337Y0036026D02*
X0082193Y0036026D01*
X0082492Y0035727D02*
X0083136Y0035727D01*
X0083022Y0035612D02*
X0083022Y0035077D01*
X0083401Y0034698D01*
X0083936Y0034698D01*
X0084315Y0035077D01*
X0084315Y0035612D01*
X0083936Y0035991D01*
X0083401Y0035991D01*
X0083022Y0035612D01*
X0083022Y0035429D02*
X0082601Y0035429D01*
X0082601Y0035130D02*
X0083022Y0035130D01*
X0083267Y0034832D02*
X0082562Y0034832D01*
X0082263Y0034533D02*
X0097352Y0034533D01*
X0097609Y0034832D02*
X0091944Y0034832D01*
X0092189Y0035130D02*
X0097865Y0035130D01*
X0098121Y0035429D02*
X0092189Y0035429D01*
X0092075Y0035727D02*
X0098377Y0035727D01*
X0098634Y0036026D02*
X0093926Y0036026D01*
X0094158Y0036324D02*
X0098890Y0036324D01*
X0099146Y0036623D02*
X0094158Y0036623D01*
X0094030Y0036921D02*
X0094408Y0036921D01*
X0094460Y0036869D02*
X0094996Y0036869D01*
X0095374Y0037248D01*
X0095374Y0037784D01*
X0094996Y0038163D01*
X0094460Y0038163D01*
X0094081Y0037784D01*
X0094081Y0037248D01*
X0094460Y0036869D01*
X0094109Y0037220D02*
X0088468Y0037220D01*
X0088468Y0037518D02*
X0094081Y0037518D01*
X0094113Y0037817D02*
X0088395Y0037817D01*
X0088097Y0038115D02*
X0094412Y0038115D01*
X0095043Y0038115D02*
X0095619Y0038115D01*
X0095342Y0037817D02*
X0100171Y0037817D01*
X0100427Y0038115D02*
X0096182Y0038115D01*
X0096481Y0038414D02*
X0100684Y0038414D01*
X0100940Y0038712D02*
X0096548Y0038712D01*
X0096548Y0039011D02*
X0101196Y0039011D01*
X0099915Y0037518D02*
X0095374Y0037518D01*
X0095346Y0037220D02*
X0099659Y0037220D01*
X0099402Y0036921D02*
X0095048Y0036921D01*
X0091141Y0034832D02*
X0086039Y0034832D01*
X0086284Y0035130D02*
X0090896Y0035130D01*
X0095065Y0032444D02*
X0059776Y0032444D01*
X0060025Y0032742D02*
X0095451Y0032742D01*
X0095836Y0033041D02*
X0060025Y0033041D01*
X0059915Y0033339D02*
X0096222Y0033339D01*
X0096583Y0033638D02*
X0047308Y0033638D01*
X0046673Y0034832D02*
X0044881Y0034832D01*
X0043939Y0035727D02*
X0080908Y0035727D01*
X0081207Y0036026D02*
X0043625Y0036026D01*
X0054783Y0029458D02*
X0056178Y0029458D01*
X0056197Y0029439D02*
X0056733Y0029439D01*
X0056197Y0029439D02*
X0055818Y0029818D01*
X0055879Y0029757D02*
X0055081Y0029757D01*
X0070413Y0045877D02*
X0071257Y0045877D01*
X0071172Y0046175D02*
X0070498Y0046175D01*
X0070498Y0046474D02*
X0071172Y0046474D01*
X0071448Y0046772D02*
X0070222Y0046772D01*
X0084201Y0035727D02*
X0085105Y0035727D01*
X0084990Y0035429D02*
X0084315Y0035429D01*
X0084315Y0035130D02*
X0084990Y0035130D01*
X0085235Y0034832D02*
X0084070Y0034832D01*
X0106157Y0049459D02*
X0036130Y0049459D01*
X0036069Y0049757D02*
X0106251Y0049757D01*
X0106344Y0050056D02*
X0036007Y0050056D01*
X0035946Y0050354D02*
X0106438Y0050354D01*
X0107354Y0054235D02*
X0104041Y0054235D01*
X0104041Y0054533D02*
X0107384Y0054533D01*
X0107414Y0054832D02*
X0103973Y0054832D01*
X0103675Y0055130D02*
X0107445Y0055130D01*
X0107475Y0055429D02*
X0034903Y0055429D01*
X0034842Y0055727D02*
X0107505Y0055727D01*
X0107536Y0056026D02*
X0034780Y0056026D01*
X0034719Y0056324D02*
X0107566Y0056324D01*
X0107596Y0056623D02*
X0034685Y0056623D01*
X0034685Y0056921D02*
X0107627Y0056921D01*
X0107657Y0057220D02*
X0034685Y0057220D01*
X0034685Y0057519D02*
X0107687Y0057519D01*
X0107718Y0057817D02*
X0034685Y0057817D01*
X0034685Y0058116D02*
X0107748Y0058116D01*
X0107779Y0058414D02*
X0034685Y0058414D01*
X0034685Y0058713D02*
X0107809Y0058713D01*
X0107839Y0059011D02*
X0034685Y0059011D01*
X0034685Y0059310D02*
X0107870Y0059310D01*
X0107900Y0059608D02*
X0034685Y0059608D01*
X0034685Y0059907D02*
X0107930Y0059907D01*
X0107961Y0060205D02*
X0034685Y0060205D01*
X0034685Y0060504D02*
X0107930Y0060504D01*
X0107900Y0060802D02*
X0034685Y0060802D01*
X0034685Y0061101D02*
X0107870Y0061101D01*
X0107839Y0061399D02*
X0034685Y0061399D01*
X0034685Y0061698D02*
X0107809Y0061698D01*
X0107778Y0061996D02*
X0034685Y0061996D01*
X0034685Y0062295D02*
X0107748Y0062295D01*
X0107718Y0062593D02*
X0034685Y0062593D01*
X0034685Y0062892D02*
X0107687Y0062892D01*
X0107657Y0063190D02*
X0034685Y0063190D01*
X0034685Y0063489D02*
X0107627Y0063489D01*
X0107596Y0063787D02*
X0034685Y0063787D01*
X0034719Y0064086D02*
X0107566Y0064086D01*
X0107536Y0064384D02*
X0034780Y0064384D01*
X0034842Y0064683D02*
X0107505Y0064683D01*
X0107475Y0064981D02*
X0099459Y0064981D01*
X0099449Y0064972D02*
X0099828Y0065351D01*
X0099828Y0065886D01*
X0099449Y0066265D01*
X0098914Y0066265D01*
X0098535Y0065886D01*
X0098535Y0065351D01*
X0098914Y0064972D01*
X0099449Y0064972D01*
X0099758Y0065280D02*
X0107445Y0065280D01*
X0107414Y0065578D02*
X0099828Y0065578D01*
X0099828Y0065877D02*
X0107384Y0065877D01*
X0107354Y0066175D02*
X0099539Y0066175D01*
X0098824Y0066175D02*
X0038429Y0066175D01*
X0038429Y0066405D02*
X0037901Y0066933D01*
X0037155Y0066933D01*
X0036627Y0066405D01*
X0036627Y0065659D01*
X0037155Y0065131D01*
X0037901Y0065131D01*
X0038429Y0065659D01*
X0038429Y0066405D01*
X0038360Y0066474D02*
X0061836Y0066474D01*
X0061587Y0066723D02*
X0062115Y0066195D01*
X0062862Y0066195D01*
X0063390Y0066723D01*
X0063390Y0067469D01*
X0062862Y0067997D01*
X0062115Y0067997D01*
X0061587Y0067469D01*
X0061587Y0066723D01*
X0061587Y0066772D02*
X0038062Y0066772D01*
X0038429Y0065877D02*
X0098535Y0065877D01*
X0098535Y0065578D02*
X0038349Y0065578D01*
X0038050Y0065280D02*
X0098605Y0065280D01*
X0098904Y0064981D02*
X0034903Y0064981D01*
X0034964Y0065280D02*
X0037006Y0065280D01*
X0036707Y0065578D02*
X0035026Y0065578D01*
X0035087Y0065877D02*
X0036627Y0065877D01*
X0036627Y0066175D02*
X0035149Y0066175D01*
X0035210Y0066474D02*
X0036695Y0066474D01*
X0036994Y0066772D02*
X0035271Y0066772D01*
X0035333Y0067071D02*
X0046632Y0067071D01*
X0046761Y0066942D02*
X0047508Y0066942D01*
X0048035Y0067470D01*
X0048035Y0068216D01*
X0047508Y0068744D01*
X0046761Y0068744D01*
X0046233Y0068216D01*
X0046233Y0067470D01*
X0046761Y0066942D01*
X0046333Y0067369D02*
X0035394Y0067369D01*
X0035455Y0067668D02*
X0046233Y0067668D01*
X0046233Y0067966D02*
X0041716Y0067966D01*
X0041876Y0068126D02*
X0041497Y0067747D01*
X0040961Y0067747D01*
X0040582Y0068126D01*
X0040582Y0068662D01*
X0040961Y0069041D01*
X0041497Y0069041D01*
X0041876Y0068662D01*
X0041876Y0068126D01*
X0041876Y0068265D02*
X0046282Y0068265D01*
X0046580Y0068563D02*
X0041876Y0068563D01*
X0041676Y0068862D02*
X0065721Y0068862D01*
X0065721Y0068611D02*
X0066249Y0068083D01*
X0066996Y0068083D01*
X0067524Y0068611D01*
X0067524Y0069358D01*
X0066996Y0069886D01*
X0066249Y0069886D01*
X0065721Y0069358D01*
X0065721Y0068611D01*
X0065769Y0068563D02*
X0047688Y0068563D01*
X0047987Y0068265D02*
X0066068Y0068265D01*
X0065721Y0069160D02*
X0035762Y0069160D01*
X0035701Y0068862D02*
X0040782Y0068862D01*
X0040582Y0068563D02*
X0035639Y0068563D01*
X0035578Y0068265D02*
X0040582Y0068265D01*
X0040742Y0067966D02*
X0035517Y0067966D01*
X0035823Y0069459D02*
X0056212Y0069459D01*
X0055957Y0069714D02*
X0056485Y0069186D01*
X0057232Y0069186D01*
X0057760Y0069714D01*
X0057760Y0070460D01*
X0057232Y0070988D01*
X0056485Y0070988D01*
X0055957Y0070460D01*
X0055957Y0069714D01*
X0055957Y0069757D02*
X0035885Y0069757D01*
X0035946Y0070056D02*
X0055957Y0070056D01*
X0055957Y0070355D02*
X0036007Y0070355D01*
X0036069Y0070653D02*
X0056150Y0070653D01*
X0056449Y0070952D02*
X0036130Y0070952D01*
X0036202Y0071250D02*
X0103794Y0071250D01*
X0103556Y0071011D02*
X0103556Y0070265D01*
X0104084Y0069737D01*
X0104830Y0069737D01*
X0105358Y0070265D01*
X0105358Y0071011D01*
X0104830Y0071539D01*
X0104084Y0071539D01*
X0103556Y0071011D01*
X0103556Y0070952D02*
X0057269Y0070952D01*
X0057567Y0070653D02*
X0103556Y0070653D01*
X0103556Y0070355D02*
X0057760Y0070355D01*
X0057760Y0070056D02*
X0103765Y0070056D01*
X0104063Y0069757D02*
X0067124Y0069757D01*
X0067423Y0069459D02*
X0106625Y0069459D01*
X0106532Y0069757D02*
X0104851Y0069757D01*
X0105149Y0070056D02*
X0106438Y0070056D01*
X0106344Y0070355D02*
X0105358Y0070355D01*
X0105358Y0070653D02*
X0106251Y0070653D01*
X0106157Y0070952D02*
X0105358Y0070952D01*
X0105120Y0071250D02*
X0106063Y0071250D01*
X0105970Y0071549D02*
X0036330Y0071549D01*
X0036459Y0071847D02*
X0105876Y0071847D01*
X0105782Y0072146D02*
X0036587Y0072146D01*
X0036715Y0072444D02*
X0105689Y0072444D01*
X0105595Y0072743D02*
X0036843Y0072743D01*
X0036971Y0073041D02*
X0076685Y0073041D01*
X0076840Y0072887D02*
X0077586Y0072887D01*
X0078114Y0073415D01*
X0078114Y0074161D01*
X0077586Y0074689D01*
X0076840Y0074689D01*
X0076312Y0074161D01*
X0076312Y0073415D01*
X0076840Y0072887D01*
X0076387Y0073340D02*
X0037099Y0073340D01*
X0037227Y0073638D02*
X0076312Y0073638D01*
X0076312Y0073937D02*
X0037355Y0073937D01*
X0037483Y0074235D02*
X0042819Y0074235D01*
X0042708Y0074347D02*
X0043087Y0073968D01*
X0043623Y0073968D01*
X0044002Y0074347D01*
X0044002Y0074882D01*
X0043623Y0075261D01*
X0043087Y0075261D01*
X0042708Y0074882D01*
X0042708Y0074347D01*
X0042708Y0074534D02*
X0038879Y0074534D01*
X0039177Y0074832D02*
X0042708Y0074832D01*
X0042956Y0075131D02*
X0039217Y0075131D01*
X0039217Y0075429D02*
X0070928Y0075429D01*
X0070928Y0075319D02*
X0071306Y0074940D01*
X0071842Y0074940D01*
X0072221Y0075319D01*
X0072221Y0075855D01*
X0071842Y0076234D01*
X0071306Y0076234D01*
X0070928Y0075855D01*
X0070928Y0075319D01*
X0071116Y0075131D02*
X0043753Y0075131D01*
X0044002Y0074832D02*
X0082180Y0074832D01*
X0082233Y0074886D02*
X0081706Y0074358D01*
X0081706Y0073611D01*
X0082233Y0073083D01*
X0082980Y0073083D01*
X0083508Y0073611D01*
X0083508Y0074358D01*
X0082980Y0074886D01*
X0082233Y0074886D01*
X0081881Y0074534D02*
X0077742Y0074534D01*
X0078040Y0074235D02*
X0081706Y0074235D01*
X0081706Y0073937D02*
X0078114Y0073937D01*
X0078114Y0073638D02*
X0081706Y0073638D01*
X0081977Y0073340D02*
X0078039Y0073340D01*
X0077741Y0073041D02*
X0093784Y0073041D01*
X0093960Y0072865D02*
X0094496Y0072865D01*
X0094875Y0073244D01*
X0094875Y0073780D01*
X0094496Y0074159D01*
X0093960Y0074159D01*
X0093581Y0073780D01*
X0093581Y0073244D01*
X0093960Y0072865D01*
X0093581Y0073340D02*
X0083236Y0073340D01*
X0083508Y0073638D02*
X0093581Y0073638D01*
X0093738Y0073937D02*
X0083508Y0073937D01*
X0083508Y0074235D02*
X0102649Y0074235D01*
X0102649Y0074253D02*
X0102649Y0073717D01*
X0103028Y0073338D01*
X0103564Y0073338D01*
X0103943Y0073717D01*
X0103943Y0074253D01*
X0103564Y0074631D01*
X0103028Y0074631D01*
X0102649Y0074253D01*
X0102649Y0073937D02*
X0094718Y0073937D01*
X0094875Y0073638D02*
X0102727Y0073638D01*
X0103026Y0073340D02*
X0094875Y0073340D01*
X0094672Y0073041D02*
X0105501Y0073041D01*
X0105408Y0073340D02*
X0103565Y0073340D01*
X0103864Y0073638D02*
X0105314Y0073638D01*
X0105220Y0073937D02*
X0103943Y0073937D01*
X0103943Y0074235D02*
X0105127Y0074235D01*
X0105033Y0074534D02*
X0103661Y0074534D01*
X0102930Y0074534D02*
X0092934Y0074534D01*
X0092858Y0074457D02*
X0093237Y0074836D01*
X0093237Y0075372D01*
X0092858Y0075751D01*
X0092322Y0075751D01*
X0092224Y0075653D01*
X0092224Y0076103D01*
X0091845Y0076482D01*
X0091309Y0076482D01*
X0090949Y0076122D01*
X0090949Y0076799D01*
X0090421Y0077327D01*
X0089674Y0077327D01*
X0089146Y0076799D01*
X0089146Y0076052D01*
X0089674Y0075524D01*
X0090421Y0075524D01*
X0090930Y0076033D01*
X0090930Y0075567D01*
X0091309Y0075188D01*
X0091845Y0075188D01*
X0091943Y0075286D01*
X0091943Y0074836D01*
X0092322Y0074457D01*
X0092858Y0074457D01*
X0093232Y0074832D02*
X0104905Y0074832D01*
X0104739Y0075131D02*
X0100416Y0075131D01*
X0100531Y0075246D02*
X0100152Y0074867D01*
X0099616Y0074867D01*
X0099237Y0075246D01*
X0099237Y0075782D01*
X0099616Y0076161D01*
X0100152Y0076161D01*
X0100531Y0075782D01*
X0100531Y0075246D01*
X0100531Y0075429D02*
X0104574Y0075429D01*
X0104408Y0075728D02*
X0100531Y0075728D01*
X0100286Y0076026D02*
X0104242Y0076026D01*
X0104077Y0076325D02*
X0092002Y0076325D01*
X0092224Y0076026D02*
X0099482Y0076026D01*
X0099237Y0075728D02*
X0092881Y0075728D01*
X0093180Y0075429D02*
X0099237Y0075429D01*
X0099352Y0075131D02*
X0093237Y0075131D01*
X0092298Y0075728D02*
X0092224Y0075728D01*
X0091943Y0075131D02*
X0072033Y0075131D01*
X0072221Y0075429D02*
X0091068Y0075429D01*
X0090930Y0075728D02*
X0090624Y0075728D01*
X0090923Y0076026D02*
X0090930Y0076026D01*
X0090949Y0076325D02*
X0091152Y0076325D01*
X0090949Y0076623D02*
X0103911Y0076623D01*
X0103745Y0076922D02*
X0090826Y0076922D01*
X0090527Y0077220D02*
X0095065Y0077220D01*
X0095068Y0077217D02*
X0095815Y0077217D01*
X0096343Y0077745D01*
X0096343Y0077806D01*
X0096579Y0077570D01*
X0097115Y0077570D01*
X0097494Y0077949D01*
X0097494Y0078485D01*
X0097115Y0078864D01*
X0096579Y0078864D01*
X0096275Y0078560D01*
X0095815Y0079020D01*
X0095068Y0079020D01*
X0094540Y0078492D01*
X0094540Y0077745D01*
X0095068Y0077217D01*
X0094767Y0077519D02*
X0089000Y0077519D01*
X0089000Y0077324D02*
X0088553Y0076876D01*
X0087920Y0076876D01*
X0087473Y0077324D01*
X0087473Y0077956D01*
X0087920Y0078403D01*
X0088553Y0078403D01*
X0089000Y0077956D01*
X0089000Y0077324D01*
X0088897Y0077220D02*
X0089568Y0077220D01*
X0089269Y0076922D02*
X0088598Y0076922D01*
X0089146Y0076623D02*
X0066718Y0076623D01*
X0066718Y0076654D02*
X0066339Y0077033D01*
X0065803Y0077033D01*
X0065424Y0076654D01*
X0065424Y0076118D01*
X0065803Y0075739D01*
X0066339Y0075739D01*
X0066718Y0076118D01*
X0066718Y0076654D01*
X0066718Y0076325D02*
X0089146Y0076325D01*
X0089173Y0076026D02*
X0072050Y0076026D01*
X0072221Y0075728D02*
X0089471Y0075728D01*
X0087875Y0076922D02*
X0066450Y0076922D01*
X0065692Y0076922D02*
X0064806Y0076922D01*
X0064856Y0076872D02*
X0064477Y0077251D01*
X0063941Y0077251D01*
X0063562Y0076872D01*
X0063562Y0076336D01*
X0063941Y0075957D01*
X0064477Y0075957D01*
X0064856Y0076336D01*
X0064856Y0076872D01*
X0064856Y0076623D02*
X0065424Y0076623D01*
X0065424Y0076325D02*
X0064845Y0076325D01*
X0064546Y0076026D02*
X0065516Y0076026D01*
X0066626Y0076026D02*
X0071099Y0076026D01*
X0070928Y0075728D02*
X0059784Y0075728D01*
X0059676Y0075620D02*
X0060055Y0075999D01*
X0060055Y0076535D01*
X0059676Y0076914D01*
X0059140Y0076914D01*
X0058761Y0076535D01*
X0058761Y0075999D01*
X0059140Y0075620D01*
X0059676Y0075620D01*
X0060055Y0076026D02*
X0061658Y0076026D01*
X0061748Y0075936D02*
X0061369Y0076315D01*
X0061369Y0076851D01*
X0061748Y0077230D01*
X0062284Y0077230D01*
X0062663Y0076851D01*
X0062663Y0076315D01*
X0062284Y0075936D01*
X0061748Y0075936D01*
X0061369Y0076325D02*
X0060055Y0076325D01*
X0059967Y0076623D02*
X0061369Y0076623D01*
X0061440Y0076922D02*
X0038636Y0076922D01*
X0038764Y0077220D02*
X0061739Y0077220D01*
X0062294Y0077220D02*
X0063911Y0077220D01*
X0063612Y0076922D02*
X0062592Y0076922D01*
X0062663Y0076623D02*
X0063562Y0076623D01*
X0063574Y0076325D02*
X0062663Y0076325D01*
X0062374Y0076026D02*
X0063872Y0076026D01*
X0064508Y0077220D02*
X0087577Y0077220D01*
X0087473Y0077519D02*
X0074693Y0077519D01*
X0074646Y0077472D02*
X0075025Y0077851D01*
X0075025Y0078386D01*
X0074646Y0078765D01*
X0074110Y0078765D01*
X0073731Y0078386D01*
X0073731Y0077851D01*
X0074110Y0077472D01*
X0074646Y0077472D01*
X0074992Y0077817D02*
X0087473Y0077817D01*
X0087633Y0078116D02*
X0075025Y0078116D01*
X0074997Y0078414D02*
X0094540Y0078414D01*
X0094540Y0078116D02*
X0088840Y0078116D01*
X0089000Y0077817D02*
X0094540Y0077817D01*
X0094761Y0078713D02*
X0074699Y0078713D01*
X0074058Y0078713D02*
X0070691Y0078713D01*
X0070671Y0078693D02*
X0071049Y0079072D01*
X0071049Y0079608D01*
X0093241Y0079608D01*
X0093241Y0079517D02*
X0093241Y0080263D01*
X0093769Y0080791D01*
X0094515Y0080791D01*
X0095043Y0080263D01*
X0095043Y0079517D01*
X0094515Y0078989D01*
X0093769Y0078989D01*
X0093241Y0079517D01*
X0093448Y0079310D02*
X0071049Y0079310D01*
X0071049Y0079608D02*
X0071020Y0079637D01*
X0071497Y0079637D01*
X0071876Y0080016D01*
X0071876Y0080552D01*
X0071497Y0080931D01*
X0070961Y0080931D01*
X0070582Y0080552D01*
X0070582Y0080016D01*
X0070611Y0079986D01*
X0070271Y0079986D01*
X0070301Y0080016D01*
X0070301Y0080552D01*
X0069922Y0080931D01*
X0069386Y0080931D01*
X0069007Y0080552D01*
X0069007Y0080016D01*
X0069386Y0079637D01*
X0069785Y0079637D01*
X0069756Y0079608D01*
X0069756Y0079072D01*
X0070135Y0078693D01*
X0070671Y0078693D01*
X0070989Y0079011D02*
X0093746Y0079011D01*
X0094538Y0079011D02*
X0095060Y0079011D01*
X0094836Y0079310D02*
X0102420Y0079310D01*
X0102254Y0079608D02*
X0095043Y0079608D01*
X0095043Y0079907D02*
X0102088Y0079907D01*
X0101923Y0080205D02*
X0095043Y0080205D01*
X0094803Y0080504D02*
X0101757Y0080504D01*
X0101591Y0080802D02*
X0082649Y0080802D01*
X0082520Y0080931D02*
X0081984Y0080931D01*
X0081606Y0080552D01*
X0081606Y0080016D01*
X0081984Y0079637D01*
X0082520Y0079637D01*
X0082899Y0080016D01*
X0082899Y0080552D01*
X0082520Y0080931D01*
X0082899Y0080504D02*
X0093481Y0080504D01*
X0093241Y0080205D02*
X0082899Y0080205D01*
X0082790Y0079907D02*
X0093241Y0079907D01*
X0095823Y0079011D02*
X0102586Y0079011D01*
X0102751Y0078713D02*
X0097266Y0078713D01*
X0097494Y0078414D02*
X0102917Y0078414D01*
X0103083Y0078116D02*
X0097494Y0078116D01*
X0097362Y0077817D02*
X0103248Y0077817D01*
X0103414Y0077519D02*
X0096116Y0077519D01*
X0095818Y0077220D02*
X0103580Y0077220D01*
X0101426Y0081101D02*
X0064080Y0081101D01*
X0064080Y0081000D02*
X0064080Y0081536D01*
X0063701Y0081915D01*
X0063166Y0081915D01*
X0062787Y0081536D01*
X0062787Y0081000D01*
X0063109Y0080678D01*
X0062787Y0080355D01*
X0062787Y0079819D01*
X0063166Y0079440D01*
X0063701Y0079440D01*
X0064080Y0079819D01*
X0064080Y0080355D01*
X0063758Y0080678D01*
X0064080Y0081000D01*
X0063883Y0080802D02*
X0069258Y0080802D01*
X0069007Y0080504D02*
X0063931Y0080504D01*
X0064080Y0080205D02*
X0069007Y0080205D01*
X0069116Y0079907D02*
X0064080Y0079907D01*
X0063870Y0079608D02*
X0069757Y0079608D01*
X0069756Y0079310D02*
X0040002Y0079310D01*
X0039795Y0079011D02*
X0069816Y0079011D01*
X0070115Y0078713D02*
X0069107Y0078713D01*
X0069055Y0078765D02*
X0068519Y0078765D01*
X0068140Y0078386D01*
X0068140Y0077851D01*
X0068519Y0077472D01*
X0069055Y0077472D01*
X0069433Y0077851D01*
X0069433Y0078386D01*
X0069055Y0078765D01*
X0069406Y0078414D02*
X0073759Y0078414D01*
X0073731Y0078116D02*
X0069433Y0078116D01*
X0069400Y0077817D02*
X0073765Y0077817D01*
X0074063Y0077519D02*
X0069102Y0077519D01*
X0068472Y0077519D02*
X0038892Y0077519D01*
X0039021Y0077817D02*
X0068173Y0077817D01*
X0068140Y0078116D02*
X0039171Y0078116D01*
X0039379Y0078414D02*
X0068168Y0078414D01*
X0068466Y0078713D02*
X0039587Y0078713D01*
X0040210Y0079608D02*
X0040293Y0079608D01*
X0041389Y0079608D02*
X0048050Y0079608D01*
X0047808Y0079850D02*
X0048336Y0079322D01*
X0049082Y0079322D01*
X0049610Y0079850D01*
X0049610Y0080597D01*
X0049082Y0081125D01*
X0048336Y0081125D01*
X0047808Y0080597D01*
X0047808Y0079850D01*
X0047808Y0079907D02*
X0041488Y0079907D01*
X0041488Y0080205D02*
X0047808Y0080205D01*
X0047808Y0080504D02*
X0041227Y0080504D01*
X0041041Y0080802D02*
X0048014Y0080802D01*
X0048312Y0081101D02*
X0041249Y0081101D01*
X0041457Y0081399D02*
X0062787Y0081399D01*
X0062787Y0081101D02*
X0049106Y0081101D01*
X0049405Y0080802D02*
X0062984Y0080802D01*
X0062936Y0080504D02*
X0049610Y0080504D01*
X0049610Y0080205D02*
X0062787Y0080205D01*
X0062787Y0079907D02*
X0049610Y0079907D01*
X0049368Y0079608D02*
X0062997Y0079608D01*
X0062949Y0081698D02*
X0041664Y0081698D01*
X0041872Y0081996D02*
X0070582Y0081996D01*
X0070582Y0082127D02*
X0070582Y0081591D01*
X0070961Y0081212D01*
X0071497Y0081212D01*
X0071876Y0081591D01*
X0071876Y0082127D01*
X0071497Y0082505D01*
X0070961Y0082505D01*
X0070582Y0082127D01*
X0070750Y0082295D02*
X0042080Y0082295D01*
X0042288Y0082593D02*
X0074519Y0082593D01*
X0074519Y0082505D02*
X0074110Y0082505D01*
X0073731Y0082127D01*
X0073731Y0081591D01*
X0074110Y0081212D01*
X0074646Y0081212D01*
X0075025Y0081591D01*
X0075025Y0081999D01*
X0075434Y0081999D01*
X0075813Y0082378D01*
X0075813Y0082787D01*
X0076221Y0082787D01*
X0076600Y0083166D01*
X0076600Y0083701D01*
X0076221Y0084080D01*
X0075685Y0084080D01*
X0075306Y0083701D01*
X0075306Y0083293D01*
X0074898Y0083293D01*
X0074519Y0082914D01*
X0074519Y0082505D01*
X0074519Y0082892D02*
X0073177Y0082892D01*
X0073071Y0082787D02*
X0073450Y0083166D01*
X0073450Y0083701D01*
X0073071Y0084080D01*
X0072536Y0084080D01*
X0072157Y0083701D01*
X0072157Y0083166D01*
X0072536Y0082787D01*
X0073071Y0082787D01*
X0073071Y0082505D02*
X0072536Y0082505D01*
X0072157Y0082127D01*
X0072157Y0081591D01*
X0072536Y0081212D01*
X0073071Y0081212D01*
X0073450Y0081591D01*
X0073450Y0082127D01*
X0073071Y0082505D01*
X0073282Y0082295D02*
X0073900Y0082295D01*
X0073731Y0081996D02*
X0073450Y0081996D01*
X0073450Y0081698D02*
X0073731Y0081698D01*
X0073923Y0081399D02*
X0073259Y0081399D01*
X0073071Y0080931D02*
X0072536Y0080931D01*
X0072157Y0080552D01*
X0072157Y0080016D01*
X0072536Y0079637D01*
X0073071Y0079637D01*
X0073450Y0080016D01*
X0073450Y0080552D01*
X0073071Y0080931D01*
X0073200Y0080802D02*
X0073982Y0080802D01*
X0074110Y0080931D02*
X0073731Y0080552D01*
X0073731Y0080016D01*
X0074110Y0079637D01*
X0074646Y0079637D01*
X0075025Y0080016D01*
X0075025Y0080552D01*
X0074646Y0080931D01*
X0074110Y0080931D01*
X0073731Y0080504D02*
X0073450Y0080504D01*
X0073450Y0080205D02*
X0073731Y0080205D01*
X0073841Y0079907D02*
X0073341Y0079907D01*
X0072266Y0079907D02*
X0071767Y0079907D01*
X0071876Y0080205D02*
X0072157Y0080205D01*
X0072157Y0080504D02*
X0071876Y0080504D01*
X0071625Y0080802D02*
X0072407Y0080802D01*
X0072348Y0081399D02*
X0071684Y0081399D01*
X0071876Y0081698D02*
X0072157Y0081698D01*
X0072157Y0081996D02*
X0071876Y0081996D01*
X0071707Y0082295D02*
X0072325Y0082295D01*
X0072430Y0082892D02*
X0071602Y0082892D01*
X0071497Y0082787D02*
X0071876Y0083166D01*
X0071876Y0083701D01*
X0071497Y0084080D01*
X0070961Y0084080D01*
X0070582Y0083701D01*
X0070582Y0083166D01*
X0070961Y0082787D01*
X0071497Y0082787D01*
X0071876Y0083190D02*
X0072157Y0083190D01*
X0072157Y0083489D02*
X0071876Y0083489D01*
X0071789Y0083788D02*
X0072243Y0083788D01*
X0072536Y0084361D02*
X0072157Y0084740D01*
X0072157Y0085276D01*
X0072536Y0085655D01*
X0073071Y0085655D01*
X0073450Y0085276D01*
X0073450Y0084740D01*
X0073071Y0084361D01*
X0072536Y0084361D01*
X0072513Y0084385D02*
X0069945Y0084385D01*
X0069922Y0084361D02*
X0070301Y0084740D01*
X0070301Y0085276D01*
X0069922Y0085655D01*
X0069386Y0085655D01*
X0069007Y0085276D01*
X0069007Y0084740D01*
X0069386Y0084361D01*
X0069922Y0084361D01*
X0069922Y0084080D02*
X0069386Y0084080D01*
X0069007Y0083701D01*
X0069007Y0083166D01*
X0069386Y0082787D01*
X0069922Y0082787D01*
X0070301Y0083166D01*
X0070301Y0083701D01*
X0069922Y0084080D01*
X0070215Y0083788D02*
X0070668Y0083788D01*
X0070582Y0083489D02*
X0070301Y0083489D01*
X0070301Y0083190D02*
X0070582Y0083190D01*
X0070855Y0082892D02*
X0070027Y0082892D01*
X0069281Y0082892D02*
X0042496Y0082892D01*
X0042703Y0083190D02*
X0069007Y0083190D01*
X0069007Y0083489D02*
X0066286Y0083489D01*
X0066161Y0083364D02*
X0066540Y0083743D01*
X0066540Y0084279D01*
X0066161Y0084657D01*
X0065625Y0084657D01*
X0065246Y0084279D01*
X0065246Y0083743D01*
X0065625Y0083364D01*
X0066161Y0083364D01*
X0066540Y0083788D02*
X0069093Y0083788D01*
X0069363Y0084385D02*
X0066434Y0084385D01*
X0066540Y0084086D02*
X0096233Y0084086D01*
X0096233Y0083788D02*
X0082813Y0083788D01*
X0082899Y0083701D02*
X0082520Y0084080D01*
X0081984Y0084080D01*
X0081606Y0083701D01*
X0081606Y0083166D01*
X0081984Y0082787D01*
X0082520Y0082787D01*
X0082899Y0083166D01*
X0082899Y0083701D01*
X0082899Y0083489D02*
X0096434Y0083489D01*
X0096233Y0083690D02*
X0096761Y0083162D01*
X0097508Y0083162D01*
X0098035Y0083690D01*
X0098035Y0084437D01*
X0097508Y0084965D01*
X0096761Y0084965D01*
X0096233Y0084437D01*
X0096233Y0083690D01*
X0096233Y0084385D02*
X0086608Y0084385D01*
X0086409Y0084186D02*
X0086937Y0084714D01*
X0086937Y0085460D01*
X0086420Y0085978D01*
X0086639Y0086197D01*
X0086639Y0086733D01*
X0086260Y0087112D01*
X0085725Y0087112D01*
X0085346Y0086733D01*
X0085346Y0086197D01*
X0085609Y0085934D01*
X0085135Y0085460D01*
X0085135Y0084714D01*
X0085663Y0084186D01*
X0086409Y0084186D01*
X0086907Y0084683D02*
X0096479Y0084683D01*
X0097789Y0084683D02*
X0098377Y0084683D01*
X0098121Y0084982D02*
X0093844Y0084982D01*
X0093655Y0084793D02*
X0094034Y0085172D01*
X0094034Y0085708D01*
X0093655Y0086087D01*
X0093119Y0086087D01*
X0092740Y0085708D01*
X0092740Y0085172D01*
X0093119Y0084793D01*
X0093655Y0084793D01*
X0094034Y0085280D02*
X0097865Y0085280D01*
X0097608Y0085579D02*
X0094034Y0085579D01*
X0094110Y0085818D02*
X0093731Y0086197D01*
X0093731Y0086733D01*
X0094110Y0087112D01*
X0094646Y0087112D01*
X0095025Y0086733D01*
X0095025Y0086197D01*
X0094646Y0085818D01*
X0094110Y0085818D01*
X0094051Y0085877D02*
X0093865Y0085877D01*
X0093753Y0086176D02*
X0086618Y0086176D01*
X0086639Y0086474D02*
X0093731Y0086474D01*
X0093771Y0086773D02*
X0086600Y0086773D01*
X0086301Y0087071D02*
X0094070Y0087071D01*
X0094687Y0087071D02*
X0096222Y0087071D01*
X0096583Y0086773D02*
X0094985Y0086773D01*
X0095025Y0086474D02*
X0096840Y0086474D01*
X0097096Y0086176D02*
X0095004Y0086176D01*
X0094705Y0085877D02*
X0097352Y0085877D01*
X0098035Y0084385D02*
X0098634Y0084385D01*
X0098890Y0084086D02*
X0098035Y0084086D01*
X0098035Y0083788D02*
X0099146Y0083788D01*
X0099402Y0083489D02*
X0097834Y0083489D01*
X0097536Y0083190D02*
X0099659Y0083190D01*
X0099915Y0082892D02*
X0089277Y0082892D01*
X0089277Y0082914D02*
X0088898Y0083293D01*
X0088362Y0083293D01*
X0087983Y0082914D01*
X0087983Y0082378D01*
X0088362Y0081999D01*
X0088898Y0081999D01*
X0089277Y0082378D01*
X0089277Y0082914D01*
X0089277Y0082593D02*
X0100171Y0082593D01*
X0100427Y0082295D02*
X0089194Y0082295D01*
X0089001Y0083190D02*
X0096733Y0083190D01*
X0092931Y0084982D02*
X0086937Y0084982D01*
X0086937Y0085280D02*
X0092740Y0085280D01*
X0092740Y0085579D02*
X0086819Y0085579D01*
X0086520Y0085877D02*
X0092909Y0085877D01*
X0094679Y0088265D02*
X0081324Y0088265D01*
X0081324Y0088426D02*
X0080945Y0088805D01*
X0080410Y0088805D01*
X0080031Y0088426D01*
X0080031Y0087890D01*
X0080410Y0087511D01*
X0080945Y0087511D01*
X0081324Y0087890D01*
X0081324Y0088426D01*
X0081187Y0088564D02*
X0094294Y0088564D01*
X0093908Y0088862D02*
X0071088Y0088862D01*
X0071088Y0088805D02*
X0071088Y0089086D01*
X0071497Y0089086D01*
X0071876Y0089465D01*
X0071876Y0090001D01*
X0071497Y0090380D01*
X0070961Y0090380D01*
X0070582Y0090001D01*
X0070582Y0089596D01*
X0070173Y0089596D01*
X0069795Y0089217D01*
X0069795Y0088805D01*
X0069386Y0088805D01*
X0069007Y0088426D01*
X0069007Y0087890D01*
X0069386Y0087511D01*
X0069922Y0087511D01*
X0070301Y0087890D01*
X0070301Y0088302D01*
X0070582Y0088302D01*
X0070582Y0087890D01*
X0070961Y0087511D01*
X0071497Y0087511D01*
X0071876Y0087890D01*
X0071876Y0088426D01*
X0071497Y0088805D01*
X0071088Y0088805D01*
X0071572Y0089161D02*
X0072461Y0089161D01*
X0072536Y0089086D02*
X0072157Y0089465D01*
X0072157Y0090001D01*
X0072536Y0090380D01*
X0073071Y0090380D01*
X0073450Y0090001D01*
X0073450Y0089465D01*
X0073071Y0089086D01*
X0072536Y0089086D01*
X0072162Y0089459D02*
X0071870Y0089459D01*
X0071876Y0089758D02*
X0072157Y0089758D01*
X0072212Y0090056D02*
X0071820Y0090056D01*
X0071521Y0090355D02*
X0072511Y0090355D01*
X0072536Y0090661D02*
X0073071Y0090661D01*
X0073450Y0091040D01*
X0073450Y0091575D01*
X0073071Y0091954D01*
X0072536Y0091954D01*
X0072157Y0091575D01*
X0072157Y0091040D01*
X0072536Y0090661D01*
X0072244Y0090952D02*
X0071788Y0090952D01*
X0071876Y0091040D02*
X0071497Y0090661D01*
X0070961Y0090661D01*
X0070582Y0091040D01*
X0070582Y0091575D01*
X0070961Y0091954D01*
X0071497Y0091954D01*
X0071876Y0091575D01*
X0071876Y0091040D01*
X0071876Y0091250D02*
X0072157Y0091250D01*
X0072157Y0091549D02*
X0071876Y0091549D01*
X0071604Y0091847D02*
X0072429Y0091847D01*
X0073178Y0091847D02*
X0074003Y0091847D01*
X0074110Y0091954D02*
X0073731Y0091575D01*
X0073731Y0091040D01*
X0074110Y0090661D01*
X0074646Y0090661D01*
X0075025Y0091040D01*
X0075025Y0091575D01*
X0074646Y0091954D01*
X0074110Y0091954D01*
X0074110Y0092235D02*
X0073731Y0092614D01*
X0073731Y0093150D01*
X0074110Y0093529D01*
X0074646Y0093529D01*
X0075025Y0093150D01*
X0075025Y0092614D01*
X0074646Y0092235D01*
X0074110Y0092235D01*
X0073902Y0092444D02*
X0071706Y0092444D01*
X0071876Y0092614D02*
X0071497Y0092235D01*
X0070961Y0092235D01*
X0070582Y0092614D01*
X0070582Y0093150D01*
X0070961Y0093529D01*
X0071497Y0093529D01*
X0071876Y0093150D01*
X0071876Y0092614D01*
X0071876Y0092743D02*
X0073731Y0092743D01*
X0073731Y0093041D02*
X0071876Y0093041D01*
X0071686Y0093340D02*
X0073921Y0093340D01*
X0074836Y0093340D02*
X0075496Y0093340D01*
X0075685Y0093529D02*
X0075306Y0093150D01*
X0075306Y0092614D01*
X0075685Y0092235D01*
X0076221Y0092235D01*
X0076600Y0092614D01*
X0076600Y0093150D01*
X0076221Y0093529D01*
X0075685Y0093529D01*
X0075306Y0093041D02*
X0075025Y0093041D01*
X0075025Y0092743D02*
X0075306Y0092743D01*
X0075476Y0092444D02*
X0074855Y0092444D01*
X0074753Y0091847D02*
X0075578Y0091847D01*
X0075685Y0091954D02*
X0075306Y0091575D01*
X0075306Y0091040D01*
X0075685Y0090661D01*
X0076221Y0090661D01*
X0076600Y0091040D01*
X0076600Y0091575D01*
X0076221Y0091954D01*
X0075685Y0091954D01*
X0075306Y0091549D02*
X0075025Y0091549D01*
X0075025Y0091250D02*
X0075306Y0091250D01*
X0075394Y0090952D02*
X0074937Y0090952D01*
X0075660Y0090355D02*
X0073096Y0090355D01*
X0073395Y0090056D02*
X0075362Y0090056D01*
X0075306Y0090001D02*
X0075306Y0089465D01*
X0075685Y0089086D01*
X0076221Y0089086D01*
X0076600Y0089465D01*
X0076600Y0090001D01*
X0076221Y0090380D01*
X0075685Y0090380D01*
X0075306Y0090001D01*
X0075306Y0089758D02*
X0073450Y0089758D01*
X0073445Y0089459D02*
X0075312Y0089459D01*
X0075610Y0089161D02*
X0073146Y0089161D01*
X0073869Y0088564D02*
X0071738Y0088564D01*
X0071876Y0088265D02*
X0073731Y0088265D01*
X0073731Y0088426D02*
X0073731Y0087890D01*
X0074110Y0087511D01*
X0074646Y0087511D01*
X0075025Y0087890D01*
X0075025Y0088426D01*
X0074646Y0088805D01*
X0074110Y0088805D01*
X0073731Y0088426D01*
X0073731Y0087967D02*
X0071876Y0087967D01*
X0071654Y0087668D02*
X0073953Y0087668D01*
X0074110Y0087230D02*
X0073731Y0086851D01*
X0073731Y0086315D01*
X0074110Y0085936D01*
X0074646Y0085936D01*
X0075025Y0086315D01*
X0075025Y0086851D01*
X0074646Y0087230D01*
X0074110Y0087230D01*
X0073952Y0087071D02*
X0073230Y0087071D01*
X0073071Y0087230D02*
X0072536Y0087230D01*
X0072157Y0086851D01*
X0072157Y0086315D01*
X0072536Y0085936D01*
X0073071Y0085936D01*
X0073450Y0086315D01*
X0073450Y0086851D01*
X0073071Y0087230D01*
X0073450Y0086773D02*
X0073731Y0086773D01*
X0073731Y0086474D02*
X0073450Y0086474D01*
X0073311Y0086176D02*
X0073871Y0086176D01*
X0073148Y0085579D02*
X0075609Y0085579D01*
X0075685Y0085655D02*
X0075306Y0085276D01*
X0075306Y0084740D01*
X0075685Y0084361D01*
X0076221Y0084361D01*
X0076600Y0084740D01*
X0076600Y0085276D01*
X0076221Y0085655D01*
X0075685Y0085655D01*
X0075310Y0085280D02*
X0073447Y0085280D01*
X0073450Y0084982D02*
X0075306Y0084982D01*
X0075364Y0084683D02*
X0073393Y0084683D01*
X0073095Y0084385D02*
X0075662Y0084385D01*
X0076244Y0084385D02*
X0078812Y0084385D01*
X0078835Y0084361D02*
X0079371Y0084361D01*
X0079750Y0084740D01*
X0079750Y0085276D01*
X0079371Y0085655D01*
X0078835Y0085655D01*
X0078456Y0085276D01*
X0078456Y0084740D01*
X0078835Y0084361D01*
X0078835Y0084080D02*
X0078456Y0083701D01*
X0078456Y0083166D01*
X0078835Y0082787D01*
X0079371Y0082787D01*
X0079750Y0083166D01*
X0079750Y0083701D01*
X0079371Y0084080D01*
X0078835Y0084080D01*
X0078542Y0083788D02*
X0078089Y0083788D01*
X0078175Y0083701D02*
X0077796Y0084080D01*
X0077260Y0084080D01*
X0076881Y0083701D01*
X0076881Y0083166D01*
X0077260Y0082787D01*
X0077796Y0082787D01*
X0078175Y0083166D01*
X0078175Y0083701D01*
X0078175Y0083489D02*
X0078456Y0083489D01*
X0078456Y0083190D02*
X0078175Y0083190D01*
X0077901Y0082892D02*
X0078729Y0082892D01*
X0078835Y0082505D02*
X0078456Y0082127D01*
X0078456Y0081591D01*
X0078835Y0081212D01*
X0079371Y0081212D01*
X0079750Y0081591D01*
X0079750Y0082127D01*
X0079371Y0082505D01*
X0078835Y0082505D01*
X0078624Y0082295D02*
X0078006Y0082295D01*
X0078175Y0082127D02*
X0077796Y0082505D01*
X0077260Y0082505D01*
X0076881Y0082127D01*
X0076881Y0081591D01*
X0077260Y0081212D01*
X0077796Y0081212D01*
X0078175Y0081591D01*
X0078175Y0082127D01*
X0078175Y0081996D02*
X0078456Y0081996D01*
X0078456Y0081698D02*
X0078175Y0081698D01*
X0077983Y0081399D02*
X0078647Y0081399D01*
X0078835Y0080931D02*
X0078456Y0080552D01*
X0078456Y0080016D01*
X0078835Y0079637D01*
X0079371Y0079637D01*
X0079750Y0080016D01*
X0079750Y0080552D01*
X0079371Y0080931D01*
X0078835Y0080931D01*
X0078707Y0080802D02*
X0077924Y0080802D01*
X0077796Y0080931D02*
X0077260Y0080931D01*
X0076881Y0080552D01*
X0076881Y0080016D01*
X0077260Y0079637D01*
X0077796Y0079637D01*
X0078175Y0080016D01*
X0078175Y0080552D01*
X0077796Y0080931D01*
X0078175Y0080504D02*
X0078456Y0080504D01*
X0078456Y0080205D02*
X0078175Y0080205D01*
X0078066Y0079907D02*
X0078565Y0079907D01*
X0079641Y0079907D02*
X0080140Y0079907D01*
X0080031Y0080016D02*
X0080410Y0079637D01*
X0080945Y0079637D01*
X0081324Y0080016D01*
X0081324Y0080552D01*
X0080945Y0080931D01*
X0080410Y0080931D01*
X0080031Y0080552D01*
X0080031Y0080016D01*
X0080031Y0080205D02*
X0079750Y0080205D01*
X0079750Y0080504D02*
X0080031Y0080504D01*
X0080281Y0080802D02*
X0079499Y0080802D01*
X0079558Y0081399D02*
X0080222Y0081399D01*
X0080410Y0081212D02*
X0080945Y0081212D01*
X0081324Y0081591D01*
X0081324Y0082127D01*
X0080945Y0082505D01*
X0080410Y0082505D01*
X0080031Y0082127D01*
X0080031Y0081591D01*
X0080410Y0081212D01*
X0080031Y0081698D02*
X0079750Y0081698D01*
X0079750Y0081996D02*
X0080031Y0081996D01*
X0080199Y0082295D02*
X0079581Y0082295D01*
X0079476Y0082892D02*
X0080304Y0082892D01*
X0080410Y0082787D02*
X0080945Y0082787D01*
X0081324Y0083166D01*
X0081324Y0083701D01*
X0080945Y0084080D01*
X0080410Y0084080D01*
X0080031Y0083701D01*
X0080031Y0083166D01*
X0080410Y0082787D01*
X0080031Y0083190D02*
X0079750Y0083190D01*
X0079750Y0083489D02*
X0080031Y0083489D01*
X0080117Y0083788D02*
X0079663Y0083788D01*
X0079394Y0084385D02*
X0080387Y0084385D01*
X0080410Y0084361D02*
X0080945Y0084361D01*
X0081324Y0084740D01*
X0081324Y0085276D01*
X0080945Y0085655D01*
X0080410Y0085655D01*
X0080031Y0085276D01*
X0080031Y0084740D01*
X0080410Y0084361D01*
X0080088Y0084683D02*
X0079692Y0084683D01*
X0079750Y0084982D02*
X0080031Y0084982D01*
X0080035Y0085280D02*
X0079746Y0085280D01*
X0079447Y0085579D02*
X0080333Y0085579D01*
X0081022Y0085579D02*
X0081908Y0085579D01*
X0081984Y0085655D02*
X0081606Y0085276D01*
X0081606Y0084740D01*
X0081984Y0084361D01*
X0082520Y0084361D01*
X0082899Y0084740D01*
X0082899Y0085276D01*
X0082520Y0085655D01*
X0081984Y0085655D01*
X0081609Y0085280D02*
X0081321Y0085280D01*
X0081324Y0084982D02*
X0081606Y0084982D01*
X0081663Y0084683D02*
X0081267Y0084683D01*
X0080969Y0084385D02*
X0081961Y0084385D01*
X0082543Y0084385D02*
X0085464Y0084385D01*
X0085166Y0084683D02*
X0082842Y0084683D01*
X0082899Y0084982D02*
X0085135Y0084982D01*
X0085135Y0085280D02*
X0082895Y0085280D01*
X0082597Y0085579D02*
X0085253Y0085579D01*
X0085552Y0085877D02*
X0045195Y0085877D01*
X0045509Y0086176D02*
X0070721Y0086176D01*
X0070582Y0086315D02*
X0070961Y0085936D01*
X0071497Y0085936D01*
X0071876Y0086315D01*
X0071876Y0086851D01*
X0071497Y0087230D01*
X0070961Y0087230D01*
X0070582Y0086851D01*
X0070582Y0086315D01*
X0070582Y0086474D02*
X0045823Y0086474D01*
X0046137Y0086773D02*
X0070582Y0086773D01*
X0070802Y0087071D02*
X0046451Y0087071D01*
X0046765Y0087370D02*
X0083902Y0087370D01*
X0083920Y0087387D02*
X0083541Y0087008D01*
X0083541Y0086473D01*
X0083920Y0086094D01*
X0084456Y0086094D01*
X0084835Y0086473D01*
X0084835Y0087008D01*
X0084456Y0087387D01*
X0083920Y0087387D01*
X0083604Y0087071D02*
X0079529Y0087071D01*
X0079371Y0087230D02*
X0078835Y0087230D01*
X0078456Y0086851D01*
X0078456Y0086315D01*
X0078835Y0085936D01*
X0079371Y0085936D01*
X0079750Y0086315D01*
X0079750Y0086851D01*
X0079371Y0087230D01*
X0079750Y0086773D02*
X0083541Y0086773D01*
X0083541Y0086474D02*
X0079750Y0086474D01*
X0079610Y0086176D02*
X0083838Y0086176D01*
X0084538Y0086176D02*
X0085367Y0086176D01*
X0085346Y0086474D02*
X0084835Y0086474D01*
X0084835Y0086773D02*
X0085385Y0086773D01*
X0085684Y0087071D02*
X0084772Y0087071D01*
X0084473Y0087370D02*
X0095836Y0087370D01*
X0095451Y0087668D02*
X0081103Y0087668D01*
X0081324Y0087967D02*
X0095065Y0087967D01*
X0093522Y0089161D02*
X0081020Y0089161D01*
X0080945Y0089086D02*
X0081324Y0089465D01*
X0081324Y0090001D01*
X0080945Y0090380D01*
X0080410Y0090380D01*
X0080031Y0090001D01*
X0080031Y0089465D01*
X0080410Y0089086D01*
X0080945Y0089086D01*
X0081319Y0089459D02*
X0093137Y0089459D01*
X0092751Y0089758D02*
X0081324Y0089758D01*
X0081269Y0090056D02*
X0092365Y0090056D01*
X0091980Y0090355D02*
X0080970Y0090355D01*
X0080945Y0090661D02*
X0081324Y0091040D01*
X0081324Y0091575D01*
X0080945Y0091954D01*
X0080410Y0091954D01*
X0080031Y0091575D01*
X0080031Y0091040D01*
X0080410Y0090661D01*
X0080945Y0090661D01*
X0081237Y0090952D02*
X0081693Y0090952D01*
X0081606Y0091040D02*
X0081984Y0090661D01*
X0082520Y0090661D01*
X0082899Y0091040D01*
X0082899Y0091575D01*
X0082520Y0091954D01*
X0081984Y0091954D01*
X0081606Y0091575D01*
X0081606Y0091040D01*
X0081606Y0091250D02*
X0081324Y0091250D01*
X0081324Y0091549D02*
X0081606Y0091549D01*
X0081877Y0091847D02*
X0081052Y0091847D01*
X0080303Y0091847D02*
X0079478Y0091847D01*
X0079371Y0091954D02*
X0078835Y0091954D01*
X0078456Y0091575D01*
X0078456Y0091040D01*
X0078835Y0090661D01*
X0079371Y0090661D01*
X0079750Y0091040D01*
X0079750Y0091575D01*
X0079371Y0091954D01*
X0079371Y0092235D02*
X0079750Y0092614D01*
X0079750Y0093150D01*
X0079371Y0093529D01*
X0078835Y0093529D01*
X0078456Y0093150D01*
X0078456Y0092614D01*
X0078835Y0092235D01*
X0079371Y0092235D01*
X0079580Y0092444D02*
X0088484Y0092444D01*
X0089092Y0092146D02*
X0064714Y0092146D01*
X0064828Y0092260D02*
X0064449Y0091881D01*
X0063914Y0091881D01*
X0063535Y0092260D01*
X0063535Y0092796D01*
X0063914Y0093175D01*
X0064449Y0093175D01*
X0064828Y0092796D01*
X0064828Y0092260D01*
X0064828Y0092444D02*
X0070752Y0092444D01*
X0070582Y0092743D02*
X0064828Y0092743D01*
X0064583Y0093041D02*
X0070582Y0093041D01*
X0070772Y0093340D02*
X0055475Y0093340D01*
X0054825Y0093041D02*
X0063780Y0093041D01*
X0063535Y0092743D02*
X0054346Y0092743D01*
X0053867Y0092444D02*
X0063535Y0092444D01*
X0063649Y0092146D02*
X0053388Y0092146D01*
X0052909Y0091847D02*
X0069279Y0091847D01*
X0069386Y0091954D02*
X0069007Y0091575D01*
X0069007Y0091040D01*
X0069386Y0090661D01*
X0069922Y0090661D01*
X0070301Y0091040D01*
X0070301Y0091575D01*
X0069922Y0091954D01*
X0069386Y0091954D01*
X0069007Y0091549D02*
X0052430Y0091549D01*
X0052642Y0091250D02*
X0051951Y0091250D01*
X0052413Y0091021D02*
X0052413Y0090486D01*
X0052792Y0090107D01*
X0053327Y0090107D01*
X0053706Y0090486D01*
X0053706Y0091021D01*
X0053327Y0091400D01*
X0052792Y0091400D01*
X0052413Y0091021D01*
X0052413Y0090952D02*
X0051472Y0090952D01*
X0050993Y0090653D02*
X0052413Y0090653D01*
X0052543Y0090355D02*
X0050514Y0090355D01*
X0050036Y0090056D02*
X0063294Y0090056D01*
X0063294Y0090273D02*
X0063294Y0089737D01*
X0063673Y0089358D01*
X0064209Y0089358D01*
X0064588Y0089737D01*
X0064588Y0090273D01*
X0064209Y0090652D01*
X0063673Y0090652D01*
X0063294Y0090273D01*
X0063376Y0090355D02*
X0053576Y0090355D01*
X0053706Y0090653D02*
X0091594Y0090653D01*
X0091208Y0090952D02*
X0082811Y0090952D01*
X0082899Y0091250D02*
X0090823Y0091250D01*
X0090309Y0091549D02*
X0082899Y0091549D01*
X0082627Y0091847D02*
X0089701Y0091847D01*
X0087875Y0092743D02*
X0079750Y0092743D01*
X0079750Y0093041D02*
X0087266Y0093041D01*
X0086658Y0093340D02*
X0079560Y0093340D01*
X0078646Y0093340D02*
X0077985Y0093340D01*
X0077796Y0093529D02*
X0078175Y0093150D01*
X0078175Y0092614D01*
X0077796Y0092235D01*
X0077260Y0092235D01*
X0076881Y0092614D01*
X0076881Y0093150D01*
X0077260Y0093529D01*
X0077796Y0093529D01*
X0078175Y0093041D02*
X0078456Y0093041D01*
X0078456Y0092743D02*
X0078175Y0092743D01*
X0078005Y0092444D02*
X0078626Y0092444D01*
X0078728Y0091847D02*
X0076328Y0091847D01*
X0076600Y0091549D02*
X0078456Y0091549D01*
X0078456Y0091250D02*
X0076600Y0091250D01*
X0076512Y0090952D02*
X0078544Y0090952D01*
X0077821Y0090355D02*
X0080385Y0090355D01*
X0080086Y0090056D02*
X0078119Y0090056D01*
X0078175Y0090001D02*
X0077796Y0090380D01*
X0077260Y0090380D01*
X0076881Y0090001D01*
X0076881Y0089465D01*
X0077260Y0089086D01*
X0077796Y0089086D01*
X0078175Y0089465D01*
X0078175Y0090001D01*
X0078175Y0089758D02*
X0080031Y0089758D01*
X0080036Y0089459D02*
X0078169Y0089459D01*
X0077871Y0089161D02*
X0080335Y0089161D01*
X0080169Y0088564D02*
X0076462Y0088564D01*
X0076600Y0088426D02*
X0076221Y0088805D01*
X0075685Y0088805D01*
X0075306Y0088426D01*
X0075306Y0087890D01*
X0075685Y0087511D01*
X0076221Y0087511D01*
X0076600Y0087890D01*
X0076600Y0088426D01*
X0076600Y0088265D02*
X0080031Y0088265D01*
X0080031Y0087967D02*
X0076600Y0087967D01*
X0076378Y0087668D02*
X0080252Y0087668D01*
X0078676Y0087071D02*
X0077955Y0087071D01*
X0077796Y0087230D02*
X0077260Y0087230D01*
X0076881Y0086851D01*
X0076881Y0086315D01*
X0077260Y0085936D01*
X0077796Y0085936D01*
X0078175Y0086315D01*
X0078175Y0086851D01*
X0077796Y0087230D01*
X0078175Y0086773D02*
X0078456Y0086773D01*
X0078456Y0086474D02*
X0078175Y0086474D01*
X0078035Y0086176D02*
X0078595Y0086176D01*
X0078758Y0085579D02*
X0076298Y0085579D01*
X0076596Y0085280D02*
X0078460Y0085280D01*
X0078456Y0084982D02*
X0076600Y0084982D01*
X0076543Y0084683D02*
X0078513Y0084683D01*
X0076967Y0083788D02*
X0076514Y0083788D01*
X0076600Y0083489D02*
X0076881Y0083489D01*
X0076881Y0083190D02*
X0076600Y0083190D01*
X0076326Y0082892D02*
X0077155Y0082892D01*
X0077049Y0082295D02*
X0075729Y0082295D01*
X0075813Y0082593D02*
X0087983Y0082593D01*
X0087983Y0082892D02*
X0082626Y0082892D01*
X0082899Y0083190D02*
X0088260Y0083190D01*
X0088067Y0082295D02*
X0081156Y0082295D01*
X0081324Y0081996D02*
X0100684Y0081996D01*
X0100940Y0081698D02*
X0081324Y0081698D01*
X0081133Y0081399D02*
X0101196Y0081399D01*
X0096428Y0078713D02*
X0096121Y0078713D01*
X0091947Y0074832D02*
X0083034Y0074832D01*
X0083332Y0074534D02*
X0092246Y0074534D01*
X0081856Y0080802D02*
X0081074Y0080802D01*
X0081324Y0080504D02*
X0081606Y0080504D01*
X0081606Y0080205D02*
X0081324Y0080205D01*
X0081215Y0079907D02*
X0081715Y0079907D01*
X0081879Y0082892D02*
X0081051Y0082892D01*
X0081324Y0083190D02*
X0081606Y0083190D01*
X0081606Y0083489D02*
X0081324Y0083489D01*
X0081238Y0083788D02*
X0081692Y0083788D01*
X0076881Y0081996D02*
X0075025Y0081996D01*
X0075025Y0081698D02*
X0076881Y0081698D01*
X0077072Y0081399D02*
X0074834Y0081399D01*
X0074775Y0080802D02*
X0075557Y0080802D01*
X0075685Y0080931D02*
X0075306Y0080552D01*
X0075306Y0080016D01*
X0075685Y0079637D01*
X0076221Y0079637D01*
X0076600Y0080016D01*
X0076600Y0080552D01*
X0076221Y0080931D01*
X0075685Y0080931D01*
X0075306Y0080504D02*
X0075025Y0080504D01*
X0075025Y0080205D02*
X0075306Y0080205D01*
X0075415Y0079907D02*
X0074916Y0079907D01*
X0076491Y0079907D02*
X0076990Y0079907D01*
X0076881Y0080205D02*
X0076600Y0080205D01*
X0076600Y0080504D02*
X0076881Y0080504D01*
X0077132Y0080802D02*
X0076349Y0080802D01*
X0074795Y0083190D02*
X0073450Y0083190D01*
X0073450Y0083489D02*
X0075306Y0083489D01*
X0075392Y0083788D02*
X0073364Y0083788D01*
X0072214Y0084683D02*
X0070243Y0084683D01*
X0070301Y0084982D02*
X0072157Y0084982D01*
X0072161Y0085280D02*
X0070297Y0085280D01*
X0069998Y0085579D02*
X0072459Y0085579D01*
X0072296Y0086176D02*
X0071736Y0086176D01*
X0071876Y0086474D02*
X0072157Y0086474D01*
X0072157Y0086773D02*
X0071876Y0086773D01*
X0071655Y0087071D02*
X0072377Y0087071D01*
X0070804Y0087668D02*
X0070079Y0087668D01*
X0070301Y0087967D02*
X0070582Y0087967D01*
X0070582Y0088265D02*
X0070301Y0088265D01*
X0069795Y0088862D02*
X0048335Y0088862D01*
X0048021Y0088564D02*
X0069145Y0088564D01*
X0069007Y0088265D02*
X0047707Y0088265D01*
X0047393Y0087967D02*
X0069007Y0087967D01*
X0069229Y0087668D02*
X0047079Y0087668D01*
X0048649Y0089161D02*
X0069795Y0089161D01*
X0070036Y0089459D02*
X0064310Y0089459D01*
X0064588Y0089758D02*
X0070582Y0089758D01*
X0070638Y0090056D02*
X0064588Y0090056D01*
X0064506Y0090355D02*
X0070936Y0090355D01*
X0070670Y0090952D02*
X0070213Y0090952D01*
X0070301Y0091250D02*
X0070582Y0091250D01*
X0070582Y0091549D02*
X0070301Y0091549D01*
X0070029Y0091847D02*
X0070854Y0091847D01*
X0069007Y0091250D02*
X0053477Y0091250D01*
X0053706Y0090952D02*
X0069095Y0090952D01*
X0073363Y0090952D02*
X0073819Y0090952D01*
X0073731Y0091250D02*
X0073450Y0091250D01*
X0073450Y0091549D02*
X0073731Y0091549D01*
X0076246Y0090355D02*
X0077235Y0090355D01*
X0076937Y0090056D02*
X0076544Y0090056D01*
X0076600Y0089758D02*
X0076881Y0089758D01*
X0076887Y0089459D02*
X0076594Y0089459D01*
X0076296Y0089161D02*
X0077185Y0089161D01*
X0079662Y0090952D02*
X0080118Y0090952D01*
X0080031Y0091250D02*
X0079750Y0091250D01*
X0079750Y0091549D02*
X0080031Y0091549D01*
X0077051Y0092444D02*
X0076430Y0092444D01*
X0076600Y0092743D02*
X0076881Y0092743D01*
X0076881Y0093041D02*
X0076600Y0093041D01*
X0076410Y0093340D02*
X0077071Y0093340D01*
X0075985Y0095109D02*
X0075449Y0095109D01*
X0075070Y0095488D01*
X0075070Y0096024D01*
X0075449Y0096403D01*
X0075985Y0096403D01*
X0076364Y0096024D01*
X0076364Y0095488D01*
X0075985Y0095109D01*
X0076006Y0095131D02*
X0082130Y0095131D01*
X0080978Y0095429D02*
X0076305Y0095429D01*
X0076364Y0095728D02*
X0079825Y0095728D01*
X0078672Y0096026D02*
X0076362Y0096026D01*
X0076063Y0096325D02*
X0077519Y0096325D01*
X0075371Y0096325D02*
X0074528Y0096325D01*
X0074710Y0096142D02*
X0074331Y0096521D01*
X0073795Y0096521D01*
X0073417Y0096142D01*
X0073417Y0095606D01*
X0073795Y0095228D01*
X0074331Y0095228D01*
X0074710Y0095606D01*
X0074710Y0096142D01*
X0074710Y0096026D02*
X0075072Y0096026D01*
X0075070Y0095728D02*
X0074710Y0095728D01*
X0074533Y0095429D02*
X0075129Y0095429D01*
X0075427Y0095131D02*
X0060311Y0095131D01*
X0059505Y0094832D02*
X0083283Y0094832D01*
X0084224Y0094534D02*
X0058699Y0094534D01*
X0057893Y0094235D02*
X0084832Y0094235D01*
X0085441Y0093937D02*
X0057087Y0093937D01*
X0056281Y0093638D02*
X0086049Y0093638D01*
X0077101Y0087071D02*
X0074805Y0087071D01*
X0075025Y0086773D02*
X0076881Y0086773D01*
X0076881Y0086474D02*
X0075025Y0086474D01*
X0074886Y0086176D02*
X0077021Y0086176D01*
X0075528Y0087668D02*
X0074803Y0087668D01*
X0075025Y0087967D02*
X0075306Y0087967D01*
X0075306Y0088265D02*
X0075025Y0088265D01*
X0074887Y0088564D02*
X0075444Y0088564D01*
X0069309Y0085579D02*
X0044881Y0085579D01*
X0044567Y0085280D02*
X0069011Y0085280D01*
X0069007Y0084982D02*
X0044253Y0084982D01*
X0043939Y0084683D02*
X0069064Y0084683D01*
X0065352Y0084385D02*
X0043625Y0084385D01*
X0043327Y0084086D02*
X0065246Y0084086D01*
X0065246Y0083788D02*
X0043119Y0083788D01*
X0042911Y0083489D02*
X0065500Y0083489D01*
X0063918Y0081698D02*
X0070582Y0081698D01*
X0070773Y0081399D02*
X0064080Y0081399D01*
X0070050Y0080802D02*
X0070833Y0080802D01*
X0070582Y0080504D02*
X0070301Y0080504D01*
X0070301Y0080205D02*
X0070582Y0080205D01*
X0076386Y0074235D02*
X0043890Y0074235D01*
X0044002Y0074534D02*
X0076684Y0074534D01*
X0067524Y0069160D02*
X0106719Y0069160D01*
X0106813Y0068862D02*
X0067524Y0068862D01*
X0067476Y0068563D02*
X0106906Y0068563D01*
X0107000Y0068265D02*
X0067177Y0068265D01*
X0065822Y0069459D02*
X0057505Y0069459D01*
X0057760Y0069757D02*
X0066121Y0069757D01*
X0063191Y0067668D02*
X0107187Y0067668D01*
X0107232Y0067369D02*
X0063390Y0067369D01*
X0063390Y0067071D02*
X0107262Y0067071D01*
X0107293Y0066772D02*
X0063390Y0066772D01*
X0063141Y0066474D02*
X0107323Y0066474D01*
X0107094Y0067966D02*
X0062893Y0067966D01*
X0062084Y0067966D02*
X0048035Y0067966D01*
X0048035Y0067668D02*
X0061786Y0067668D01*
X0061587Y0067369D02*
X0047935Y0067369D01*
X0047637Y0067071D02*
X0061587Y0067071D01*
X0059033Y0075728D02*
X0039107Y0075728D01*
X0038808Y0076026D02*
X0058761Y0076026D01*
X0058761Y0076325D02*
X0038380Y0076325D01*
X0038508Y0076623D02*
X0058850Y0076623D01*
X0063572Y0089459D02*
X0049078Y0089459D01*
X0049557Y0089758D02*
X0063294Y0089758D01*
X0061117Y0095429D02*
X0067885Y0095429D01*
X0067747Y0095567D02*
X0068126Y0095188D01*
X0068662Y0095188D01*
X0069041Y0095567D01*
X0069041Y0096103D01*
X0068662Y0096482D01*
X0068126Y0096482D01*
X0067747Y0096103D01*
X0067747Y0095567D01*
X0067747Y0095728D02*
X0061923Y0095728D01*
X0063732Y0096026D02*
X0067747Y0096026D01*
X0067969Y0096325D02*
X0065681Y0096325D01*
X0067630Y0096623D02*
X0074620Y0096623D01*
X0073599Y0096325D02*
X0072953Y0096325D01*
X0072835Y0096443D02*
X0072299Y0096443D01*
X0071920Y0096064D01*
X0071920Y0095528D01*
X0072299Y0095149D01*
X0072835Y0095149D01*
X0073214Y0095528D01*
X0073214Y0096064D01*
X0072835Y0096443D01*
X0073214Y0096026D02*
X0073417Y0096026D01*
X0073417Y0095728D02*
X0073214Y0095728D01*
X0073116Y0095429D02*
X0073594Y0095429D01*
X0072019Y0095429D02*
X0070754Y0095429D01*
X0070852Y0095528D02*
X0070473Y0095149D01*
X0069937Y0095149D01*
X0069558Y0095528D01*
X0069558Y0096064D01*
X0069937Y0096443D01*
X0070473Y0096443D01*
X0070852Y0096064D01*
X0070852Y0095528D01*
X0070852Y0095728D02*
X0071920Y0095728D01*
X0071920Y0096026D02*
X0070852Y0096026D01*
X0070591Y0096325D02*
X0072182Y0096325D01*
X0069820Y0096325D02*
X0068819Y0096325D01*
X0069041Y0096026D02*
X0069558Y0096026D01*
X0069558Y0095728D02*
X0069041Y0095728D01*
X0068903Y0095429D02*
X0069657Y0095429D01*
X0037752Y0074534D02*
X0037611Y0074534D01*
D15*
X0061583Y0051307D03*
X0071819Y0048197D03*
X0073788Y0048197D03*
X0073658Y0046099D03*
X0087871Y0030683D03*
X0079378Y0028822D03*
M02*
