G75*
%MOIN*%
%OFA0B0*%
%FSLAX25Y25*%
%IPPOS*%
%LPD*%
%AMOC8*
5,1,8,0,0,1.08239X$1,22.5*
%
%ADD10C,0.00039*%
D10*
X0033827Y0060205D02*
X0033838Y0061123D01*
X0033872Y0062040D01*
X0033928Y0062956D01*
X0034007Y0063871D01*
X0034108Y0064783D01*
X0034232Y0065693D01*
X0034378Y0066599D01*
X0034546Y0067502D01*
X0034736Y0068400D01*
X0034948Y0069293D01*
X0035182Y0070181D01*
X0035438Y0071062D01*
X0035715Y0071937D01*
X0036013Y0072805D01*
X0036333Y0073666D01*
X0036674Y0074518D01*
X0037036Y0075362D01*
X0037418Y0076196D01*
X0037821Y0077021D01*
X0038243Y0077836D01*
X0038686Y0078640D01*
X0039148Y0079433D01*
X0039630Y0080215D01*
X0040130Y0080984D01*
X0040650Y0081741D01*
X0041187Y0082485D01*
X0041743Y0083216D01*
X0042317Y0083933D01*
X0042908Y0084635D01*
X0043516Y0085323D01*
X0044141Y0085995D01*
X0044782Y0086652D01*
X0045439Y0087293D01*
X0046111Y0087918D01*
X0046799Y0088526D01*
X0047501Y0089117D01*
X0048218Y0089691D01*
X0048949Y0090247D01*
X0049693Y0090784D01*
X0050450Y0091304D01*
X0051219Y0091804D01*
X0052001Y0092286D01*
X0052794Y0092748D01*
X0053598Y0093191D01*
X0054413Y0093613D01*
X0055238Y0094016D01*
X0056072Y0094398D01*
X0056916Y0094760D01*
X0057768Y0095101D01*
X0058629Y0095421D01*
X0059497Y0095719D01*
X0060372Y0095996D01*
X0061253Y0096252D01*
X0062141Y0096486D01*
X0063034Y0096698D01*
X0063932Y0096888D01*
X0064835Y0097056D01*
X0065741Y0097202D01*
X0066651Y0097326D01*
X0067563Y0097427D01*
X0068478Y0097506D01*
X0069394Y0097562D01*
X0070311Y0097596D01*
X0071229Y0097607D01*
X0072147Y0097596D01*
X0073064Y0097562D01*
X0073980Y0097506D01*
X0074895Y0097427D01*
X0075807Y0097326D01*
X0076717Y0097202D01*
X0077623Y0097056D01*
X0078526Y0096888D01*
X0079424Y0096698D01*
X0080317Y0096486D01*
X0081205Y0096252D01*
X0082086Y0095996D01*
X0082961Y0095719D01*
X0083829Y0095421D01*
X0084690Y0095101D01*
X0085542Y0094760D01*
X0086386Y0094398D01*
X0087220Y0094016D01*
X0088045Y0093613D01*
X0088860Y0093191D01*
X0089664Y0092748D01*
X0090457Y0092286D01*
X0091239Y0091804D01*
X0092008Y0091304D01*
X0092765Y0090784D01*
X0093509Y0090247D01*
X0094240Y0089691D01*
X0094957Y0089117D01*
X0095659Y0088526D01*
X0096347Y0087918D01*
X0097019Y0087293D01*
X0097676Y0086652D01*
X0098317Y0085995D01*
X0098942Y0085323D01*
X0099550Y0084635D01*
X0100141Y0083933D01*
X0100715Y0083216D01*
X0101271Y0082485D01*
X0101808Y0081741D01*
X0102328Y0080984D01*
X0102828Y0080215D01*
X0103310Y0079433D01*
X0103772Y0078640D01*
X0104215Y0077836D01*
X0104637Y0077021D01*
X0105040Y0076196D01*
X0105422Y0075362D01*
X0105784Y0074518D01*
X0106125Y0073666D01*
X0106445Y0072805D01*
X0106743Y0071937D01*
X0107020Y0071062D01*
X0107276Y0070181D01*
X0107510Y0069293D01*
X0107722Y0068400D01*
X0107912Y0067502D01*
X0108080Y0066599D01*
X0108226Y0065693D01*
X0108350Y0064783D01*
X0108451Y0063871D01*
X0108530Y0062956D01*
X0108586Y0062040D01*
X0108620Y0061123D01*
X0108631Y0060205D01*
X0108620Y0059287D01*
X0108586Y0058370D01*
X0108530Y0057454D01*
X0108451Y0056539D01*
X0108350Y0055627D01*
X0108226Y0054717D01*
X0108080Y0053811D01*
X0107912Y0052908D01*
X0107722Y0052010D01*
X0107510Y0051117D01*
X0107276Y0050229D01*
X0107020Y0049348D01*
X0106743Y0048473D01*
X0106445Y0047605D01*
X0106125Y0046744D01*
X0105784Y0045892D01*
X0105422Y0045048D01*
X0105040Y0044214D01*
X0104637Y0043389D01*
X0104215Y0042574D01*
X0103772Y0041770D01*
X0103310Y0040977D01*
X0102828Y0040195D01*
X0102328Y0039426D01*
X0101808Y0038669D01*
X0101271Y0037925D01*
X0100715Y0037194D01*
X0100141Y0036477D01*
X0099550Y0035775D01*
X0098942Y0035087D01*
X0098317Y0034415D01*
X0097676Y0033758D01*
X0097019Y0033117D01*
X0096347Y0032492D01*
X0095659Y0031884D01*
X0094957Y0031293D01*
X0094240Y0030719D01*
X0093509Y0030163D01*
X0092765Y0029626D01*
X0092008Y0029106D01*
X0091239Y0028606D01*
X0090457Y0028124D01*
X0089664Y0027662D01*
X0088860Y0027219D01*
X0088045Y0026797D01*
X0087220Y0026394D01*
X0086386Y0026012D01*
X0085542Y0025650D01*
X0084690Y0025309D01*
X0083829Y0024989D01*
X0082961Y0024691D01*
X0082086Y0024414D01*
X0081205Y0024158D01*
X0080317Y0023924D01*
X0079424Y0023712D01*
X0078526Y0023522D01*
X0077623Y0023354D01*
X0076717Y0023208D01*
X0075807Y0023084D01*
X0074895Y0022983D01*
X0073980Y0022904D01*
X0073064Y0022848D01*
X0072147Y0022814D01*
X0071229Y0022803D01*
X0070311Y0022814D01*
X0069394Y0022848D01*
X0068478Y0022904D01*
X0067563Y0022983D01*
X0066651Y0023084D01*
X0065741Y0023208D01*
X0064835Y0023354D01*
X0063932Y0023522D01*
X0063034Y0023712D01*
X0062141Y0023924D01*
X0061253Y0024158D01*
X0060372Y0024414D01*
X0059497Y0024691D01*
X0058629Y0024989D01*
X0057768Y0025309D01*
X0056916Y0025650D01*
X0056072Y0026012D01*
X0055238Y0026394D01*
X0054413Y0026797D01*
X0053598Y0027219D01*
X0052794Y0027662D01*
X0052001Y0028124D01*
X0051219Y0028606D01*
X0050450Y0029106D01*
X0049693Y0029626D01*
X0048949Y0030163D01*
X0048218Y0030719D01*
X0047501Y0031293D01*
X0046799Y0031884D01*
X0046111Y0032492D01*
X0045439Y0033117D01*
X0044782Y0033758D01*
X0044141Y0034415D01*
X0043516Y0035087D01*
X0042908Y0035775D01*
X0042317Y0036477D01*
X0041743Y0037194D01*
X0041187Y0037925D01*
X0040650Y0038669D01*
X0040130Y0039426D01*
X0039630Y0040195D01*
X0039148Y0040977D01*
X0038686Y0041770D01*
X0038243Y0042574D01*
X0037821Y0043389D01*
X0037418Y0044214D01*
X0037036Y0045048D01*
X0036674Y0045892D01*
X0036333Y0046744D01*
X0036013Y0047605D01*
X0035715Y0048473D01*
X0035438Y0049348D01*
X0035182Y0050229D01*
X0034948Y0051117D01*
X0034736Y0052010D01*
X0034546Y0052908D01*
X0034378Y0053811D01*
X0034232Y0054717D01*
X0034108Y0055627D01*
X0034007Y0056539D01*
X0033928Y0057454D01*
X0033872Y0058370D01*
X0033838Y0059287D01*
X0033827Y0060205D01*
M02*
