G75*
%MOIN*%
%OFA0B0*%
%FSLAX25Y25*%
%IPPOS*%
%LPD*%
%AMOC8*
5,1,8,0,0,1.08239X$1,22.5*
%
%ADD10C,0.01184*%
%ADD11R,0.02956X0.05318*%
%ADD12R,0.01381X0.01775*%
%ADD13R,0.01775X0.01381*%
%ADD14R,0.01381X0.02169*%
%ADD15R,0.02169X0.01381*%
%ADD16R,0.11224X0.11224*%
%ADD17R,0.12405X0.12405*%
%ADD18R,0.02562X0.01184*%
%ADD19R,0.01184X0.02562*%
%ADD20C,0.00200*%
%ADD21R,0.05318X0.02956*%
%ADD22R,0.02956X0.01184*%
%ADD23R,0.06696X0.09570*%
%ADD24R,0.01145X0.02129*%
%ADD25R,0.02562X0.01775*%
%ADD26R,0.06106X0.10043*%
%ADD27R,0.02956X0.03743*%
%ADD28R,0.01578X0.00987*%
%ADD29R,0.01775X0.02562*%
%ADD30C,0.00592*%
%ADD31C,0.00494*%
%ADD32C,0.00691*%
%ADD33C,0.01106*%
%ADD34C,0.02562*%
%ADD35C,0.03743*%
%ADD36R,0.04137X0.06106*%
%ADD37R,0.02070X0.01184*%
%ADD38R,0.01184X0.01676*%
D10*
X0052528Y0030087D03*
X0054496Y0030087D03*
X0054496Y0032056D03*
X0052528Y0032056D03*
X0052528Y0034024D03*
X0054496Y0034024D03*
X0056465Y0034024D03*
X0056465Y0032056D03*
X0056465Y0030087D03*
X0069851Y0046229D03*
X0069851Y0048197D03*
X0071819Y0048197D03*
X0071819Y0046229D03*
X0073788Y0046229D03*
X0073788Y0048197D03*
X0073788Y0050166D03*
X0071819Y0050166D03*
X0069851Y0050166D03*
X0087567Y0084418D03*
X0087567Y0086386D03*
X0087567Y0088355D03*
X0089536Y0088355D03*
X0091504Y0088355D03*
X0091504Y0086386D03*
X0089536Y0086386D03*
X0089536Y0084418D03*
X0091504Y0084418D03*
X0064733Y0087961D03*
X0062764Y0087961D03*
X0060796Y0087961D03*
X0060796Y0089930D03*
X0060796Y0091898D03*
X0062764Y0091898D03*
X0062764Y0089930D03*
X0064733Y0089930D03*
X0064733Y0091898D03*
D11*
X0091662Y0079811D03*
X0099536Y0079811D03*
X0091780Y0063394D03*
X0083906Y0063394D03*
X0067685Y0067764D03*
X0059811Y0067764D03*
X0079378Y0029063D03*
X0087252Y0029063D03*
D12*
X0085520Y0032869D03*
X0083158Y0032869D03*
X0081150Y0032961D03*
X0078788Y0032961D03*
X0092095Y0032764D03*
X0094457Y0032764D03*
X0100756Y0043276D03*
X0103119Y0043276D03*
X0103119Y0045441D03*
X0100756Y0045441D03*
X0101544Y0055874D03*
X0099181Y0055874D03*
X0099654Y0058079D03*
X0097292Y0058079D03*
X0097292Y0060481D03*
X0099654Y0060481D03*
X0092213Y0059103D03*
X0089851Y0059103D03*
X0088158Y0059615D03*
X0085796Y0059615D03*
X0084418Y0059615D03*
X0082056Y0059615D03*
X0083709Y0057528D03*
X0086071Y0057528D03*
X0089851Y0056898D03*
X0092213Y0056898D03*
X0076662Y0052922D03*
X0074300Y0052922D03*
X0071937Y0053040D03*
X0069575Y0053040D03*
X0064536Y0053630D03*
X0062174Y0053630D03*
X0062252Y0055874D03*
X0064615Y0055874D03*
X0056111Y0065244D03*
X0053748Y0065244D03*
X0041189Y0068237D03*
X0038827Y0068237D03*
X0038040Y0070599D03*
X0040402Y0070599D03*
X0041189Y0073197D03*
X0038827Y0073197D03*
X0043237Y0082213D03*
X0045599Y0082213D03*
G36*
X0045524Y0084152D02*
X0044548Y0083176D01*
X0043294Y0084430D01*
X0044270Y0085406D01*
X0045524Y0084152D01*
G37*
G36*
X0047195Y0085823D02*
X0046219Y0084847D01*
X0044965Y0086101D01*
X0045941Y0087077D01*
X0047195Y0085823D01*
G37*
X0061504Y0094615D03*
X0063867Y0094615D03*
X0087764Y0090993D03*
X0090126Y0090993D03*
X0094260Y0083591D03*
X0096622Y0083591D03*
X0040993Y0057134D03*
X0038630Y0057134D03*
G36*
X0057157Y0026076D02*
X0055861Y0026548D01*
X0056467Y0028214D01*
X0057763Y0027742D01*
X0057157Y0026076D01*
G37*
G36*
X0059377Y0025268D02*
X0058081Y0025740D01*
X0058687Y0027406D01*
X0059983Y0026934D01*
X0059377Y0025268D01*
G37*
D13*
X0059142Y0028709D03*
X0059142Y0031071D03*
X0059181Y0033552D03*
X0059181Y0035914D03*
X0049496Y0034300D03*
X0049496Y0031937D03*
X0076583Y0032725D03*
X0076583Y0034851D03*
X0076583Y0037213D03*
X0076583Y0039418D03*
X0076583Y0041780D03*
X0076583Y0044024D03*
X0076583Y0046386D03*
X0076583Y0048709D03*
X0076583Y0051071D03*
X0060126Y0053670D03*
X0060126Y0056032D03*
X0040678Y0076032D03*
X0040678Y0078394D03*
X0060697Y0083104D03*
X0063119Y0083119D03*
X0063433Y0081268D03*
X0065717Y0081229D03*
X0065796Y0083119D03*
X0065796Y0085481D03*
X0063119Y0085481D03*
X0060697Y0085466D03*
X0063433Y0078906D03*
X0065717Y0078867D03*
X0086307Y0079024D03*
X0086307Y0081386D03*
X0088721Y0081386D03*
X0088721Y0079024D03*
X0086032Y0090835D03*
X0086032Y0093197D03*
X0100914Y0053867D03*
X0100914Y0051504D03*
X0100914Y0049930D03*
X0100914Y0047567D03*
X0090336Y0032804D03*
X0090336Y0030441D03*
X0076583Y0030363D03*
X0076622Y0028552D03*
X0076622Y0026189D03*
D14*
X0055469Y0036926D03*
X0053500Y0036926D03*
X0051531Y0036926D03*
X0049563Y0036926D03*
X0047594Y0036926D03*
X0045626Y0036926D03*
X0045626Y0052674D03*
X0047594Y0052674D03*
X0049563Y0052674D03*
X0051531Y0052674D03*
X0053500Y0052674D03*
X0055469Y0052674D03*
D15*
X0058421Y0049722D03*
X0058421Y0047753D03*
X0058421Y0045785D03*
X0058421Y0043816D03*
X0058421Y0041848D03*
X0058421Y0039879D03*
X0042673Y0039879D03*
X0042673Y0041848D03*
X0042673Y0043816D03*
X0042673Y0045785D03*
X0042673Y0047753D03*
X0042673Y0049722D03*
D16*
X0050547Y0044800D03*
D17*
X0088590Y0044793D03*
D18*
X0098039Y0043809D03*
X0098039Y0041841D03*
X0098039Y0039872D03*
X0098039Y0037904D03*
X0098039Y0045778D03*
X0098039Y0047746D03*
X0098039Y0049715D03*
X0098039Y0051683D03*
X0079141Y0051683D03*
X0079141Y0049715D03*
X0079141Y0047746D03*
X0079141Y0045778D03*
X0079141Y0043809D03*
X0079141Y0041841D03*
X0079141Y0039872D03*
X0079141Y0037904D03*
D19*
X0081700Y0035344D03*
X0083669Y0035344D03*
X0085637Y0035344D03*
X0087606Y0035344D03*
X0089574Y0035344D03*
X0091543Y0035344D03*
X0093511Y0035344D03*
X0095480Y0035344D03*
X0095480Y0054242D03*
X0093511Y0054242D03*
X0091543Y0054242D03*
X0089574Y0054242D03*
X0087606Y0054242D03*
X0085637Y0054242D03*
X0083669Y0054242D03*
X0081700Y0054242D03*
D20*
X0078493Y0066800D02*
X0077863Y0066800D01*
X0077863Y0067390D01*
X0078493Y0068020D01*
X0078493Y0066800D01*
X0078493Y0066955D02*
X0077863Y0066955D01*
X0077863Y0067153D02*
X0078493Y0067153D01*
X0078493Y0067352D02*
X0077863Y0067352D01*
X0078022Y0067550D02*
X0078493Y0067550D01*
X0078493Y0067749D02*
X0078221Y0067749D01*
X0078420Y0067947D02*
X0078493Y0067947D01*
X0077873Y0068741D02*
X0075923Y0068741D01*
X0075725Y0068940D02*
X0078071Y0068940D01*
X0078234Y0069103D02*
X0076898Y0070439D01*
X0075562Y0069103D01*
X0076898Y0067767D01*
X0078234Y0069103D01*
X0078199Y0069138D02*
X0075597Y0069138D01*
X0075796Y0069337D02*
X0078000Y0069337D01*
X0077802Y0069535D02*
X0075994Y0069535D01*
X0076193Y0069734D02*
X0077603Y0069734D01*
X0077405Y0069932D02*
X0076391Y0069932D01*
X0076590Y0070131D02*
X0077206Y0070131D01*
X0077008Y0070329D02*
X0076788Y0070329D01*
X0075933Y0070815D02*
X0075933Y0071406D01*
X0075304Y0071406D01*
X0075304Y0070185D01*
X0075933Y0070815D01*
X0075933Y0070925D02*
X0075304Y0070925D01*
X0075304Y0071123D02*
X0075933Y0071123D01*
X0075933Y0071322D02*
X0075304Y0071322D01*
X0075304Y0070726D02*
X0075844Y0070726D01*
X0075646Y0070528D02*
X0075304Y0070528D01*
X0075304Y0070329D02*
X0075447Y0070329D01*
X0076122Y0068543D02*
X0077674Y0068543D01*
X0077476Y0068344D02*
X0076320Y0068344D01*
X0076519Y0068146D02*
X0077277Y0068146D01*
X0077079Y0067947D02*
X0076717Y0067947D01*
X0075933Y0067390D02*
X0075933Y0066800D01*
X0075304Y0066800D01*
X0075304Y0068020D01*
X0075933Y0067390D01*
X0075933Y0067352D02*
X0075304Y0067352D01*
X0075304Y0067550D02*
X0075774Y0067550D01*
X0075575Y0067749D02*
X0075304Y0067749D01*
X0075304Y0067947D02*
X0075377Y0067947D01*
X0075304Y0067153D02*
X0075933Y0067153D01*
X0075933Y0066955D02*
X0075304Y0066955D01*
X0078493Y0070185D02*
X0077863Y0070815D01*
X0077863Y0071406D01*
X0078493Y0071406D01*
X0078493Y0070185D01*
X0078493Y0070329D02*
X0078349Y0070329D01*
X0078493Y0070528D02*
X0078150Y0070528D01*
X0077952Y0070726D02*
X0078493Y0070726D01*
X0078493Y0070925D02*
X0077863Y0070925D01*
X0077863Y0071123D02*
X0078493Y0071123D01*
X0078493Y0071322D02*
X0077863Y0071322D01*
X0082863Y0071322D02*
X0083493Y0071322D01*
X0083493Y0071520D02*
X0082863Y0071520D01*
X0082863Y0071642D02*
X0083493Y0071642D01*
X0083493Y0071052D01*
X0082863Y0070422D01*
X0082863Y0071642D01*
X0082863Y0071123D02*
X0083493Y0071123D01*
X0083366Y0070925D02*
X0082863Y0070925D01*
X0082863Y0070726D02*
X0083167Y0070726D01*
X0082969Y0070528D02*
X0082863Y0070528D01*
X0083516Y0069734D02*
X0085399Y0069734D01*
X0085597Y0069535D02*
X0083317Y0069535D01*
X0083121Y0069339D02*
X0084457Y0070675D01*
X0085793Y0069339D01*
X0084457Y0068003D01*
X0083121Y0069339D01*
X0083123Y0069337D02*
X0085791Y0069337D01*
X0085592Y0069138D02*
X0083322Y0069138D01*
X0083520Y0068940D02*
X0085394Y0068940D01*
X0085195Y0068741D02*
X0083719Y0068741D01*
X0083917Y0068543D02*
X0084997Y0068543D01*
X0084798Y0068344D02*
X0084116Y0068344D01*
X0084314Y0068146D02*
X0084600Y0068146D01*
X0085422Y0067626D02*
X0085422Y0067036D01*
X0086052Y0067036D01*
X0086052Y0068256D01*
X0085422Y0067626D01*
X0085422Y0067550D02*
X0086052Y0067550D01*
X0086052Y0067352D02*
X0085422Y0067352D01*
X0085422Y0067153D02*
X0086052Y0067153D01*
X0086052Y0067749D02*
X0085544Y0067749D01*
X0085742Y0067947D02*
X0086052Y0067947D01*
X0086052Y0068146D02*
X0085941Y0068146D01*
X0085200Y0069932D02*
X0083714Y0069932D01*
X0083913Y0070131D02*
X0085002Y0070131D01*
X0084803Y0070329D02*
X0084111Y0070329D01*
X0084310Y0070528D02*
X0084605Y0070528D01*
X0085422Y0071052D02*
X0085422Y0071642D01*
X0086052Y0071642D01*
X0086052Y0070422D01*
X0085422Y0071052D01*
X0085422Y0071123D02*
X0086052Y0071123D01*
X0086052Y0070925D02*
X0085548Y0070925D01*
X0085747Y0070726D02*
X0086052Y0070726D01*
X0086052Y0070528D02*
X0085946Y0070528D01*
X0086052Y0071322D02*
X0085422Y0071322D01*
X0085422Y0071520D02*
X0086052Y0071520D01*
X0082863Y0068256D02*
X0083493Y0067626D01*
X0083493Y0067036D01*
X0082863Y0067036D01*
X0082863Y0068256D01*
X0082863Y0068146D02*
X0082973Y0068146D01*
X0082863Y0067947D02*
X0083172Y0067947D01*
X0083370Y0067749D02*
X0082863Y0067749D01*
X0082863Y0067550D02*
X0083493Y0067550D01*
X0083493Y0067352D02*
X0082863Y0067352D01*
X0082863Y0067153D02*
X0083493Y0067153D01*
X0100500Y0067351D02*
X0101130Y0067351D01*
X0101130Y0067941D01*
X0100500Y0068571D01*
X0100500Y0067351D01*
X0100500Y0067352D02*
X0101130Y0067352D01*
X0101130Y0067550D02*
X0100500Y0067550D01*
X0100500Y0067749D02*
X0101130Y0067749D01*
X0101125Y0067947D02*
X0100500Y0067947D01*
X0100500Y0068146D02*
X0100926Y0068146D01*
X0100728Y0068344D02*
X0100500Y0068344D01*
X0100500Y0068543D02*
X0100529Y0068543D01*
X0101274Y0069138D02*
X0102915Y0069138D01*
X0102717Y0068940D02*
X0101473Y0068940D01*
X0101671Y0068741D02*
X0102518Y0068741D01*
X0102320Y0068543D02*
X0101870Y0068543D01*
X0102068Y0068344D02*
X0102121Y0068344D01*
X0102095Y0068318D02*
X0100759Y0069654D01*
X0102095Y0070990D01*
X0103431Y0069654D01*
X0102095Y0068318D01*
X0103059Y0067941D02*
X0103059Y0067351D01*
X0103689Y0067351D01*
X0103689Y0068571D01*
X0103059Y0067941D01*
X0103065Y0067947D02*
X0103689Y0067947D01*
X0103689Y0067749D02*
X0103059Y0067749D01*
X0103059Y0067550D02*
X0103689Y0067550D01*
X0103689Y0067352D02*
X0103059Y0067352D01*
X0103264Y0068146D02*
X0103689Y0068146D01*
X0103689Y0068344D02*
X0103462Y0068344D01*
X0103661Y0068543D02*
X0103689Y0068543D01*
X0103114Y0069337D02*
X0101076Y0069337D01*
X0100877Y0069535D02*
X0103312Y0069535D01*
X0103351Y0069734D02*
X0100838Y0069734D01*
X0101037Y0069932D02*
X0103153Y0069932D01*
X0102954Y0070131D02*
X0101235Y0070131D01*
X0101434Y0070329D02*
X0102756Y0070329D01*
X0102557Y0070528D02*
X0101632Y0070528D01*
X0101831Y0070726D02*
X0102359Y0070726D01*
X0102160Y0070925D02*
X0102029Y0070925D01*
X0101130Y0071367D02*
X0101130Y0071957D01*
X0100500Y0071957D01*
X0100500Y0070737D01*
X0101130Y0071367D01*
X0101086Y0071322D02*
X0100500Y0071322D01*
X0100500Y0071520D02*
X0101130Y0071520D01*
X0101130Y0071719D02*
X0100500Y0071719D01*
X0100500Y0071917D02*
X0101130Y0071917D01*
X0100887Y0071123D02*
X0100500Y0071123D01*
X0100500Y0070925D02*
X0100689Y0070925D01*
X0103059Y0071367D02*
X0103059Y0071957D01*
X0103689Y0071957D01*
X0103689Y0070737D01*
X0103059Y0071367D01*
X0103104Y0071322D02*
X0103689Y0071322D01*
X0103689Y0071520D02*
X0103059Y0071520D01*
X0103059Y0071719D02*
X0103689Y0071719D01*
X0103689Y0071917D02*
X0103059Y0071917D01*
X0103303Y0071123D02*
X0103689Y0071123D01*
X0103689Y0070925D02*
X0103501Y0070925D01*
D21*
X0059654Y0072331D03*
X0059654Y0080205D03*
X0056307Y0083748D03*
X0056307Y0091622D03*
X0038591Y0054300D03*
X0038591Y0046426D03*
D22*
X0043670Y0070678D03*
X0043670Y0072646D03*
X0043670Y0074615D03*
X0043670Y0076583D03*
X0043670Y0078552D03*
X0054693Y0078552D03*
X0054693Y0076583D03*
X0054693Y0074615D03*
X0054693Y0072646D03*
X0054693Y0070678D03*
D23*
X0049181Y0074615D03*
D24*
X0049831Y0088945D03*
X0052390Y0088945D03*
D25*
X0051977Y0086400D03*
X0048748Y0086321D03*
X0048748Y0082121D03*
X0051977Y0082200D03*
X0036583Y0068211D03*
X0036583Y0064011D03*
X0036189Y0061518D03*
X0040284Y0059444D03*
X0036189Y0057318D03*
X0040284Y0063644D03*
X0072961Y0066609D03*
X0072961Y0070809D03*
X0080756Y0071045D03*
X0080756Y0066845D03*
X0095323Y0067475D03*
X0098630Y0067475D03*
X0098630Y0071675D03*
X0095323Y0071675D03*
X0094969Y0062581D03*
X0094969Y0058381D03*
X0101819Y0058263D03*
X0101819Y0062463D03*
D26*
X0055323Y0058945D03*
X0045087Y0058945D03*
D27*
X0043788Y0065993D03*
X0050244Y0065993D03*
D28*
X0095717Y0085126D03*
X0095717Y0086701D03*
D29*
X0097711Y0074103D03*
X0101911Y0074103D03*
X0091990Y0073040D03*
X0087790Y0073040D03*
X0084904Y0073315D03*
X0080704Y0073315D03*
X0077266Y0073315D03*
X0073066Y0073315D03*
X0068053Y0072922D03*
X0063853Y0072922D03*
X0066727Y0055796D03*
X0070927Y0055796D03*
X0073026Y0055402D03*
X0077226Y0055402D03*
X0097318Y0064772D03*
X0101518Y0064772D03*
D30*
X0066564Y0050343D02*
X0065972Y0050343D01*
X0065972Y0052115D01*
X0066564Y0052115D01*
X0066564Y0050343D01*
X0066564Y0050934D02*
X0065972Y0050934D01*
X0065972Y0051525D02*
X0066564Y0051525D01*
X0061840Y0050343D02*
X0061248Y0050343D01*
X0061248Y0052115D01*
X0061840Y0052115D01*
X0061840Y0050343D01*
X0061840Y0050934D02*
X0061248Y0050934D01*
X0061248Y0051525D02*
X0061840Y0051525D01*
X0061840Y0046603D02*
X0061248Y0046603D01*
X0061840Y0046603D02*
X0061840Y0044831D01*
X0061248Y0044831D01*
X0061248Y0046603D01*
X0061248Y0045422D02*
X0061840Y0045422D01*
X0061840Y0046013D02*
X0061248Y0046013D01*
X0065972Y0046603D02*
X0066564Y0046603D01*
X0066564Y0044831D01*
X0065972Y0044831D01*
X0065972Y0046603D01*
X0065972Y0045422D02*
X0066564Y0045422D01*
X0066564Y0046013D02*
X0065972Y0046013D01*
D31*
X0064152Y0046652D02*
X0063660Y0046652D01*
X0064152Y0046652D02*
X0064152Y0044782D01*
X0063660Y0044782D01*
X0063660Y0046652D01*
X0063660Y0045275D02*
X0064152Y0045275D01*
X0064152Y0045768D02*
X0063660Y0045768D01*
X0063660Y0046261D02*
X0064152Y0046261D01*
X0064152Y0052164D02*
X0063660Y0052164D01*
X0064152Y0052164D02*
X0064152Y0050294D01*
X0063660Y0050294D01*
X0063660Y0052164D01*
X0063660Y0050787D02*
X0064152Y0050787D01*
X0064152Y0051280D02*
X0063660Y0051280D01*
X0063660Y0051773D02*
X0064152Y0051773D01*
D32*
X0065726Y0048818D02*
X0065726Y0048128D01*
X0065726Y0048818D02*
X0067598Y0048818D01*
X0067598Y0048128D01*
X0065726Y0048128D01*
X0065726Y0048818D02*
X0067598Y0048818D01*
X0060214Y0048818D02*
X0060214Y0048128D01*
X0060214Y0048818D02*
X0062086Y0048818D01*
X0062086Y0048128D01*
X0060214Y0048128D01*
X0060214Y0048818D02*
X0062086Y0048818D01*
D33*
X0089024Y0068630D03*
X0090599Y0068630D03*
X0092174Y0068630D03*
X0092174Y0070205D03*
X0090599Y0070205D03*
X0089024Y0070205D03*
X0082252Y0080284D03*
X0080678Y0080284D03*
X0079103Y0080284D03*
X0077528Y0080284D03*
X0075953Y0080284D03*
X0074378Y0080284D03*
X0072804Y0080284D03*
X0071229Y0080284D03*
X0069654Y0080284D03*
X0069654Y0081859D03*
X0069654Y0083433D03*
X0071229Y0083433D03*
X0071229Y0081859D03*
X0072804Y0081859D03*
X0074378Y0081859D03*
X0074378Y0083433D03*
X0072804Y0083433D03*
X0072804Y0085008D03*
X0074378Y0085008D03*
X0075953Y0085008D03*
X0075953Y0083433D03*
X0075953Y0081859D03*
X0077528Y0081859D03*
X0077528Y0083433D03*
X0079103Y0083433D03*
X0079103Y0081859D03*
X0080678Y0081859D03*
X0082252Y0081859D03*
X0082252Y0083433D03*
X0080678Y0083433D03*
X0080678Y0085008D03*
X0082252Y0085008D03*
X0082252Y0086583D03*
X0080678Y0086583D03*
X0080678Y0088158D03*
X0082252Y0088158D03*
X0082252Y0089733D03*
X0080678Y0089733D03*
X0079103Y0089733D03*
X0077528Y0089733D03*
X0075953Y0089733D03*
X0074378Y0089733D03*
X0072804Y0089733D03*
X0072804Y0088158D03*
X0074378Y0088158D03*
X0074378Y0086583D03*
X0072804Y0086583D03*
X0071229Y0086583D03*
X0071229Y0088158D03*
X0071229Y0089733D03*
X0069654Y0089733D03*
X0069654Y0088158D03*
X0069654Y0086583D03*
X0069654Y0085008D03*
X0071229Y0085008D03*
X0075953Y0086583D03*
X0075953Y0088158D03*
X0077528Y0088158D03*
X0079103Y0088158D03*
X0079103Y0086583D03*
X0077528Y0086583D03*
X0077528Y0085008D03*
X0079103Y0085008D03*
X0079103Y0091307D03*
X0080678Y0091307D03*
X0082252Y0091307D03*
X0082252Y0092882D03*
X0080678Y0092882D03*
X0079103Y0092882D03*
X0077528Y0092882D03*
X0077528Y0091307D03*
X0075953Y0091307D03*
X0074378Y0091307D03*
X0072804Y0091307D03*
X0071229Y0091307D03*
X0069654Y0091307D03*
X0069654Y0092882D03*
X0071229Y0092882D03*
X0072804Y0092882D03*
X0074378Y0092882D03*
X0075953Y0092882D03*
D34*
X0046819Y0034063D03*
X0040205Y0042567D03*
X0064221Y0075993D03*
X0069221Y0075993D03*
X0074221Y0075993D03*
X0079221Y0075993D03*
X0084221Y0075993D03*
X0089221Y0075993D03*
X0094221Y0075993D03*
D35*
X0105678Y0053709D03*
X0104608Y0049788D03*
D36*
X0078119Y0061386D03*
X0073000Y0061386D03*
X0068276Y0061386D03*
X0063552Y0061386D03*
D37*
X0061701Y0042725D03*
X0061701Y0040756D03*
X0061701Y0038788D03*
X0061701Y0036819D03*
X0061701Y0034851D03*
X0061701Y0032882D03*
X0061701Y0030914D03*
X0061701Y0028945D03*
X0061701Y0026977D03*
X0061701Y0025008D03*
X0073985Y0025008D03*
X0073985Y0026977D03*
X0073985Y0028945D03*
X0073985Y0030914D03*
X0073985Y0032882D03*
X0073985Y0034851D03*
X0073985Y0036819D03*
X0073985Y0038788D03*
X0073985Y0040756D03*
X0073985Y0042725D03*
D38*
X0070796Y0042922D03*
X0068827Y0042922D03*
X0066859Y0042922D03*
X0064890Y0042922D03*
X0064890Y0024811D03*
X0066859Y0024811D03*
X0068827Y0024811D03*
X0070796Y0024811D03*
M02*
