G75*
%MOIN*%
%OFA0B0*%
%FSLAX25Y25*%
%IPPOS*%
%LPD*%
%AMOC8*
5,1,8,0,0,1.08239X$1,22.5*
%
%ADD10C,0.00600*%
%ADD11C,0.00500*%
D10*
X0042882Y0068315D02*
X0042882Y0069103D01*
X0042882Y0068315D02*
X0052626Y0068315D01*
X0055481Y0080126D02*
X0055481Y0080914D01*
X0042882Y0080914D01*
X0042882Y0080126D01*
X0100303Y0040704D02*
X0099562Y0039136D01*
X0101871Y0039963D01*
X0101130Y0038394D01*
X0100553Y0038188D01*
X0099768Y0038558D01*
X0099562Y0039136D01*
X0100303Y0040704D02*
X0100880Y0040911D01*
X0101665Y0040540D01*
X0101871Y0039963D01*
X0103864Y0056079D02*
X0105599Y0056079D01*
X0106033Y0056513D01*
X0106033Y0057380D01*
X0105599Y0057814D01*
X0104732Y0057814D01*
X0104732Y0056947D01*
X0103864Y0057814D02*
X0103431Y0057380D01*
X0103431Y0056513D01*
X0103864Y0056079D01*
X0104494Y0059668D02*
X0104494Y0060969D01*
X0104927Y0061403D01*
X0105795Y0061403D01*
X0106228Y0060969D01*
X0106228Y0059668D01*
X0107096Y0059668D02*
X0104494Y0059668D01*
X0104494Y0062615D02*
X0104494Y0063916D01*
X0104927Y0064349D01*
X0105795Y0064349D01*
X0106228Y0063916D01*
X0106228Y0062615D01*
X0106228Y0063482D02*
X0107096Y0064349D01*
X0107096Y0062615D02*
X0104494Y0062615D01*
X0104494Y0065561D02*
X0104927Y0065561D01*
X0105795Y0066428D01*
X0107096Y0066428D01*
X0105795Y0066428D02*
X0104927Y0067296D01*
X0104494Y0067296D01*
D11*
X0042673Y0037911D02*
X0042673Y0036926D01*
X0043657Y0036926D01*
X0051052Y0035500D02*
X0051052Y0031957D01*
X0051052Y0030284D02*
X0051052Y0028611D01*
X0052725Y0028611D01*
X0056268Y0028611D02*
X0057941Y0028611D01*
X0057941Y0030284D01*
X0057941Y0033827D02*
X0057941Y0035500D01*
X0056268Y0035500D01*
X0054595Y0035500D02*
X0051052Y0035500D01*
X0057437Y0036926D02*
X0058421Y0036926D01*
X0058421Y0037911D01*
X0060363Y0044103D02*
X0075323Y0044103D01*
X0075323Y0023630D01*
X0063512Y0023630D01*
X0063512Y0023237D01*
X0060363Y0023237D01*
X0060363Y0023630D01*
X0063512Y0023630D01*
X0060363Y0023630D02*
X0060363Y0044103D01*
X0067449Y0045323D02*
X0067449Y0046898D01*
X0068374Y0046426D02*
X0068374Y0044752D01*
X0070048Y0044752D01*
X0073591Y0044752D02*
X0075264Y0044752D01*
X0075264Y0046426D01*
X0075264Y0049969D02*
X0075264Y0051642D01*
X0073591Y0051642D01*
X0071918Y0051642D02*
X0068374Y0051642D01*
X0068374Y0048099D01*
X0067449Y0050048D02*
X0067449Y0051622D01*
X0060363Y0051622D02*
X0060363Y0050048D01*
X0060796Y0060796D02*
X0060796Y0063552D01*
X0078354Y0055030D02*
X0078354Y0053061D01*
X0078354Y0055030D02*
X0080322Y0055030D01*
X0080874Y0060796D02*
X0080874Y0063552D01*
X0087843Y0067646D02*
X0087843Y0069418D01*
X0084811Y0077725D02*
X0080284Y0077725D01*
X0084811Y0077725D02*
X0084811Y0082252D01*
X0086091Y0082941D02*
X0086091Y0084615D01*
X0084811Y0086386D02*
X0084811Y0095441D01*
X0075756Y0095441D01*
X0071622Y0095441D02*
X0067095Y0095441D01*
X0067095Y0090914D01*
X0066209Y0091701D02*
X0066209Y0093374D01*
X0064536Y0093374D01*
X0060993Y0093374D02*
X0059319Y0093374D01*
X0059319Y0091701D01*
X0059319Y0090028D02*
X0059319Y0086485D01*
X0062863Y0086485D01*
X0064536Y0086485D02*
X0066209Y0086485D01*
X0066209Y0088158D01*
X0067095Y0082252D02*
X0067095Y0077725D01*
X0071622Y0077725D01*
X0086091Y0082941D02*
X0087764Y0082941D01*
X0091307Y0082941D02*
X0092981Y0082941D01*
X0092981Y0084615D01*
X0092981Y0086288D02*
X0092981Y0089831D01*
X0089437Y0089831D01*
X0087764Y0089831D02*
X0086091Y0089831D01*
X0086091Y0088158D01*
X0095136Y0087530D02*
X0096398Y0087530D01*
X0096857Y0055030D02*
X0098826Y0055030D01*
X0098826Y0053061D01*
X0104693Y0047607D02*
X0104693Y0046386D01*
X0104181Y0043827D01*
X0103197Y0041819D02*
X0102449Y0040678D01*
X0080322Y0034557D02*
X0078354Y0034557D01*
X0078354Y0036526D01*
X0043657Y0052674D02*
X0042673Y0052674D01*
X0042673Y0051690D01*
X0053473Y0088158D02*
X0053473Y0089733D01*
M02*
