G75*
%MOIN*%
%OFA0B0*%
%FSLAX25Y25*%
%IPPOS*%
%LPD*%
%AMOC8*
5,1,8,0,0,1.08239X$1,22.5*
%
%ADD10R,0.01106X0.03153*%
%ADD11R,0.01578X0.03153*%
%ADD12R,0.01775X0.01381*%
%ADD13R,0.01381X0.01775*%
%ADD14R,0.01775X0.02562*%
%ADD15R,0.02562X0.01775*%
%ADD16C,0.02956*%
%ADD17C,0.00987*%
%ADD18C,0.00200*%
%ADD19R,0.02169X0.02562*%
%ADD20R,0.01086X0.02023*%
%ADD21R,0.01086X0.02810*%
%ADD22R,0.02023X0.01086*%
%ADD23R,0.03153X0.01106*%
%ADD24R,0.03153X0.01578*%
%ADD25R,0.02700X0.01400*%
%ADD26R,0.04100X0.06500*%
%ADD27R,0.03000X0.01400*%
%ADD28R,0.01400X0.03000*%
%ADD29R,0.06700X0.06700*%
D10*
X0044457Y0057902D03*
X0046032Y0057902D03*
X0047607Y0057902D03*
X0049181Y0057902D03*
X0050756Y0057902D03*
X0052331Y0057902D03*
X0053906Y0057902D03*
X0055481Y0057902D03*
X0057056Y0057902D03*
X0058630Y0057902D03*
X0060205Y0057902D03*
X0061780Y0057902D03*
X0063355Y0057902D03*
X0064930Y0057902D03*
X0066504Y0057902D03*
X0068079Y0057902D03*
X0069654Y0057902D03*
X0071229Y0057902D03*
X0072804Y0057902D03*
X0074378Y0057902D03*
X0075953Y0057902D03*
X0077528Y0057902D03*
X0079103Y0057902D03*
X0080678Y0057902D03*
X0082252Y0057902D03*
X0083827Y0057902D03*
X0085402Y0057902D03*
X0086977Y0057902D03*
X0088552Y0057902D03*
X0090126Y0057902D03*
X0091701Y0057902D03*
X0093276Y0057902D03*
X0094851Y0057902D03*
X0096426Y0057902D03*
X0098000Y0057902D03*
X0098000Y0070382D03*
X0096426Y0070382D03*
X0094851Y0070382D03*
X0093276Y0070382D03*
X0091701Y0070382D03*
X0090126Y0070382D03*
X0088552Y0070382D03*
X0086977Y0070382D03*
X0085402Y0070382D03*
X0083827Y0070382D03*
X0082252Y0070382D03*
X0080678Y0070382D03*
X0079103Y0070382D03*
X0077528Y0070382D03*
X0075953Y0070382D03*
X0074378Y0070382D03*
X0072804Y0070382D03*
X0071229Y0070382D03*
X0069654Y0070382D03*
X0068079Y0070382D03*
X0066504Y0070382D03*
X0064930Y0070382D03*
X0063355Y0070382D03*
X0061780Y0070382D03*
X0060205Y0070382D03*
X0058630Y0070382D03*
X0057056Y0070382D03*
X0055481Y0070382D03*
X0053906Y0070382D03*
X0052331Y0070382D03*
X0050756Y0070382D03*
X0049181Y0070382D03*
X0047607Y0070382D03*
X0046032Y0070382D03*
X0044457Y0070382D03*
D11*
X0042587Y0070382D03*
X0042587Y0057902D03*
X0099870Y0057902D03*
X0099870Y0070382D03*
D12*
X0088355Y0073197D03*
X0088355Y0075559D03*
X0088355Y0077174D03*
X0088355Y0079536D03*
X0085796Y0079496D03*
X0085796Y0077134D03*
X0085796Y0075559D03*
X0085796Y0073197D03*
X0073000Y0079496D03*
X0070953Y0079496D03*
X0068670Y0078315D03*
X0070953Y0077134D03*
X0068670Y0075953D03*
X0066032Y0077292D03*
X0066032Y0079654D03*
X0065953Y0081544D03*
X0065953Y0083906D03*
X0071004Y0087419D03*
X0071004Y0089781D03*
X0072804Y0091307D03*
X0074772Y0091307D03*
X0076741Y0091307D03*
X0078709Y0091307D03*
X0080678Y0091307D03*
X0080678Y0093670D03*
X0078709Y0093670D03*
X0076741Y0093670D03*
X0074772Y0093670D03*
X0072804Y0093670D03*
X0082804Y0089654D03*
X0082804Y0087292D03*
X0073000Y0081859D03*
X0051583Y0087725D03*
X0051583Y0090087D03*
X0044654Y0084103D03*
X0044654Y0081741D03*
X0047528Y0076032D03*
X0047528Y0073670D03*
X0050339Y0073670D03*
X0050339Y0076032D03*
D13*
X0049339Y0078048D03*
X0046977Y0078048D03*
X0045087Y0077134D03*
X0042725Y0077134D03*
X0042489Y0079615D03*
X0044851Y0079615D03*
X0046977Y0080381D03*
X0049339Y0080381D03*
X0049339Y0082714D03*
X0046977Y0082714D03*
X0046977Y0085048D03*
X0049339Y0085048D03*
X0054733Y0089811D03*
X0054733Y0092016D03*
X0057095Y0092016D03*
X0057095Y0089811D03*
X0064772Y0086111D03*
X0067134Y0086111D03*
X0069001Y0084849D03*
X0071363Y0084849D03*
G36*
X0072034Y0083918D02*
X0073010Y0084894D01*
X0074264Y0083640D01*
X0073288Y0082664D01*
X0072034Y0083918D01*
G37*
X0071229Y0081859D03*
X0068867Y0081859D03*
G36*
X0073705Y0085589D02*
X0074681Y0086565D01*
X0075935Y0085311D01*
X0074959Y0084335D01*
X0073705Y0085589D01*
G37*
G36*
X0074959Y0088831D02*
X0075935Y0087855D01*
X0074681Y0086601D01*
X0073705Y0087577D01*
X0074959Y0088831D01*
G37*
G36*
X0073288Y0090502D02*
X0074264Y0089526D01*
X0073010Y0088272D01*
X0072034Y0089248D01*
X0073288Y0090502D01*
G37*
G36*
X0078201Y0087577D02*
X0077225Y0086601D01*
X0075971Y0087855D01*
X0076947Y0088831D01*
X0078201Y0087577D01*
G37*
X0078709Y0086583D03*
X0081071Y0086583D03*
X0080756Y0084378D03*
G36*
X0078539Y0082664D02*
X0077563Y0083640D01*
X0078817Y0084894D01*
X0079793Y0083918D01*
X0078539Y0082664D01*
G37*
X0080874Y0081859D03*
X0083237Y0081859D03*
X0083119Y0084378D03*
G36*
X0085215Y0082366D02*
X0084239Y0083342D01*
X0085493Y0084596D01*
X0086469Y0083620D01*
X0085215Y0082366D01*
G37*
G36*
X0086886Y0080696D02*
X0085910Y0081672D01*
X0087164Y0082926D01*
X0088140Y0081950D01*
X0086886Y0080696D01*
G37*
X0083237Y0078867D03*
X0080874Y0078867D03*
X0080678Y0076741D03*
X0083040Y0076741D03*
X0074930Y0073906D03*
X0072567Y0073906D03*
X0066741Y0075166D03*
X0064378Y0075166D03*
G36*
X0076869Y0084335D02*
X0075893Y0085311D01*
X0077147Y0086565D01*
X0078123Y0085589D01*
X0076869Y0084335D01*
G37*
G36*
X0079872Y0089248D02*
X0078896Y0088272D01*
X0077642Y0089526D01*
X0078618Y0090502D01*
X0079872Y0089248D01*
G37*
G36*
X0086627Y0089940D02*
X0085651Y0088964D01*
X0084397Y0090218D01*
X0085373Y0091194D01*
X0086627Y0089940D01*
G37*
G36*
X0088297Y0091610D02*
X0087321Y0090634D01*
X0086067Y0091888D01*
X0087043Y0092864D01*
X0088297Y0091610D01*
G37*
X0076819Y0095402D03*
X0074457Y0095402D03*
X0072567Y0095402D03*
X0070205Y0095402D03*
X0068315Y0095402D03*
X0068079Y0093119D03*
X0069254Y0091307D03*
X0066892Y0091307D03*
X0065717Y0093119D03*
X0065953Y0095402D03*
X0066892Y0089339D03*
X0069254Y0089339D03*
X0096701Y0082174D03*
X0099063Y0082174D03*
X0092922Y0036504D03*
X0090559Y0036504D03*
X0077134Y0024969D03*
X0074772Y0024969D03*
X0072804Y0024969D03*
X0070441Y0024969D03*
X0068473Y0024969D03*
X0066111Y0024969D03*
X0064339Y0025363D03*
X0061977Y0025363D03*
X0051937Y0031859D03*
X0049575Y0031859D03*
X0049536Y0035205D03*
X0051898Y0035205D03*
D14*
G36*
X0039200Y0046339D02*
X0040750Y0047202D01*
X0041996Y0044965D01*
X0040446Y0044102D01*
X0039200Y0046339D01*
G37*
G36*
X0042870Y0048382D02*
X0044420Y0049245D01*
X0045666Y0047008D01*
X0044116Y0046145D01*
X0042870Y0048382D01*
G37*
G36*
X0035006Y0054481D02*
X0036556Y0055344D01*
X0037802Y0053107D01*
X0036252Y0052244D01*
X0035006Y0054481D01*
G37*
G36*
X0038676Y0056523D02*
X0040226Y0057386D01*
X0041472Y0055149D01*
X0039922Y0054286D01*
X0038676Y0056523D01*
G37*
G36*
X0035239Y0068777D02*
X0035781Y0070465D01*
X0038219Y0069681D01*
X0037677Y0067993D01*
X0035239Y0068777D01*
G37*
G36*
X0036522Y0072776D02*
X0037064Y0074464D01*
X0039502Y0073680D01*
X0038960Y0071992D01*
X0036522Y0072776D01*
G37*
X0040782Y0073670D03*
X0044982Y0073670D03*
D15*
X0035796Y0062305D03*
X0035796Y0058105D03*
X0060284Y0089759D03*
X0063119Y0089759D03*
X0063119Y0093959D03*
X0060284Y0093959D03*
D16*
X0046032Y0035402D03*
X0041229Y0041583D03*
X0095867Y0036527D03*
X0097400Y0039775D03*
D17*
X0086977Y0040520D03*
X0086977Y0042489D03*
X0085008Y0042489D03*
X0085008Y0040520D03*
X0085008Y0038552D03*
X0086977Y0038552D03*
X0086977Y0036583D03*
X0086977Y0034615D03*
X0085008Y0034615D03*
X0085008Y0036583D03*
X0085008Y0032646D03*
X0086977Y0032646D03*
X0086977Y0030678D03*
X0085008Y0030678D03*
X0083040Y0030678D03*
X0081071Y0030678D03*
X0079103Y0030678D03*
X0077134Y0030678D03*
X0075166Y0030678D03*
X0073197Y0030678D03*
X0071229Y0030678D03*
X0069260Y0030678D03*
X0067292Y0030678D03*
X0065323Y0030678D03*
X0063355Y0030678D03*
X0061386Y0030678D03*
X0059418Y0030678D03*
X0057449Y0030678D03*
X0057449Y0032646D03*
X0055481Y0032646D03*
X0055481Y0030678D03*
X0055481Y0028709D03*
X0057449Y0028709D03*
X0059418Y0028709D03*
X0061386Y0028709D03*
X0063355Y0028709D03*
X0065323Y0028709D03*
X0067292Y0028709D03*
X0069260Y0028709D03*
X0071229Y0028709D03*
X0073197Y0028709D03*
X0075166Y0028709D03*
X0077134Y0028709D03*
X0079103Y0028709D03*
X0081071Y0028709D03*
X0083040Y0028709D03*
X0085008Y0028709D03*
X0086977Y0028709D03*
X0086977Y0044457D03*
X0085008Y0044457D03*
X0085008Y0046426D03*
X0085008Y0048394D03*
X0086977Y0048394D03*
X0086977Y0046426D03*
X0086977Y0050363D03*
X0085008Y0050363D03*
X0085008Y0052331D03*
X0086977Y0052331D03*
X0083040Y0052331D03*
X0081071Y0052331D03*
X0079103Y0052331D03*
X0077134Y0052331D03*
X0075166Y0052331D03*
X0073197Y0052331D03*
X0071229Y0052331D03*
X0071229Y0050363D03*
X0073197Y0050363D03*
X0075166Y0050363D03*
X0077134Y0050363D03*
X0079103Y0050363D03*
X0081071Y0050363D03*
X0083040Y0050363D03*
X0069260Y0050363D03*
X0067292Y0050363D03*
X0065323Y0050363D03*
X0063355Y0050363D03*
X0063355Y0052331D03*
X0065323Y0052331D03*
X0067292Y0052331D03*
X0069260Y0052331D03*
X0061386Y0052331D03*
X0059418Y0052331D03*
X0057449Y0052331D03*
X0055481Y0052331D03*
X0055481Y0050363D03*
X0057449Y0050363D03*
X0059418Y0050363D03*
X0061386Y0050363D03*
X0057449Y0048394D03*
X0057449Y0046426D03*
X0055481Y0046426D03*
X0055481Y0048394D03*
X0055481Y0044457D03*
X0057449Y0044457D03*
X0057449Y0042489D03*
X0057449Y0040520D03*
X0055481Y0040520D03*
X0055481Y0042489D03*
X0055481Y0038552D03*
X0057449Y0038552D03*
X0057449Y0036583D03*
X0057449Y0034615D03*
X0055481Y0034615D03*
X0055481Y0036583D03*
D18*
X0041158Y0048397D02*
X0040607Y0048091D01*
X0040014Y0049157D01*
X0040871Y0048913D01*
X0041158Y0048397D01*
X0041104Y0048493D02*
X0040383Y0048493D01*
X0040273Y0048691D02*
X0040994Y0048691D01*
X0040883Y0048890D02*
X0040162Y0048890D01*
X0040254Y0049088D02*
X0040052Y0049088D01*
X0040494Y0048294D02*
X0040974Y0048294D01*
X0040617Y0048096D02*
X0040604Y0048096D01*
X0042843Y0049335D02*
X0043394Y0049641D01*
X0042800Y0050708D01*
X0042556Y0049851D01*
X0042843Y0049335D01*
X0042760Y0049486D02*
X0043114Y0049486D01*
X0043370Y0049684D02*
X0042649Y0049684D01*
X0042565Y0049883D02*
X0043260Y0049883D01*
X0043149Y0050081D02*
X0042622Y0050081D01*
X0042678Y0050280D02*
X0043039Y0050280D01*
X0042928Y0050478D02*
X0042735Y0050478D01*
X0042791Y0050677D02*
X0042818Y0050677D01*
X0041862Y0050875D02*
X0039897Y0050875D01*
X0039841Y0050677D02*
X0041806Y0050677D01*
X0041749Y0050478D02*
X0039784Y0050478D01*
X0039728Y0050280D02*
X0041692Y0050280D01*
X0041636Y0050081D02*
X0040231Y0050081D01*
X0039713Y0050229D02*
X0041530Y0049711D01*
X0042048Y0051528D01*
X0040231Y0052046D01*
X0039713Y0050229D01*
X0039954Y0051074D02*
X0041919Y0051074D01*
X0041975Y0051272D02*
X0040010Y0051272D01*
X0040067Y0051471D02*
X0042032Y0051471D01*
X0041554Y0051669D02*
X0040123Y0051669D01*
X0040180Y0051868D02*
X0040857Y0051868D01*
X0040890Y0052844D02*
X0040603Y0053360D01*
X0041154Y0053666D01*
X0041747Y0052600D01*
X0040890Y0052844D01*
X0040881Y0052860D02*
X0041602Y0052860D01*
X0041530Y0052662D02*
X0041713Y0052662D01*
X0041492Y0053059D02*
X0040771Y0053059D01*
X0040660Y0053257D02*
X0041381Y0053257D01*
X0041271Y0053456D02*
X0040775Y0053456D01*
X0041132Y0053654D02*
X0041160Y0053654D01*
X0038918Y0052422D02*
X0038367Y0052115D01*
X0038961Y0051049D01*
X0039205Y0051906D01*
X0038918Y0052422D01*
X0039005Y0052265D02*
X0038635Y0052265D01*
X0038395Y0052066D02*
X0039116Y0052066D01*
X0039194Y0051868D02*
X0038505Y0051868D01*
X0038616Y0051669D02*
X0039137Y0051669D01*
X0039081Y0051471D02*
X0038726Y0051471D01*
X0038837Y0051272D02*
X0039024Y0051272D01*
X0038968Y0051074D02*
X0038947Y0051074D01*
X0040928Y0049883D02*
X0041579Y0049883D01*
D19*
X0075559Y0076347D03*
X0078709Y0076347D03*
X0078709Y0080678D03*
X0075559Y0080678D03*
D20*
X0094142Y0073630D03*
X0095717Y0073630D03*
X0097292Y0073630D03*
X0098867Y0073630D03*
X0098867Y0079930D03*
X0097292Y0079930D03*
X0095717Y0079930D03*
D21*
X0094142Y0079536D03*
D22*
X0091780Y0079142D03*
X0091780Y0077567D03*
X0091780Y0075993D03*
X0091780Y0074418D03*
X0101229Y0074418D03*
X0101229Y0075993D03*
X0101229Y0077567D03*
X0101229Y0079142D03*
D23*
X0103453Y0051150D03*
X0103453Y0049575D03*
X0103453Y0048000D03*
X0103453Y0046426D03*
X0103453Y0044851D03*
D24*
X0103453Y0042981D03*
X0103453Y0053020D03*
D25*
G36*
X0091445Y0080296D02*
X0089537Y0082204D01*
X0090527Y0083194D01*
X0092435Y0081286D01*
X0091445Y0080296D01*
G37*
G36*
X0092837Y0081688D02*
X0090929Y0083596D01*
X0091919Y0084586D01*
X0093827Y0082678D01*
X0092837Y0081688D01*
G37*
G36*
X0094229Y0083080D02*
X0092321Y0084988D01*
X0093311Y0085978D01*
X0095219Y0084070D01*
X0094229Y0083080D01*
G37*
G36*
X0095621Y0084472D02*
X0093713Y0086380D01*
X0094703Y0087370D01*
X0096611Y0085462D01*
X0095621Y0084472D01*
G37*
G36*
X0089279Y0088029D02*
X0087371Y0089937D01*
X0088361Y0090927D01*
X0090269Y0089019D01*
X0089279Y0088029D01*
G37*
G36*
X0087887Y0086637D02*
X0085979Y0088545D01*
X0086969Y0089535D01*
X0088877Y0087627D01*
X0087887Y0086637D01*
G37*
G36*
X0086495Y0085245D02*
X0084587Y0087153D01*
X0085577Y0088143D01*
X0087485Y0086235D01*
X0086495Y0085245D01*
G37*
G36*
X0090671Y0089421D02*
X0088763Y0091329D01*
X0089753Y0092319D01*
X0091661Y0090411D01*
X0090671Y0089421D01*
G37*
D26*
G36*
X0089751Y0082560D02*
X0086852Y0085459D01*
X0091447Y0090054D01*
X0094346Y0087155D01*
X0089751Y0082560D01*
G37*
D27*
X0062989Y0081741D03*
X0062989Y0079772D03*
X0062989Y0077804D03*
X0062989Y0083709D03*
X0051989Y0083709D03*
X0051989Y0081741D03*
X0051989Y0079772D03*
X0051989Y0077804D03*
D28*
X0054536Y0075256D03*
X0056504Y0075256D03*
X0058473Y0075256D03*
X0060441Y0075256D03*
X0060441Y0086256D03*
X0058473Y0086256D03*
X0056504Y0086256D03*
X0054536Y0086256D03*
D29*
X0057489Y0080756D03*
M02*
