G75*
%MOIN*%
%OFA0B0*%
%FSLAX25Y25*%
%IPPOS*%
%LPD*%
%AMOC8*
5,1,8,0,0,1.08239X$1,22.5*
%
%ADD10C,0.00594*%
%ADD11C,0.01102*%
%ADD12C,0.00827*%
%ADD13C,0.01654*%
%ADD14C,0.00500*%
%ADD15C,0.00300*%
%ADD16C,0.00200*%
%ADD17C,0.01181*%
%ADD18C,0.00787*%
%ADD19C,0.00394*%
D10*
X0047032Y0034277D03*
X0052528Y0030087D03*
X0054496Y0030087D03*
X0056465Y0030086D03*
X0055481Y0032056D03*
X0059378Y0032961D03*
X0063521Y0028875D03*
X0063237Y0027252D03*
X0065205Y0027410D03*
X0064901Y0024877D03*
X0068473Y0026150D03*
X0070441Y0027056D03*
X0070796Y0024811D03*
X0072213Y0025284D03*
X0073985Y0025008D03*
X0075678Y0024910D03*
X0077036Y0024870D03*
X0081629Y0027375D03*
X0084615Y0033000D03*
X0083669Y0035344D03*
X0085637Y0035344D03*
X0088983Y0036132D03*
X0091543Y0035344D03*
X0093511Y0036526D03*
X0094728Y0037516D03*
X0095901Y0038748D03*
X0097054Y0039872D03*
X0098017Y0041862D03*
X0096998Y0044203D03*
X0096695Y0046304D03*
X0096286Y0048788D03*
X0103433Y0047607D03*
X0104689Y0048451D03*
X0103394Y0045520D03*
X0103473Y0043867D03*
X0103985Y0053119D03*
X0103394Y0054496D03*
X0094733Y0057685D03*
X0093906Y0058512D03*
X0089851Y0059024D03*
X0083669Y0054242D03*
X0081859Y0056268D03*
X0081700Y0054242D03*
X0078906Y0056268D03*
X0075678Y0056268D03*
X0074378Y0057056D03*
X0072410Y0057528D03*
X0069418Y0057449D03*
X0066741Y0057882D03*
X0067489Y0058945D03*
X0068670Y0058827D03*
X0066662Y0059890D03*
X0069181Y0061622D03*
X0069181Y0064260D03*
X0066465Y0064418D03*
X0063630Y0065244D03*
X0060087Y0064418D03*
X0060205Y0058433D03*
X0060048Y0056859D03*
X0060244Y0055363D03*
X0063985Y0057292D03*
X0068906Y0055323D03*
X0071977Y0053040D03*
X0073788Y0052489D03*
X0076583Y0048670D03*
X0076544Y0046622D03*
X0074772Y0044851D03*
X0073316Y0045140D03*
X0071819Y0046229D03*
X0069851Y0046229D03*
X0070796Y0042922D03*
X0068473Y0042922D03*
X0064890Y0042922D03*
X0063827Y0045008D03*
X0062567Y0044104D03*
X0061701Y0042610D03*
X0058421Y0043816D03*
X0054851Y0040323D03*
X0055678Y0039615D03*
X0059300Y0038552D03*
X0052021Y0041572D03*
X0051115Y0042517D03*
X0050170Y0043462D03*
X0049265Y0044367D03*
X0048399Y0045273D03*
X0047533Y0046139D03*
X0046583Y0047095D03*
X0045717Y0047961D03*
X0045717Y0045481D03*
X0046667Y0044525D03*
X0047533Y0043659D03*
X0048399Y0042753D03*
X0049304Y0041848D03*
X0050249Y0040903D03*
X0051155Y0039958D03*
X0047060Y0039604D03*
X0046115Y0040273D03*
X0045446Y0041178D03*
X0051728Y0052871D03*
X0053315Y0052090D03*
X0049847Y0053549D03*
X0042685Y0053276D03*
X0039339Y0056504D03*
X0035796Y0057449D03*
X0036078Y0052640D03*
X0040441Y0064496D03*
X0041229Y0068394D03*
X0037685Y0070363D03*
X0035481Y0066111D03*
X0043355Y0074615D03*
X0046622Y0073630D03*
X0046662Y0072370D03*
X0046662Y0071307D03*
X0049260Y0073119D03*
X0050441Y0074575D03*
X0051937Y0073079D03*
X0050874Y0071977D03*
X0051937Y0070914D03*
X0052016Y0076465D03*
X0046977Y0077882D03*
X0046268Y0077174D03*
X0047457Y0080023D03*
X0041852Y0081738D03*
X0040841Y0079975D03*
X0039024Y0076741D03*
X0048119Y0086583D03*
X0049181Y0087095D03*
X0053060Y0090753D03*
X0058355Y0093630D03*
X0062764Y0089930D03*
X0063941Y0090005D03*
X0064181Y0092528D03*
X0066032Y0092961D03*
X0069654Y0092882D03*
X0069654Y0091307D03*
X0071229Y0091307D03*
X0072804Y0091307D03*
X0074378Y0091307D03*
X0075953Y0091307D03*
X0077528Y0091307D03*
X0079103Y0091307D03*
X0080678Y0091307D03*
X0082252Y0091307D03*
X0083276Y0090874D03*
X0080678Y0089733D03*
X0079890Y0088945D03*
X0080678Y0088158D03*
X0082252Y0088158D03*
X0084188Y0086741D03*
X0085993Y0086465D03*
X0088788Y0084063D03*
X0088630Y0082646D03*
X0088170Y0080048D03*
X0088800Y0079260D03*
X0091577Y0075835D03*
X0092590Y0075104D03*
X0091347Y0074103D03*
X0091307Y0072882D03*
X0091307Y0071504D03*
X0094063Y0071741D03*
X0094221Y0070678D03*
X0095599Y0070363D03*
X0096937Y0070520D03*
X0097646Y0071583D03*
X0098040Y0072646D03*
X0099142Y0072134D03*
X0099733Y0073000D03*
X0099063Y0073670D03*
X0099496Y0074536D03*
X0099884Y0075514D03*
X0098567Y0075414D03*
X0097445Y0075441D03*
X0096402Y0075748D03*
X0096504Y0074851D03*
X0095559Y0075205D03*
X0094559Y0075351D03*
X0094654Y0074457D03*
X0094228Y0073512D03*
X0095370Y0073083D03*
X0095725Y0074028D03*
X0096859Y0073867D03*
X0098119Y0073906D03*
X0096622Y0072528D03*
X0095520Y0071859D03*
X0098827Y0070599D03*
X0099890Y0071189D03*
X0100835Y0071977D03*
X0101622Y0071229D03*
X0100914Y0070363D03*
X0102764Y0069693D03*
X0101977Y0068906D03*
X0105717Y0066347D03*
X0099181Y0065619D03*
X0103296Y0073985D03*
X0096847Y0078217D03*
X0095914Y0079300D03*
X0095583Y0076292D03*
X0094390Y0076493D03*
X0085205Y0069536D03*
X0084221Y0069772D03*
X0081229Y0070087D03*
X0080520Y0070756D03*
X0079851Y0071504D03*
X0079063Y0072489D03*
X0076150Y0071268D03*
X0075914Y0070205D03*
X0076111Y0069181D03*
X0076937Y0069969D03*
X0077646Y0069142D03*
X0076819Y0068237D03*
X0074851Y0069969D03*
X0074733Y0071111D03*
X0073591Y0070323D03*
X0075481Y0072456D03*
X0071574Y0075587D03*
X0070441Y0074339D03*
X0069181Y0073158D03*
X0066071Y0076386D03*
X0064209Y0076604D03*
X0062016Y0076583D03*
X0059408Y0076267D03*
X0063433Y0080087D03*
X0063433Y0081268D03*
X0065893Y0084011D03*
X0065323Y0084851D03*
X0063315Y0084181D03*
X0060244Y0084181D03*
X0069654Y0083433D03*
X0069654Y0081859D03*
X0071229Y0081859D03*
X0071229Y0083433D03*
X0072804Y0083433D03*
X0073827Y0084457D03*
X0072804Y0085008D03*
X0072804Y0086583D03*
X0074378Y0086583D03*
X0074378Y0088158D03*
X0072804Y0088158D03*
X0072804Y0089733D03*
X0071229Y0089733D03*
X0070441Y0088949D03*
X0069654Y0088158D03*
X0071229Y0088158D03*
X0071229Y0086583D03*
X0069654Y0086583D03*
X0069654Y0085008D03*
X0072804Y0081859D03*
X0074378Y0081859D03*
X0075166Y0082646D03*
X0075953Y0081859D03*
X0075953Y0083433D03*
X0077528Y0083433D03*
X0077922Y0084615D03*
X0079103Y0085008D03*
X0079103Y0083433D03*
X0079103Y0081859D03*
X0080678Y0081859D03*
X0082252Y0081859D03*
X0082252Y0083433D03*
X0080678Y0083433D03*
X0080678Y0085008D03*
X0082252Y0085008D03*
X0079103Y0086583D03*
X0077528Y0086583D03*
X0075953Y0086583D03*
X0075953Y0088158D03*
X0075953Y0089733D03*
X0077528Y0089733D03*
X0077528Y0092882D03*
X0079103Y0092882D03*
X0081859Y0092882D03*
X0087174Y0091662D03*
X0089536Y0086386D03*
X0093387Y0085440D03*
X0094378Y0086465D03*
X0082252Y0080284D03*
X0080678Y0080284D03*
X0079103Y0080284D03*
X0077528Y0080284D03*
X0075953Y0080284D03*
X0074378Y0080284D03*
X0072804Y0080284D03*
X0071229Y0080284D03*
X0070403Y0079340D03*
X0069654Y0080284D03*
X0068787Y0078119D03*
X0074378Y0078119D03*
X0077528Y0081859D03*
X0075953Y0085008D03*
X0075953Y0092882D03*
X0074378Y0092882D03*
X0071229Y0092882D03*
X0070205Y0095796D03*
X0068394Y0095835D03*
X0072567Y0095796D03*
X0074063Y0095874D03*
X0075717Y0095756D03*
X0081032Y0075363D03*
X0081898Y0075087D03*
X0083355Y0072804D03*
X0081189Y0064575D03*
X0078079Y0064536D03*
X0076307Y0064693D03*
X0072685Y0065166D03*
X0076268Y0061819D03*
X0078119Y0061189D03*
X0078512Y0059024D03*
X0076307Y0059260D03*
X0080323Y0060678D03*
X0081465Y0061977D03*
X0082056Y0059615D03*
X0080874Y0058827D03*
X0079141Y0047746D03*
X0079141Y0045778D03*
X0079141Y0043809D03*
X0079141Y0041841D03*
X0079141Y0039872D03*
X0079141Y0037904D03*
X0076583Y0037607D03*
X0076426Y0038799D03*
X0076545Y0041761D03*
X0076583Y0044024D03*
X0073238Y0042587D03*
X0070363Y0037331D03*
X0076583Y0033630D03*
X0078473Y0033670D03*
X0072307Y0030533D03*
X0071235Y0030493D03*
X0058956Y0026899D03*
X0055487Y0027553D03*
X0066268Y0046111D03*
X0089418Y0030835D03*
X0095244Y0032764D03*
D11*
X0087567Y0037370D03*
X0081700Y0035244D03*
X0070441Y0034615D03*
X0061583Y0032922D03*
X0059142Y0028709D03*
X0055008Y0042095D03*
X0053670Y0043276D03*
X0052449Y0044575D03*
X0051189Y0045796D03*
X0049890Y0047134D03*
X0048591Y0048355D03*
X0047528Y0049575D03*
X0059619Y0052214D03*
X0076662Y0052922D03*
X0085637Y0054042D03*
X0091504Y0052725D03*
X0103709Y0055835D03*
X0104457Y0070638D03*
X0095441Y0078119D03*
X0094142Y0079890D03*
X0097134Y0084063D03*
X0090048Y0076426D03*
X0082607Y0073985D03*
X0077213Y0073788D03*
X0066622Y0068985D03*
X0062489Y0067096D03*
X0056859Y0070087D03*
X0047134Y0067843D03*
X0037528Y0066032D03*
X0037607Y0073119D03*
X0038315Y0075244D03*
X0048709Y0080223D03*
X0086036Y0085087D03*
D12*
X0088237Y0077640D03*
X0044221Y0052725D03*
X0045559Y0037213D03*
X0050835Y0030914D03*
D13*
X0084024Y0040520D03*
X0086977Y0040520D03*
X0089930Y0040520D03*
X0089930Y0043473D03*
X0092882Y0043473D03*
X0092882Y0046426D03*
X0089930Y0046426D03*
X0089930Y0049378D03*
X0086977Y0049378D03*
X0086977Y0046426D03*
X0084024Y0046426D03*
X0084024Y0049378D03*
X0084024Y0043473D03*
X0086977Y0043473D03*
D14*
X0073658Y0046099D03*
X0073788Y0048197D03*
X0071819Y0048197D03*
X0061583Y0051307D03*
X0087871Y0030683D03*
X0079378Y0028822D03*
D15*
X0047032Y0034277D02*
X0044714Y0036595D01*
X0044714Y0037711D01*
X0038213Y0044211D01*
X0036276Y0048806D01*
X0036078Y0049649D01*
X0036078Y0052640D01*
X0036553Y0053463D02*
X0036436Y0053561D01*
X0036412Y0053559D01*
X0036396Y0053576D01*
X0036243Y0053576D01*
X0036099Y0053628D01*
X0036078Y0053618D01*
X0036057Y0053628D01*
X0035913Y0053576D01*
X0035759Y0053576D01*
X0035743Y0053559D01*
X0035720Y0053561D01*
X0035602Y0053463D01*
X0035459Y0053410D01*
X0035449Y0053389D01*
X0035426Y0053383D01*
X0035350Y0053252D01*
X0034685Y0056489D01*
X0034685Y0063921D01*
X0035891Y0069786D01*
X0035891Y0064444D01*
X0036716Y0063619D01*
X0036716Y0053387D01*
X0036707Y0053389D01*
X0036697Y0053410D01*
X0036553Y0053463D01*
X0036716Y0053638D02*
X0035271Y0053638D01*
X0035210Y0053936D02*
X0036716Y0053936D01*
X0036716Y0054235D02*
X0035149Y0054235D01*
X0035087Y0054533D02*
X0036716Y0054533D01*
X0036716Y0054832D02*
X0035026Y0054832D01*
X0034964Y0055130D02*
X0036716Y0055130D01*
X0036716Y0055429D02*
X0034903Y0055429D01*
X0034842Y0055727D02*
X0036716Y0055727D01*
X0036716Y0056026D02*
X0034780Y0056026D01*
X0034719Y0056324D02*
X0036716Y0056324D01*
X0036716Y0056623D02*
X0034685Y0056623D01*
X0034685Y0056921D02*
X0036716Y0056921D01*
X0036716Y0057220D02*
X0034685Y0057220D01*
X0034685Y0057519D02*
X0036716Y0057519D01*
X0036716Y0057817D02*
X0034685Y0057817D01*
X0034685Y0058116D02*
X0036716Y0058116D01*
X0036716Y0058414D02*
X0034685Y0058414D01*
X0034685Y0058713D02*
X0036716Y0058713D01*
X0036716Y0059011D02*
X0034685Y0059011D01*
X0034685Y0059310D02*
X0036716Y0059310D01*
X0036716Y0059608D02*
X0034685Y0059608D01*
X0034685Y0059907D02*
X0036716Y0059907D01*
X0036716Y0060205D02*
X0034685Y0060205D01*
X0034685Y0060504D02*
X0036716Y0060504D01*
X0036716Y0060802D02*
X0034685Y0060802D01*
X0034685Y0061101D02*
X0036716Y0061101D01*
X0036716Y0061399D02*
X0034685Y0061399D01*
X0034685Y0061698D02*
X0036716Y0061698D01*
X0036716Y0061996D02*
X0034685Y0061996D01*
X0034685Y0062295D02*
X0036716Y0062295D01*
X0036716Y0062593D02*
X0034685Y0062593D01*
X0034685Y0062892D02*
X0036716Y0062892D01*
X0036716Y0063190D02*
X0034685Y0063190D01*
X0034685Y0063489D02*
X0036716Y0063489D01*
X0036547Y0063787D02*
X0034685Y0063787D01*
X0034719Y0064086D02*
X0036249Y0064086D01*
X0035950Y0064384D02*
X0034780Y0064384D01*
X0034842Y0064683D02*
X0035891Y0064683D01*
X0035891Y0064981D02*
X0034903Y0064981D01*
X0034964Y0065280D02*
X0035891Y0065280D01*
X0035891Y0065578D02*
X0035026Y0065578D01*
X0035087Y0065877D02*
X0035891Y0065877D01*
X0035891Y0066175D02*
X0035149Y0066175D01*
X0035210Y0066474D02*
X0035891Y0066474D01*
X0035891Y0066772D02*
X0035271Y0066772D01*
X0035333Y0067071D02*
X0035891Y0067071D01*
X0035891Y0067369D02*
X0035394Y0067369D01*
X0035455Y0067668D02*
X0035891Y0067668D01*
X0035891Y0067966D02*
X0035517Y0067966D01*
X0035578Y0068265D02*
X0035891Y0068265D01*
X0035891Y0068563D02*
X0035639Y0068563D01*
X0035701Y0068862D02*
X0035891Y0068862D01*
X0035891Y0069160D02*
X0035762Y0069160D01*
X0035823Y0069459D02*
X0035891Y0069459D01*
X0035885Y0069757D02*
X0035891Y0069757D01*
X0036584Y0070454D02*
X0036584Y0064731D01*
X0037410Y0063906D01*
X0037410Y0048256D01*
X0041750Y0043916D01*
X0041750Y0042217D01*
X0048788Y0035180D01*
X0048788Y0031561D01*
X0050231Y0030118D01*
X0050962Y0029539D01*
X0053907Y0027922D01*
X0054290Y0027711D01*
X0055487Y0027553D01*
X0056215Y0026942D02*
X0056332Y0027041D01*
X0056334Y0027064D01*
X0056354Y0027078D01*
X0056380Y0027228D01*
X0056457Y0027361D01*
X0056451Y0027384D01*
X0056464Y0027403D01*
X0056437Y0027553D01*
X0056464Y0027704D01*
X0056451Y0027723D01*
X0056457Y0027746D01*
X0056380Y0027879D01*
X0056354Y0028029D01*
X0056334Y0028043D01*
X0056332Y0028066D01*
X0056215Y0028164D01*
X0056139Y0028297D01*
X0056116Y0028303D01*
X0056106Y0028324D01*
X0055962Y0028377D01*
X0055845Y0028475D01*
X0055822Y0028473D01*
X0055805Y0028489D01*
X0055652Y0028489D01*
X0055508Y0028542D01*
X0055487Y0028532D01*
X0055466Y0028542D01*
X0055322Y0028489D01*
X0055169Y0028489D01*
X0055152Y0028473D01*
X0055129Y0028475D01*
X0055012Y0028377D01*
X0054889Y0028332D01*
X0054510Y0028382D01*
X0053989Y0028668D01*
X0053989Y0028668D01*
X0052964Y0029231D01*
X0053003Y0029264D01*
X0053147Y0029316D01*
X0053157Y0029337D01*
X0053179Y0029343D01*
X0053256Y0029476D01*
X0053373Y0029574D01*
X0053375Y0029598D01*
X0053395Y0029611D01*
X0053421Y0029762D01*
X0053498Y0029895D01*
X0053492Y0029917D01*
X0053505Y0029936D01*
X0053478Y0030087D01*
X0053505Y0030238D01*
X0053492Y0030257D01*
X0053498Y0030279D01*
X0053421Y0030412D01*
X0053395Y0030563D01*
X0053375Y0030576D01*
X0053373Y0030600D01*
X0053256Y0030698D01*
X0053222Y0030758D01*
X0053222Y0032970D01*
X0043704Y0042488D01*
X0043704Y0043085D01*
X0053803Y0032986D01*
X0053803Y0030758D01*
X0053768Y0030698D01*
X0053651Y0030600D01*
X0053649Y0030576D01*
X0053630Y0030563D01*
X0053603Y0030412D01*
X0053527Y0030279D01*
X0053533Y0030257D01*
X0053519Y0030238D01*
X0053546Y0030087D01*
X0053519Y0029936D01*
X0053533Y0029917D01*
X0053527Y0029895D01*
X0053603Y0029762D01*
X0053630Y0029611D01*
X0053649Y0029598D01*
X0053651Y0029574D01*
X0053768Y0029476D01*
X0053845Y0029343D01*
X0053867Y0029337D01*
X0053877Y0029316D01*
X0054021Y0029264D01*
X0054139Y0029165D01*
X0054162Y0029167D01*
X0054178Y0029151D01*
X0054331Y0029151D01*
X0054475Y0029099D01*
X0054496Y0029108D01*
X0054518Y0029099D01*
X0054662Y0029151D01*
X0054815Y0029151D01*
X0054831Y0029167D01*
X0054854Y0029165D01*
X0054972Y0029264D01*
X0055116Y0029316D01*
X0055125Y0029337D01*
X0055148Y0029343D01*
X0055225Y0029476D01*
X0055342Y0029574D01*
X0055344Y0029598D01*
X0055363Y0029611D01*
X0055390Y0029762D01*
X0055466Y0029895D01*
X0055460Y0029917D01*
X0055474Y0029936D01*
X0055447Y0030087D01*
X0055474Y0030238D01*
X0055460Y0030257D01*
X0055466Y0030279D01*
X0055390Y0030412D01*
X0055363Y0030563D01*
X0055344Y0030576D01*
X0055342Y0030600D01*
X0055225Y0030698D01*
X0055190Y0030758D01*
X0055190Y0032743D01*
X0057334Y0030599D01*
X0070266Y0030599D01*
X0070284Y0030493D01*
X0070258Y0030342D01*
X0070271Y0030323D01*
X0070265Y0030301D01*
X0070341Y0030168D01*
X0070368Y0030017D01*
X0070387Y0030004D01*
X0070389Y0029981D01*
X0070507Y0029882D01*
X0070583Y0029750D01*
X0070606Y0029744D01*
X0070616Y0029723D01*
X0070759Y0029670D01*
X0070877Y0029572D01*
X0070900Y0029574D01*
X0070916Y0029557D01*
X0071070Y0029557D01*
X0071213Y0029505D01*
X0071235Y0029515D01*
X0071256Y0029505D01*
X0071286Y0029516D01*
X0071306Y0029497D01*
X0071712Y0029090D01*
X0078129Y0029090D01*
X0078463Y0028756D01*
X0078448Y0028671D01*
X0078456Y0028659D01*
X0078453Y0028646D01*
X0078529Y0028513D01*
X0078556Y0028362D01*
X0078567Y0028354D01*
X0078569Y0028340D01*
X0078686Y0028241D01*
X0078763Y0028109D01*
X0078777Y0028105D01*
X0078783Y0028092D01*
X0078926Y0028040D01*
X0079044Y0027941D01*
X0079058Y0027942D01*
X0079068Y0027932D01*
X0079221Y0027932D01*
X0079365Y0027880D01*
X0079378Y0027886D01*
X0079391Y0027880D01*
X0079535Y0027932D01*
X0079688Y0027932D01*
X0079698Y0027942D01*
X0079713Y0027941D01*
X0079830Y0028040D01*
X0079974Y0028092D01*
X0079980Y0028105D01*
X0079994Y0028109D01*
X0080070Y0028241D01*
X0080188Y0028340D01*
X0080189Y0028354D01*
X0080201Y0028362D01*
X0080227Y0028513D01*
X0080304Y0028646D01*
X0080300Y0028659D01*
X0080308Y0028671D01*
X0080282Y0028822D01*
X0080308Y0028973D01*
X0080300Y0028985D01*
X0080304Y0028999D01*
X0080227Y0029131D01*
X0080201Y0029282D01*
X0080189Y0029290D01*
X0080188Y0029304D01*
X0080070Y0029403D01*
X0079994Y0029536D01*
X0079980Y0029539D01*
X0079974Y0029552D01*
X0079870Y0029590D01*
X0087759Y0029590D01*
X0087924Y0029755D01*
X0088028Y0029793D01*
X0088181Y0029793D01*
X0088191Y0029803D01*
X0088205Y0029802D01*
X0088322Y0029900D01*
X0088466Y0029952D01*
X0088472Y0029965D01*
X0088486Y0029969D01*
X0088563Y0030102D01*
X0088680Y0030200D01*
X0088681Y0030215D01*
X0088693Y0030223D01*
X0088720Y0030374D01*
X0088796Y0030506D01*
X0088793Y0030520D01*
X0088801Y0030532D01*
X0088774Y0030683D01*
X0088801Y0030834D01*
X0088793Y0030845D01*
X0088796Y0030859D01*
X0088720Y0030992D01*
X0088693Y0031142D01*
X0088681Y0031151D01*
X0088680Y0031165D01*
X0088563Y0031263D01*
X0088519Y0031340D01*
X0091544Y0034365D01*
X0091564Y0034356D01*
X0091708Y0034408D01*
X0091861Y0034408D01*
X0091877Y0034425D01*
X0091900Y0034423D01*
X0092018Y0034521D01*
X0092162Y0034574D01*
X0092172Y0034595D01*
X0092194Y0034601D01*
X0092271Y0034734D01*
X0092388Y0034832D01*
X0092390Y0034855D01*
X0092409Y0034869D01*
X0092436Y0035019D01*
X0092512Y0035152D01*
X0092506Y0035175D01*
X0092520Y0035194D01*
X0092493Y0035344D01*
X0092520Y0035495D01*
X0092506Y0035514D01*
X0092512Y0035537D01*
X0092436Y0035670D01*
X0092409Y0035820D01*
X0092390Y0035834D01*
X0092388Y0035857D01*
X0092271Y0035955D01*
X0092194Y0036088D01*
X0092172Y0036094D01*
X0092162Y0036115D01*
X0092018Y0036168D01*
X0091900Y0036266D01*
X0091877Y0036264D01*
X0091861Y0036281D01*
X0091708Y0036281D01*
X0091564Y0036333D01*
X0091543Y0036323D01*
X0091521Y0036333D01*
X0091377Y0036281D01*
X0091224Y0036281D01*
X0091208Y0036264D01*
X0091185Y0036266D01*
X0091067Y0036168D01*
X0090923Y0036115D01*
X0090914Y0036094D01*
X0090891Y0036088D01*
X0090814Y0035955D01*
X0090697Y0035857D01*
X0090695Y0035834D01*
X0090676Y0035820D01*
X0090649Y0035670D01*
X0090573Y0035537D01*
X0090579Y0035514D01*
X0090565Y0035495D01*
X0090587Y0035370D01*
X0087203Y0031986D01*
X0085819Y0031986D01*
X0088985Y0035153D01*
X0089005Y0035143D01*
X0089149Y0035196D01*
X0089302Y0035196D01*
X0089318Y0035212D01*
X0089341Y0035210D01*
X0089459Y0035309D01*
X0089603Y0035361D01*
X0089612Y0035382D01*
X0089635Y0035388D01*
X0089712Y0035521D01*
X0089829Y0035619D01*
X0089831Y0035643D01*
X0089850Y0035656D01*
X0089877Y0035807D01*
X0089953Y0035939D01*
X0089947Y0035962D01*
X0089961Y0035981D01*
X0089934Y0036132D01*
X0089961Y0036283D01*
X0089947Y0036302D01*
X0089953Y0036324D01*
X0091498Y0036324D01*
X0091540Y0036324D02*
X0091545Y0036324D01*
X0091587Y0036324D02*
X0092546Y0036324D01*
X0092541Y0036333D02*
X0092618Y0036200D01*
X0092644Y0036050D01*
X0092664Y0036036D01*
X0092666Y0036013D01*
X0092783Y0035915D01*
X0092859Y0035782D01*
X0092882Y0035776D01*
X0092892Y0035755D01*
X0093036Y0035702D01*
X0093153Y0035604D01*
X0093176Y0035606D01*
X0093193Y0035590D01*
X0093346Y0035590D01*
X0093490Y0035537D01*
X0093511Y0035547D01*
X0093532Y0035537D01*
X0093676Y0035590D01*
X0093829Y0035590D01*
X0093846Y0035606D01*
X0093869Y0035604D01*
X0093986Y0035702D01*
X0094130Y0035755D01*
X0094140Y0035776D01*
X0094163Y0035782D01*
X0094239Y0035915D01*
X0094356Y0036013D01*
X0094358Y0036036D01*
X0094378Y0036050D01*
X0094404Y0036200D01*
X0094481Y0036333D01*
X0094475Y0036356D01*
X0094488Y0036375D01*
X0094461Y0036526D01*
X0094471Y0036580D01*
X0094563Y0036580D01*
X0094706Y0036528D01*
X0094728Y0036538D01*
X0094749Y0036528D01*
X0094893Y0036580D01*
X0095046Y0036580D01*
X0095062Y0036597D01*
X0095086Y0036595D01*
X0095203Y0036693D01*
X0095347Y0036745D01*
X0095357Y0036767D01*
X0095379Y0036773D01*
X0095456Y0036905D01*
X0095573Y0037004D01*
X0095575Y0037027D01*
X0095594Y0037040D01*
X0095621Y0037191D01*
X0095697Y0037324D01*
X0095691Y0037346D01*
X0095705Y0037365D01*
X0095678Y0037516D01*
X0095705Y0037667D01*
X0095691Y0037686D01*
X0095697Y0037709D01*
X0095637Y0037812D01*
X0095736Y0037812D01*
X0095880Y0037760D01*
X0095901Y0037770D01*
X0095922Y0037760D01*
X0096066Y0037812D01*
X0096219Y0037812D01*
X0096235Y0037829D01*
X0096259Y0037827D01*
X0096376Y0037925D01*
X0096520Y0037978D01*
X0096530Y0037999D01*
X0096552Y0038005D01*
X0096581Y0038055D01*
X0097153Y0038055D01*
X0089235Y0030137D01*
X0086791Y0028816D01*
X0080823Y0028816D01*
X0079830Y0027822D01*
X0071062Y0027822D01*
X0071060Y0027826D01*
X0070917Y0027879D01*
X0070799Y0027977D01*
X0070776Y0027975D01*
X0070760Y0027992D01*
X0070606Y0027992D01*
X0070462Y0028044D01*
X0070441Y0028034D01*
X0070420Y0028044D01*
X0070276Y0027992D01*
X0070123Y0027992D01*
X0070107Y0027975D01*
X0070083Y0027977D01*
X0069966Y0027879D01*
X0069822Y0027826D01*
X0069812Y0027805D01*
X0069790Y0027799D01*
X0069713Y0027666D01*
X0069596Y0027568D01*
X0069594Y0027545D01*
X0069575Y0027531D01*
X0069548Y0027381D01*
X0069472Y0027248D01*
X0069478Y0027225D01*
X0069464Y0027206D01*
X0069491Y0027056D01*
X0069464Y0026905D01*
X0069478Y0026886D01*
X0069472Y0026863D01*
X0069548Y0026730D01*
X0069575Y0026580D01*
X0069594Y0026566D01*
X0069596Y0026543D01*
X0069713Y0026445D01*
X0069790Y0026312D01*
X0069812Y0026306D01*
X0069822Y0026285D01*
X0069966Y0026232D01*
X0070083Y0026134D01*
X0070107Y0026136D01*
X0070123Y0026119D01*
X0070276Y0026119D01*
X0070420Y0026067D01*
X0070441Y0026077D01*
X0070462Y0026067D01*
X0070606Y0026119D01*
X0070760Y0026119D01*
X0070776Y0026136D01*
X0070799Y0026134D01*
X0070917Y0026232D01*
X0071060Y0026285D01*
X0071070Y0026306D01*
X0071093Y0026312D01*
X0071164Y0026435D01*
X0072383Y0026435D01*
X0072211Y0026263D01*
X0072192Y0026272D01*
X0072048Y0026220D01*
X0071895Y0026220D01*
X0071878Y0026203D01*
X0071855Y0026205D01*
X0071738Y0026107D01*
X0071594Y0026055D01*
X0071584Y0026033D01*
X0071561Y0026027D01*
X0071485Y0025895D01*
X0071368Y0025796D01*
X0071366Y0025773D01*
X0071346Y0025760D01*
X0071320Y0025609D01*
X0071243Y0025476D01*
X0071249Y0025454D01*
X0071236Y0025435D01*
X0071263Y0025284D01*
X0071236Y0025133D01*
X0071249Y0025114D01*
X0071243Y0025091D01*
X0071320Y0024959D01*
X0071346Y0024808D01*
X0071366Y0024795D01*
X0071368Y0024771D01*
X0071485Y0024673D01*
X0071561Y0024540D01*
X0071584Y0024534D01*
X0071594Y0024513D01*
X0071738Y0024461D01*
X0071855Y0024362D01*
X0071878Y0024364D01*
X0071895Y0024348D01*
X0072048Y0024348D01*
X0072192Y0024295D01*
X0072213Y0024305D01*
X0072234Y0024295D01*
X0072378Y0024348D01*
X0072531Y0024348D01*
X0072548Y0024364D01*
X0072571Y0024362D01*
X0072688Y0024461D01*
X0072832Y0024513D01*
X0072842Y0024534D01*
X0072865Y0024540D01*
X0072941Y0024673D01*
X0073058Y0024771D01*
X0073060Y0024795D01*
X0073080Y0024808D01*
X0073106Y0024959D01*
X0073183Y0025091D01*
X0073177Y0025114D01*
X0073190Y0025133D01*
X0073168Y0025258D01*
X0073845Y0025935D01*
X0084343Y0025935D01*
X0083986Y0025760D01*
X0077412Y0024057D01*
X0077876Y0024522D01*
X0077876Y0025219D01*
X0077384Y0025711D01*
X0076688Y0025711D01*
X0076376Y0025400D01*
X0076026Y0025750D01*
X0075329Y0025750D01*
X0074837Y0025258D01*
X0074837Y0024562D01*
X0075329Y0024069D01*
X0076026Y0024069D01*
X0076337Y0024381D01*
X0076688Y0024030D01*
X0077305Y0024030D01*
X0076791Y0023897D01*
X0069368Y0023520D01*
X0062022Y0024646D01*
X0056146Y0026822D01*
X0056215Y0026942D01*
X0056343Y0027070D02*
X0062396Y0027070D01*
X0062396Y0026904D02*
X0062888Y0026412D01*
X0063585Y0026412D01*
X0064077Y0026904D01*
X0064077Y0027601D01*
X0063643Y0028035D01*
X0063869Y0028035D01*
X0064361Y0028527D01*
X0064361Y0029223D01*
X0063869Y0029716D01*
X0063173Y0029716D01*
X0062680Y0029223D01*
X0062680Y0028527D01*
X0063114Y0028093D01*
X0062888Y0028093D01*
X0062396Y0027601D01*
X0062396Y0026904D01*
X0062528Y0026772D02*
X0056281Y0026772D01*
X0056455Y0027369D02*
X0062396Y0027369D01*
X0062463Y0027667D02*
X0059649Y0027667D01*
X0059596Y0027614D02*
X0060237Y0028256D01*
X0060237Y0029163D01*
X0059596Y0029804D01*
X0058689Y0029804D01*
X0058047Y0029163D01*
X0058047Y0028256D01*
X0058689Y0027614D01*
X0059596Y0027614D01*
X0059947Y0027966D02*
X0062761Y0027966D01*
X0062943Y0028264D02*
X0060237Y0028264D01*
X0060237Y0028563D02*
X0062680Y0028563D01*
X0062680Y0028861D02*
X0060237Y0028861D01*
X0060237Y0029160D02*
X0062680Y0029160D01*
X0062915Y0029458D02*
X0059941Y0029458D01*
X0059643Y0029757D02*
X0070579Y0029757D01*
X0070361Y0030055D02*
X0057305Y0030055D01*
X0057305Y0029757D02*
X0058642Y0029757D01*
X0058343Y0029458D02*
X0057026Y0029458D01*
X0056813Y0029246D02*
X0057305Y0029738D01*
X0057305Y0030434D01*
X0056813Y0030927D01*
X0056117Y0030927D01*
X0055624Y0030434D01*
X0055624Y0029738D01*
X0056117Y0029246D01*
X0056813Y0029246D01*
X0055904Y0029458D02*
X0055214Y0029458D01*
X0055389Y0029757D02*
X0055624Y0029757D01*
X0055624Y0030055D02*
X0055452Y0030055D01*
X0055423Y0030354D02*
X0055624Y0030354D01*
X0055843Y0030652D02*
X0055279Y0030652D01*
X0055190Y0030951D02*
X0056982Y0030951D01*
X0057087Y0030652D02*
X0057281Y0030652D01*
X0057305Y0030354D02*
X0070260Y0030354D01*
X0071235Y0030493D02*
X0071290Y0030493D01*
X0072000Y0029784D01*
X0078417Y0029784D01*
X0079378Y0028822D01*
X0080222Y0029160D02*
X0087428Y0029160D01*
X0087980Y0029458D02*
X0080038Y0029458D01*
X0080289Y0028861D02*
X0086875Y0028861D01*
X0086966Y0028122D02*
X0081111Y0028122D01*
X0080117Y0027128D01*
X0070514Y0027128D01*
X0070441Y0027056D01*
X0069714Y0027667D02*
X0066046Y0027667D01*
X0066046Y0027758D02*
X0066046Y0027062D01*
X0065553Y0026569D01*
X0064857Y0026569D01*
X0064365Y0027062D01*
X0064365Y0027758D01*
X0064857Y0028250D01*
X0065553Y0028250D01*
X0066046Y0027758D01*
X0065838Y0027966D02*
X0070070Y0027966D01*
X0070813Y0027966D02*
X0079014Y0027966D01*
X0078658Y0028264D02*
X0064099Y0028264D01*
X0064361Y0028563D02*
X0078500Y0028563D01*
X0078358Y0028861D02*
X0064361Y0028861D01*
X0064361Y0029160D02*
X0071643Y0029160D01*
X0071344Y0029458D02*
X0064126Y0029458D01*
X0063712Y0027966D02*
X0064572Y0027966D01*
X0064365Y0027667D02*
X0064010Y0027667D01*
X0064077Y0027369D02*
X0064365Y0027369D01*
X0064365Y0027070D02*
X0064077Y0027070D01*
X0063945Y0026772D02*
X0064654Y0026772D01*
X0063646Y0026473D02*
X0067632Y0026473D01*
X0067632Y0026498D02*
X0067632Y0025802D01*
X0068125Y0025309D01*
X0068821Y0025309D01*
X0069313Y0025802D01*
X0069313Y0026498D01*
X0068821Y0026991D01*
X0068125Y0026991D01*
X0067632Y0026498D01*
X0067632Y0026175D02*
X0057893Y0026175D01*
X0057087Y0026473D02*
X0062827Y0026473D01*
X0061923Y0024682D02*
X0071474Y0024682D01*
X0071307Y0024981D02*
X0061117Y0024981D01*
X0060311Y0025279D02*
X0071262Y0025279D01*
X0071302Y0025578D02*
X0069089Y0025578D01*
X0069313Y0025876D02*
X0071463Y0025876D01*
X0071819Y0026175D02*
X0070848Y0026175D01*
X0070035Y0026175D02*
X0069313Y0026175D01*
X0069313Y0026473D02*
X0069679Y0026473D01*
X0069524Y0026772D02*
X0069040Y0026772D01*
X0069488Y0027070D02*
X0066046Y0027070D01*
X0066046Y0027369D02*
X0069541Y0027369D01*
X0067906Y0026772D02*
X0065756Y0026772D01*
X0067632Y0025876D02*
X0058699Y0025876D01*
X0059505Y0025578D02*
X0067856Y0025578D01*
X0067629Y0023787D02*
X0074621Y0023787D01*
X0075015Y0024384D02*
X0072596Y0024384D01*
X0072952Y0024682D02*
X0074837Y0024682D01*
X0074837Y0024981D02*
X0073119Y0024981D01*
X0073189Y0025279D02*
X0074858Y0025279D01*
X0075157Y0025578D02*
X0073488Y0025578D01*
X0073786Y0025876D02*
X0084224Y0025876D01*
X0083283Y0025578D02*
X0077517Y0025578D01*
X0077816Y0025279D02*
X0082131Y0025279D01*
X0080978Y0024981D02*
X0077876Y0024981D01*
X0077876Y0024682D02*
X0079825Y0024682D01*
X0078672Y0024384D02*
X0077738Y0024384D01*
X0077519Y0024085D02*
X0077439Y0024085D01*
X0076632Y0024085D02*
X0076042Y0024085D01*
X0075313Y0024085D02*
X0065681Y0024085D01*
X0063732Y0024384D02*
X0071829Y0024384D01*
X0072213Y0025284D02*
X0073558Y0026628D01*
X0086167Y0026628D01*
X0086944Y0027048D01*
X0088883Y0028096D01*
X0102581Y0041794D01*
X0102581Y0060978D01*
X0092935Y0070624D01*
X0092935Y0074759D01*
X0092590Y0075104D01*
X0092435Y0074203D02*
X0091577Y0075061D01*
X0091577Y0075835D01*
X0092470Y0076160D02*
X0092519Y0076075D01*
X0092569Y0076093D01*
X0092590Y0076083D01*
X0092611Y0076093D01*
X0092755Y0076040D01*
X0092908Y0076040D01*
X0092925Y0076024D01*
X0092948Y0076026D01*
X0093065Y0075927D01*
X0093209Y0075875D01*
X0093219Y0075854D01*
X0093241Y0075848D01*
X0093318Y0075715D01*
X0093435Y0075617D01*
X0093437Y0075594D01*
X0093456Y0075580D01*
X0093483Y0075429D01*
X0099043Y0075429D01*
X0099043Y0075166D02*
X0099536Y0074673D01*
X0100232Y0074673D01*
X0100724Y0075166D01*
X0100724Y0075862D01*
X0100232Y0076354D01*
X0099536Y0076354D01*
X0099043Y0075862D01*
X0099043Y0075166D01*
X0099078Y0075131D02*
X0093545Y0075131D01*
X0093545Y0075130D02*
X0093567Y0075255D01*
X0093553Y0075274D01*
X0093560Y0075297D01*
X0093483Y0075429D01*
X0093545Y0075130D02*
X0093629Y0075046D01*
X0093629Y0074102D01*
X0093880Y0074353D01*
X0094576Y0074353D01*
X0095068Y0073860D01*
X0095068Y0073164D01*
X0094576Y0072672D01*
X0093880Y0072672D01*
X0093629Y0072922D01*
X0093629Y0070911D01*
X0098376Y0066164D01*
X0098441Y0066219D01*
X0098441Y0067795D01*
X0102575Y0071929D01*
X0102575Y0073361D01*
X0102568Y0073374D01*
X0102450Y0073472D01*
X0102448Y0073495D01*
X0102429Y0073509D01*
X0102403Y0073660D01*
X0102326Y0073792D01*
X0102332Y0073815D01*
X0102319Y0073834D01*
X0102345Y0073985D01*
X0102319Y0074135D01*
X0102332Y0074155D01*
X0102326Y0074177D01*
X0102403Y0074310D01*
X0102429Y0074461D01*
X0102448Y0074474D01*
X0102450Y0074497D01*
X0102568Y0074596D01*
X0102644Y0074728D01*
X0102667Y0074734D01*
X0102677Y0074755D01*
X0102820Y0074808D01*
X0102894Y0074869D01*
X0097541Y0080223D01*
X0097541Y0078887D01*
X0097575Y0078828D01*
X0097692Y0078729D01*
X0097694Y0078706D01*
X0097713Y0078693D01*
X0097740Y0078542D01*
X0097817Y0078409D01*
X0097811Y0078387D01*
X0097824Y0078368D01*
X0097797Y0078217D01*
X0097824Y0078066D01*
X0097811Y0078047D01*
X0097817Y0078024D01*
X0097740Y0077892D01*
X0097713Y0077741D01*
X0097694Y0077728D01*
X0097692Y0077704D01*
X0097575Y0077606D01*
X0097498Y0077473D01*
X0097476Y0077467D01*
X0097466Y0077446D01*
X0097322Y0077394D01*
X0097205Y0077295D01*
X0097182Y0077297D01*
X0097165Y0077281D01*
X0097012Y0077281D01*
X0096868Y0077229D01*
X0096847Y0077238D01*
X0096826Y0077229D01*
X0096682Y0077281D01*
X0096529Y0077281D01*
X0096512Y0077297D01*
X0096489Y0077295D01*
X0096372Y0077394D01*
X0096346Y0077403D01*
X0096293Y0077299D01*
X0096269Y0077291D01*
X0096261Y0077267D01*
X0096115Y0077192D01*
X0095998Y0077075D01*
X0095973Y0077075D01*
X0095958Y0077055D01*
X0095920Y0077049D01*
X0095895Y0077024D01*
X0095784Y0077024D01*
X0095649Y0076954D01*
X0095624Y0076962D01*
X0095604Y0076947D01*
X0095441Y0076973D01*
X0095279Y0076947D01*
X0095258Y0076962D01*
X0095234Y0076954D01*
X0095098Y0077024D01*
X0094988Y0077024D01*
X0094963Y0077049D01*
X0094925Y0077055D01*
X0094910Y0077075D01*
X0094885Y0077075D01*
X0094779Y0077181D01*
X0090840Y0077181D01*
X0091143Y0076879D01*
X0091143Y0076693D01*
X0091219Y0076757D01*
X0091242Y0076755D01*
X0091259Y0076771D01*
X0091412Y0076771D01*
X0091556Y0076823D01*
X0091577Y0076814D01*
X0091598Y0076823D01*
X0091742Y0076771D01*
X0091895Y0076771D01*
X0091911Y0076755D01*
X0091935Y0076757D01*
X0092052Y0076658D01*
X0092196Y0076606D01*
X0092206Y0076585D01*
X0092228Y0076579D01*
X0092305Y0076446D01*
X0092422Y0076348D01*
X0092424Y0076324D01*
X0092443Y0076311D01*
X0092470Y0076160D01*
X0092424Y0076325D02*
X0099506Y0076325D01*
X0099208Y0076026D02*
X0092922Y0076026D01*
X0093311Y0075728D02*
X0099043Y0075728D01*
X0099377Y0074832D02*
X0093629Y0074832D01*
X0093629Y0074534D02*
X0102494Y0074534D01*
X0102359Y0074235D02*
X0094694Y0074235D01*
X0094992Y0073937D02*
X0102337Y0073937D01*
X0102406Y0073638D02*
X0095068Y0073638D01*
X0095068Y0073340D02*
X0102575Y0073340D01*
X0102575Y0073041D02*
X0094946Y0073041D01*
X0094647Y0072743D02*
X0102575Y0072743D01*
X0102575Y0072444D02*
X0093629Y0072444D01*
X0093629Y0072146D02*
X0102575Y0072146D01*
X0102493Y0071847D02*
X0093629Y0071847D01*
X0093629Y0071549D02*
X0102194Y0071549D01*
X0101896Y0071250D02*
X0093629Y0071250D01*
X0093629Y0070952D02*
X0101597Y0070952D01*
X0101299Y0070653D02*
X0093887Y0070653D01*
X0094186Y0070355D02*
X0101000Y0070355D01*
X0100702Y0070056D02*
X0094484Y0070056D01*
X0094783Y0069757D02*
X0100403Y0069757D01*
X0100105Y0069459D02*
X0095081Y0069459D01*
X0095380Y0069160D02*
X0099806Y0069160D01*
X0099508Y0068862D02*
X0095678Y0068862D01*
X0095977Y0068563D02*
X0099209Y0068563D01*
X0098911Y0068265D02*
X0096275Y0068265D01*
X0096574Y0067966D02*
X0098612Y0067966D01*
X0098441Y0067668D02*
X0096872Y0067668D01*
X0097171Y0067369D02*
X0098441Y0067369D01*
X0098441Y0067071D02*
X0097469Y0067071D01*
X0097768Y0066772D02*
X0098441Y0066772D01*
X0098441Y0066474D02*
X0098066Y0066474D01*
X0098365Y0066175D02*
X0098389Y0066175D01*
X0099922Y0066219D02*
X0099922Y0067182D01*
X0103362Y0070622D01*
X0103362Y0070185D01*
X0104004Y0069543D01*
X0104911Y0069543D01*
X0105552Y0070185D01*
X0105552Y0070496D01*
X0106241Y0067576D01*
X0106241Y0056362D01*
X0104872Y0054993D01*
X0104466Y0054587D01*
X0104466Y0049387D01*
X0104371Y0049387D01*
X0104354Y0049371D01*
X0104331Y0049373D01*
X0104214Y0049274D01*
X0104070Y0049222D01*
X0104060Y0049201D01*
X0104037Y0049195D01*
X0103961Y0049062D01*
X0103844Y0048964D01*
X0103842Y0048940D01*
X0103822Y0048927D01*
X0103796Y0048776D01*
X0103719Y0048644D01*
X0103725Y0048621D01*
X0103712Y0048602D01*
X0103738Y0048451D01*
X0103712Y0048300D01*
X0103725Y0048281D01*
X0103719Y0048259D01*
X0103796Y0048126D01*
X0103822Y0047975D01*
X0103842Y0047962D01*
X0103844Y0047939D01*
X0103961Y0047840D01*
X0104037Y0047708D01*
X0104060Y0047702D01*
X0104070Y0047680D01*
X0104214Y0047628D01*
X0104331Y0047530D01*
X0104354Y0047532D01*
X0104371Y0047515D01*
X0104524Y0047515D01*
X0104668Y0047463D01*
X0104689Y0047473D01*
X0104710Y0047463D01*
X0104854Y0047515D01*
X0105007Y0047515D01*
X0105024Y0047532D01*
X0105047Y0047530D01*
X0105164Y0047628D01*
X0105308Y0047680D01*
X0105318Y0047702D01*
X0105341Y0047708D01*
X0105417Y0047840D01*
X0105534Y0047939D01*
X0105536Y0047962D01*
X0105556Y0047975D01*
X0105582Y0048126D01*
X0105659Y0048259D01*
X0105653Y0048281D01*
X0105666Y0048300D01*
X0105644Y0048425D01*
X0105853Y0048634D01*
X0105853Y0054012D01*
X0107498Y0055657D01*
X0107209Y0052811D01*
X0107209Y0052811D01*
X0104984Y0045720D01*
X0104207Y0044321D01*
X0103821Y0044707D01*
X0103770Y0044707D01*
X0104235Y0045172D01*
X0104235Y0045868D01*
X0103742Y0046361D01*
X0103275Y0046361D01*
X0103275Y0053656D01*
X0103742Y0053656D01*
X0104235Y0054148D01*
X0104235Y0054845D01*
X0103742Y0055337D01*
X0103275Y0055337D01*
X0103275Y0061265D01*
X0099721Y0064819D01*
X0099801Y0064848D01*
X0099810Y0064869D01*
X0099833Y0064875D01*
X0099910Y0065008D01*
X0100027Y0065106D01*
X0100029Y0065129D01*
X0100048Y0065143D01*
X0100075Y0065293D01*
X0100151Y0065426D01*
X0100145Y0065449D01*
X0100159Y0065468D01*
X0100132Y0065619D01*
X0100159Y0065769D01*
X0100145Y0065788D01*
X0100151Y0065811D01*
X0100075Y0065944D01*
X0100048Y0066094D01*
X0100029Y0066108D01*
X0100027Y0066131D01*
X0099922Y0066219D01*
X0099974Y0066175D02*
X0106241Y0066175D01*
X0106241Y0065877D02*
X0100113Y0065877D01*
X0100139Y0065578D02*
X0106241Y0065578D01*
X0106241Y0065280D02*
X0100072Y0065280D01*
X0099894Y0064981D02*
X0106241Y0064981D01*
X0106241Y0064683D02*
X0099857Y0064683D01*
X0100156Y0064384D02*
X0106241Y0064384D01*
X0106241Y0064086D02*
X0100454Y0064086D01*
X0100753Y0063787D02*
X0106241Y0063787D01*
X0106241Y0063489D02*
X0101051Y0063489D01*
X0101350Y0063190D02*
X0106241Y0063190D01*
X0106241Y0062892D02*
X0101648Y0062892D01*
X0101947Y0062593D02*
X0106241Y0062593D01*
X0106241Y0062295D02*
X0102245Y0062295D01*
X0102544Y0061996D02*
X0106241Y0061996D01*
X0106241Y0061698D02*
X0102842Y0061698D01*
X0103141Y0061399D02*
X0106241Y0061399D01*
X0106241Y0061101D02*
X0103275Y0061101D01*
X0103275Y0060802D02*
X0106241Y0060802D01*
X0106241Y0060504D02*
X0103275Y0060504D01*
X0103275Y0060205D02*
X0106241Y0060205D01*
X0106241Y0059907D02*
X0103275Y0059907D01*
X0103275Y0059608D02*
X0106241Y0059608D01*
X0106241Y0059310D02*
X0103275Y0059310D01*
X0103275Y0059011D02*
X0106241Y0059011D01*
X0106241Y0058713D02*
X0103275Y0058713D01*
X0103275Y0058414D02*
X0106241Y0058414D01*
X0106241Y0058116D02*
X0103275Y0058116D01*
X0103275Y0057817D02*
X0106241Y0057817D01*
X0106241Y0057519D02*
X0103275Y0057519D01*
X0103275Y0057220D02*
X0106241Y0057220D01*
X0106241Y0056921D02*
X0103275Y0056921D01*
X0103275Y0056623D02*
X0106241Y0056623D01*
X0106203Y0056324D02*
X0103275Y0056324D01*
X0103275Y0056026D02*
X0105905Y0056026D01*
X0105606Y0055727D02*
X0103275Y0055727D01*
X0103275Y0055429D02*
X0105308Y0055429D01*
X0105009Y0055130D02*
X0103949Y0055130D01*
X0104235Y0054832D02*
X0104711Y0054832D01*
X0104872Y0054993D02*
X0104872Y0054993D01*
X0104466Y0054533D02*
X0104235Y0054533D01*
X0104235Y0054235D02*
X0104466Y0054235D01*
X0104466Y0053936D02*
X0104023Y0053936D01*
X0104466Y0053638D02*
X0103275Y0053638D01*
X0103275Y0053339D02*
X0104466Y0053339D01*
X0104466Y0053041D02*
X0103275Y0053041D01*
X0103275Y0052742D02*
X0104466Y0052742D01*
X0104466Y0052444D02*
X0103275Y0052444D01*
X0103275Y0052145D02*
X0104466Y0052145D01*
X0104466Y0051847D02*
X0103275Y0051847D01*
X0103275Y0051548D02*
X0104466Y0051548D01*
X0104466Y0051250D02*
X0103275Y0051250D01*
X0103275Y0050951D02*
X0104466Y0050951D01*
X0104466Y0050653D02*
X0103275Y0050653D01*
X0103275Y0050354D02*
X0104466Y0050354D01*
X0104466Y0050056D02*
X0103275Y0050056D01*
X0103275Y0049757D02*
X0104466Y0049757D01*
X0104466Y0049459D02*
X0103275Y0049459D01*
X0103275Y0049160D02*
X0104017Y0049160D01*
X0103811Y0048862D02*
X0103275Y0048862D01*
X0103275Y0048563D02*
X0103719Y0048563D01*
X0103721Y0048265D02*
X0103275Y0048265D01*
X0103275Y0047966D02*
X0103835Y0047966D01*
X0104105Y0047668D02*
X0103275Y0047668D01*
X0103275Y0047369D02*
X0105501Y0047369D01*
X0105408Y0047071D02*
X0103275Y0047071D01*
X0103275Y0046772D02*
X0105314Y0046772D01*
X0105220Y0046474D02*
X0103275Y0046474D01*
X0103928Y0046175D02*
X0105127Y0046175D01*
X0105033Y0045877D02*
X0104226Y0045877D01*
X0104235Y0045578D02*
X0104905Y0045578D01*
X0104740Y0045280D02*
X0104235Y0045280D01*
X0104044Y0044981D02*
X0104574Y0044981D01*
X0104408Y0044683D02*
X0103846Y0044683D01*
X0104144Y0044384D02*
X0104242Y0044384D01*
X0102081Y0042002D02*
X0089654Y0029575D01*
X0086966Y0028122D01*
X0087929Y0029757D02*
X0088532Y0029757D01*
X0088536Y0030055D02*
X0089085Y0030055D01*
X0089452Y0030354D02*
X0088716Y0030354D01*
X0088780Y0030652D02*
X0089751Y0030652D01*
X0090049Y0030951D02*
X0088743Y0030951D01*
X0088580Y0031250D02*
X0090348Y0031250D01*
X0090647Y0031548D02*
X0088727Y0031548D01*
X0089026Y0031847D02*
X0090945Y0031847D01*
X0091244Y0032145D02*
X0089324Y0032145D01*
X0089623Y0032444D02*
X0091542Y0032444D01*
X0091841Y0032742D02*
X0089921Y0032742D01*
X0090220Y0033041D02*
X0092139Y0033041D01*
X0092438Y0033339D02*
X0090518Y0033339D01*
X0090817Y0033638D02*
X0092736Y0033638D01*
X0093035Y0033936D02*
X0091115Y0033936D01*
X0091414Y0034235D02*
X0093333Y0034235D01*
X0093632Y0034533D02*
X0092050Y0034533D01*
X0092388Y0034832D02*
X0093930Y0034832D01*
X0094229Y0035130D02*
X0092500Y0035130D01*
X0092508Y0035429D02*
X0094527Y0035429D01*
X0094826Y0035727D02*
X0094054Y0035727D01*
X0094358Y0036026D02*
X0095124Y0036026D01*
X0095423Y0036324D02*
X0094476Y0036324D01*
X0095119Y0036623D02*
X0095721Y0036623D01*
X0095475Y0036921D02*
X0096020Y0036921D01*
X0096318Y0037220D02*
X0095637Y0037220D01*
X0095678Y0037518D02*
X0096617Y0037518D01*
X0096915Y0037817D02*
X0096223Y0037817D01*
X0095901Y0038748D02*
X0098000Y0038748D01*
X0100953Y0041701D01*
X0100953Y0060559D01*
X0087370Y0074142D01*
X0087370Y0080481D01*
X0083630Y0084221D01*
X0081465Y0084221D01*
X0080678Y0085008D01*
X0079850Y0084699D02*
X0079850Y0087411D01*
X0077528Y0089733D01*
X0077693Y0090669D02*
X0077549Y0090721D01*
X0077528Y0090711D01*
X0077507Y0090721D01*
X0077363Y0090669D01*
X0077210Y0090669D01*
X0077193Y0090652D01*
X0077170Y0090654D01*
X0077053Y0090556D01*
X0076909Y0090503D01*
X0076899Y0090482D01*
X0076876Y0090476D01*
X0076800Y0090344D01*
X0076741Y0090294D01*
X0076681Y0090344D01*
X0076605Y0090476D01*
X0076582Y0090482D01*
X0076572Y0090503D01*
X0076428Y0090556D01*
X0076408Y0090573D01*
X0076794Y0090959D01*
X0076794Y0091656D01*
X0076408Y0092042D01*
X0076428Y0092059D01*
X0076572Y0092112D01*
X0076582Y0092133D01*
X0076605Y0092139D01*
X0076681Y0092271D01*
X0076741Y0092321D01*
X0076800Y0092271D01*
X0076876Y0092139D01*
X0076899Y0092133D01*
X0076909Y0092112D01*
X0077053Y0092059D01*
X0077170Y0091961D01*
X0077193Y0091963D01*
X0077210Y0091946D01*
X0077363Y0091946D01*
X0077507Y0091894D01*
X0077528Y0091904D01*
X0077549Y0091894D01*
X0077693Y0091946D01*
X0077846Y0091946D01*
X0077863Y0091963D01*
X0077886Y0091961D01*
X0078003Y0092059D01*
X0078147Y0092112D01*
X0078157Y0092133D01*
X0078179Y0092139D01*
X0078256Y0092271D01*
X0078315Y0092321D01*
X0078375Y0092271D01*
X0078451Y0092139D01*
X0078474Y0092133D01*
X0078484Y0092112D01*
X0078628Y0092059D01*
X0078648Y0092042D01*
X0078262Y0091656D01*
X0078262Y0090959D01*
X0078755Y0090467D01*
X0079451Y0090467D01*
X0079890Y0090906D01*
X0080223Y0090573D01*
X0080202Y0090556D01*
X0080058Y0090503D01*
X0080049Y0090482D01*
X0080026Y0090476D01*
X0079949Y0090344D01*
X0079832Y0090245D01*
X0079830Y0090222D01*
X0079811Y0090209D01*
X0079784Y0090058D01*
X0079708Y0089925D01*
X0079714Y0089903D01*
X0079700Y0089883D01*
X0079727Y0089733D01*
X0079700Y0089582D01*
X0079714Y0089563D01*
X0079708Y0089540D01*
X0079784Y0089408D01*
X0079811Y0089257D01*
X0079830Y0089243D01*
X0079832Y0089220D01*
X0079949Y0089122D01*
X0080026Y0088989D01*
X0080049Y0088983D01*
X0080058Y0088962D01*
X0080202Y0088910D01*
X0080223Y0088892D01*
X0079837Y0088506D01*
X0079837Y0088405D01*
X0078483Y0089759D01*
X0078505Y0089883D01*
X0078492Y0089903D01*
X0078498Y0089925D01*
X0078421Y0090058D01*
X0078395Y0090209D01*
X0078375Y0090222D01*
X0078373Y0090245D01*
X0078256Y0090344D01*
X0078179Y0090476D01*
X0078157Y0090482D01*
X0078147Y0090503D01*
X0078003Y0090556D01*
X0077886Y0090654D01*
X0077863Y0090652D01*
X0077846Y0090669D01*
X0077693Y0090669D01*
X0077862Y0090653D02*
X0077875Y0090653D01*
X0077887Y0090653D02*
X0078568Y0090653D01*
X0078270Y0090952D02*
X0076786Y0090952D01*
X0076794Y0091250D02*
X0078262Y0091250D01*
X0078262Y0091549D02*
X0076794Y0091549D01*
X0076602Y0091847D02*
X0078454Y0091847D01*
X0078447Y0092146D02*
X0078184Y0092146D01*
X0077528Y0092882D02*
X0078473Y0093827D01*
X0082961Y0093827D01*
X0088237Y0088552D01*
X0090355Y0088552D01*
X0093387Y0085440D01*
X0092659Y0084829D02*
X0092542Y0084928D01*
X0092540Y0084951D01*
X0092521Y0084964D01*
X0092494Y0085115D01*
X0092418Y0085248D01*
X0092424Y0085270D01*
X0092410Y0085289D01*
X0092434Y0085424D01*
X0090062Y0087858D01*
X0088415Y0087858D01*
X0089088Y0087185D01*
X0089088Y0086398D01*
X0091831Y0083655D01*
X0096039Y0083655D01*
X0096039Y0084517D01*
X0096681Y0085158D01*
X0097588Y0085158D01*
X0098229Y0084517D01*
X0098229Y0083610D01*
X0097588Y0082969D01*
X0096757Y0082969D01*
X0104920Y0074805D01*
X0101377Y0081189D01*
X0096536Y0086828D01*
X0090659Y0091377D01*
X0085066Y0094121D01*
X0086714Y0092472D01*
X0087120Y0092066D01*
X0087120Y0091640D01*
X0088530Y0090230D01*
X0090727Y0090230D01*
X0090985Y0090251D01*
X0091010Y0090230D01*
X0091043Y0090230D01*
X0091226Y0090047D01*
X0094307Y0087435D01*
X0094357Y0087453D01*
X0094378Y0087443D01*
X0094399Y0087453D01*
X0094543Y0087401D01*
X0094697Y0087401D01*
X0094713Y0087384D01*
X0094736Y0087387D01*
X0094854Y0087288D01*
X0094997Y0087236D01*
X0095007Y0087215D01*
X0095030Y0087209D01*
X0095106Y0087076D01*
X0095224Y0086977D01*
X0095226Y0086954D01*
X0095245Y0086941D01*
X0095271Y0086790D01*
X0095348Y0086657D01*
X0095342Y0086635D01*
X0095355Y0086616D01*
X0095329Y0086465D01*
X0095355Y0086314D01*
X0095342Y0086295D01*
X0095348Y0086272D01*
X0095271Y0086140D01*
X0095245Y0085989D01*
X0095226Y0085976D01*
X0095224Y0085952D01*
X0095106Y0085854D01*
X0095030Y0085721D01*
X0095007Y0085715D01*
X0094997Y0085694D01*
X0094854Y0085642D01*
X0094736Y0085543D01*
X0094713Y0085545D01*
X0094697Y0085529D01*
X0094543Y0085529D01*
X0094399Y0085477D01*
X0094378Y0085486D01*
X0094357Y0085477D01*
X0094345Y0085481D01*
X0094338Y0085440D01*
X0094364Y0085289D01*
X0094351Y0085270D01*
X0094357Y0085248D01*
X0094280Y0085115D01*
X0094254Y0084964D01*
X0094235Y0084951D01*
X0094233Y0084928D01*
X0094115Y0084829D01*
X0094039Y0084697D01*
X0094016Y0084691D01*
X0094006Y0084669D01*
X0093863Y0084617D01*
X0093745Y0084519D01*
X0093722Y0084521D01*
X0093705Y0084504D01*
X0093552Y0084504D01*
X0093408Y0084452D01*
X0093387Y0084462D01*
X0093366Y0084452D01*
X0093222Y0084504D01*
X0093069Y0084504D01*
X0093053Y0084521D01*
X0093029Y0084519D01*
X0092912Y0084617D01*
X0092768Y0084669D01*
X0092758Y0084691D01*
X0092736Y0084697D01*
X0092659Y0084829D01*
X0092762Y0084683D02*
X0090803Y0084683D01*
X0091101Y0084385D02*
X0096039Y0084385D01*
X0096039Y0084086D02*
X0091400Y0084086D01*
X0091698Y0083788D02*
X0096039Y0083788D01*
X0095783Y0082961D02*
X0091544Y0082961D01*
X0088394Y0086111D01*
X0088394Y0086898D01*
X0083157Y0092135D01*
X0079850Y0092135D01*
X0079103Y0092882D01*
X0080058Y0092908D02*
X0080080Y0093033D01*
X0080066Y0093052D01*
X0080072Y0093075D01*
X0080039Y0093133D01*
X0082674Y0093133D01*
X0082978Y0092829D01*
X0082869Y0092829D01*
X0080137Y0092829D01*
X0080058Y0092908D01*
X0080074Y0093041D02*
X0082766Y0093041D01*
X0083093Y0091218D02*
X0087700Y0086611D01*
X0087700Y0086398D01*
X0087700Y0085823D01*
X0090850Y0082674D01*
X0091050Y0082474D01*
X0089471Y0082474D01*
X0089471Y0082994D01*
X0088978Y0083487D01*
X0088282Y0083487D01*
X0087790Y0082994D01*
X0087790Y0082499D01*
X0086297Y0083992D01*
X0086490Y0083992D01*
X0087131Y0084633D01*
X0087131Y0085541D01*
X0086773Y0085898D01*
X0086838Y0085952D01*
X0086840Y0085976D01*
X0086859Y0085989D01*
X0086886Y0086140D01*
X0086962Y0086272D01*
X0086956Y0086295D01*
X0086970Y0086314D01*
X0086943Y0086465D01*
X0086970Y0086616D01*
X0086956Y0086635D01*
X0086962Y0086657D01*
X0086886Y0086790D01*
X0086859Y0086941D01*
X0086840Y0086954D01*
X0086838Y0086977D01*
X0086721Y0087076D01*
X0086644Y0087209D01*
X0086622Y0087215D01*
X0086612Y0087236D01*
X0086468Y0087288D01*
X0086350Y0087387D01*
X0086327Y0087384D01*
X0086311Y0087401D01*
X0086158Y0087401D01*
X0086014Y0087453D01*
X0085994Y0087444D01*
X0084048Y0089390D01*
X0083642Y0089796D01*
X0081639Y0089796D01*
X0081655Y0089883D01*
X0081641Y0089903D01*
X0081647Y0089925D01*
X0081571Y0090058D01*
X0081544Y0090209D01*
X0081525Y0090222D01*
X0081523Y0090245D01*
X0081406Y0090344D01*
X0081329Y0090476D01*
X0081307Y0090482D01*
X0081297Y0090503D01*
X0081153Y0090556D01*
X0081132Y0090573D01*
X0081465Y0090906D01*
X0081904Y0090467D01*
X0082601Y0090467D01*
X0083093Y0090959D01*
X0083093Y0091218D01*
X0083085Y0090952D02*
X0083359Y0090952D01*
X0083658Y0090653D02*
X0082787Y0090653D01*
X0081718Y0090653D02*
X0081212Y0090653D01*
X0081399Y0090355D02*
X0083956Y0090355D01*
X0084255Y0090056D02*
X0081572Y0090056D01*
X0080678Y0089733D02*
X0081307Y0089103D01*
X0083355Y0089103D01*
X0085993Y0086465D01*
X0085099Y0086140D02*
X0085126Y0085989D01*
X0085145Y0085976D01*
X0085147Y0085952D01*
X0085259Y0085858D01*
X0084941Y0085541D01*
X0084941Y0085348D01*
X0084587Y0085702D01*
X0082933Y0085702D01*
X0082904Y0085752D01*
X0082881Y0085758D01*
X0082871Y0085779D01*
X0082728Y0085831D01*
X0082610Y0085930D01*
X0082587Y0085928D01*
X0082571Y0085944D01*
X0082417Y0085944D01*
X0082274Y0085997D01*
X0082252Y0085987D01*
X0082231Y0085997D01*
X0082087Y0085944D01*
X0081934Y0085944D01*
X0081918Y0085928D01*
X0081894Y0085930D01*
X0081777Y0085831D01*
X0081633Y0085779D01*
X0081623Y0085758D01*
X0081601Y0085752D01*
X0081524Y0085619D01*
X0081465Y0085569D01*
X0081406Y0085619D01*
X0081329Y0085752D01*
X0081307Y0085758D01*
X0081297Y0085779D01*
X0081153Y0085831D01*
X0081035Y0085930D01*
X0081012Y0085928D01*
X0080996Y0085944D01*
X0080843Y0085944D01*
X0080699Y0085997D01*
X0080678Y0085987D01*
X0080656Y0085997D01*
X0080543Y0085955D01*
X0080543Y0087317D01*
X0081026Y0087317D01*
X0081518Y0087810D01*
X0081518Y0088409D01*
X0083067Y0088409D01*
X0083895Y0087581D01*
X0083840Y0087581D01*
X0083347Y0087089D01*
X0083347Y0086392D01*
X0083840Y0085900D01*
X0084536Y0085900D01*
X0085028Y0086392D01*
X0085028Y0086448D01*
X0085037Y0086439D01*
X0085015Y0086314D01*
X0085029Y0086295D01*
X0085023Y0086272D01*
X0085099Y0086140D01*
X0085079Y0086176D02*
X0084812Y0086176D01*
X0085237Y0085877D02*
X0082673Y0085877D01*
X0081832Y0085877D02*
X0081098Y0085877D01*
X0081454Y0085579D02*
X0081476Y0085579D01*
X0082252Y0085008D02*
X0084300Y0085008D01*
X0087528Y0081780D01*
X0095008Y0081780D01*
X0096847Y0079941D01*
X0096847Y0078217D01*
X0097727Y0077817D02*
X0099946Y0077817D01*
X0100245Y0077519D02*
X0097525Y0077519D01*
X0097815Y0078116D02*
X0099648Y0078116D01*
X0099349Y0078414D02*
X0097814Y0078414D01*
X0097694Y0078713D02*
X0099051Y0078713D01*
X0098752Y0079011D02*
X0097541Y0079011D01*
X0097541Y0079310D02*
X0098453Y0079310D01*
X0098155Y0079608D02*
X0097541Y0079608D01*
X0097541Y0079907D02*
X0097856Y0079907D01*
X0097558Y0080205D02*
X0097541Y0080205D01*
X0098624Y0081101D02*
X0101426Y0081101D01*
X0101591Y0080802D02*
X0098923Y0080802D01*
X0099221Y0080504D02*
X0101757Y0080504D01*
X0101923Y0080205D02*
X0099520Y0080205D01*
X0099819Y0079907D02*
X0102088Y0079907D01*
X0102254Y0079608D02*
X0100117Y0079608D01*
X0100416Y0079310D02*
X0102420Y0079310D01*
X0102586Y0079011D02*
X0100714Y0079011D01*
X0101013Y0078713D02*
X0102751Y0078713D01*
X0102917Y0078414D02*
X0101311Y0078414D01*
X0101610Y0078116D02*
X0103083Y0078116D01*
X0103248Y0077817D02*
X0101908Y0077817D01*
X0102207Y0077519D02*
X0103414Y0077519D01*
X0103580Y0077220D02*
X0102505Y0077220D01*
X0102804Y0076922D02*
X0103745Y0076922D01*
X0103911Y0076623D02*
X0103102Y0076623D01*
X0103401Y0076325D02*
X0104077Y0076325D01*
X0104242Y0076026D02*
X0103699Y0076026D01*
X0103998Y0075728D02*
X0104408Y0075728D01*
X0104296Y0075429D02*
X0104574Y0075429D01*
X0104595Y0075131D02*
X0104739Y0075131D01*
X0104893Y0074832D02*
X0104905Y0074832D01*
X0105112Y0073632D02*
X0095783Y0082961D01*
X0096833Y0082892D02*
X0099915Y0082892D01*
X0100171Y0082593D02*
X0097132Y0082593D01*
X0097430Y0082295D02*
X0100427Y0082295D01*
X0100684Y0081996D02*
X0097729Y0081996D01*
X0098027Y0081698D02*
X0100940Y0081698D01*
X0101196Y0081399D02*
X0098326Y0081399D01*
X0096153Y0079654D02*
X0096153Y0079026D01*
X0096115Y0079045D01*
X0095998Y0079162D01*
X0095973Y0079162D01*
X0095958Y0079182D01*
X0095920Y0079188D01*
X0095895Y0079213D01*
X0095784Y0079213D01*
X0095649Y0079283D01*
X0095624Y0079275D01*
X0095604Y0079290D01*
X0095441Y0079264D01*
X0095279Y0079290D01*
X0095258Y0079275D01*
X0095234Y0079283D01*
X0095098Y0079213D01*
X0095014Y0079213D01*
X0095237Y0079437D01*
X0095237Y0080344D01*
X0094596Y0080985D01*
X0093689Y0080985D01*
X0093047Y0080344D01*
X0093047Y0079437D01*
X0093428Y0079056D01*
X0088327Y0079056D01*
X0088064Y0078793D01*
X0088064Y0080193D01*
X0088064Y0080768D01*
X0087746Y0081086D01*
X0094721Y0081086D01*
X0096153Y0079654D01*
X0096153Y0079608D02*
X0095237Y0079608D01*
X0095237Y0079907D02*
X0095900Y0079907D01*
X0095602Y0080205D02*
X0095237Y0080205D01*
X0095303Y0080504D02*
X0095077Y0080504D01*
X0095005Y0080802D02*
X0094778Y0080802D01*
X0093506Y0080802D02*
X0088030Y0080802D01*
X0088064Y0080504D02*
X0093207Y0080504D01*
X0093047Y0080205D02*
X0088064Y0080205D01*
X0088064Y0079907D02*
X0093047Y0079907D01*
X0093047Y0079608D02*
X0088064Y0079608D01*
X0088064Y0079310D02*
X0093174Y0079310D01*
X0095110Y0079310D02*
X0096153Y0079310D01*
X0096170Y0077220D02*
X0100543Y0077220D01*
X0100842Y0076922D02*
X0091100Y0076922D01*
X0092148Y0076623D02*
X0101140Y0076623D01*
X0101439Y0076325D02*
X0100262Y0076325D01*
X0100560Y0076026D02*
X0101737Y0076026D01*
X0102036Y0075728D02*
X0100724Y0075728D01*
X0100724Y0075429D02*
X0102334Y0075429D01*
X0102633Y0075131D02*
X0100689Y0075131D01*
X0100391Y0074832D02*
X0102850Y0074832D01*
X0105112Y0073632D02*
X0106050Y0071408D01*
X0106934Y0067657D01*
X0106934Y0056074D01*
X0105159Y0054300D01*
X0105159Y0048922D01*
X0104689Y0048451D01*
X0105273Y0047668D02*
X0105595Y0047668D01*
X0105542Y0047966D02*
X0105689Y0047966D01*
X0105657Y0048265D02*
X0105782Y0048265D01*
X0105782Y0048563D02*
X0105876Y0048563D01*
X0105853Y0048862D02*
X0105970Y0048862D01*
X0106063Y0049160D02*
X0105853Y0049160D01*
X0105853Y0049459D02*
X0106157Y0049459D01*
X0106251Y0049757D02*
X0105853Y0049757D01*
X0105853Y0050056D02*
X0106344Y0050056D01*
X0106438Y0050354D02*
X0105853Y0050354D01*
X0105853Y0050653D02*
X0106532Y0050653D01*
X0106625Y0050951D02*
X0105853Y0050951D01*
X0105853Y0051250D02*
X0106719Y0051250D01*
X0106813Y0051548D02*
X0105853Y0051548D01*
X0105853Y0051847D02*
X0106906Y0051847D01*
X0107000Y0052145D02*
X0105853Y0052145D01*
X0105853Y0052444D02*
X0107094Y0052444D01*
X0107187Y0052742D02*
X0105853Y0052742D01*
X0105853Y0053041D02*
X0107232Y0053041D01*
X0107262Y0053339D02*
X0105853Y0053339D01*
X0105853Y0053638D02*
X0107293Y0053638D01*
X0107323Y0053936D02*
X0105853Y0053936D01*
X0106076Y0054235D02*
X0107354Y0054235D01*
X0107384Y0054533D02*
X0106374Y0054533D01*
X0106673Y0054832D02*
X0107414Y0054832D01*
X0107445Y0055130D02*
X0106971Y0055130D01*
X0107270Y0055429D02*
X0107475Y0055429D01*
X0102081Y0060771D02*
X0092435Y0070417D01*
X0092435Y0074203D01*
X0091742Y0073915D02*
X0091742Y0070752D01*
X0088064Y0074429D01*
X0088064Y0076571D01*
X0088067Y0076572D01*
X0088074Y0076567D01*
X0088237Y0076593D01*
X0088399Y0076567D01*
X0088406Y0076572D01*
X0088413Y0076569D01*
X0088560Y0076644D01*
X0088723Y0076670D01*
X0088728Y0076676D01*
X0088736Y0076676D01*
X0088852Y0076793D01*
X0088953Y0076844D01*
X0088953Y0075972D01*
X0089594Y0075331D01*
X0090501Y0075331D01*
X0090682Y0075512D01*
X0090684Y0075510D01*
X0090710Y0075359D01*
X0090729Y0075346D01*
X0090731Y0075322D01*
X0090849Y0075224D01*
X0090883Y0075164D01*
X0090883Y0074774D01*
X0091742Y0073915D01*
X0091720Y0073937D02*
X0088557Y0073937D01*
X0088258Y0074235D02*
X0091422Y0074235D01*
X0091123Y0074534D02*
X0088064Y0074534D01*
X0088064Y0074832D02*
X0090883Y0074832D01*
X0090883Y0075131D02*
X0088064Y0075131D01*
X0088064Y0075429D02*
X0089496Y0075429D01*
X0089197Y0075728D02*
X0088064Y0075728D01*
X0088064Y0076026D02*
X0088953Y0076026D01*
X0088953Y0076325D02*
X0088064Y0076325D01*
X0088519Y0076623D02*
X0088953Y0076623D01*
X0090600Y0075429D02*
X0090698Y0075429D01*
X0091742Y0073638D02*
X0088855Y0073638D01*
X0089154Y0073340D02*
X0091742Y0073340D01*
X0091742Y0073041D02*
X0089453Y0073041D01*
X0089751Y0072743D02*
X0091742Y0072743D01*
X0091742Y0072444D02*
X0090050Y0072444D01*
X0090348Y0072146D02*
X0091742Y0072146D01*
X0091742Y0071847D02*
X0090647Y0071847D01*
X0090945Y0071549D02*
X0091742Y0071549D01*
X0091742Y0071250D02*
X0091244Y0071250D01*
X0091542Y0070952D02*
X0091742Y0070952D01*
X0093629Y0072743D02*
X0093809Y0072743D01*
X0093762Y0074235D02*
X0093629Y0074235D01*
X0088283Y0079011D02*
X0088064Y0079011D01*
X0086386Y0079568D02*
X0082521Y0083433D01*
X0082252Y0083433D01*
X0082417Y0082497D02*
X0082476Y0082497D01*
X0085693Y0079281D01*
X0085693Y0074964D01*
X0082354Y0078303D01*
X0082354Y0079443D01*
X0082601Y0079443D01*
X0083093Y0079936D01*
X0083093Y0080632D01*
X0082601Y0081124D01*
X0082199Y0081124D01*
X0082199Y0082457D01*
X0082231Y0082445D01*
X0082252Y0082455D01*
X0082274Y0082445D01*
X0082417Y0082497D01*
X0082199Y0082295D02*
X0082679Y0082295D01*
X0082977Y0081996D02*
X0082199Y0081996D01*
X0082199Y0081698D02*
X0083276Y0081698D01*
X0083574Y0081399D02*
X0082199Y0081399D01*
X0082624Y0081101D02*
X0083873Y0081101D01*
X0084171Y0080802D02*
X0082923Y0080802D01*
X0083093Y0080504D02*
X0084470Y0080504D01*
X0084768Y0080205D02*
X0083093Y0080205D01*
X0083064Y0079907D02*
X0085067Y0079907D01*
X0085365Y0079608D02*
X0082766Y0079608D01*
X0082354Y0079310D02*
X0085664Y0079310D01*
X0085693Y0079011D02*
X0082354Y0079011D01*
X0082354Y0078713D02*
X0085693Y0078713D01*
X0085693Y0078414D02*
X0082354Y0078414D01*
X0082541Y0078116D02*
X0085693Y0078116D01*
X0085693Y0077817D02*
X0082840Y0077817D01*
X0083138Y0077519D02*
X0085693Y0077519D01*
X0085693Y0077220D02*
X0083437Y0077220D01*
X0083735Y0076922D02*
X0085693Y0076922D01*
X0085693Y0076623D02*
X0084034Y0076623D01*
X0084332Y0076325D02*
X0085693Y0076325D01*
X0085693Y0076026D02*
X0084631Y0076026D01*
X0084929Y0075728D02*
X0085693Y0075728D01*
X0085693Y0075429D02*
X0085228Y0075429D01*
X0085526Y0075131D02*
X0085693Y0075131D01*
X0085350Y0074326D02*
X0081661Y0078015D01*
X0081661Y0079819D01*
X0081506Y0079974D01*
X0081506Y0082606D01*
X0080678Y0083433D01*
X0079871Y0082665D02*
X0079871Y0078728D01*
X0084221Y0074378D01*
X0084221Y0073237D01*
X0098591Y0058867D01*
X0098591Y0045795D01*
X0096998Y0044203D01*
X0096094Y0044646D02*
X0097804Y0046356D01*
X0097804Y0058433D01*
X0084221Y0072016D01*
X0082646Y0072016D01*
X0078315Y0076347D01*
X0078315Y0083827D01*
X0078750Y0084261D01*
X0079412Y0084261D01*
X0079850Y0084699D01*
X0079103Y0083433D02*
X0079871Y0082665D01*
X0078056Y0084549D02*
X0077781Y0084274D01*
X0077434Y0084274D01*
X0077434Y0085743D01*
X0077876Y0085743D01*
X0078315Y0086182D01*
X0078701Y0085796D01*
X0078262Y0085356D01*
X0078262Y0084755D01*
X0078056Y0084549D01*
X0078190Y0084683D02*
X0077434Y0084683D01*
X0077434Y0084385D02*
X0077892Y0084385D01*
X0078262Y0084982D02*
X0077434Y0084982D01*
X0077434Y0085280D02*
X0078262Y0085280D01*
X0078484Y0085579D02*
X0077434Y0085579D01*
X0078011Y0085877D02*
X0078620Y0085877D01*
X0078322Y0086176D02*
X0078309Y0086176D01*
X0076047Y0086176D02*
X0075160Y0086176D01*
X0075219Y0086235D02*
X0075219Y0086931D01*
X0074833Y0087317D01*
X0074854Y0087335D01*
X0074997Y0087387D01*
X0075007Y0087408D01*
X0075030Y0087414D01*
X0075106Y0087547D01*
X0075224Y0087645D01*
X0075226Y0087669D01*
X0075242Y0087680D01*
X0075605Y0087317D01*
X0076047Y0087317D01*
X0076047Y0085849D01*
X0075605Y0085849D01*
X0075321Y0085565D01*
X0074935Y0085951D01*
X0075219Y0086235D01*
X0075219Y0086474D02*
X0076047Y0086474D01*
X0076047Y0086773D02*
X0075219Y0086773D01*
X0075079Y0087071D02*
X0076047Y0087071D01*
X0075553Y0087370D02*
X0074949Y0087370D01*
X0075226Y0087668D02*
X0075254Y0087668D01*
X0074378Y0088158D02*
X0073587Y0088949D01*
X0070441Y0088949D01*
X0071229Y0089733D02*
X0068178Y0089733D01*
X0067095Y0090815D01*
X0056898Y0090815D01*
X0049083Y0083000D01*
X0047764Y0083000D01*
X0044378Y0079615D01*
X0044378Y0078040D01*
X0042587Y0076248D01*
X0042587Y0071918D01*
X0040285Y0069616D01*
X0040285Y0066149D01*
X0041307Y0065126D01*
X0041307Y0057646D01*
X0041012Y0057351D01*
X0041012Y0047902D01*
X0057622Y0031293D01*
X0087491Y0031293D01*
X0091543Y0035344D01*
X0092426Y0035727D02*
X0092968Y0035727D01*
X0092665Y0036026D02*
X0092230Y0036026D01*
X0092541Y0036333D02*
X0092547Y0036356D01*
X0092534Y0036375D01*
X0092561Y0036526D01*
X0092534Y0036676D01*
X0092547Y0036696D01*
X0092541Y0036718D01*
X0092618Y0036851D01*
X0092644Y0037001D01*
X0092664Y0037015D01*
X0092666Y0037038D01*
X0092783Y0037137D01*
X0092817Y0037196D01*
X0092817Y0039074D01*
X0093224Y0039480D01*
X0094748Y0041004D01*
X0094748Y0046516D01*
X0096083Y0047852D01*
X0095968Y0047852D01*
X0095951Y0047868D01*
X0095928Y0047866D01*
X0095811Y0047965D01*
X0095667Y0048017D01*
X0095657Y0048038D01*
X0095634Y0048044D01*
X0095605Y0048094D01*
X0092595Y0048094D01*
X0090430Y0050259D01*
X0086137Y0050259D01*
X0085731Y0050666D01*
X0083381Y0053015D01*
X0083381Y0053015D01*
X0082975Y0053422D01*
X0082975Y0053572D01*
X0082940Y0053631D01*
X0082823Y0053730D01*
X0082821Y0053753D01*
X0082802Y0053766D01*
X0082775Y0053917D01*
X0082699Y0054050D01*
X0082705Y0054072D01*
X0082691Y0054091D01*
X0082718Y0054242D01*
X0082691Y0054393D01*
X0082705Y0054412D01*
X0082699Y0054435D01*
X0082775Y0054567D01*
X0082802Y0054718D01*
X0082821Y0054731D01*
X0082823Y0054755D01*
X0082940Y0054853D01*
X0083017Y0054986D01*
X0083040Y0054992D01*
X0083049Y0055013D01*
X0083193Y0055065D01*
X0083311Y0055164D01*
X0083334Y0055162D01*
X0083350Y0055178D01*
X0083503Y0055178D01*
X0083647Y0055231D01*
X0083669Y0055221D01*
X0083690Y0055231D01*
X0083834Y0055178D01*
X0083987Y0055178D01*
X0084003Y0055162D01*
X0084026Y0055164D01*
X0084144Y0055065D01*
X0084288Y0055013D01*
X0084297Y0054992D01*
X0084320Y0054986D01*
X0084397Y0054853D01*
X0084514Y0054755D01*
X0084516Y0054731D01*
X0084535Y0054718D01*
X0084562Y0054567D01*
X0084581Y0054534D01*
X0085183Y0055137D01*
X0086091Y0055137D01*
X0086732Y0054496D01*
X0086732Y0053589D01*
X0086091Y0052948D01*
X0085411Y0052948D01*
X0086712Y0051647D01*
X0091004Y0051647D01*
X0093170Y0049481D01*
X0095605Y0049481D01*
X0095634Y0049531D01*
X0095657Y0049537D01*
X0095667Y0049559D01*
X0095811Y0049611D01*
X0095928Y0049709D01*
X0095951Y0049707D01*
X0095968Y0049724D01*
X0096121Y0049724D01*
X0096265Y0049776D01*
X0096286Y0049766D01*
X0096307Y0049776D01*
X0096339Y0049765D01*
X0096339Y0057539D01*
X0085902Y0067976D01*
X0083737Y0067976D01*
X0083330Y0068382D01*
X0078308Y0073405D01*
X0078308Y0073334D01*
X0077666Y0072693D01*
X0076759Y0072693D01*
X0076118Y0073334D01*
X0076118Y0073365D01*
X0072107Y0069354D01*
X0067717Y0069354D01*
X0067717Y0068531D01*
X0067076Y0067890D01*
X0066169Y0067890D01*
X0065528Y0068531D01*
X0065528Y0069354D01*
X0064233Y0069354D01*
X0063006Y0068127D01*
X0063583Y0067550D01*
X0063583Y0066643D01*
X0062942Y0066001D01*
X0062035Y0066001D01*
X0061457Y0066579D01*
X0059127Y0064248D01*
X0059127Y0061886D01*
X0058721Y0061480D01*
X0057946Y0060705D01*
X0057946Y0056162D01*
X0058721Y0055387D01*
X0058721Y0055387D01*
X0059127Y0054981D01*
X0059127Y0053271D01*
X0059166Y0053309D01*
X0060073Y0053309D01*
X0060714Y0052668D01*
X0060714Y0051761D01*
X0060172Y0051219D01*
X0060335Y0051056D01*
X0060789Y0051056D01*
X0060789Y0051636D01*
X0061254Y0052101D01*
X0061912Y0052101D01*
X0062377Y0051636D01*
X0062377Y0051056D01*
X0067398Y0051056D01*
X0067792Y0051450D01*
X0077831Y0051450D01*
X0080731Y0054349D01*
X0080723Y0054393D01*
X0080736Y0054412D01*
X0080730Y0054435D01*
X0080807Y0054567D01*
X0080833Y0054718D01*
X0080853Y0054731D01*
X0080855Y0054755D01*
X0080972Y0054853D01*
X0081048Y0054986D01*
X0081071Y0054992D01*
X0081081Y0055013D01*
X0081225Y0055065D01*
X0081342Y0055164D01*
X0081365Y0055162D01*
X0081382Y0055178D01*
X0081535Y0055178D01*
X0081679Y0055231D01*
X0081700Y0055221D01*
X0081721Y0055231D01*
X0081865Y0055178D01*
X0082018Y0055178D01*
X0082035Y0055162D01*
X0082058Y0055164D01*
X0082175Y0055065D01*
X0082319Y0055013D01*
X0082329Y0054992D01*
X0082352Y0054986D01*
X0082428Y0054853D01*
X0082545Y0054755D01*
X0082547Y0054731D01*
X0082567Y0054718D01*
X0082593Y0054567D01*
X0082670Y0054435D01*
X0082664Y0054412D01*
X0082677Y0054393D01*
X0082650Y0054242D01*
X0082677Y0054091D01*
X0082664Y0054072D01*
X0082670Y0054050D01*
X0082593Y0053917D01*
X0082567Y0053766D01*
X0082547Y0053753D01*
X0082545Y0053730D01*
X0082428Y0053631D01*
X0082352Y0053499D01*
X0082329Y0053493D01*
X0082319Y0053471D01*
X0082175Y0053419D01*
X0082058Y0053321D01*
X0082035Y0053323D01*
X0082018Y0053306D01*
X0081865Y0053306D01*
X0081721Y0053254D01*
X0081700Y0053264D01*
X0081679Y0053254D01*
X0081619Y0053276D01*
X0078812Y0050469D01*
X0078812Y0050469D01*
X0078406Y0050063D01*
X0077805Y0050063D01*
X0079143Y0048725D01*
X0079162Y0048734D01*
X0079306Y0048682D01*
X0079459Y0048682D01*
X0079476Y0048666D01*
X0079499Y0048668D01*
X0079616Y0048569D01*
X0079760Y0048517D01*
X0079770Y0048496D01*
X0079792Y0048490D01*
X0079869Y0048357D01*
X0079986Y0048259D01*
X0079988Y0048235D01*
X0080008Y0048222D01*
X0080034Y0048071D01*
X0080111Y0047939D01*
X0080105Y0047916D01*
X0080118Y0047897D01*
X0080091Y0047746D01*
X0080118Y0047595D01*
X0080105Y0047576D01*
X0080111Y0047554D01*
X0080034Y0047421D01*
X0080008Y0047270D01*
X0079988Y0047257D01*
X0079986Y0047234D01*
X0079869Y0047135D01*
X0079792Y0047002D01*
X0079770Y0046996D01*
X0079760Y0046975D01*
X0079616Y0046923D01*
X0079499Y0046824D01*
X0079476Y0046827D01*
X0079459Y0046810D01*
X0079306Y0046810D01*
X0079173Y0046762D01*
X0079306Y0046714D01*
X0079459Y0046714D01*
X0079476Y0046697D01*
X0079499Y0046699D01*
X0079616Y0046601D01*
X0079760Y0046548D01*
X0079770Y0046527D01*
X0079792Y0046521D01*
X0079869Y0046389D01*
X0079986Y0046290D01*
X0079988Y0046267D01*
X0080008Y0046253D01*
X0080034Y0046103D01*
X0080111Y0045970D01*
X0080105Y0045947D01*
X0080118Y0045928D01*
X0080091Y0045778D01*
X0080118Y0045627D01*
X0080105Y0045608D01*
X0080111Y0045585D01*
X0080034Y0045452D01*
X0080008Y0045302D01*
X0079988Y0045288D01*
X0079986Y0045265D01*
X0079869Y0045167D01*
X0079792Y0045034D01*
X0079770Y0045028D01*
X0079760Y0045007D01*
X0079616Y0044954D01*
X0079499Y0044856D01*
X0079476Y0044858D01*
X0079459Y0044842D01*
X0079306Y0044842D01*
X0079173Y0044793D01*
X0079306Y0044745D01*
X0079459Y0044745D01*
X0079476Y0044729D01*
X0079499Y0044731D01*
X0079616Y0044632D01*
X0079760Y0044580D01*
X0079770Y0044559D01*
X0079792Y0044553D01*
X0079869Y0044420D01*
X0079986Y0044322D01*
X0079988Y0044298D01*
X0080008Y0044285D01*
X0080034Y0044134D01*
X0080111Y0044002D01*
X0080105Y0043979D01*
X0080118Y0043960D01*
X0080091Y0043809D01*
X0080118Y0043658D01*
X0080105Y0043639D01*
X0080111Y0043617D01*
X0080034Y0043484D01*
X0080008Y0043333D01*
X0079988Y0043320D01*
X0079986Y0043297D01*
X0079869Y0043198D01*
X0079792Y0043065D01*
X0079770Y0043059D01*
X0079760Y0043038D01*
X0079616Y0042986D01*
X0079499Y0042887D01*
X0079476Y0042890D01*
X0079459Y0042873D01*
X0079306Y0042873D01*
X0079173Y0042825D01*
X0079306Y0042777D01*
X0079459Y0042777D01*
X0079476Y0042760D01*
X0079499Y0042762D01*
X0079616Y0042664D01*
X0079760Y0042611D01*
X0079770Y0042590D01*
X0079792Y0042584D01*
X0079869Y0042452D01*
X0079986Y0042353D01*
X0079988Y0042330D01*
X0080008Y0042316D01*
X0080034Y0042166D01*
X0080111Y0042033D01*
X0080105Y0042010D01*
X0080118Y0041991D01*
X0080091Y0041841D01*
X0080118Y0041690D01*
X0080105Y0041671D01*
X0080111Y0041648D01*
X0080034Y0041515D01*
X0080008Y0041365D01*
X0079988Y0041351D01*
X0079986Y0041328D01*
X0079869Y0041230D01*
X0079792Y0041097D01*
X0079770Y0041091D01*
X0079760Y0041070D01*
X0079616Y0041017D01*
X0079499Y0040919D01*
X0079476Y0040921D01*
X0079459Y0040905D01*
X0079306Y0040905D01*
X0079173Y0040856D01*
X0079306Y0040808D01*
X0079459Y0040808D01*
X0079476Y0040792D01*
X0079499Y0040794D01*
X0079616Y0040695D01*
X0079760Y0040643D01*
X0079770Y0040622D01*
X0079792Y0040616D01*
X0079869Y0040483D01*
X0079986Y0040385D01*
X0079988Y0040361D01*
X0080008Y0040348D01*
X0080034Y0040197D01*
X0080111Y0040065D01*
X0080105Y0040042D01*
X0080118Y0040023D01*
X0080091Y0039872D01*
X0080118Y0039721D01*
X0080105Y0039702D01*
X0080111Y0039680D01*
X0080034Y0039547D01*
X0080008Y0039396D01*
X0079988Y0039383D01*
X0079986Y0039359D01*
X0079869Y0039261D01*
X0079792Y0039128D01*
X0079770Y0039122D01*
X0079760Y0039101D01*
X0079616Y0039049D01*
X0079499Y0038950D01*
X0079476Y0038953D01*
X0079459Y0038936D01*
X0079306Y0038936D01*
X0079173Y0038888D01*
X0079306Y0038840D01*
X0079459Y0038840D01*
X0079476Y0038823D01*
X0079499Y0038825D01*
X0079616Y0038727D01*
X0079760Y0038674D01*
X0079770Y0038653D01*
X0079792Y0038647D01*
X0079869Y0038515D01*
X0079986Y0038416D01*
X0079988Y0038393D01*
X0080008Y0038379D01*
X0080034Y0038229D01*
X0080111Y0038096D01*
X0080105Y0038073D01*
X0080118Y0038054D01*
X0080091Y0037904D01*
X0080118Y0037753D01*
X0080105Y0037734D01*
X0080111Y0037711D01*
X0080034Y0037578D01*
X0080008Y0037428D01*
X0079988Y0037414D01*
X0079986Y0037391D01*
X0079869Y0037293D01*
X0079848Y0037256D01*
X0082738Y0037256D01*
X0083670Y0036324D01*
X0083690Y0036333D01*
X0083834Y0036281D01*
X0083987Y0036281D01*
X0084003Y0036264D01*
X0084026Y0036266D01*
X0084144Y0036168D01*
X0084288Y0036115D01*
X0084297Y0036094D01*
X0084320Y0036088D01*
X0084397Y0035955D01*
X0084514Y0035857D01*
X0084516Y0035834D01*
X0084535Y0035820D01*
X0084562Y0035670D01*
X0084638Y0035537D01*
X0084632Y0035514D01*
X0084646Y0035495D01*
X0084619Y0035344D01*
X0084625Y0035313D01*
X0084682Y0035370D01*
X0084660Y0035495D01*
X0084673Y0035514D01*
X0084667Y0035537D01*
X0084744Y0035670D01*
X0084770Y0035820D01*
X0084790Y0035834D01*
X0084792Y0035857D01*
X0084909Y0035955D01*
X0084985Y0036088D01*
X0085008Y0036094D01*
X0085018Y0036115D01*
X0085162Y0036168D01*
X0085279Y0036266D01*
X0085302Y0036264D01*
X0085319Y0036281D01*
X0085472Y0036281D01*
X0085616Y0036333D01*
X0085637Y0036323D01*
X0085658Y0036333D01*
X0085802Y0036281D01*
X0085955Y0036281D01*
X0085972Y0036264D01*
X0085995Y0036266D01*
X0086112Y0036168D01*
X0086256Y0036115D01*
X0086266Y0036094D01*
X0086289Y0036088D01*
X0086365Y0035955D01*
X0086482Y0035857D01*
X0086484Y0035834D01*
X0086504Y0035820D01*
X0086530Y0035670D01*
X0086607Y0035537D01*
X0086601Y0035514D01*
X0086614Y0035495D01*
X0086587Y0035344D01*
X0086614Y0035194D01*
X0086601Y0035175D01*
X0086607Y0035152D01*
X0086530Y0035019D01*
X0086504Y0034869D01*
X0086484Y0034855D01*
X0086482Y0034832D01*
X0086702Y0034832D01*
X0086482Y0034832D02*
X0086365Y0034734D01*
X0086289Y0034601D01*
X0086266Y0034595D01*
X0086256Y0034574D01*
X0086112Y0034521D01*
X0085995Y0034423D01*
X0085972Y0034425D01*
X0085955Y0034408D01*
X0085802Y0034408D01*
X0085658Y0034356D01*
X0085639Y0034365D01*
X0085159Y0033886D01*
X0085159Y0033886D01*
X0084753Y0033479D01*
X0083273Y0033479D01*
X0082476Y0032683D01*
X0084554Y0032683D01*
X0088028Y0036158D01*
X0088008Y0036276D01*
X0087114Y0036276D01*
X0086472Y0036917D01*
X0086472Y0037824D01*
X0087114Y0038465D01*
X0088021Y0038465D01*
X0088662Y0037824D01*
X0088662Y0037065D01*
X0088665Y0037068D01*
X0088818Y0037068D01*
X0088962Y0037120D01*
X0088983Y0037110D01*
X0089005Y0037120D01*
X0089149Y0037068D01*
X0089302Y0037068D01*
X0089318Y0037051D01*
X0089341Y0037053D01*
X0089459Y0036955D01*
X0089603Y0036903D01*
X0089612Y0036881D01*
X0089635Y0036875D01*
X0089712Y0036743D01*
X0089829Y0036644D01*
X0089831Y0036621D01*
X0089850Y0036608D01*
X0089877Y0036457D01*
X0089953Y0036324D01*
X0089953Y0036026D02*
X0090855Y0036026D01*
X0090660Y0035727D02*
X0089863Y0035727D01*
X0089658Y0035429D02*
X0090577Y0035429D01*
X0090347Y0035130D02*
X0088963Y0035130D01*
X0088664Y0034832D02*
X0090049Y0034832D01*
X0089750Y0034533D02*
X0088366Y0034533D01*
X0088067Y0034235D02*
X0089452Y0034235D01*
X0089153Y0033936D02*
X0087769Y0033936D01*
X0087470Y0033638D02*
X0088855Y0033638D01*
X0088556Y0033339D02*
X0087172Y0033339D01*
X0086873Y0033041D02*
X0088258Y0033041D01*
X0087959Y0032742D02*
X0086575Y0032742D01*
X0086276Y0032444D02*
X0087661Y0032444D01*
X0087362Y0032145D02*
X0085978Y0032145D01*
X0084841Y0031989D02*
X0061985Y0031989D01*
X0061974Y0031978D01*
X0058078Y0031978D01*
X0042666Y0047390D01*
X0042666Y0050932D01*
X0041771Y0051827D01*
X0041771Y0056199D01*
X0042380Y0056808D01*
X0042380Y0070353D01*
X0044102Y0072075D01*
X0044102Y0076063D01*
X0045087Y0077049D01*
X0045087Y0078709D01*
X0048433Y0082056D01*
X0050559Y0082056D01*
X0057802Y0089298D01*
X0062313Y0089298D01*
X0062567Y0089044D01*
X0066307Y0089044D01*
X0067981Y0087370D01*
X0070441Y0087370D01*
X0071229Y0086583D01*
X0070274Y0086557D02*
X0070262Y0086489D01*
X0068366Y0086489D01*
X0068179Y0086677D01*
X0070154Y0086677D01*
X0070274Y0086557D01*
X0069654Y0088158D02*
X0068352Y0088158D01*
X0066504Y0090005D01*
X0063941Y0090005D01*
X0062991Y0090005D02*
X0062964Y0089854D01*
X0062978Y0089835D01*
X0062972Y0089813D01*
X0063015Y0089737D01*
X0062855Y0089737D01*
X0062600Y0089992D01*
X0057515Y0089992D01*
X0057109Y0089586D01*
X0057109Y0089586D01*
X0050272Y0082749D01*
X0049813Y0082749D01*
X0057185Y0090122D01*
X0062970Y0090122D01*
X0062991Y0090005D01*
X0062982Y0090056D02*
X0057120Y0090056D01*
X0057281Y0089758D02*
X0056821Y0089758D01*
X0056982Y0089459D02*
X0056523Y0089459D01*
X0056684Y0089161D02*
X0056224Y0089161D01*
X0056385Y0088862D02*
X0055926Y0088862D01*
X0056087Y0088564D02*
X0055627Y0088564D01*
X0055788Y0088265D02*
X0055329Y0088265D01*
X0055490Y0087967D02*
X0055030Y0087967D01*
X0055191Y0087668D02*
X0054732Y0087668D01*
X0054893Y0087370D02*
X0054433Y0087370D01*
X0054594Y0087071D02*
X0054135Y0087071D01*
X0054296Y0086773D02*
X0053836Y0086773D01*
X0053997Y0086474D02*
X0053538Y0086474D01*
X0053699Y0086176D02*
X0053239Y0086176D01*
X0053400Y0085877D02*
X0052941Y0085877D01*
X0053101Y0085579D02*
X0052642Y0085579D01*
X0052803Y0085280D02*
X0052344Y0085280D01*
X0052504Y0084982D02*
X0052045Y0084982D01*
X0052206Y0084683D02*
X0051747Y0084683D01*
X0051907Y0084385D02*
X0051448Y0084385D01*
X0051609Y0084086D02*
X0051150Y0084086D01*
X0051310Y0083788D02*
X0050851Y0083788D01*
X0051012Y0083489D02*
X0050553Y0083489D01*
X0050713Y0083190D02*
X0050254Y0083190D01*
X0050415Y0082892D02*
X0049956Y0082892D01*
X0048611Y0083748D02*
X0047410Y0083748D01*
X0043512Y0079851D01*
X0043512Y0078158D01*
X0041606Y0076252D01*
X0041606Y0072308D01*
X0039345Y0070048D01*
X0039345Y0064490D01*
X0039713Y0064122D01*
X0039713Y0057449D01*
X0039733Y0057449D01*
X0040126Y0057056D01*
X0040126Y0055107D01*
X0039713Y0054693D01*
X0039713Y0048056D01*
X0054496Y0033273D01*
X0054496Y0030087D01*
X0053604Y0029757D02*
X0053420Y0029757D01*
X0053484Y0030055D02*
X0053540Y0030055D01*
X0053570Y0030354D02*
X0053455Y0030354D01*
X0053310Y0030652D02*
X0053714Y0030652D01*
X0053803Y0030951D02*
X0053222Y0030951D01*
X0053222Y0031250D02*
X0053803Y0031250D01*
X0053803Y0031548D02*
X0053222Y0031548D01*
X0053222Y0031847D02*
X0053803Y0031847D01*
X0053803Y0032145D02*
X0053222Y0032145D01*
X0053222Y0032444D02*
X0053803Y0032444D01*
X0053803Y0032742D02*
X0053222Y0032742D01*
X0053151Y0033041D02*
X0053748Y0033041D01*
X0053449Y0033339D02*
X0052852Y0033339D01*
X0052554Y0033638D02*
X0053151Y0033638D01*
X0052852Y0033936D02*
X0052255Y0033936D01*
X0051957Y0034235D02*
X0052554Y0034235D01*
X0052255Y0034533D02*
X0051658Y0034533D01*
X0051360Y0034832D02*
X0051957Y0034832D01*
X0051658Y0035130D02*
X0051061Y0035130D01*
X0050763Y0035429D02*
X0051360Y0035429D01*
X0051061Y0035727D02*
X0050464Y0035727D01*
X0050166Y0036026D02*
X0050763Y0036026D01*
X0050464Y0036324D02*
X0049867Y0036324D01*
X0049569Y0036623D02*
X0050166Y0036623D01*
X0049867Y0036921D02*
X0049270Y0036921D01*
X0048972Y0037220D02*
X0049569Y0037220D01*
X0049270Y0037518D02*
X0048673Y0037518D01*
X0048374Y0037817D02*
X0048972Y0037817D01*
X0048673Y0038115D02*
X0048076Y0038115D01*
X0047777Y0038414D02*
X0048375Y0038414D01*
X0048076Y0038712D02*
X0047479Y0038712D01*
X0047180Y0039011D02*
X0047778Y0039011D01*
X0047479Y0039309D02*
X0046882Y0039309D01*
X0046583Y0039608D02*
X0047181Y0039608D01*
X0046882Y0039906D02*
X0046285Y0039906D01*
X0045986Y0040205D02*
X0046583Y0040205D01*
X0046285Y0040503D02*
X0045688Y0040503D01*
X0045389Y0040802D02*
X0045986Y0040802D01*
X0045688Y0041100D02*
X0045091Y0041100D01*
X0044792Y0041399D02*
X0045389Y0041399D01*
X0045091Y0041697D02*
X0044494Y0041697D01*
X0044195Y0041996D02*
X0044792Y0041996D01*
X0044494Y0042294D02*
X0043897Y0042294D01*
X0043704Y0042593D02*
X0044195Y0042593D01*
X0043897Y0042891D02*
X0043704Y0042891D01*
X0043010Y0042200D02*
X0052528Y0032682D01*
X0052528Y0030087D01*
X0051800Y0030698D02*
X0051683Y0030600D01*
X0051681Y0030576D01*
X0051661Y0030563D01*
X0051635Y0030412D01*
X0051558Y0030279D01*
X0051564Y0030257D01*
X0051551Y0030238D01*
X0051577Y0030087D01*
X0051562Y0030001D01*
X0051347Y0030119D01*
X0050693Y0030636D01*
X0049481Y0031848D01*
X0049481Y0034748D01*
X0051834Y0032395D01*
X0051834Y0030758D01*
X0051800Y0030698D01*
X0051746Y0030652D02*
X0050677Y0030652D01*
X0050378Y0030951D02*
X0051834Y0030951D01*
X0051834Y0031250D02*
X0050080Y0031250D01*
X0049781Y0031548D02*
X0051834Y0031548D01*
X0051834Y0031847D02*
X0049483Y0031847D01*
X0049481Y0032145D02*
X0051834Y0032145D01*
X0051786Y0032444D02*
X0049481Y0032444D01*
X0049481Y0032742D02*
X0051487Y0032742D01*
X0051189Y0033041D02*
X0049481Y0033041D01*
X0049481Y0033339D02*
X0050890Y0033339D01*
X0050592Y0033638D02*
X0049481Y0033638D01*
X0049481Y0033936D02*
X0050293Y0033936D01*
X0049995Y0034235D02*
X0049481Y0034235D01*
X0049481Y0034533D02*
X0049696Y0034533D01*
X0051050Y0030354D02*
X0051601Y0030354D01*
X0051572Y0030055D02*
X0051462Y0030055D01*
X0053093Y0029160D02*
X0054169Y0029160D01*
X0053779Y0029458D02*
X0053246Y0029458D01*
X0053636Y0028861D02*
X0058047Y0028861D01*
X0058047Y0028563D02*
X0054180Y0028563D01*
X0054824Y0029160D02*
X0058047Y0029160D01*
X0058047Y0028264D02*
X0056157Y0028264D01*
X0056365Y0027966D02*
X0058337Y0027966D01*
X0058635Y0027667D02*
X0056458Y0027667D01*
X0056684Y0031250D02*
X0055190Y0031250D01*
X0055190Y0031548D02*
X0056385Y0031548D01*
X0056087Y0031847D02*
X0055190Y0031847D01*
X0055190Y0032145D02*
X0055788Y0032145D01*
X0055490Y0032444D02*
X0055190Y0032444D01*
X0055190Y0032742D02*
X0055191Y0032742D01*
X0056803Y0034235D02*
X0057038Y0034235D01*
X0057101Y0033936D02*
X0057337Y0033936D01*
X0057400Y0033638D02*
X0057635Y0033638D01*
X0057695Y0033578D02*
X0058101Y0033172D01*
X0058538Y0033172D01*
X0058538Y0032672D01*
X0058366Y0032672D01*
X0043360Y0047678D01*
X0043360Y0047913D01*
X0057695Y0033578D01*
X0057698Y0033339D02*
X0057934Y0033339D01*
X0057997Y0033041D02*
X0058538Y0033041D01*
X0058538Y0032742D02*
X0058295Y0032742D01*
X0058389Y0033865D02*
X0062767Y0033865D01*
X0063748Y0032883D01*
X0081696Y0032883D01*
X0082985Y0034173D01*
X0084466Y0034173D01*
X0085637Y0035344D01*
X0086145Y0034533D02*
X0086404Y0034533D01*
X0086105Y0034235D02*
X0085508Y0034235D01*
X0085210Y0033936D02*
X0085807Y0033936D01*
X0085508Y0033638D02*
X0084911Y0033638D01*
X0085210Y0033339D02*
X0083132Y0033339D01*
X0082834Y0033041D02*
X0084911Y0033041D01*
X0084613Y0032742D02*
X0082535Y0032742D01*
X0081469Y0033638D02*
X0071068Y0033638D01*
X0071123Y0033692D02*
X0071008Y0033577D01*
X0081408Y0033577D01*
X0081916Y0034085D01*
X0081907Y0034080D01*
X0081883Y0034088D01*
X0081863Y0034073D01*
X0081700Y0034099D01*
X0081537Y0034073D01*
X0081517Y0034088D01*
X0081493Y0034080D01*
X0081434Y0034110D01*
X0071541Y0034110D01*
X0071364Y0033933D01*
X0071293Y0033795D01*
X0071269Y0033787D01*
X0071261Y0033763D01*
X0071123Y0033692D01*
X0071367Y0033936D02*
X0081767Y0033936D01*
X0083669Y0035344D02*
X0082450Y0036563D01*
X0066090Y0036563D01*
X0064848Y0037805D01*
X0058990Y0037805D01*
X0058243Y0038552D01*
X0055185Y0038552D01*
X0053492Y0040244D01*
X0053492Y0041878D01*
X0046191Y0049179D01*
X0046191Y0069517D01*
X0047459Y0070786D01*
X0047459Y0075569D01*
X0058591Y0086701D01*
X0065994Y0086701D01*
X0068433Y0084261D01*
X0072057Y0084261D01*
X0072804Y0085008D01*
X0073532Y0084397D02*
X0073649Y0084496D01*
X0073651Y0084519D01*
X0073670Y0084532D01*
X0073697Y0084683D01*
X0074241Y0084683D01*
X0074472Y0084452D02*
X0074472Y0083317D01*
X0074438Y0083257D01*
X0074320Y0083159D01*
X0074318Y0083135D01*
X0074299Y0083122D01*
X0074273Y0082971D01*
X0074196Y0082839D01*
X0074202Y0082816D01*
X0074189Y0082797D01*
X0074189Y0082795D01*
X0074060Y0082795D01*
X0074044Y0082778D01*
X0074020Y0082780D01*
X0073903Y0082682D01*
X0073759Y0082629D01*
X0073749Y0082608D01*
X0073727Y0082602D01*
X0073650Y0082470D01*
X0073591Y0082420D01*
X0073532Y0082470D01*
X0073455Y0082602D01*
X0073433Y0082608D01*
X0073423Y0082629D01*
X0073377Y0082646D01*
X0073423Y0082663D01*
X0073433Y0082684D01*
X0073455Y0082690D01*
X0073532Y0082822D01*
X0073649Y0082921D01*
X0073651Y0082944D01*
X0073670Y0082958D01*
X0073697Y0083108D01*
X0073773Y0083241D01*
X0073767Y0083264D01*
X0073781Y0083283D01*
X0073754Y0083433D01*
X0073781Y0083584D01*
X0073767Y0083603D01*
X0073773Y0083626D01*
X0073697Y0083759D01*
X0073670Y0083909D01*
X0073651Y0083923D01*
X0073649Y0083946D01*
X0073532Y0084044D01*
X0073455Y0084177D01*
X0073433Y0084183D01*
X0073423Y0084204D01*
X0073377Y0084221D01*
X0073423Y0084238D01*
X0073433Y0084259D01*
X0073455Y0084265D01*
X0073532Y0084397D01*
X0073524Y0084385D02*
X0074472Y0084385D01*
X0074472Y0084452D02*
X0073778Y0085146D01*
X0073754Y0085008D01*
X0073781Y0084857D01*
X0073767Y0084838D01*
X0073773Y0084816D01*
X0073697Y0084683D01*
X0073759Y0084982D02*
X0073943Y0084982D01*
X0073508Y0084086D02*
X0074472Y0084086D01*
X0074472Y0083788D02*
X0073692Y0083788D01*
X0073764Y0083489D02*
X0074472Y0083489D01*
X0074358Y0083190D02*
X0073744Y0083190D01*
X0073614Y0082892D02*
X0074227Y0082892D01*
X0073722Y0082593D02*
X0073460Y0082593D01*
X0072804Y0081859D02*
X0073591Y0081071D01*
X0073591Y0078315D01*
X0072804Y0077528D01*
X0072804Y0075363D01*
X0069852Y0072411D01*
X0067903Y0072411D01*
X0067685Y0072629D01*
X0061999Y0072629D01*
X0055284Y0065914D01*
X0055284Y0063552D01*
X0054496Y0062764D01*
X0054496Y0054693D01*
X0056183Y0053007D01*
X0056183Y0050754D01*
X0058780Y0048157D01*
X0069654Y0048157D01*
X0070824Y0046987D01*
X0073759Y0046987D01*
X0074940Y0045806D01*
X0077144Y0045806D01*
X0079141Y0043809D01*
X0080037Y0043488D02*
X0094748Y0043488D01*
X0094748Y0043190D02*
X0079864Y0043190D01*
X0079504Y0042891D02*
X0094748Y0042891D01*
X0094748Y0042593D02*
X0079769Y0042593D01*
X0080011Y0042294D02*
X0094748Y0042294D01*
X0094748Y0041996D02*
X0080115Y0041996D01*
X0080117Y0041697D02*
X0094748Y0041697D01*
X0094748Y0041399D02*
X0080014Y0041399D01*
X0079794Y0041100D02*
X0094748Y0041100D01*
X0094545Y0040802D02*
X0079465Y0040802D01*
X0079857Y0040503D02*
X0094247Y0040503D01*
X0093948Y0040205D02*
X0080033Y0040205D01*
X0080097Y0039906D02*
X0093650Y0039906D01*
X0093351Y0039608D02*
X0080069Y0039608D01*
X0079927Y0039309D02*
X0093053Y0039309D01*
X0092817Y0039011D02*
X0079571Y0039011D01*
X0079656Y0038712D02*
X0092817Y0038712D01*
X0092817Y0038414D02*
X0088072Y0038414D01*
X0088371Y0038115D02*
X0092817Y0038115D01*
X0092817Y0037817D02*
X0088662Y0037817D01*
X0088662Y0037518D02*
X0092817Y0037518D01*
X0092817Y0037220D02*
X0088662Y0037220D01*
X0089551Y0036921D02*
X0092630Y0036921D01*
X0092543Y0036623D02*
X0089831Y0036623D01*
X0088983Y0036132D02*
X0084841Y0031989D01*
X0087472Y0030284D02*
X0072556Y0030284D01*
X0072307Y0030533D01*
X0076198Y0025578D02*
X0076554Y0025578D01*
X0079742Y0027966D02*
X0079973Y0027966D01*
X0080098Y0028264D02*
X0080272Y0028264D01*
X0080256Y0028563D02*
X0080570Y0028563D01*
X0087472Y0030284D02*
X0087871Y0030683D01*
X0091287Y0029519D02*
X0101861Y0040093D01*
X0101377Y0039221D01*
X0096536Y0033582D01*
X0091287Y0029519D01*
X0091525Y0029757D02*
X0091594Y0029757D01*
X0091823Y0030055D02*
X0091980Y0030055D01*
X0092122Y0030354D02*
X0092365Y0030354D01*
X0092420Y0030652D02*
X0092751Y0030652D01*
X0092719Y0030951D02*
X0093137Y0030951D01*
X0093017Y0031250D02*
X0093522Y0031250D01*
X0093316Y0031548D02*
X0093908Y0031548D01*
X0093614Y0031847D02*
X0094294Y0031847D01*
X0093913Y0032145D02*
X0094679Y0032145D01*
X0095065Y0032444D02*
X0094211Y0032444D01*
X0094510Y0032742D02*
X0095451Y0032742D01*
X0095836Y0033041D02*
X0094808Y0033041D01*
X0095107Y0033339D02*
X0096222Y0033339D01*
X0096583Y0033638D02*
X0095405Y0033638D01*
X0095704Y0033936D02*
X0096840Y0033936D01*
X0097096Y0034235D02*
X0096002Y0034235D01*
X0096301Y0034533D02*
X0097352Y0034533D01*
X0097609Y0034832D02*
X0096599Y0034832D01*
X0096898Y0035130D02*
X0097865Y0035130D01*
X0098121Y0035429D02*
X0097196Y0035429D01*
X0097495Y0035727D02*
X0098377Y0035727D01*
X0098634Y0036026D02*
X0097793Y0036026D01*
X0098092Y0036324D02*
X0098890Y0036324D01*
X0099146Y0036623D02*
X0098390Y0036623D01*
X0098689Y0036921D02*
X0099402Y0036921D01*
X0099659Y0037220D02*
X0098987Y0037220D01*
X0099286Y0037518D02*
X0099915Y0037518D01*
X0100171Y0037817D02*
X0099584Y0037817D01*
X0099883Y0038115D02*
X0100427Y0038115D01*
X0100181Y0038414D02*
X0100684Y0038414D01*
X0100480Y0038712D02*
X0100940Y0038712D01*
X0100778Y0039011D02*
X0101196Y0039011D01*
X0101077Y0039309D02*
X0101426Y0039309D01*
X0101376Y0039608D02*
X0101591Y0039608D01*
X0101674Y0039906D02*
X0101757Y0039906D01*
X0102081Y0042002D02*
X0102081Y0060771D01*
X0100166Y0059969D02*
X0100166Y0042882D01*
X0097156Y0039872D01*
X0097054Y0039872D01*
X0096094Y0040126D02*
X0096094Y0044646D01*
X0094748Y0044683D02*
X0079556Y0044683D01*
X0079689Y0044981D02*
X0094748Y0044981D01*
X0094748Y0045280D02*
X0079988Y0045280D01*
X0080107Y0045578D02*
X0094748Y0045578D01*
X0094748Y0045877D02*
X0080109Y0045877D01*
X0080021Y0046175D02*
X0094748Y0046175D01*
X0094748Y0046474D02*
X0079820Y0046474D01*
X0079832Y0047071D02*
X0095302Y0047071D01*
X0095601Y0047369D02*
X0080025Y0047369D01*
X0080105Y0047668D02*
X0095899Y0047668D01*
X0095806Y0047966D02*
X0080095Y0047966D01*
X0079979Y0048265D02*
X0092424Y0048265D01*
X0092126Y0048563D02*
X0079633Y0048563D01*
X0079006Y0048862D02*
X0091827Y0048862D01*
X0091529Y0049160D02*
X0078708Y0049160D01*
X0078409Y0049459D02*
X0091230Y0049459D01*
X0090932Y0049757D02*
X0078111Y0049757D01*
X0077812Y0050056D02*
X0090633Y0050056D01*
X0090717Y0050953D02*
X0086424Y0050953D01*
X0083669Y0053709D01*
X0083669Y0054242D01*
X0082717Y0054235D02*
X0082652Y0054235D01*
X0082613Y0054533D02*
X0082756Y0054533D01*
X0082915Y0054832D02*
X0082453Y0054832D01*
X0082098Y0055130D02*
X0083271Y0055130D01*
X0084066Y0055130D02*
X0085177Y0055130D01*
X0084878Y0054832D02*
X0084422Y0054832D01*
X0086097Y0055130D02*
X0096339Y0055130D01*
X0096339Y0054832D02*
X0086396Y0054832D01*
X0086694Y0054533D02*
X0096339Y0054533D01*
X0096339Y0054235D02*
X0086732Y0054235D01*
X0086732Y0053936D02*
X0096339Y0053936D01*
X0096339Y0053638D02*
X0092140Y0053638D01*
X0091958Y0053820D02*
X0091051Y0053820D01*
X0090409Y0053178D01*
X0090409Y0052271D01*
X0091051Y0051630D01*
X0091958Y0051630D01*
X0092599Y0052271D01*
X0092599Y0053178D01*
X0091958Y0053820D01*
X0092438Y0053339D02*
X0096339Y0053339D01*
X0096339Y0053041D02*
X0092599Y0053041D01*
X0092599Y0052742D02*
X0096339Y0052742D01*
X0096339Y0052444D02*
X0092599Y0052444D01*
X0092473Y0052145D02*
X0096339Y0052145D01*
X0096339Y0051847D02*
X0092175Y0051847D01*
X0091401Y0051250D02*
X0096339Y0051250D01*
X0096339Y0051548D02*
X0091103Y0051548D01*
X0090834Y0051847D02*
X0086512Y0051847D01*
X0086213Y0052145D02*
X0090535Y0052145D01*
X0090409Y0052444D02*
X0085915Y0052444D01*
X0085616Y0052742D02*
X0090409Y0052742D01*
X0090409Y0053041D02*
X0086184Y0053041D01*
X0086482Y0053339D02*
X0090570Y0053339D01*
X0090869Y0053638D02*
X0086732Y0053638D01*
X0084848Y0051548D02*
X0079892Y0051548D01*
X0080190Y0051847D02*
X0084550Y0051847D01*
X0084251Y0052145D02*
X0080489Y0052145D01*
X0080787Y0052444D02*
X0083953Y0052444D01*
X0083654Y0052742D02*
X0081086Y0052742D01*
X0081384Y0053041D02*
X0083356Y0053041D01*
X0083057Y0053339D02*
X0082080Y0053339D01*
X0082436Y0053638D02*
X0082932Y0053638D01*
X0082764Y0053936D02*
X0082604Y0053936D01*
X0081700Y0054242D02*
X0081604Y0054242D01*
X0078119Y0050756D01*
X0068079Y0050756D01*
X0067685Y0050363D01*
X0060048Y0050363D01*
X0058433Y0051977D01*
X0058433Y0054693D01*
X0057252Y0055874D01*
X0057252Y0060993D01*
X0058433Y0062174D01*
X0058433Y0064536D01*
X0063945Y0070048D01*
X0071819Y0070048D01*
X0075953Y0074181D01*
X0075953Y0078629D01*
X0075166Y0079416D01*
X0075166Y0081071D01*
X0074378Y0081859D01*
X0075166Y0082646D02*
X0075166Y0084739D01*
X0073631Y0086274D01*
X0073631Y0086936D01*
X0073197Y0087370D01*
X0071970Y0087370D01*
X0071229Y0088112D01*
X0071229Y0088158D01*
X0072179Y0088158D02*
X0072196Y0088256D01*
X0073300Y0088256D01*
X0073423Y0088132D01*
X0073411Y0088064D01*
X0072257Y0088064D01*
X0072183Y0088139D01*
X0072179Y0088158D01*
X0072804Y0086583D02*
X0072016Y0085796D01*
X0068079Y0085796D01*
X0066307Y0087567D01*
X0057730Y0087567D01*
X0044991Y0074828D01*
X0044991Y0071566D01*
X0043965Y0070540D01*
X0043965Y0054176D01*
X0045066Y0053075D01*
X0045066Y0052375D01*
X0043712Y0051021D01*
X0043712Y0048541D01*
X0058389Y0033865D01*
X0056740Y0034533D02*
X0056504Y0034533D01*
X0056441Y0034832D02*
X0056206Y0034832D01*
X0056143Y0035130D02*
X0055907Y0035130D01*
X0055844Y0035429D02*
X0055609Y0035429D01*
X0055546Y0035727D02*
X0055310Y0035727D01*
X0055247Y0036026D02*
X0055012Y0036026D01*
X0054949Y0036324D02*
X0054713Y0036324D01*
X0054650Y0036623D02*
X0054415Y0036623D01*
X0054352Y0036921D02*
X0054116Y0036921D01*
X0054053Y0037220D02*
X0053818Y0037220D01*
X0053755Y0037518D02*
X0053519Y0037518D01*
X0053456Y0037817D02*
X0053221Y0037817D01*
X0053158Y0038115D02*
X0052922Y0038115D01*
X0052859Y0038414D02*
X0052624Y0038414D01*
X0052561Y0038712D02*
X0052325Y0038712D01*
X0052262Y0039011D02*
X0052027Y0039011D01*
X0051963Y0039309D02*
X0051728Y0039309D01*
X0051665Y0039608D02*
X0051430Y0039608D01*
X0051366Y0039906D02*
X0051131Y0039906D01*
X0051068Y0040205D02*
X0050833Y0040205D01*
X0050769Y0040503D02*
X0050534Y0040503D01*
X0050471Y0040802D02*
X0050236Y0040802D01*
X0050172Y0041100D02*
X0049937Y0041100D01*
X0049874Y0041399D02*
X0049638Y0041399D01*
X0049575Y0041697D02*
X0049340Y0041697D01*
X0049277Y0041996D02*
X0049041Y0041996D01*
X0048978Y0042294D02*
X0048743Y0042294D01*
X0048680Y0042593D02*
X0048444Y0042593D01*
X0048381Y0042891D02*
X0048146Y0042891D01*
X0048083Y0043190D02*
X0047847Y0043190D01*
X0047784Y0043488D02*
X0047549Y0043488D01*
X0047486Y0043787D02*
X0047250Y0043787D01*
X0047187Y0044086D02*
X0046952Y0044086D01*
X0046889Y0044384D02*
X0046653Y0044384D01*
X0046590Y0044683D02*
X0046355Y0044683D01*
X0046292Y0044981D02*
X0046056Y0044981D01*
X0045993Y0045280D02*
X0045758Y0045280D01*
X0045695Y0045578D02*
X0045459Y0045578D01*
X0045396Y0045877D02*
X0045161Y0045877D01*
X0045098Y0046175D02*
X0044862Y0046175D01*
X0044799Y0046474D02*
X0044564Y0046474D01*
X0044501Y0046772D02*
X0044265Y0046772D01*
X0044202Y0047071D02*
X0043967Y0047071D01*
X0043904Y0047369D02*
X0043668Y0047369D01*
X0043605Y0047668D02*
X0043370Y0047668D01*
X0044406Y0048829D02*
X0052798Y0040437D01*
X0052798Y0041590D01*
X0045497Y0048892D01*
X0045497Y0051824D01*
X0044406Y0050734D01*
X0044406Y0048829D01*
X0044406Y0048862D02*
X0045527Y0048862D01*
X0045497Y0049160D02*
X0044406Y0049160D01*
X0044406Y0049459D02*
X0045497Y0049459D01*
X0045497Y0049757D02*
X0044406Y0049757D01*
X0044406Y0050056D02*
X0045497Y0050056D01*
X0045497Y0050354D02*
X0044406Y0050354D01*
X0044406Y0050653D02*
X0045497Y0050653D01*
X0045497Y0050951D02*
X0044624Y0050951D01*
X0044922Y0051250D02*
X0045497Y0051250D01*
X0045497Y0051548D02*
X0045221Y0051548D01*
X0046884Y0051168D02*
X0058409Y0039643D01*
X0058815Y0039236D01*
X0075552Y0039236D01*
X0075549Y0039218D01*
X0071268Y0039218D01*
X0070862Y0038811D01*
X0070361Y0038310D01*
X0070342Y0038320D01*
X0070198Y0038267D01*
X0070045Y0038267D01*
X0070028Y0038251D01*
X0070005Y0038253D01*
X0069888Y0038154D01*
X0069744Y0038102D01*
X0069734Y0038081D01*
X0069711Y0038075D01*
X0069635Y0037942D01*
X0069517Y0037844D01*
X0069515Y0037820D01*
X0069496Y0037807D01*
X0069470Y0037656D01*
X0069393Y0037524D01*
X0069399Y0037501D01*
X0069386Y0037482D01*
X0069412Y0037331D01*
X0069399Y0037256D01*
X0066378Y0037256D01*
X0065136Y0038498D01*
X0059278Y0038498D01*
X0058937Y0038839D01*
X0058531Y0039245D01*
X0055472Y0039245D01*
X0054186Y0040532D01*
X0054186Y0042165D01*
X0053779Y0042571D01*
X0046884Y0049466D01*
X0046884Y0051168D01*
X0046884Y0050951D02*
X0047101Y0050951D01*
X0046884Y0050653D02*
X0047399Y0050653D01*
X0047698Y0050354D02*
X0046884Y0050354D01*
X0046884Y0050056D02*
X0047996Y0050056D01*
X0048295Y0049757D02*
X0046884Y0049757D01*
X0046892Y0049459D02*
X0048593Y0049459D01*
X0048892Y0049160D02*
X0047191Y0049160D01*
X0047489Y0048862D02*
X0049190Y0048862D01*
X0049489Y0048563D02*
X0047788Y0048563D01*
X0048086Y0048265D02*
X0049787Y0048265D01*
X0050086Y0047966D02*
X0048385Y0047966D01*
X0048683Y0047668D02*
X0050384Y0047668D01*
X0050683Y0047369D02*
X0048982Y0047369D01*
X0049280Y0047071D02*
X0050981Y0047071D01*
X0051280Y0046772D02*
X0049579Y0046772D01*
X0049877Y0046474D02*
X0051578Y0046474D01*
X0051877Y0046175D02*
X0050176Y0046175D01*
X0050474Y0045877D02*
X0052175Y0045877D01*
X0052474Y0045578D02*
X0050773Y0045578D01*
X0051071Y0045280D02*
X0052772Y0045280D01*
X0053071Y0044981D02*
X0051370Y0044981D01*
X0051668Y0044683D02*
X0053369Y0044683D01*
X0053668Y0044384D02*
X0051967Y0044384D01*
X0052265Y0044086D02*
X0053966Y0044086D01*
X0054265Y0043787D02*
X0052564Y0043787D01*
X0052862Y0043488D02*
X0054563Y0043488D01*
X0054862Y0043190D02*
X0053161Y0043190D01*
X0053459Y0042891D02*
X0055160Y0042891D01*
X0055459Y0042593D02*
X0053758Y0042593D01*
X0054056Y0042294D02*
X0055757Y0042294D01*
X0056056Y0041996D02*
X0054186Y0041996D01*
X0054186Y0041697D02*
X0056354Y0041697D01*
X0056653Y0041399D02*
X0054186Y0041399D01*
X0054186Y0041100D02*
X0056951Y0041100D01*
X0057250Y0040802D02*
X0054186Y0040802D01*
X0054214Y0040503D02*
X0057548Y0040503D01*
X0057847Y0040205D02*
X0054513Y0040205D01*
X0054811Y0039906D02*
X0058145Y0039906D01*
X0058444Y0039608D02*
X0055110Y0039608D01*
X0055408Y0039309D02*
X0058742Y0039309D01*
X0058765Y0039011D02*
X0071062Y0039011D01*
X0070763Y0038712D02*
X0059064Y0038712D01*
X0058937Y0038839D02*
X0058937Y0038839D01*
X0059103Y0039930D02*
X0077114Y0039930D01*
X0079141Y0037904D01*
X0080023Y0037518D02*
X0086472Y0037518D01*
X0086472Y0037220D02*
X0082774Y0037220D01*
X0083073Y0036921D02*
X0086472Y0036921D01*
X0086767Y0036623D02*
X0083371Y0036623D01*
X0083670Y0036324D02*
X0083671Y0036324D01*
X0083713Y0036324D02*
X0085592Y0036324D01*
X0085634Y0036324D02*
X0085640Y0036324D01*
X0085682Y0036324D02*
X0087065Y0036324D01*
X0086325Y0036026D02*
X0087896Y0036026D01*
X0087598Y0035727D02*
X0086520Y0035727D01*
X0086602Y0035429D02*
X0087299Y0035429D01*
X0087001Y0035130D02*
X0086594Y0035130D01*
X0084949Y0036026D02*
X0084356Y0036026D01*
X0084551Y0035727D02*
X0084754Y0035727D01*
X0084672Y0035429D02*
X0084634Y0035429D01*
X0086472Y0037817D02*
X0080107Y0037817D01*
X0080100Y0038115D02*
X0086764Y0038115D01*
X0087062Y0038414D02*
X0079987Y0038414D01*
X0079141Y0039872D02*
X0078108Y0040905D01*
X0059731Y0040905D01*
X0057601Y0043035D01*
X0057601Y0043035D01*
X0048394Y0052242D01*
X0048394Y0066111D01*
X0049181Y0066898D01*
X0049181Y0071976D01*
X0053158Y0075952D01*
X0053158Y0077922D01*
X0058552Y0083315D01*
X0064339Y0083315D01*
X0064968Y0082687D01*
X0070482Y0082687D01*
X0071229Y0083433D01*
X0072016Y0082646D02*
X0072016Y0079419D01*
X0067095Y0074498D01*
X0061112Y0074498D01*
X0058926Y0072311D01*
X0058512Y0072311D01*
X0057351Y0072311D01*
X0053119Y0068079D01*
X0053119Y0064300D01*
X0052331Y0063512D01*
X0052331Y0054693D01*
X0054605Y0052419D01*
X0054605Y0050063D01*
X0058557Y0046112D01*
X0065167Y0046112D01*
X0066268Y0046111D01*
X0067161Y0045786D02*
X0067238Y0045918D01*
X0067232Y0045941D01*
X0067245Y0045960D01*
X0067236Y0046011D01*
X0068567Y0044680D01*
X0068973Y0044274D01*
X0072122Y0044274D01*
X0074086Y0042310D01*
X0074493Y0041904D01*
X0078097Y0041904D01*
X0078186Y0041815D01*
X0078164Y0041690D01*
X0078177Y0041671D01*
X0078171Y0041648D01*
X0078200Y0041598D01*
X0060018Y0041598D01*
X0058736Y0042880D01*
X0058739Y0042880D01*
X0058756Y0042897D01*
X0058779Y0042895D01*
X0058897Y0042993D01*
X0059040Y0043045D01*
X0059050Y0043067D01*
X0059073Y0043073D01*
X0059149Y0043205D01*
X0059267Y0043304D01*
X0059269Y0043327D01*
X0059288Y0043340D01*
X0059314Y0043491D01*
X0059391Y0043624D01*
X0059385Y0043646D01*
X0059398Y0043665D01*
X0059372Y0043816D01*
X0059398Y0043967D01*
X0059385Y0043986D01*
X0059391Y0044009D01*
X0059314Y0044141D01*
X0059288Y0044292D01*
X0059269Y0044305D01*
X0059267Y0044329D01*
X0059149Y0044427D01*
X0059078Y0044551D01*
X0061825Y0044551D01*
X0061727Y0044452D01*
X0061727Y0043756D01*
X0062032Y0043451D01*
X0061353Y0043451D01*
X0060861Y0042958D01*
X0060861Y0042262D01*
X0061353Y0041770D01*
X0062049Y0041770D01*
X0062542Y0042262D01*
X0062542Y0042958D01*
X0062237Y0043263D01*
X0062915Y0043263D01*
X0063408Y0043756D01*
X0063408Y0044138D01*
X0063469Y0044087D01*
X0063492Y0044089D01*
X0063509Y0044072D01*
X0063662Y0044072D01*
X0063806Y0044020D01*
X0063827Y0044030D01*
X0063848Y0044020D01*
X0063992Y0044072D01*
X0064145Y0044072D01*
X0064162Y0044089D01*
X0064185Y0044087D01*
X0064302Y0044185D01*
X0064446Y0044238D01*
X0064456Y0044259D01*
X0064479Y0044265D01*
X0064555Y0044397D01*
X0064673Y0044496D01*
X0064675Y0044519D01*
X0064694Y0044532D01*
X0064720Y0044683D01*
X0064797Y0044816D01*
X0064791Y0044838D01*
X0064804Y0044857D01*
X0064778Y0045008D01*
X0064804Y0045159D01*
X0064791Y0045178D01*
X0064797Y0045201D01*
X0064720Y0045333D01*
X0064705Y0045418D01*
X0065166Y0045418D01*
X0065587Y0045418D01*
X0065617Y0045367D01*
X0065639Y0045361D01*
X0065649Y0045340D01*
X0065793Y0045288D01*
X0065910Y0045189D01*
X0065933Y0045191D01*
X0065950Y0045175D01*
X0066103Y0045175D01*
X0066247Y0045122D01*
X0066268Y0045132D01*
X0066289Y0045122D01*
X0066433Y0045175D01*
X0066586Y0045175D01*
X0066603Y0045191D01*
X0066626Y0045189D01*
X0066743Y0045288D01*
X0066887Y0045340D01*
X0066897Y0045361D01*
X0066920Y0045367D01*
X0066996Y0045500D01*
X0067114Y0045598D01*
X0067116Y0045621D01*
X0067135Y0045635D01*
X0067161Y0045786D01*
X0067214Y0045877D02*
X0067370Y0045877D01*
X0067090Y0045578D02*
X0067669Y0045578D01*
X0067967Y0045280D02*
X0066734Y0045280D01*
X0065802Y0045280D02*
X0064751Y0045280D01*
X0064782Y0044981D02*
X0068266Y0044981D01*
X0068564Y0044683D02*
X0064720Y0044683D01*
X0064548Y0044384D02*
X0068863Y0044384D01*
X0069260Y0044968D02*
X0072410Y0044968D01*
X0074780Y0042598D01*
X0078384Y0042598D01*
X0079141Y0041841D01*
X0078165Y0041697D02*
X0059919Y0041697D01*
X0059620Y0041996D02*
X0061127Y0041996D01*
X0060861Y0042294D02*
X0059322Y0042294D01*
X0059023Y0042593D02*
X0060861Y0042593D01*
X0060861Y0042891D02*
X0058751Y0042891D01*
X0059141Y0043190D02*
X0061092Y0043190D01*
X0061727Y0043787D02*
X0059377Y0043787D01*
X0059347Y0044086D02*
X0061727Y0044086D01*
X0061727Y0044384D02*
X0059201Y0044384D01*
X0059314Y0043488D02*
X0061994Y0043488D01*
X0062310Y0043190D02*
X0064050Y0043190D01*
X0064050Y0043270D02*
X0064050Y0042573D01*
X0064542Y0042081D01*
X0065238Y0042081D01*
X0065731Y0042573D01*
X0065731Y0043270D01*
X0065238Y0043762D01*
X0064542Y0043762D01*
X0064050Y0043270D01*
X0064268Y0043488D02*
X0063141Y0043488D01*
X0063408Y0043787D02*
X0072610Y0043787D01*
X0072908Y0043488D02*
X0065512Y0043488D01*
X0065731Y0043190D02*
X0073207Y0043190D01*
X0073505Y0042891D02*
X0065731Y0042891D01*
X0065731Y0042593D02*
X0073804Y0042593D01*
X0074102Y0042294D02*
X0065452Y0042294D01*
X0064329Y0042294D02*
X0062542Y0042294D01*
X0062542Y0042593D02*
X0064050Y0042593D01*
X0064050Y0042891D02*
X0062542Y0042891D01*
X0062276Y0041996D02*
X0074401Y0041996D01*
X0072311Y0044086D02*
X0064159Y0044086D01*
X0063496Y0044086D02*
X0063408Y0044086D01*
X0063827Y0045008D02*
X0063985Y0045244D01*
X0058243Y0045244D01*
X0052528Y0050959D01*
X0052528Y0052090D01*
X0053315Y0052090D01*
X0052528Y0052090D02*
X0052528Y0053315D01*
X0051347Y0054496D01*
X0051347Y0063945D01*
X0052252Y0064851D01*
X0052252Y0068394D01*
X0057234Y0073376D01*
X0058570Y0073376D01*
X0060361Y0075167D01*
X0064852Y0075167D01*
X0066071Y0076386D01*
X0066236Y0075450D02*
X0066389Y0075450D01*
X0066406Y0075467D01*
X0066429Y0075465D01*
X0066546Y0075563D01*
X0066690Y0075615D01*
X0066700Y0075637D01*
X0066723Y0075643D01*
X0066799Y0075775D01*
X0066917Y0075874D01*
X0066919Y0075897D01*
X0066938Y0075910D01*
X0066964Y0076061D01*
X0067041Y0076194D01*
X0067035Y0076216D01*
X0067048Y0076235D01*
X0067022Y0076386D01*
X0067048Y0076537D01*
X0067035Y0076556D01*
X0067041Y0076579D01*
X0066964Y0076711D01*
X0066938Y0076862D01*
X0066919Y0076875D01*
X0066917Y0076899D01*
X0066799Y0076997D01*
X0066723Y0077130D01*
X0066700Y0077136D01*
X0066690Y0077157D01*
X0066546Y0077209D01*
X0066429Y0077308D01*
X0066406Y0077306D01*
X0066389Y0077322D01*
X0066236Y0077322D01*
X0066092Y0077375D01*
X0066071Y0077365D01*
X0066050Y0077375D01*
X0065906Y0077322D01*
X0065753Y0077322D01*
X0065737Y0077306D01*
X0065713Y0077308D01*
X0065596Y0077209D01*
X0065452Y0077157D01*
X0065442Y0077136D01*
X0065420Y0077130D01*
X0065343Y0076997D01*
X0065226Y0076899D01*
X0065224Y0076875D01*
X0065205Y0076862D01*
X0065178Y0076711D01*
X0065102Y0076579D01*
X0065108Y0076556D01*
X0065094Y0076537D01*
X0065116Y0076412D01*
X0065050Y0076346D01*
X0065050Y0076952D01*
X0064557Y0077445D01*
X0063861Y0077445D01*
X0063369Y0076952D01*
X0063369Y0076256D01*
X0063764Y0075861D01*
X0062483Y0075861D01*
X0062857Y0076235D01*
X0062857Y0076931D01*
X0062364Y0077424D01*
X0061668Y0077424D01*
X0061176Y0076931D01*
X0061176Y0076235D01*
X0061550Y0075861D01*
X0060287Y0075861D01*
X0060301Y0075942D01*
X0060378Y0076074D01*
X0060372Y0076097D01*
X0060385Y0076116D01*
X0060359Y0076267D01*
X0060385Y0076418D01*
X0060372Y0076437D01*
X0060378Y0076459D01*
X0060301Y0076592D01*
X0060275Y0076743D01*
X0060256Y0076756D01*
X0060254Y0076779D01*
X0060136Y0076878D01*
X0060060Y0077011D01*
X0060037Y0077017D01*
X0060027Y0077038D01*
X0059884Y0077090D01*
X0059766Y0077189D01*
X0059743Y0077186D01*
X0059726Y0077203D01*
X0059573Y0077203D01*
X0059429Y0077255D01*
X0059408Y0077245D01*
X0059387Y0077255D01*
X0059243Y0077203D01*
X0059090Y0077203D01*
X0059074Y0077186D01*
X0059050Y0077189D01*
X0058933Y0077090D01*
X0058789Y0077038D01*
X0058779Y0077017D01*
X0058757Y0077011D01*
X0058728Y0076961D01*
X0058267Y0076961D01*
X0057861Y0076554D01*
X0050958Y0069651D01*
X0050958Y0070015D01*
X0054272Y0073329D01*
X0054678Y0073735D01*
X0054678Y0076886D01*
X0059469Y0081677D01*
X0062555Y0081677D01*
X0062540Y0081593D01*
X0062464Y0081461D01*
X0062470Y0081438D01*
X0062456Y0081419D01*
X0062483Y0081268D01*
X0062456Y0081117D01*
X0062470Y0081098D01*
X0062464Y0081076D01*
X0062540Y0080943D01*
X0062567Y0080792D01*
X0062586Y0080779D01*
X0062588Y0080756D01*
X0062705Y0080657D01*
X0062745Y0080588D01*
X0062593Y0080435D01*
X0062593Y0079739D01*
X0063085Y0079246D01*
X0063782Y0079246D01*
X0064128Y0079593D01*
X0064708Y0079012D01*
X0065115Y0078606D01*
X0068085Y0078606D01*
X0067946Y0078467D01*
X0067946Y0077770D01*
X0068438Y0077278D01*
X0068894Y0077278D01*
X0066808Y0075191D01*
X0065857Y0075191D01*
X0066073Y0075407D01*
X0066092Y0075398D01*
X0066236Y0075450D01*
X0066179Y0075429D02*
X0067045Y0075429D01*
X0066772Y0075728D02*
X0067344Y0075728D01*
X0067642Y0076026D02*
X0066958Y0076026D01*
X0067033Y0076325D02*
X0067941Y0076325D01*
X0068239Y0076623D02*
X0067015Y0076623D01*
X0066889Y0076922D02*
X0068538Y0076922D01*
X0068836Y0077220D02*
X0066533Y0077220D01*
X0065609Y0077220D02*
X0064782Y0077220D01*
X0065050Y0076922D02*
X0065253Y0076922D01*
X0065127Y0076623D02*
X0065050Y0076623D01*
X0063637Y0077220D02*
X0062568Y0077220D01*
X0062857Y0076922D02*
X0063369Y0076922D01*
X0063369Y0076623D02*
X0062857Y0076623D01*
X0062857Y0076325D02*
X0063369Y0076325D01*
X0063598Y0076026D02*
X0062648Y0076026D01*
X0061384Y0076026D02*
X0060350Y0076026D01*
X0060369Y0076325D02*
X0061176Y0076325D01*
X0061176Y0076623D02*
X0060296Y0076623D01*
X0060111Y0076922D02*
X0061176Y0076922D01*
X0061465Y0077220D02*
X0059526Y0077220D01*
X0059291Y0077220D02*
X0055012Y0077220D01*
X0054714Y0076922D02*
X0058228Y0076922D01*
X0057930Y0076623D02*
X0054678Y0076623D01*
X0054678Y0076325D02*
X0057631Y0076325D01*
X0057333Y0076026D02*
X0054678Y0076026D01*
X0054678Y0075728D02*
X0057034Y0075728D01*
X0056736Y0075429D02*
X0054678Y0075429D01*
X0054678Y0075131D02*
X0056437Y0075131D01*
X0056139Y0074832D02*
X0054678Y0074832D01*
X0054678Y0074534D02*
X0055840Y0074534D01*
X0055542Y0074235D02*
X0054678Y0074235D01*
X0054678Y0073937D02*
X0055243Y0073937D01*
X0054945Y0073638D02*
X0054581Y0073638D01*
X0054646Y0073340D02*
X0054282Y0073340D01*
X0054348Y0073041D02*
X0053984Y0073041D01*
X0054049Y0072743D02*
X0053685Y0072743D01*
X0053751Y0072444D02*
X0053387Y0072444D01*
X0053452Y0072146D02*
X0053088Y0072146D01*
X0053153Y0071847D02*
X0052790Y0071847D01*
X0052855Y0071549D02*
X0052491Y0071549D01*
X0052556Y0071250D02*
X0052193Y0071250D01*
X0052258Y0070952D02*
X0051894Y0070952D01*
X0051959Y0070653D02*
X0051596Y0070653D01*
X0051661Y0070355D02*
X0051297Y0070355D01*
X0051362Y0070056D02*
X0050999Y0070056D01*
X0050958Y0069757D02*
X0051064Y0069757D01*
X0051150Y0068863D02*
X0058554Y0076267D01*
X0059408Y0076267D01*
X0056803Y0079011D02*
X0064709Y0079011D01*
X0065008Y0078713D02*
X0056505Y0078713D01*
X0056206Y0078414D02*
X0067946Y0078414D01*
X0067946Y0078116D02*
X0055908Y0078116D01*
X0055609Y0077817D02*
X0067946Y0077817D01*
X0068198Y0077519D02*
X0055311Y0077519D01*
X0053985Y0077174D02*
X0059181Y0082370D01*
X0063748Y0082370D01*
X0064142Y0081977D01*
X0068000Y0081977D01*
X0068906Y0081071D01*
X0070441Y0081071D01*
X0071229Y0080284D01*
X0070403Y0079340D02*
X0070363Y0079300D01*
X0065402Y0079300D01*
X0063433Y0081268D01*
X0062468Y0081101D02*
X0058893Y0081101D01*
X0059191Y0081399D02*
X0062460Y0081399D01*
X0062565Y0080802D02*
X0058594Y0080802D01*
X0058296Y0080504D02*
X0062662Y0080504D01*
X0062593Y0080205D02*
X0057997Y0080205D01*
X0057699Y0079907D02*
X0062593Y0079907D01*
X0062723Y0079608D02*
X0057400Y0079608D01*
X0057102Y0079310D02*
X0063022Y0079310D01*
X0063845Y0079310D02*
X0064411Y0079310D01*
X0068965Y0081993D02*
X0070195Y0081993D01*
X0070388Y0081993D01*
X0070388Y0081765D01*
X0069193Y0081765D01*
X0068965Y0081993D01*
X0069654Y0083433D02*
X0067961Y0083433D01*
X0065599Y0085796D01*
X0059221Y0085796D01*
X0048402Y0074977D01*
X0048402Y0067776D01*
X0047213Y0066587D01*
X0047213Y0051820D01*
X0059103Y0039930D01*
X0058421Y0043816D02*
X0058171Y0043816D01*
X0050895Y0051092D01*
X0050895Y0053802D01*
X0050397Y0054300D01*
X0050397Y0064768D01*
X0051150Y0065520D01*
X0051150Y0068863D01*
X0050264Y0070302D02*
X0053985Y0074023D01*
X0053985Y0077174D01*
X0052464Y0077220D02*
X0051626Y0077220D01*
X0051328Y0076922D02*
X0052464Y0076922D01*
X0052464Y0076623D02*
X0051029Y0076623D01*
X0050731Y0076325D02*
X0052464Y0076325D01*
X0052464Y0076239D02*
X0049096Y0072871D01*
X0049096Y0074690D01*
X0052464Y0078058D01*
X0052464Y0076239D01*
X0052251Y0076026D02*
X0050432Y0076026D01*
X0050134Y0075728D02*
X0051953Y0075728D01*
X0051654Y0075429D02*
X0049835Y0075429D01*
X0049537Y0075131D02*
X0051356Y0075131D01*
X0051057Y0074832D02*
X0049238Y0074832D01*
X0049096Y0074534D02*
X0050759Y0074534D01*
X0050460Y0074235D02*
X0049096Y0074235D01*
X0049096Y0073937D02*
X0050162Y0073937D01*
X0049863Y0073638D02*
X0049096Y0073638D01*
X0049096Y0073340D02*
X0049564Y0073340D01*
X0049266Y0073041D02*
X0049096Y0073041D01*
X0050034Y0071847D02*
X0050828Y0071847D01*
X0051126Y0072146D02*
X0050333Y0072146D01*
X0050631Y0072444D02*
X0051425Y0072444D01*
X0051723Y0072743D02*
X0050930Y0072743D01*
X0051228Y0073041D02*
X0052022Y0073041D01*
X0052320Y0073340D02*
X0051527Y0073340D01*
X0051825Y0073638D02*
X0052619Y0073638D01*
X0052917Y0073937D02*
X0052124Y0073937D01*
X0052422Y0074235D02*
X0053216Y0074235D01*
X0053291Y0074310D02*
X0049875Y0070894D01*
X0049875Y0071688D01*
X0053291Y0075104D01*
X0053291Y0074310D01*
X0053291Y0074534D02*
X0052721Y0074534D01*
X0053019Y0074832D02*
X0053291Y0074832D01*
X0050529Y0071549D02*
X0049875Y0071549D01*
X0049875Y0071250D02*
X0050231Y0071250D01*
X0049932Y0070952D02*
X0049875Y0070952D01*
X0050264Y0070302D02*
X0050264Y0066406D01*
X0049378Y0065520D01*
X0049378Y0054018D01*
X0049847Y0053549D01*
X0053512Y0054496D02*
X0053512Y0062961D01*
X0054103Y0063552D01*
X0054103Y0065914D01*
X0061780Y0073591D01*
X0067685Y0073591D01*
X0072804Y0078709D01*
X0072804Y0080284D01*
X0074378Y0080284D02*
X0074378Y0079300D01*
X0075166Y0078512D01*
X0075166Y0074772D01*
X0071352Y0070959D01*
X0063478Y0070959D01*
X0057252Y0064733D01*
X0057252Y0062764D01*
X0056268Y0061780D01*
X0056268Y0055678D01*
X0057744Y0054201D01*
X0057744Y0051485D01*
X0059673Y0049556D01*
X0068079Y0049556D01*
X0068458Y0049935D01*
X0076952Y0049935D01*
X0079141Y0047746D01*
X0078186Y0047720D02*
X0078185Y0047715D01*
X0077779Y0048121D01*
X0077373Y0048527D01*
X0076097Y0048527D01*
X0075383Y0049241D01*
X0076665Y0049241D01*
X0078186Y0047720D01*
X0077940Y0047966D02*
X0077933Y0047966D01*
X0077641Y0048265D02*
X0077635Y0048265D01*
X0077343Y0048563D02*
X0076061Y0048563D01*
X0075763Y0048862D02*
X0077044Y0048862D01*
X0076746Y0049160D02*
X0075464Y0049160D01*
X0074496Y0049147D02*
X0075810Y0047833D01*
X0077085Y0047833D01*
X0079141Y0045778D01*
X0078186Y0045752D02*
X0078185Y0045746D01*
X0077837Y0046094D01*
X0077431Y0046500D01*
X0075227Y0046500D01*
X0074046Y0047681D01*
X0071111Y0047681D01*
X0070348Y0048444D01*
X0070339Y0048453D01*
X0074209Y0048453D01*
X0075523Y0047140D01*
X0076097Y0047140D01*
X0076798Y0047140D01*
X0078186Y0045752D01*
X0078061Y0045877D02*
X0078054Y0045877D01*
X0077762Y0046175D02*
X0077756Y0046175D01*
X0077464Y0046474D02*
X0077457Y0046474D01*
X0077165Y0046772D02*
X0074955Y0046772D01*
X0074657Y0047071D02*
X0076867Y0047071D01*
X0075293Y0047369D02*
X0074358Y0047369D01*
X0074060Y0047668D02*
X0074995Y0047668D01*
X0074696Y0047966D02*
X0070826Y0047966D01*
X0070527Y0048265D02*
X0074398Y0048265D01*
X0074496Y0049147D02*
X0068791Y0049147D01*
X0068473Y0048829D01*
X0068191Y0048829D01*
X0068190Y0048830D01*
X0059297Y0048830D01*
X0056859Y0051268D01*
X0056859Y0053709D01*
X0055481Y0055087D01*
X0055481Y0062567D01*
X0056268Y0063355D01*
X0056268Y0065323D01*
X0062664Y0071719D01*
X0070735Y0071719D01*
X0074378Y0075363D01*
X0074378Y0078119D01*
X0077434Y0078116D02*
X0077622Y0078116D01*
X0077622Y0078414D02*
X0077434Y0078414D01*
X0077434Y0078713D02*
X0077622Y0078713D01*
X0077622Y0079011D02*
X0077434Y0079011D01*
X0077434Y0079310D02*
X0077622Y0079310D01*
X0077622Y0079443D02*
X0077622Y0076059D01*
X0078028Y0075653D01*
X0081952Y0071729D01*
X0082359Y0071322D01*
X0083934Y0071322D01*
X0085893Y0069363D01*
X0084311Y0069363D01*
X0077434Y0076240D01*
X0077434Y0079443D01*
X0077622Y0079443D01*
X0079009Y0079443D02*
X0079177Y0079443D01*
X0079177Y0078441D01*
X0082539Y0075080D01*
X0082153Y0075080D01*
X0081512Y0074438D01*
X0081512Y0074131D01*
X0079009Y0076634D01*
X0079009Y0079443D01*
X0079009Y0079310D02*
X0079177Y0079310D01*
X0079177Y0079011D02*
X0079009Y0079011D01*
X0079009Y0078713D02*
X0079177Y0078713D01*
X0079204Y0078414D02*
X0079009Y0078414D01*
X0079009Y0078116D02*
X0079502Y0078116D01*
X0079801Y0077817D02*
X0079009Y0077817D01*
X0079009Y0077519D02*
X0080099Y0077519D01*
X0080398Y0077220D02*
X0079009Y0077220D01*
X0079009Y0076922D02*
X0080696Y0076922D01*
X0080995Y0076623D02*
X0079020Y0076623D01*
X0079318Y0076325D02*
X0081293Y0076325D01*
X0081592Y0076026D02*
X0079617Y0076026D01*
X0079916Y0075728D02*
X0081890Y0075728D01*
X0082189Y0075429D02*
X0080214Y0075429D01*
X0080513Y0075131D02*
X0082487Y0075131D01*
X0081906Y0074832D02*
X0080811Y0074832D01*
X0081110Y0074534D02*
X0081607Y0074534D01*
X0081512Y0074235D02*
X0081408Y0074235D01*
X0080342Y0073340D02*
X0080335Y0073340D01*
X0080043Y0073638D02*
X0080037Y0073638D01*
X0079745Y0073937D02*
X0079738Y0073937D01*
X0079446Y0074235D02*
X0079440Y0074235D01*
X0079148Y0074534D02*
X0079141Y0074534D01*
X0078849Y0074832D02*
X0078843Y0074832D01*
X0078550Y0075131D02*
X0078544Y0075131D01*
X0078252Y0075429D02*
X0078246Y0075429D01*
X0078028Y0075653D02*
X0078028Y0075653D01*
X0077953Y0075728D02*
X0077947Y0075728D01*
X0077655Y0076026D02*
X0077649Y0076026D01*
X0077622Y0076325D02*
X0077434Y0076325D01*
X0077434Y0076623D02*
X0077622Y0076623D01*
X0077622Y0076922D02*
X0077434Y0076922D01*
X0077434Y0077220D02*
X0077622Y0077220D01*
X0077622Y0077519D02*
X0077434Y0077519D01*
X0077434Y0077817D02*
X0077622Y0077817D01*
X0076741Y0075953D02*
X0084024Y0068670D01*
X0086189Y0068670D01*
X0097033Y0057826D01*
X0097033Y0047820D01*
X0095441Y0046229D01*
X0095441Y0040717D01*
X0093511Y0038787D01*
X0093511Y0036526D01*
X0094728Y0037516D02*
X0094728Y0038760D01*
X0096094Y0040126D01*
X0098017Y0041862D02*
X0099378Y0043224D01*
X0099378Y0059366D01*
X0085350Y0073394D01*
X0085350Y0074326D01*
X0086386Y0073748D02*
X0100166Y0059969D01*
X0096061Y0057817D02*
X0057946Y0057817D01*
X0057946Y0057519D02*
X0096339Y0057519D01*
X0096339Y0057220D02*
X0057946Y0057220D01*
X0057946Y0056921D02*
X0096339Y0056921D01*
X0096339Y0056623D02*
X0057946Y0056623D01*
X0057946Y0056324D02*
X0096339Y0056324D01*
X0096339Y0056026D02*
X0058082Y0056026D01*
X0058380Y0055727D02*
X0096339Y0055727D01*
X0096339Y0055429D02*
X0058679Y0055429D01*
X0058977Y0055130D02*
X0081302Y0055130D01*
X0080947Y0054832D02*
X0059127Y0054832D01*
X0059127Y0054533D02*
X0080787Y0054533D01*
X0080616Y0054235D02*
X0059127Y0054235D01*
X0059127Y0053936D02*
X0076128Y0053936D01*
X0076208Y0054017D02*
X0075567Y0053375D01*
X0075567Y0052468D01*
X0076208Y0051827D01*
X0077115Y0051827D01*
X0077757Y0052468D01*
X0077757Y0053375D01*
X0077115Y0054017D01*
X0076208Y0054017D01*
X0075830Y0053638D02*
X0059127Y0053638D01*
X0059127Y0053339D02*
X0075567Y0053339D01*
X0075567Y0053041D02*
X0060341Y0053041D01*
X0060639Y0052742D02*
X0075567Y0052742D01*
X0075591Y0052444D02*
X0060714Y0052444D01*
X0060714Y0052145D02*
X0075890Y0052145D01*
X0076188Y0051847D02*
X0062166Y0051847D01*
X0062377Y0051548D02*
X0077929Y0051548D01*
X0078228Y0051847D02*
X0077135Y0051847D01*
X0077434Y0052145D02*
X0078526Y0052145D01*
X0078825Y0052444D02*
X0077732Y0052444D01*
X0077757Y0052742D02*
X0079124Y0052742D01*
X0079422Y0053041D02*
X0077757Y0053041D01*
X0077757Y0053339D02*
X0079721Y0053339D01*
X0080019Y0053638D02*
X0077494Y0053638D01*
X0077195Y0053936D02*
X0080318Y0053936D01*
X0079593Y0051250D02*
X0085147Y0051250D01*
X0085445Y0050951D02*
X0079295Y0050951D01*
X0078996Y0050653D02*
X0085744Y0050653D01*
X0086042Y0050354D02*
X0078697Y0050354D01*
X0079202Y0046772D02*
X0095004Y0046772D01*
X0096286Y0048788D02*
X0092882Y0048788D01*
X0090717Y0050953D01*
X0091700Y0050951D02*
X0096339Y0050951D01*
X0096339Y0050653D02*
X0091998Y0050653D01*
X0092297Y0050354D02*
X0096339Y0050354D01*
X0096339Y0050056D02*
X0092595Y0050056D01*
X0092894Y0049757D02*
X0096213Y0049757D01*
X0094748Y0044384D02*
X0079912Y0044384D01*
X0080062Y0044086D02*
X0094748Y0044086D01*
X0094748Y0043787D02*
X0080095Y0043787D01*
X0076426Y0038799D02*
X0076150Y0038524D01*
X0071556Y0038524D01*
X0070363Y0037331D01*
X0069781Y0038115D02*
X0065519Y0038115D01*
X0065817Y0037817D02*
X0069510Y0037817D01*
X0069395Y0037518D02*
X0066116Y0037518D01*
X0065220Y0038414D02*
X0070465Y0038414D01*
X0062968Y0032683D02*
X0062479Y0033172D01*
X0060219Y0033172D01*
X0060219Y0032672D01*
X0061687Y0032672D01*
X0061698Y0032683D01*
X0062968Y0032683D01*
X0062909Y0032742D02*
X0060219Y0032742D01*
X0060219Y0033041D02*
X0062610Y0033041D01*
X0052798Y0040503D02*
X0052732Y0040503D01*
X0052798Y0040802D02*
X0052433Y0040802D01*
X0052134Y0041100D02*
X0052798Y0041100D01*
X0052798Y0041399D02*
X0051836Y0041399D01*
X0051537Y0041697D02*
X0052691Y0041697D01*
X0052393Y0041996D02*
X0051239Y0041996D01*
X0050940Y0042294D02*
X0052094Y0042294D01*
X0051796Y0042593D02*
X0050642Y0042593D01*
X0050343Y0042891D02*
X0051497Y0042891D01*
X0051199Y0043190D02*
X0050045Y0043190D01*
X0049746Y0043488D02*
X0050900Y0043488D01*
X0050602Y0043787D02*
X0049448Y0043787D01*
X0049149Y0044086D02*
X0050303Y0044086D01*
X0050005Y0044384D02*
X0048851Y0044384D01*
X0048552Y0044683D02*
X0049706Y0044683D01*
X0049408Y0044981D02*
X0048254Y0044981D01*
X0047955Y0045280D02*
X0049109Y0045280D01*
X0048811Y0045578D02*
X0047657Y0045578D01*
X0047358Y0045877D02*
X0048512Y0045877D01*
X0048214Y0046175D02*
X0047060Y0046175D01*
X0046761Y0046474D02*
X0047915Y0046474D01*
X0047617Y0046772D02*
X0046463Y0046772D01*
X0046164Y0047071D02*
X0047318Y0047071D01*
X0047020Y0047369D02*
X0045866Y0047369D01*
X0045567Y0047668D02*
X0046721Y0047668D01*
X0046422Y0047966D02*
X0045269Y0047966D01*
X0044970Y0048265D02*
X0046124Y0048265D01*
X0045825Y0048563D02*
X0044672Y0048563D01*
X0043010Y0043797D02*
X0038473Y0048334D01*
X0038473Y0051386D01*
X0038474Y0051387D01*
X0038474Y0064927D01*
X0038472Y0064930D01*
X0038472Y0070951D01*
X0040764Y0073243D01*
X0040764Y0076591D01*
X0042764Y0078591D01*
X0042764Y0080284D01*
X0047292Y0084811D01*
X0048290Y0084811D01*
X0055988Y0092509D01*
X0056933Y0092509D01*
X0056938Y0092514D01*
X0060332Y0092514D01*
X0062607Y0094788D01*
X0070897Y0094788D01*
X0074378Y0091307D01*
X0072804Y0091307D02*
X0072016Y0090520D01*
X0068965Y0090520D01*
X0067882Y0091603D01*
X0056465Y0091603D01*
X0048611Y0083748D01*
X0046779Y0085280D02*
X0044567Y0085280D01*
X0044881Y0085579D02*
X0048076Y0085579D01*
X0048003Y0085505D02*
X0047004Y0085505D01*
X0042477Y0080978D01*
X0042070Y0080571D01*
X0042070Y0078878D01*
X0040614Y0077422D01*
X0040614Y0078767D01*
X0040843Y0078996D01*
X0040862Y0078987D01*
X0041006Y0079039D01*
X0041160Y0079039D01*
X0041176Y0079056D01*
X0041199Y0079054D01*
X0041317Y0079152D01*
X0041460Y0079204D01*
X0041470Y0079226D01*
X0041493Y0079232D01*
X0041569Y0079364D01*
X0041687Y0079463D01*
X0041689Y0079486D01*
X0041708Y0079499D01*
X0041734Y0079650D01*
X0041811Y0079783D01*
X0041805Y0079805D01*
X0041818Y0079824D01*
X0041792Y0079975D01*
X0041818Y0080126D01*
X0041805Y0080145D01*
X0041811Y0080168D01*
X0041734Y0080300D01*
X0041708Y0080451D01*
X0041689Y0080464D01*
X0041687Y0080488D01*
X0041569Y0080586D01*
X0041493Y0080719D01*
X0041470Y0080725D01*
X0041460Y0080746D01*
X0041317Y0080798D01*
X0041199Y0080897D01*
X0041176Y0080895D01*
X0041160Y0080911D01*
X0041117Y0080911D01*
X0043358Y0084131D01*
X0048745Y0089252D01*
X0055052Y0093183D01*
X0062022Y0095764D01*
X0069368Y0096890D01*
X0073672Y0096672D01*
X0073276Y0096276D01*
X0072915Y0096636D01*
X0072219Y0096636D01*
X0071727Y0096144D01*
X0071727Y0095447D01*
X0072219Y0094955D01*
X0072915Y0094955D01*
X0073355Y0095394D01*
X0073715Y0095034D01*
X0074412Y0095034D01*
X0074876Y0095499D01*
X0074876Y0095408D01*
X0075369Y0094916D01*
X0076065Y0094916D01*
X0076557Y0095408D01*
X0076557Y0096104D01*
X0076114Y0096548D01*
X0076791Y0096513D01*
X0081446Y0095308D01*
X0077398Y0095308D01*
X0076992Y0094902D01*
X0075951Y0093862D01*
X0075932Y0093871D01*
X0075788Y0093818D01*
X0075635Y0093818D01*
X0075618Y0093802D01*
X0075595Y0093804D01*
X0075478Y0093705D01*
X0075334Y0093653D01*
X0075324Y0093632D01*
X0075302Y0093626D01*
X0075225Y0093493D01*
X0075108Y0093395D01*
X0075106Y0093372D01*
X0075089Y0093360D01*
X0074727Y0093723D01*
X0074030Y0093723D01*
X0073538Y0093230D01*
X0073538Y0093129D01*
X0071591Y0095076D01*
X0071185Y0095482D01*
X0071046Y0095482D01*
X0071046Y0096144D01*
X0070553Y0096636D01*
X0069857Y0096636D01*
X0069365Y0096144D01*
X0069365Y0095482D01*
X0069230Y0095482D01*
X0069235Y0095487D01*
X0069235Y0096183D01*
X0068742Y0096676D01*
X0068046Y0096676D01*
X0067554Y0096183D01*
X0067554Y0095487D01*
X0067558Y0095482D01*
X0062319Y0095482D01*
X0060045Y0093208D01*
X0056651Y0093208D01*
X0056646Y0093203D01*
X0055701Y0093203D01*
X0053750Y0091252D01*
X0053408Y0091594D01*
X0052711Y0091594D01*
X0052219Y0091102D01*
X0052219Y0090405D01*
X0052561Y0090063D01*
X0048003Y0085505D01*
X0048375Y0085877D02*
X0045195Y0085877D01*
X0045509Y0086176D02*
X0048673Y0086176D01*
X0048972Y0086474D02*
X0045823Y0086474D01*
X0046137Y0086773D02*
X0049270Y0086773D01*
X0049569Y0087071D02*
X0046451Y0087071D01*
X0046765Y0087370D02*
X0049868Y0087370D01*
X0050166Y0087668D02*
X0047079Y0087668D01*
X0047393Y0087967D02*
X0050465Y0087967D01*
X0050763Y0088265D02*
X0047707Y0088265D01*
X0048021Y0088564D02*
X0051062Y0088564D01*
X0051360Y0088862D02*
X0048335Y0088862D01*
X0048649Y0089161D02*
X0051659Y0089161D01*
X0051957Y0089459D02*
X0049078Y0089459D01*
X0049557Y0089758D02*
X0052256Y0089758D01*
X0052554Y0090056D02*
X0050036Y0090056D01*
X0050514Y0090355D02*
X0052270Y0090355D01*
X0052219Y0090653D02*
X0050993Y0090653D01*
X0051472Y0090952D02*
X0052219Y0090952D01*
X0052368Y0091250D02*
X0051951Y0091250D01*
X0052430Y0091549D02*
X0052666Y0091549D01*
X0052909Y0091847D02*
X0054345Y0091847D01*
X0054047Y0091549D02*
X0053453Y0091549D01*
X0053388Y0092146D02*
X0054644Y0092146D01*
X0054942Y0092444D02*
X0053867Y0092444D01*
X0054346Y0092743D02*
X0055241Y0092743D01*
X0055539Y0093041D02*
X0054825Y0093041D01*
X0055475Y0093340D02*
X0060177Y0093340D01*
X0060476Y0093638D02*
X0056281Y0093638D01*
X0057087Y0093937D02*
X0060774Y0093937D01*
X0061073Y0094235D02*
X0057893Y0094235D01*
X0058699Y0094534D02*
X0061371Y0094534D01*
X0061670Y0094832D02*
X0059505Y0094832D01*
X0060311Y0095131D02*
X0061968Y0095131D01*
X0062267Y0095429D02*
X0061117Y0095429D01*
X0061923Y0095728D02*
X0067554Y0095728D01*
X0067554Y0096026D02*
X0063732Y0096026D01*
X0065681Y0096325D02*
X0067695Y0096325D01*
X0067630Y0096623D02*
X0067994Y0096623D01*
X0068794Y0096623D02*
X0069844Y0096623D01*
X0069546Y0096325D02*
X0069093Y0096325D01*
X0069235Y0096026D02*
X0069365Y0096026D01*
X0069365Y0095728D02*
X0069235Y0095728D01*
X0070566Y0096623D02*
X0072206Y0096623D01*
X0071908Y0096325D02*
X0070865Y0096325D01*
X0071046Y0096026D02*
X0071727Y0096026D01*
X0071727Y0095728D02*
X0071046Y0095728D01*
X0071237Y0095429D02*
X0071745Y0095429D01*
X0071536Y0095131D02*
X0072043Y0095131D01*
X0071834Y0094832D02*
X0076922Y0094832D01*
X0076624Y0094534D02*
X0072133Y0094534D01*
X0072431Y0094235D02*
X0076325Y0094235D01*
X0076027Y0093937D02*
X0072730Y0093937D01*
X0073028Y0093638D02*
X0073946Y0093638D01*
X0073647Y0093340D02*
X0073327Y0093340D01*
X0074811Y0093638D02*
X0075327Y0093638D01*
X0075953Y0092882D02*
X0077685Y0094615D01*
X0083591Y0094615D01*
X0086427Y0091779D01*
X0086427Y0091352D01*
X0088243Y0089536D01*
X0090756Y0089536D01*
X0094378Y0086465D01*
X0095112Y0087071D02*
X0096222Y0087071D01*
X0096583Y0086773D02*
X0095282Y0086773D01*
X0095330Y0086474D02*
X0096840Y0086474D01*
X0097096Y0086176D02*
X0095292Y0086176D01*
X0095134Y0085877D02*
X0097352Y0085877D01*
X0097608Y0085579D02*
X0094778Y0085579D01*
X0094358Y0085280D02*
X0097865Y0085280D01*
X0097764Y0084982D02*
X0098121Y0084982D01*
X0098063Y0084683D02*
X0098377Y0084683D01*
X0098229Y0084385D02*
X0098634Y0084385D01*
X0098890Y0084086D02*
X0098229Y0084086D01*
X0098229Y0083788D02*
X0099146Y0083788D01*
X0099402Y0083489D02*
X0098108Y0083489D01*
X0097810Y0083190D02*
X0099659Y0083190D01*
X0096504Y0084982D02*
X0094257Y0084982D01*
X0094013Y0084683D02*
X0096206Y0084683D01*
X0095836Y0087370D02*
X0094756Y0087370D01*
X0095065Y0087967D02*
X0093680Y0087967D01*
X0093328Y0088265D02*
X0094679Y0088265D01*
X0094294Y0088564D02*
X0092976Y0088564D01*
X0092624Y0088862D02*
X0093908Y0088862D01*
X0093522Y0089161D02*
X0092271Y0089161D01*
X0091919Y0089459D02*
X0093137Y0089459D01*
X0092751Y0089758D02*
X0091567Y0089758D01*
X0091217Y0090056D02*
X0092365Y0090056D01*
X0091980Y0090355D02*
X0088405Y0090355D01*
X0088107Y0090653D02*
X0091594Y0090653D01*
X0091208Y0090952D02*
X0087808Y0090952D01*
X0087510Y0091250D02*
X0090823Y0091250D01*
X0090309Y0091549D02*
X0087211Y0091549D01*
X0087120Y0091847D02*
X0089701Y0091847D01*
X0089092Y0092146D02*
X0087041Y0092146D01*
X0086742Y0092444D02*
X0088484Y0092444D01*
X0087875Y0092743D02*
X0086444Y0092743D01*
X0086145Y0093041D02*
X0087266Y0093041D01*
X0086658Y0093340D02*
X0085847Y0093340D01*
X0086049Y0093638D02*
X0085548Y0093638D01*
X0085441Y0093937D02*
X0085250Y0093937D01*
X0080978Y0095429D02*
X0076557Y0095429D01*
X0076557Y0095728D02*
X0079825Y0095728D01*
X0078672Y0096026D02*
X0076557Y0096026D01*
X0076337Y0096325D02*
X0077519Y0096325D01*
X0077221Y0095131D02*
X0076280Y0095131D01*
X0075154Y0095131D02*
X0074509Y0095131D01*
X0074807Y0095429D02*
X0074876Y0095429D01*
X0073618Y0095131D02*
X0073091Y0095131D01*
X0073227Y0096325D02*
X0073325Y0096325D01*
X0073624Y0096623D02*
X0072928Y0096623D01*
X0070610Y0094095D02*
X0070982Y0093723D01*
X0070881Y0093723D01*
X0070388Y0093230D01*
X0070388Y0092534D01*
X0070827Y0092095D01*
X0070441Y0091709D01*
X0070002Y0092148D01*
X0069306Y0092148D01*
X0068813Y0091656D01*
X0068813Y0091653D01*
X0068576Y0091890D01*
X0068170Y0092296D01*
X0065022Y0092296D01*
X0065022Y0092876D01*
X0064530Y0093368D01*
X0063833Y0093368D01*
X0063341Y0092876D01*
X0063341Y0092296D01*
X0061096Y0092296D01*
X0062894Y0094095D01*
X0070610Y0094095D01*
X0070768Y0093937D02*
X0062736Y0093937D01*
X0062438Y0093638D02*
X0070796Y0093638D01*
X0070498Y0093340D02*
X0064558Y0093340D01*
X0064857Y0093041D02*
X0070388Y0093041D01*
X0070388Y0092743D02*
X0065022Y0092743D01*
X0065022Y0092444D02*
X0070478Y0092444D01*
X0070776Y0092146D02*
X0070004Y0092146D01*
X0070303Y0091847D02*
X0070580Y0091847D01*
X0069304Y0092146D02*
X0068320Y0092146D01*
X0068619Y0091847D02*
X0069005Y0091847D01*
X0063805Y0093340D02*
X0062139Y0093340D01*
X0061841Y0093041D02*
X0063506Y0093041D01*
X0063341Y0092743D02*
X0061542Y0092743D01*
X0061244Y0092444D02*
X0063341Y0092444D01*
X0063003Y0089758D02*
X0062834Y0089758D01*
X0065311Y0085102D02*
X0059508Y0085102D01*
X0058415Y0084009D01*
X0064626Y0084009D01*
X0065255Y0083380D01*
X0065334Y0083380D01*
X0065052Y0083662D01*
X0065052Y0084359D01*
X0065545Y0084851D01*
X0065562Y0084851D01*
X0065311Y0085102D01*
X0065432Y0084982D02*
X0059388Y0084982D01*
X0059089Y0084683D02*
X0065377Y0084683D01*
X0065078Y0084385D02*
X0058791Y0084385D01*
X0058492Y0084086D02*
X0065052Y0084086D01*
X0065052Y0083788D02*
X0064848Y0083788D01*
X0065146Y0083489D02*
X0065226Y0083489D01*
X0072016Y0082646D02*
X0072804Y0083433D01*
X0075496Y0081722D02*
X0075500Y0081727D01*
X0075524Y0081724D01*
X0075641Y0081823D01*
X0075785Y0081875D01*
X0075795Y0081896D01*
X0075817Y0081902D01*
X0075894Y0082035D01*
X0076011Y0082134D01*
X0076013Y0082157D01*
X0076032Y0082170D01*
X0076047Y0082253D01*
X0076047Y0081124D01*
X0075859Y0081124D01*
X0075859Y0081359D01*
X0075496Y0081722D01*
X0075520Y0081698D02*
X0076047Y0081698D01*
X0076047Y0081996D02*
X0075872Y0081996D01*
X0075819Y0081399D02*
X0076047Y0081399D01*
X0075335Y0085579D02*
X0075308Y0085579D01*
X0075009Y0085877D02*
X0076047Y0085877D01*
X0079678Y0088564D02*
X0079895Y0088564D01*
X0080193Y0088862D02*
X0079379Y0088862D01*
X0079081Y0089161D02*
X0079903Y0089161D01*
X0079755Y0089459D02*
X0078782Y0089459D01*
X0078484Y0089758D02*
X0079723Y0089758D01*
X0079784Y0090056D02*
X0078422Y0090056D01*
X0078250Y0090355D02*
X0079956Y0090355D01*
X0080143Y0090653D02*
X0079637Y0090653D01*
X0077194Y0090653D02*
X0077181Y0090653D01*
X0077169Y0090653D02*
X0076488Y0090653D01*
X0076675Y0090355D02*
X0076806Y0090355D01*
X0075953Y0089733D02*
X0076741Y0088945D01*
X0076741Y0075953D01*
X0076118Y0073340D02*
X0076092Y0073340D01*
X0075794Y0073041D02*
X0076411Y0073041D01*
X0076710Y0072743D02*
X0075495Y0072743D01*
X0075197Y0072444D02*
X0079269Y0072444D01*
X0079567Y0072146D02*
X0074898Y0072146D01*
X0074600Y0071847D02*
X0079866Y0071847D01*
X0080164Y0071549D02*
X0074301Y0071549D01*
X0074003Y0071250D02*
X0080463Y0071250D01*
X0080761Y0070952D02*
X0073704Y0070952D01*
X0073406Y0070653D02*
X0081060Y0070653D01*
X0081358Y0070355D02*
X0073107Y0070355D01*
X0072809Y0070056D02*
X0081657Y0070056D01*
X0081955Y0069757D02*
X0072510Y0069757D01*
X0072212Y0069459D02*
X0082254Y0069459D01*
X0082552Y0069160D02*
X0067717Y0069160D01*
X0067717Y0068862D02*
X0082851Y0068862D01*
X0083149Y0068563D02*
X0067717Y0068563D01*
X0067451Y0068265D02*
X0083448Y0068265D01*
X0084216Y0069459D02*
X0085797Y0069459D01*
X0085498Y0069757D02*
X0083917Y0069757D01*
X0083619Y0070056D02*
X0085200Y0070056D01*
X0084901Y0070355D02*
X0083320Y0070355D01*
X0083022Y0070653D02*
X0084603Y0070653D01*
X0084304Y0070952D02*
X0082723Y0070952D01*
X0082425Y0071250D02*
X0084006Y0071250D01*
X0082133Y0071549D02*
X0082126Y0071549D01*
X0081952Y0071729D02*
X0081952Y0071729D01*
X0081834Y0071847D02*
X0081828Y0071847D01*
X0081536Y0072146D02*
X0081529Y0072146D01*
X0081237Y0072444D02*
X0081231Y0072444D01*
X0080939Y0072743D02*
X0080932Y0072743D01*
X0080640Y0073041D02*
X0080634Y0073041D01*
X0078970Y0072743D02*
X0077716Y0072743D01*
X0078015Y0073041D02*
X0078672Y0073041D01*
X0078373Y0073340D02*
X0078308Y0073340D01*
X0082753Y0072890D02*
X0083060Y0072890D01*
X0083527Y0073357D01*
X0083527Y0072949D01*
X0083767Y0072710D01*
X0082933Y0072710D01*
X0082753Y0072890D01*
X0082901Y0072743D02*
X0083734Y0072743D01*
X0083527Y0073041D02*
X0083212Y0073041D01*
X0083510Y0073340D02*
X0083527Y0073340D01*
X0086386Y0073748D02*
X0086386Y0079568D01*
X0087695Y0082593D02*
X0087790Y0082593D01*
X0087790Y0082892D02*
X0087397Y0082892D01*
X0087098Y0083190D02*
X0087986Y0083190D01*
X0086800Y0083489D02*
X0090035Y0083489D01*
X0090333Y0083190D02*
X0089275Y0083190D01*
X0089471Y0082892D02*
X0090632Y0082892D01*
X0090930Y0082593D02*
X0089471Y0082593D01*
X0089736Y0083788D02*
X0086501Y0083788D01*
X0086583Y0084086D02*
X0089438Y0084086D01*
X0089139Y0084385D02*
X0086882Y0084385D01*
X0087131Y0084683D02*
X0088841Y0084683D01*
X0088542Y0084982D02*
X0087131Y0084982D01*
X0087131Y0085280D02*
X0088244Y0085280D01*
X0087945Y0085579D02*
X0087093Y0085579D01*
X0086794Y0085877D02*
X0087700Y0085877D01*
X0087700Y0086176D02*
X0086906Y0086176D01*
X0086945Y0086474D02*
X0087700Y0086474D01*
X0087538Y0086773D02*
X0086896Y0086773D01*
X0086726Y0087071D02*
X0087240Y0087071D01*
X0086941Y0087370D02*
X0086371Y0087370D01*
X0086643Y0087668D02*
X0085770Y0087668D01*
X0085472Y0087967D02*
X0086344Y0087967D01*
X0086046Y0088265D02*
X0085173Y0088265D01*
X0084875Y0088564D02*
X0085747Y0088564D01*
X0085449Y0088862D02*
X0084576Y0088862D01*
X0084278Y0089161D02*
X0085150Y0089161D01*
X0084852Y0089459D02*
X0083979Y0089459D01*
X0083681Y0089758D02*
X0084553Y0089758D01*
X0083211Y0088265D02*
X0081518Y0088265D01*
X0081518Y0087967D02*
X0083510Y0087967D01*
X0083808Y0087668D02*
X0081377Y0087668D01*
X0081078Y0087370D02*
X0083628Y0087370D01*
X0083347Y0087071D02*
X0080543Y0087071D01*
X0080543Y0086773D02*
X0083347Y0086773D01*
X0083347Y0086474D02*
X0080543Y0086474D01*
X0080543Y0086176D02*
X0083564Y0086176D01*
X0084710Y0085579D02*
X0084979Y0085579D01*
X0088605Y0087668D02*
X0090247Y0087668D01*
X0090538Y0087370D02*
X0088904Y0087370D01*
X0089088Y0087071D02*
X0090829Y0087071D01*
X0091120Y0086773D02*
X0089088Y0086773D01*
X0089088Y0086474D02*
X0091411Y0086474D01*
X0091702Y0086176D02*
X0089310Y0086176D01*
X0089609Y0085877D02*
X0091993Y0085877D01*
X0092284Y0085579D02*
X0089907Y0085579D01*
X0090206Y0085280D02*
X0092417Y0085280D01*
X0092518Y0084982D02*
X0090504Y0084982D01*
X0094032Y0087668D02*
X0095451Y0087668D01*
X0076872Y0092146D02*
X0076609Y0092146D01*
X0070734Y0075658D02*
X0070734Y0075239D01*
X0071216Y0074756D01*
X0069565Y0073105D01*
X0068190Y0073105D01*
X0068185Y0073110D01*
X0070734Y0075658D01*
X0070734Y0075429D02*
X0070505Y0075429D01*
X0070206Y0075131D02*
X0070842Y0075131D01*
X0071141Y0074832D02*
X0069908Y0074832D01*
X0069609Y0074534D02*
X0070994Y0074534D01*
X0070695Y0074235D02*
X0069311Y0074235D01*
X0069012Y0073937D02*
X0070397Y0073937D01*
X0070098Y0073638D02*
X0068714Y0073638D01*
X0068415Y0073340D02*
X0069800Y0073340D01*
X0065528Y0069160D02*
X0064039Y0069160D01*
X0063741Y0068862D02*
X0065528Y0068862D01*
X0065528Y0068563D02*
X0063442Y0068563D01*
X0063144Y0068265D02*
X0065794Y0068265D01*
X0066092Y0067966D02*
X0063167Y0067966D01*
X0063465Y0067668D02*
X0086210Y0067668D01*
X0085912Y0067966D02*
X0067153Y0067966D01*
X0063583Y0067369D02*
X0086509Y0067369D01*
X0086807Y0067071D02*
X0063583Y0067071D01*
X0063583Y0066772D02*
X0087106Y0066772D01*
X0087404Y0066474D02*
X0063415Y0066474D01*
X0063116Y0066175D02*
X0087703Y0066175D01*
X0088001Y0065877D02*
X0060755Y0065877D01*
X0060457Y0065578D02*
X0088300Y0065578D01*
X0088598Y0065280D02*
X0060158Y0065280D01*
X0059860Y0064981D02*
X0088897Y0064981D01*
X0089195Y0064683D02*
X0059561Y0064683D01*
X0059263Y0064384D02*
X0089494Y0064384D01*
X0089792Y0064086D02*
X0059127Y0064086D01*
X0059127Y0063787D02*
X0090091Y0063787D01*
X0090389Y0063489D02*
X0059127Y0063489D01*
X0059127Y0063190D02*
X0090688Y0063190D01*
X0090986Y0062892D02*
X0059127Y0062892D01*
X0059127Y0062593D02*
X0091285Y0062593D01*
X0091583Y0062295D02*
X0059127Y0062295D01*
X0059127Y0061996D02*
X0091882Y0061996D01*
X0092180Y0061698D02*
X0058939Y0061698D01*
X0058640Y0061399D02*
X0092479Y0061399D01*
X0092777Y0061101D02*
X0058342Y0061101D01*
X0058043Y0060802D02*
X0093076Y0060802D01*
X0093374Y0060504D02*
X0057946Y0060504D01*
X0057946Y0060205D02*
X0093673Y0060205D01*
X0093971Y0059907D02*
X0057946Y0059907D01*
X0057946Y0059608D02*
X0094270Y0059608D01*
X0094568Y0059310D02*
X0057946Y0059310D01*
X0057946Y0059011D02*
X0094867Y0059011D01*
X0095165Y0058713D02*
X0057946Y0058713D01*
X0057946Y0058414D02*
X0095464Y0058414D01*
X0095762Y0058116D02*
X0057946Y0058116D01*
X0053512Y0054496D02*
X0055284Y0052725D01*
X0055284Y0050547D01*
X0058501Y0047330D01*
X0066898Y0047330D01*
X0069260Y0044968D01*
X0070348Y0048444D02*
X0070348Y0048444D01*
X0067592Y0051250D02*
X0062377Y0051250D01*
X0061000Y0051847D02*
X0060714Y0051847D01*
X0060789Y0051548D02*
X0060502Y0051548D01*
X0060789Y0051250D02*
X0060203Y0051250D01*
X0045497Y0053625D02*
X0044659Y0054463D01*
X0044659Y0070252D01*
X0045685Y0071279D01*
X0045685Y0074541D01*
X0046765Y0075621D01*
X0046765Y0071073D01*
X0045497Y0069805D01*
X0045497Y0053625D01*
X0045497Y0053638D02*
X0045484Y0053638D01*
X0045497Y0053936D02*
X0045186Y0053936D01*
X0044887Y0054235D02*
X0045497Y0054235D01*
X0045497Y0054533D02*
X0044659Y0054533D01*
X0044659Y0054832D02*
X0045497Y0054832D01*
X0045497Y0055130D02*
X0044659Y0055130D01*
X0044659Y0055429D02*
X0045497Y0055429D01*
X0045497Y0055727D02*
X0044659Y0055727D01*
X0044659Y0056026D02*
X0045497Y0056026D01*
X0045497Y0056324D02*
X0044659Y0056324D01*
X0044659Y0056623D02*
X0045497Y0056623D01*
X0045497Y0056921D02*
X0044659Y0056921D01*
X0044659Y0057220D02*
X0045497Y0057220D01*
X0045497Y0057519D02*
X0044659Y0057519D01*
X0044659Y0057817D02*
X0045497Y0057817D01*
X0045497Y0058116D02*
X0044659Y0058116D01*
X0044659Y0058414D02*
X0045497Y0058414D01*
X0045497Y0058713D02*
X0044659Y0058713D01*
X0044659Y0059011D02*
X0045497Y0059011D01*
X0045497Y0059310D02*
X0044659Y0059310D01*
X0044659Y0059608D02*
X0045497Y0059608D01*
X0045497Y0059907D02*
X0044659Y0059907D01*
X0044659Y0060205D02*
X0045497Y0060205D01*
X0045497Y0060504D02*
X0044659Y0060504D01*
X0044659Y0060802D02*
X0045497Y0060802D01*
X0045497Y0061101D02*
X0044659Y0061101D01*
X0044659Y0061399D02*
X0045497Y0061399D01*
X0045497Y0061698D02*
X0044659Y0061698D01*
X0044659Y0061996D02*
X0045497Y0061996D01*
X0045497Y0062295D02*
X0044659Y0062295D01*
X0044659Y0062593D02*
X0045497Y0062593D01*
X0045497Y0062892D02*
X0044659Y0062892D01*
X0044659Y0063190D02*
X0045497Y0063190D01*
X0045497Y0063489D02*
X0044659Y0063489D01*
X0044659Y0063787D02*
X0045497Y0063787D01*
X0045497Y0064086D02*
X0044659Y0064086D01*
X0044659Y0064384D02*
X0045497Y0064384D01*
X0045497Y0064683D02*
X0044659Y0064683D01*
X0044659Y0064981D02*
X0045497Y0064981D01*
X0045497Y0065280D02*
X0044659Y0065280D01*
X0044659Y0065578D02*
X0045497Y0065578D01*
X0045497Y0065877D02*
X0044659Y0065877D01*
X0044659Y0066175D02*
X0045497Y0066175D01*
X0045497Y0066474D02*
X0044659Y0066474D01*
X0044659Y0066772D02*
X0045497Y0066772D01*
X0045497Y0067071D02*
X0044659Y0067071D01*
X0044659Y0067369D02*
X0045497Y0067369D01*
X0045497Y0067668D02*
X0044659Y0067668D01*
X0044659Y0067966D02*
X0045497Y0067966D01*
X0045497Y0068265D02*
X0044659Y0068265D01*
X0044659Y0068563D02*
X0045497Y0068563D01*
X0045497Y0068862D02*
X0044659Y0068862D01*
X0044659Y0069160D02*
X0045497Y0069160D01*
X0045497Y0069459D02*
X0044659Y0069459D01*
X0044659Y0069757D02*
X0045497Y0069757D01*
X0045748Y0070056D02*
X0044659Y0070056D01*
X0044761Y0070355D02*
X0046047Y0070355D01*
X0046345Y0070653D02*
X0045059Y0070653D01*
X0045358Y0070952D02*
X0046644Y0070952D01*
X0046765Y0071250D02*
X0045656Y0071250D01*
X0045685Y0071549D02*
X0046765Y0071549D01*
X0046765Y0071847D02*
X0045685Y0071847D01*
X0045685Y0072146D02*
X0046765Y0072146D01*
X0046765Y0072444D02*
X0045685Y0072444D01*
X0045685Y0072743D02*
X0046765Y0072743D01*
X0046765Y0073041D02*
X0045685Y0073041D01*
X0045685Y0073340D02*
X0046765Y0073340D01*
X0046765Y0073638D02*
X0045685Y0073638D01*
X0045685Y0073937D02*
X0046765Y0073937D01*
X0046765Y0074235D02*
X0045685Y0074235D01*
X0045685Y0074534D02*
X0046765Y0074534D01*
X0046765Y0074832D02*
X0045976Y0074832D01*
X0046275Y0075131D02*
X0046765Y0075131D01*
X0046765Y0075429D02*
X0046573Y0075429D01*
X0045507Y0076325D02*
X0045344Y0076325D01*
X0045374Y0076355D02*
X0045781Y0076761D01*
X0045781Y0078422D01*
X0047614Y0080255D01*
X0047614Y0079770D01*
X0048256Y0079129D01*
X0048311Y0079129D01*
X0044795Y0075613D01*
X0044795Y0075776D01*
X0045374Y0076355D01*
X0045208Y0076026D02*
X0045046Y0076026D01*
X0044910Y0075728D02*
X0044795Y0075728D01*
X0045643Y0076623D02*
X0045805Y0076623D01*
X0045781Y0076922D02*
X0046104Y0076922D01*
X0046402Y0077220D02*
X0045781Y0077220D01*
X0045781Y0077519D02*
X0046701Y0077519D01*
X0046999Y0077817D02*
X0045781Y0077817D01*
X0045781Y0078116D02*
X0047298Y0078116D01*
X0047596Y0078414D02*
X0045781Y0078414D01*
X0046072Y0078713D02*
X0047895Y0078713D01*
X0048193Y0079011D02*
X0046370Y0079011D01*
X0046669Y0079310D02*
X0048074Y0079310D01*
X0047776Y0079608D02*
X0046967Y0079608D01*
X0047266Y0079907D02*
X0047614Y0079907D01*
X0047614Y0080205D02*
X0047564Y0080205D01*
X0044391Y0082892D02*
X0042496Y0082892D01*
X0042703Y0083190D02*
X0044690Y0083190D01*
X0044988Y0083489D02*
X0042911Y0083489D01*
X0043119Y0083788D02*
X0045287Y0083788D01*
X0045585Y0084086D02*
X0043327Y0084086D01*
X0043625Y0084385D02*
X0045884Y0084385D01*
X0046182Y0084683D02*
X0043939Y0084683D01*
X0044253Y0084982D02*
X0046481Y0084982D01*
X0044093Y0082593D02*
X0042288Y0082593D01*
X0042080Y0082295D02*
X0043794Y0082295D01*
X0043496Y0081996D02*
X0041872Y0081996D01*
X0041664Y0081698D02*
X0043197Y0081698D01*
X0042899Y0081399D02*
X0041457Y0081399D01*
X0041249Y0081101D02*
X0042600Y0081101D01*
X0042302Y0080802D02*
X0041312Y0080802D01*
X0041667Y0080504D02*
X0042070Y0080504D01*
X0042070Y0080205D02*
X0041789Y0080205D01*
X0041804Y0079907D02*
X0042070Y0079907D01*
X0042070Y0079608D02*
X0041727Y0079608D01*
X0041538Y0079310D02*
X0042070Y0079310D01*
X0042070Y0079011D02*
X0040930Y0079011D01*
X0040614Y0078713D02*
X0041905Y0078713D01*
X0041607Y0078414D02*
X0040614Y0078414D01*
X0040614Y0078116D02*
X0041308Y0078116D01*
X0041009Y0077817D02*
X0040614Y0077817D01*
X0040614Y0077519D02*
X0040711Y0077519D01*
X0039227Y0077519D02*
X0038892Y0077519D01*
X0039021Y0077817D02*
X0039227Y0077817D01*
X0039112Y0078031D02*
X0039227Y0078195D01*
X0039227Y0075882D01*
X0038769Y0076339D01*
X0038386Y0076339D01*
X0039112Y0078031D01*
X0039171Y0078116D02*
X0039227Y0078116D01*
X0039227Y0077220D02*
X0038764Y0077220D01*
X0038636Y0076922D02*
X0039227Y0076922D01*
X0039227Y0076623D02*
X0038508Y0076623D01*
X0038783Y0076325D02*
X0039227Y0076325D01*
X0039227Y0076026D02*
X0039082Y0076026D01*
X0039227Y0074607D02*
X0039227Y0074078D01*
X0036297Y0071148D01*
X0036138Y0070989D01*
X0036181Y0071201D01*
X0037571Y0074440D01*
X0037862Y0074150D01*
X0038769Y0074150D01*
X0039227Y0074607D01*
X0039227Y0074534D02*
X0039153Y0074534D01*
X0039227Y0074235D02*
X0038854Y0074235D01*
X0039086Y0073937D02*
X0037355Y0073937D01*
X0037483Y0074235D02*
X0037776Y0074235D01*
X0037227Y0073638D02*
X0038787Y0073638D01*
X0038489Y0073340D02*
X0037099Y0073340D01*
X0036971Y0073041D02*
X0038190Y0073041D01*
X0037892Y0072743D02*
X0036843Y0072743D01*
X0036715Y0072444D02*
X0037593Y0072444D01*
X0037295Y0072146D02*
X0036587Y0072146D01*
X0036459Y0071847D02*
X0036996Y0071847D01*
X0036698Y0071549D02*
X0036330Y0071549D01*
X0036399Y0071250D02*
X0036202Y0071250D01*
X0036584Y0070454D02*
X0039920Y0073790D01*
X0039920Y0079054D01*
X0040841Y0079975D01*
X0051925Y0077519D02*
X0052464Y0077519D01*
X0052464Y0077817D02*
X0052224Y0077817D01*
X0058339Y0072311D02*
X0058512Y0072311D01*
X0061353Y0066474D02*
X0061562Y0066474D01*
X0061861Y0066175D02*
X0061054Y0066175D01*
X0040614Y0064839D02*
X0040614Y0057933D01*
X0040422Y0057741D01*
X0040414Y0057749D01*
X0040407Y0057756D01*
X0040407Y0063835D01*
X0040407Y0064410D01*
X0040039Y0064777D01*
X0040039Y0065414D01*
X0040614Y0064839D01*
X0040614Y0064683D02*
X0040134Y0064683D01*
X0040039Y0064981D02*
X0040472Y0064981D01*
X0040173Y0065280D02*
X0040039Y0065280D01*
X0040407Y0064384D02*
X0040614Y0064384D01*
X0040614Y0064086D02*
X0040407Y0064086D01*
X0040407Y0063787D02*
X0040614Y0063787D01*
X0040614Y0063489D02*
X0040407Y0063489D01*
X0040407Y0063190D02*
X0040614Y0063190D01*
X0040614Y0062892D02*
X0040407Y0062892D01*
X0040407Y0062593D02*
X0040614Y0062593D01*
X0040614Y0062295D02*
X0040407Y0062295D01*
X0040407Y0061996D02*
X0040614Y0061996D01*
X0040614Y0061698D02*
X0040407Y0061698D01*
X0040407Y0061399D02*
X0040614Y0061399D01*
X0040614Y0061101D02*
X0040407Y0061101D01*
X0040407Y0060802D02*
X0040614Y0060802D01*
X0040614Y0060504D02*
X0040407Y0060504D01*
X0040407Y0060205D02*
X0040614Y0060205D01*
X0040614Y0059907D02*
X0040407Y0059907D01*
X0040407Y0059608D02*
X0040614Y0059608D01*
X0040614Y0059310D02*
X0040407Y0059310D01*
X0040407Y0059011D02*
X0040614Y0059011D01*
X0040614Y0058713D02*
X0040407Y0058713D01*
X0040407Y0058414D02*
X0040614Y0058414D01*
X0040614Y0058116D02*
X0040407Y0058116D01*
X0040407Y0057817D02*
X0040497Y0057817D01*
X0039433Y0056756D02*
X0039433Y0055394D01*
X0039168Y0055129D01*
X0039168Y0057013D01*
X0039426Y0056756D01*
X0039433Y0056756D01*
X0039433Y0056623D02*
X0039168Y0056623D01*
X0039168Y0056921D02*
X0039260Y0056921D01*
X0039168Y0056324D02*
X0039433Y0056324D01*
X0039433Y0056026D02*
X0039168Y0056026D01*
X0039168Y0055727D02*
X0039433Y0055727D01*
X0039433Y0055429D02*
X0039168Y0055429D01*
X0039168Y0055130D02*
X0039169Y0055130D01*
X0035401Y0053339D02*
X0035333Y0053339D01*
X0043010Y0043797D02*
X0043010Y0042200D01*
X0037778Y0067127D02*
X0037278Y0067127D01*
X0037278Y0070167D01*
X0037778Y0070667D01*
X0037778Y0067127D01*
X0037778Y0067369D02*
X0037278Y0067369D01*
X0037278Y0067668D02*
X0037778Y0067668D01*
X0037778Y0067966D02*
X0037278Y0067966D01*
X0037278Y0068265D02*
X0037778Y0068265D01*
X0037778Y0068563D02*
X0037278Y0068563D01*
X0037278Y0068862D02*
X0037778Y0068862D01*
X0037778Y0069160D02*
X0037278Y0069160D01*
X0037278Y0069459D02*
X0037778Y0069459D01*
X0037778Y0069757D02*
X0037278Y0069757D01*
X0037278Y0070056D02*
X0037778Y0070056D01*
X0037778Y0070355D02*
X0037466Y0070355D01*
X0037764Y0070653D02*
X0037778Y0070653D01*
X0099922Y0067071D02*
X0106241Y0067071D01*
X0106241Y0067369D02*
X0100110Y0067369D01*
X0100408Y0067668D02*
X0106219Y0067668D01*
X0106148Y0067966D02*
X0100707Y0067966D01*
X0101005Y0068265D02*
X0106078Y0068265D01*
X0106008Y0068563D02*
X0101304Y0068563D01*
X0101602Y0068862D02*
X0105937Y0068862D01*
X0105867Y0069160D02*
X0101901Y0069160D01*
X0102199Y0069459D02*
X0105797Y0069459D01*
X0105726Y0069757D02*
X0105125Y0069757D01*
X0105423Y0070056D02*
X0105656Y0070056D01*
X0105585Y0070355D02*
X0105552Y0070355D01*
X0103789Y0069757D02*
X0102498Y0069757D01*
X0102796Y0070056D02*
X0103491Y0070056D01*
X0103362Y0070355D02*
X0103095Y0070355D01*
X0106241Y0066772D02*
X0099922Y0066772D01*
X0099922Y0066474D02*
X0106241Y0066474D01*
D16*
X0099478Y0065619D02*
X0099460Y0065517D01*
X0099409Y0065428D01*
X0099330Y0065361D01*
X0099233Y0065326D01*
X0099130Y0065326D01*
X0099033Y0065361D01*
X0098954Y0065428D01*
X0098903Y0065517D01*
X0098885Y0065619D01*
X0098903Y0065720D01*
X0098954Y0065809D01*
X0099033Y0065876D01*
X0099130Y0065911D01*
X0099233Y0065911D01*
X0099330Y0065876D01*
X0099409Y0065809D01*
X0099460Y0065720D01*
X0099478Y0065619D01*
X0099469Y0065565D02*
X0098894Y0065565D01*
X0098928Y0065763D02*
X0099435Y0065763D01*
X0099336Y0065366D02*
X0099027Y0065366D01*
X0103147Y0073728D02*
X0103068Y0073794D01*
X0103017Y0073883D01*
X0102999Y0073985D01*
X0103017Y0074086D01*
X0103068Y0074175D01*
X0103147Y0074242D01*
X0103244Y0074277D01*
X0103347Y0074277D01*
X0103444Y0074242D01*
X0103523Y0074175D01*
X0103575Y0074086D01*
X0103593Y0073985D01*
X0103575Y0073883D01*
X0103523Y0073794D01*
X0103444Y0073728D01*
X0103347Y0073692D01*
X0103244Y0073692D01*
X0103147Y0073728D01*
X0103212Y0073704D02*
X0103379Y0073704D01*
X0103578Y0073902D02*
X0103013Y0073902D01*
X0103025Y0074101D02*
X0103566Y0074101D01*
X0097074Y0078026D02*
X0096995Y0077960D01*
X0096898Y0077925D01*
X0096795Y0077925D01*
X0096698Y0077960D01*
X0096619Y0078026D01*
X0096568Y0078115D01*
X0096550Y0078217D01*
X0096568Y0078318D01*
X0096619Y0078408D01*
X0096698Y0078474D01*
X0096795Y0078509D01*
X0096898Y0078509D01*
X0096995Y0078474D01*
X0097074Y0078408D01*
X0097126Y0078318D01*
X0097144Y0078217D01*
X0097126Y0078115D01*
X0097074Y0078026D01*
X0097100Y0078071D02*
X0096593Y0078071D01*
X0096559Y0078270D02*
X0097134Y0078270D01*
X0097002Y0078468D02*
X0096691Y0078468D01*
X0095911Y0078271D02*
X0095841Y0078409D01*
X0095732Y0078518D01*
X0095594Y0078588D01*
X0095441Y0078612D01*
X0095289Y0078588D01*
X0095151Y0078518D01*
X0095042Y0078409D01*
X0094972Y0078271D01*
X0094948Y0078119D01*
X0094972Y0077966D01*
X0095042Y0077828D01*
X0095151Y0077719D01*
X0095289Y0077649D01*
X0095441Y0077625D01*
X0095594Y0077649D01*
X0095732Y0077719D01*
X0095841Y0077828D01*
X0095911Y0077966D01*
X0095935Y0078119D01*
X0095911Y0078271D01*
X0095911Y0078270D02*
X0094972Y0078270D01*
X0094955Y0078071D02*
X0095928Y0078071D01*
X0095863Y0077873D02*
X0095019Y0077873D01*
X0095239Y0077674D02*
X0095643Y0077674D01*
X0095781Y0078468D02*
X0095101Y0078468D01*
X0091725Y0076092D02*
X0091628Y0076127D01*
X0091525Y0076127D01*
X0091428Y0076092D01*
X0091349Y0076026D01*
X0091298Y0075937D01*
X0091280Y0075835D01*
X0091298Y0075734D01*
X0091349Y0075644D01*
X0091428Y0075578D01*
X0091525Y0075543D01*
X0091628Y0075543D01*
X0091725Y0075578D01*
X0091804Y0075644D01*
X0091856Y0075734D01*
X0091874Y0075835D01*
X0091856Y0075937D01*
X0091804Y0076026D01*
X0091725Y0076092D01*
X0091732Y0076086D02*
X0091421Y0076086D01*
X0091289Y0075888D02*
X0091864Y0075888D01*
X0091830Y0075689D02*
X0091324Y0075689D01*
X0092311Y0075206D02*
X0092362Y0075295D01*
X0092441Y0075361D01*
X0092538Y0075397D01*
X0092641Y0075397D01*
X0092738Y0075361D01*
X0092817Y0075295D01*
X0092869Y0075206D01*
X0092887Y0075104D01*
X0092869Y0075003D01*
X0092817Y0074914D01*
X0092738Y0074847D01*
X0092641Y0074812D01*
X0092538Y0074812D01*
X0092441Y0074847D01*
X0092362Y0074914D01*
X0092311Y0075003D01*
X0092293Y0075104D01*
X0092311Y0075206D01*
X0092361Y0075292D02*
X0092819Y0075292D01*
X0092885Y0075093D02*
X0092295Y0075093D01*
X0092385Y0074895D02*
X0092795Y0074895D01*
X0088556Y0077407D02*
X0088469Y0077320D01*
X0088359Y0077264D01*
X0088237Y0077244D01*
X0088114Y0077264D01*
X0088004Y0077320D01*
X0087917Y0077407D01*
X0087861Y0077518D01*
X0087841Y0077640D01*
X0087861Y0077762D01*
X0087917Y0077872D01*
X0088004Y0077960D01*
X0088114Y0078016D01*
X0088237Y0078035D01*
X0088359Y0078016D01*
X0088469Y0077960D01*
X0088556Y0077872D01*
X0088613Y0077762D01*
X0088632Y0077640D01*
X0088613Y0077518D01*
X0088556Y0077407D01*
X0088591Y0077476D02*
X0087882Y0077476D01*
X0087847Y0077674D02*
X0088626Y0077674D01*
X0088556Y0077873D02*
X0087917Y0077873D01*
X0088088Y0077277D02*
X0088385Y0077277D01*
X0082480Y0083243D02*
X0082401Y0083176D01*
X0082304Y0083141D01*
X0082201Y0083141D01*
X0082104Y0083176D01*
X0082025Y0083243D01*
X0081973Y0083332D01*
X0081956Y0083433D01*
X0081973Y0083535D01*
X0082025Y0083624D01*
X0082104Y0083691D01*
X0082201Y0083726D01*
X0082304Y0083726D01*
X0082401Y0083691D01*
X0082480Y0083624D01*
X0082531Y0083535D01*
X0082549Y0083433D01*
X0082531Y0083332D01*
X0082480Y0083243D01*
X0082468Y0083232D02*
X0082037Y0083232D01*
X0081956Y0083431D02*
X0082549Y0083431D01*
X0082474Y0083629D02*
X0082031Y0083629D01*
X0080974Y0083433D02*
X0080957Y0083332D01*
X0080905Y0083243D01*
X0080826Y0083176D01*
X0080729Y0083141D01*
X0080626Y0083141D01*
X0080529Y0083176D01*
X0080450Y0083243D01*
X0080399Y0083332D01*
X0080381Y0083433D01*
X0080399Y0083535D01*
X0080450Y0083624D01*
X0080529Y0083691D01*
X0080626Y0083726D01*
X0080729Y0083726D01*
X0080826Y0083691D01*
X0080905Y0083624D01*
X0080957Y0083535D01*
X0080974Y0083433D01*
X0080974Y0083431D02*
X0080381Y0083431D01*
X0080456Y0083629D02*
X0080899Y0083629D01*
X0080893Y0083232D02*
X0080462Y0083232D01*
X0079399Y0083431D02*
X0078806Y0083431D01*
X0078806Y0083433D02*
X0078824Y0083535D01*
X0078875Y0083624D01*
X0078954Y0083691D01*
X0079051Y0083726D01*
X0079154Y0083726D01*
X0079251Y0083691D01*
X0079330Y0083624D01*
X0079382Y0083535D01*
X0079400Y0083433D01*
X0079382Y0083332D01*
X0079330Y0083243D01*
X0079251Y0083176D01*
X0079154Y0083141D01*
X0079051Y0083141D01*
X0078954Y0083176D01*
X0078875Y0083243D01*
X0078824Y0083332D01*
X0078806Y0083433D01*
X0078882Y0083629D02*
X0079324Y0083629D01*
X0079318Y0083232D02*
X0078888Y0083232D01*
X0080450Y0084817D02*
X0080399Y0084907D01*
X0080381Y0085008D01*
X0080399Y0085110D01*
X0080450Y0085199D01*
X0080529Y0085265D01*
X0080626Y0085301D01*
X0080729Y0085301D01*
X0080826Y0085265D01*
X0080905Y0085199D01*
X0080957Y0085110D01*
X0080974Y0085008D01*
X0080957Y0084907D01*
X0080905Y0084817D01*
X0080826Y0084751D01*
X0080729Y0084716D01*
X0080626Y0084716D01*
X0080529Y0084751D01*
X0080450Y0084817D01*
X0080448Y0084821D02*
X0080907Y0084821D01*
X0080973Y0085019D02*
X0080383Y0085019D01*
X0080472Y0085218D02*
X0080883Y0085218D01*
X0081957Y0085019D02*
X0082547Y0085019D01*
X0082549Y0085008D02*
X0082531Y0084907D01*
X0082480Y0084817D01*
X0082401Y0084751D01*
X0082304Y0084716D01*
X0082201Y0084716D01*
X0082104Y0084751D01*
X0082025Y0084817D01*
X0081973Y0084907D01*
X0081956Y0085008D01*
X0081973Y0085110D01*
X0082025Y0085199D01*
X0082104Y0085265D01*
X0082201Y0085301D01*
X0082304Y0085301D01*
X0082401Y0085265D01*
X0082480Y0085199D01*
X0082531Y0085110D01*
X0082549Y0085008D01*
X0082482Y0084821D02*
X0082023Y0084821D01*
X0082047Y0085218D02*
X0082458Y0085218D01*
X0085714Y0086363D02*
X0085765Y0086274D01*
X0085844Y0086208D01*
X0085941Y0086173D01*
X0086044Y0086173D01*
X0086141Y0086208D01*
X0086220Y0086274D01*
X0086271Y0086363D01*
X0086289Y0086465D01*
X0086271Y0086566D01*
X0086220Y0086656D01*
X0086141Y0086722D01*
X0086044Y0086757D01*
X0085941Y0086757D01*
X0085844Y0086722D01*
X0085765Y0086656D01*
X0085714Y0086566D01*
X0085696Y0086465D01*
X0085714Y0086363D01*
X0085706Y0086409D02*
X0086279Y0086409D01*
X0086248Y0086607D02*
X0085737Y0086607D01*
X0085841Y0086210D02*
X0086144Y0086210D01*
X0080905Y0089542D02*
X0080826Y0089476D01*
X0080729Y0089440D01*
X0080626Y0089440D01*
X0080529Y0089476D01*
X0080450Y0089542D01*
X0080399Y0089631D01*
X0080381Y0089733D01*
X0080399Y0089834D01*
X0080450Y0089923D01*
X0080529Y0089990D01*
X0080626Y0090025D01*
X0080729Y0090025D01*
X0080826Y0089990D01*
X0080905Y0089923D01*
X0080957Y0089834D01*
X0080974Y0089733D01*
X0080957Y0089631D01*
X0080905Y0089542D01*
X0080930Y0089585D02*
X0080425Y0089585D01*
X0080390Y0089783D02*
X0080965Y0089783D01*
X0080835Y0089982D02*
X0080520Y0089982D01*
X0077825Y0089733D02*
X0077807Y0089631D01*
X0077755Y0089542D01*
X0077676Y0089476D01*
X0077580Y0089440D01*
X0077476Y0089440D01*
X0077380Y0089476D01*
X0077301Y0089542D01*
X0077249Y0089631D01*
X0077231Y0089733D01*
X0077249Y0089834D01*
X0077301Y0089923D01*
X0077380Y0089990D01*
X0077476Y0090025D01*
X0077580Y0090025D01*
X0077676Y0089990D01*
X0077755Y0089923D01*
X0077807Y0089834D01*
X0077825Y0089733D01*
X0077816Y0089783D02*
X0077240Y0089783D01*
X0077276Y0089585D02*
X0077780Y0089585D01*
X0077686Y0089982D02*
X0077370Y0089982D01*
X0076241Y0089783D02*
X0075665Y0089783D01*
X0075656Y0089733D02*
X0075674Y0089834D01*
X0075726Y0089923D01*
X0075805Y0089990D01*
X0075902Y0090025D01*
X0076005Y0090025D01*
X0076102Y0089990D01*
X0076181Y0089923D01*
X0076232Y0089834D01*
X0076250Y0089733D01*
X0076232Y0089631D01*
X0076181Y0089542D01*
X0076102Y0089476D01*
X0076005Y0089440D01*
X0075902Y0089440D01*
X0075805Y0089476D01*
X0075726Y0089542D01*
X0075674Y0089631D01*
X0075656Y0089733D01*
X0075701Y0089585D02*
X0076205Y0089585D01*
X0076111Y0089982D02*
X0075795Y0089982D01*
X0074606Y0091117D02*
X0074527Y0091050D01*
X0074430Y0091015D01*
X0074327Y0091015D01*
X0074230Y0091050D01*
X0074151Y0091117D01*
X0074099Y0091206D01*
X0074081Y0091307D01*
X0074099Y0091409D01*
X0074151Y0091498D01*
X0074230Y0091565D01*
X0074327Y0091600D01*
X0074430Y0091600D01*
X0074527Y0091565D01*
X0074606Y0091498D01*
X0074657Y0091409D01*
X0074675Y0091307D01*
X0074657Y0091206D01*
X0074606Y0091117D01*
X0074638Y0091173D02*
X0074118Y0091173D01*
X0074093Y0091371D02*
X0074664Y0091371D01*
X0074512Y0091570D02*
X0074245Y0091570D01*
X0073089Y0091371D02*
X0072518Y0091371D01*
X0072525Y0091409D02*
X0072576Y0091498D01*
X0072655Y0091565D01*
X0072752Y0091600D01*
X0072855Y0091600D01*
X0072952Y0091565D01*
X0073031Y0091498D01*
X0073082Y0091409D01*
X0073100Y0091307D01*
X0073082Y0091206D01*
X0073031Y0091117D01*
X0072952Y0091050D01*
X0072855Y0091015D01*
X0072752Y0091015D01*
X0072655Y0091050D01*
X0072576Y0091117D01*
X0072525Y0091206D01*
X0072507Y0091307D01*
X0072525Y0091409D01*
X0072670Y0091570D02*
X0072937Y0091570D01*
X0073063Y0091173D02*
X0072544Y0091173D01*
X0071456Y0089923D02*
X0071377Y0089990D01*
X0071280Y0090025D01*
X0071177Y0090025D01*
X0071080Y0089990D01*
X0071001Y0089923D01*
X0070950Y0089834D01*
X0070932Y0089733D01*
X0070950Y0089631D01*
X0071001Y0089542D01*
X0071080Y0089476D01*
X0071177Y0089440D01*
X0071280Y0089440D01*
X0071377Y0089476D01*
X0071456Y0089542D01*
X0071508Y0089631D01*
X0071526Y0089733D01*
X0071508Y0089834D01*
X0071456Y0089923D01*
X0071387Y0089982D02*
X0071071Y0089982D01*
X0070941Y0089783D02*
X0071517Y0089783D01*
X0071481Y0089585D02*
X0070977Y0089585D01*
X0070612Y0089188D02*
X0070271Y0089188D01*
X0070293Y0089206D02*
X0070390Y0089242D01*
X0070493Y0089242D01*
X0070590Y0089206D01*
X0070669Y0089140D01*
X0070720Y0089051D01*
X0070738Y0088949D01*
X0070720Y0088848D01*
X0070669Y0088759D01*
X0070590Y0088692D01*
X0070493Y0088657D01*
X0070390Y0088657D01*
X0070293Y0088692D01*
X0070214Y0088759D01*
X0070162Y0088848D01*
X0070145Y0088949D01*
X0070162Y0089051D01*
X0070214Y0089140D01*
X0070293Y0089206D01*
X0070152Y0088989D02*
X0070731Y0088989D01*
X0070687Y0088791D02*
X0070195Y0088791D01*
X0069828Y0088394D02*
X0069480Y0088394D01*
X0069506Y0088415D02*
X0069602Y0088450D01*
X0069705Y0088450D01*
X0069802Y0088415D01*
X0069881Y0088349D01*
X0069933Y0088259D01*
X0069951Y0088158D01*
X0069933Y0088056D01*
X0069881Y0087967D01*
X0069802Y0087901D01*
X0069705Y0087866D01*
X0069602Y0087866D01*
X0069506Y0087901D01*
X0069427Y0087967D01*
X0069375Y0088056D01*
X0069357Y0088158D01*
X0069375Y0088259D01*
X0069427Y0088349D01*
X0069506Y0088415D01*
X0069364Y0088195D02*
X0069944Y0088195D01*
X0069898Y0087997D02*
X0069409Y0087997D01*
X0070932Y0088158D02*
X0070950Y0088259D01*
X0071001Y0088349D01*
X0071080Y0088415D01*
X0071177Y0088450D01*
X0071280Y0088450D01*
X0071377Y0088415D01*
X0071456Y0088349D01*
X0071508Y0088259D01*
X0071526Y0088158D01*
X0071508Y0088056D01*
X0071456Y0087967D01*
X0071377Y0087901D01*
X0071280Y0087866D01*
X0071177Y0087866D01*
X0071080Y0087901D01*
X0071001Y0087967D01*
X0070950Y0088056D01*
X0070932Y0088158D01*
X0070938Y0088195D02*
X0071519Y0088195D01*
X0071473Y0087997D02*
X0070984Y0087997D01*
X0071055Y0088394D02*
X0071402Y0088394D01*
X0071280Y0086875D02*
X0071377Y0086840D01*
X0071456Y0086774D01*
X0071508Y0086685D01*
X0071526Y0086583D01*
X0071508Y0086482D01*
X0071456Y0086392D01*
X0071377Y0086326D01*
X0071280Y0086291D01*
X0071177Y0086291D01*
X0071080Y0086326D01*
X0071001Y0086392D01*
X0070950Y0086482D01*
X0070932Y0086583D01*
X0070950Y0086685D01*
X0071001Y0086774D01*
X0071080Y0086840D01*
X0071177Y0086875D01*
X0071280Y0086875D01*
X0071418Y0086806D02*
X0071039Y0086806D01*
X0070936Y0086607D02*
X0071521Y0086607D01*
X0071466Y0086409D02*
X0070992Y0086409D01*
X0072507Y0086583D02*
X0072525Y0086685D01*
X0072576Y0086774D01*
X0072655Y0086840D01*
X0072752Y0086875D01*
X0072855Y0086875D01*
X0072952Y0086840D01*
X0073031Y0086774D01*
X0073082Y0086685D01*
X0073100Y0086583D01*
X0073082Y0086482D01*
X0073031Y0086392D01*
X0072952Y0086326D01*
X0072855Y0086291D01*
X0072752Y0086291D01*
X0072655Y0086326D01*
X0072576Y0086392D01*
X0072525Y0086482D01*
X0072507Y0086583D01*
X0072511Y0086607D02*
X0073096Y0086607D01*
X0073040Y0086409D02*
X0072567Y0086409D01*
X0072614Y0086806D02*
X0072993Y0086806D01*
X0074151Y0087967D02*
X0074099Y0088056D01*
X0074081Y0088158D01*
X0074099Y0088259D01*
X0074151Y0088349D01*
X0074230Y0088415D01*
X0074327Y0088450D01*
X0074430Y0088450D01*
X0074527Y0088415D01*
X0074606Y0088349D01*
X0074657Y0088259D01*
X0074675Y0088158D01*
X0074657Y0088056D01*
X0074606Y0087967D01*
X0074527Y0087901D01*
X0074430Y0087866D01*
X0074327Y0087866D01*
X0074230Y0087901D01*
X0074151Y0087967D01*
X0074134Y0087997D02*
X0074623Y0087997D01*
X0074669Y0088195D02*
X0074088Y0088195D01*
X0074205Y0088394D02*
X0074552Y0088394D01*
X0072952Y0085265D02*
X0073031Y0085199D01*
X0073083Y0085110D01*
X0073100Y0085008D01*
X0073083Y0084907D01*
X0073031Y0084817D01*
X0072952Y0084751D01*
X0072855Y0084716D01*
X0072752Y0084716D01*
X0072655Y0084751D01*
X0072576Y0084817D01*
X0072525Y0084907D01*
X0072507Y0085008D01*
X0072525Y0085110D01*
X0072576Y0085199D01*
X0072655Y0085265D01*
X0072752Y0085301D01*
X0072855Y0085301D01*
X0072952Y0085265D01*
X0073009Y0085218D02*
X0072598Y0085218D01*
X0072509Y0085019D02*
X0073098Y0085019D01*
X0073033Y0084821D02*
X0072574Y0084821D01*
X0072752Y0083726D02*
X0072855Y0083726D01*
X0072952Y0083691D01*
X0073031Y0083624D01*
X0073082Y0083535D01*
X0073100Y0083433D01*
X0073082Y0083332D01*
X0073031Y0083243D01*
X0072952Y0083176D01*
X0072855Y0083141D01*
X0072752Y0083141D01*
X0072655Y0083176D01*
X0072576Y0083243D01*
X0072525Y0083332D01*
X0072507Y0083433D01*
X0072525Y0083535D01*
X0072576Y0083624D01*
X0072655Y0083691D01*
X0072752Y0083726D01*
X0072582Y0083629D02*
X0073025Y0083629D01*
X0073100Y0083431D02*
X0072507Y0083431D01*
X0072588Y0083232D02*
X0073019Y0083232D01*
X0072855Y0082151D02*
X0072952Y0082116D01*
X0073031Y0082049D01*
X0073082Y0081960D01*
X0073100Y0081859D01*
X0073082Y0081757D01*
X0073031Y0081668D01*
X0072952Y0081602D01*
X0072855Y0081566D01*
X0072752Y0081566D01*
X0072655Y0081602D01*
X0072576Y0081668D01*
X0072525Y0081757D01*
X0072507Y0081859D01*
X0072525Y0081960D01*
X0072576Y0082049D01*
X0072655Y0082116D01*
X0072752Y0082151D01*
X0072855Y0082151D01*
X0073036Y0082041D02*
X0072571Y0082041D01*
X0072509Y0081843D02*
X0073098Y0081843D01*
X0073003Y0081644D02*
X0072604Y0081644D01*
X0072752Y0080576D02*
X0072855Y0080576D01*
X0072952Y0080541D01*
X0073031Y0080475D01*
X0073082Y0080385D01*
X0073100Y0080284D01*
X0073082Y0080182D01*
X0073031Y0080093D01*
X0072952Y0080027D01*
X0072855Y0079992D01*
X0072752Y0079992D01*
X0072655Y0080027D01*
X0072576Y0080093D01*
X0072525Y0080182D01*
X0072507Y0080284D01*
X0072525Y0080385D01*
X0072576Y0080475D01*
X0072655Y0080541D01*
X0072752Y0080576D01*
X0072564Y0080453D02*
X0073043Y0080453D01*
X0073095Y0080255D02*
X0072512Y0080255D01*
X0072620Y0080056D02*
X0072987Y0080056D01*
X0074087Y0080255D02*
X0074670Y0080255D01*
X0074675Y0080284D02*
X0074657Y0080182D01*
X0074606Y0080093D01*
X0074527Y0080027D01*
X0074430Y0079992D01*
X0074327Y0079992D01*
X0074230Y0080027D01*
X0074151Y0080093D01*
X0074099Y0080182D01*
X0074081Y0080284D01*
X0074099Y0080385D01*
X0074151Y0080475D01*
X0074230Y0080541D01*
X0074327Y0080576D01*
X0074430Y0080576D01*
X0074527Y0080541D01*
X0074606Y0080475D01*
X0074657Y0080385D01*
X0074675Y0080284D01*
X0074618Y0080453D02*
X0074139Y0080453D01*
X0074195Y0080056D02*
X0074562Y0080056D01*
X0074430Y0081566D02*
X0074327Y0081566D01*
X0074230Y0081602D01*
X0074151Y0081668D01*
X0074099Y0081757D01*
X0074081Y0081859D01*
X0074099Y0081960D01*
X0074151Y0082049D01*
X0074230Y0082116D01*
X0074327Y0082151D01*
X0074430Y0082151D01*
X0074527Y0082116D01*
X0074606Y0082049D01*
X0074657Y0081960D01*
X0074675Y0081859D01*
X0074657Y0081757D01*
X0074606Y0081668D01*
X0074527Y0081602D01*
X0074430Y0081566D01*
X0074578Y0081644D02*
X0074179Y0081644D01*
X0074084Y0081843D02*
X0074672Y0081843D01*
X0074610Y0082041D02*
X0074146Y0082041D01*
X0074938Y0082455D02*
X0074887Y0082545D01*
X0074869Y0082646D01*
X0074887Y0082748D01*
X0074938Y0082837D01*
X0075017Y0082903D01*
X0075114Y0082938D01*
X0075217Y0082938D01*
X0075314Y0082903D01*
X0075393Y0082837D01*
X0075445Y0082748D01*
X0075463Y0082646D01*
X0075445Y0082545D01*
X0075393Y0082455D01*
X0075314Y0082389D01*
X0075217Y0082354D01*
X0075114Y0082354D01*
X0075017Y0082389D01*
X0074938Y0082455D01*
X0074958Y0082438D02*
X0075373Y0082438D01*
X0075461Y0082637D02*
X0074871Y0082637D01*
X0074938Y0082835D02*
X0075394Y0082835D01*
X0071526Y0083433D02*
X0071508Y0083332D01*
X0071456Y0083243D01*
X0071377Y0083176D01*
X0071280Y0083141D01*
X0071177Y0083141D01*
X0071080Y0083176D01*
X0071001Y0083243D01*
X0070950Y0083332D01*
X0070932Y0083433D01*
X0070950Y0083535D01*
X0071001Y0083624D01*
X0071080Y0083691D01*
X0071177Y0083726D01*
X0071280Y0083726D01*
X0071377Y0083691D01*
X0071456Y0083624D01*
X0071508Y0083535D01*
X0071526Y0083433D01*
X0071525Y0083431D02*
X0070932Y0083431D01*
X0071008Y0083629D02*
X0071450Y0083629D01*
X0071444Y0083232D02*
X0071014Y0083232D01*
X0069950Y0083431D02*
X0069358Y0083431D01*
X0069357Y0083433D02*
X0069375Y0083535D01*
X0069427Y0083624D01*
X0069506Y0083691D01*
X0069602Y0083726D01*
X0069705Y0083726D01*
X0069802Y0083691D01*
X0069881Y0083624D01*
X0069933Y0083535D01*
X0069951Y0083433D01*
X0069933Y0083332D01*
X0069881Y0083243D01*
X0069802Y0083176D01*
X0069705Y0083141D01*
X0069602Y0083141D01*
X0069506Y0083176D01*
X0069427Y0083243D01*
X0069375Y0083332D01*
X0069357Y0083433D01*
X0069433Y0083629D02*
X0069875Y0083629D01*
X0069869Y0083232D02*
X0069439Y0083232D01*
X0071080Y0080541D02*
X0071177Y0080576D01*
X0071280Y0080576D01*
X0071377Y0080541D01*
X0071456Y0080475D01*
X0071508Y0080385D01*
X0071526Y0080284D01*
X0071508Y0080182D01*
X0071456Y0080093D01*
X0071377Y0080027D01*
X0071280Y0079992D01*
X0071177Y0079992D01*
X0071080Y0080027D01*
X0071001Y0080093D01*
X0070950Y0080182D01*
X0070932Y0080284D01*
X0070950Y0080385D01*
X0071001Y0080475D01*
X0071080Y0080541D01*
X0070989Y0080453D02*
X0071468Y0080453D01*
X0071520Y0080255D02*
X0070937Y0080255D01*
X0071045Y0080056D02*
X0071412Y0080056D01*
X0070630Y0079530D02*
X0070682Y0079441D01*
X0070699Y0079340D01*
X0070682Y0079238D01*
X0070630Y0079149D01*
X0070551Y0079083D01*
X0070454Y0079047D01*
X0070351Y0079047D01*
X0070254Y0079083D01*
X0070175Y0079149D01*
X0070124Y0079238D01*
X0070106Y0079340D01*
X0070124Y0079441D01*
X0070175Y0079530D01*
X0070254Y0079597D01*
X0070351Y0079632D01*
X0070454Y0079632D01*
X0070551Y0079597D01*
X0070630Y0079530D01*
X0070670Y0079461D02*
X0070135Y0079461D01*
X0070119Y0079262D02*
X0070686Y0079262D01*
X0070499Y0079064D02*
X0070306Y0079064D01*
X0066299Y0076577D02*
X0066350Y0076488D01*
X0066368Y0076386D01*
X0066350Y0076285D01*
X0066299Y0076195D01*
X0066220Y0076129D01*
X0066123Y0076094D01*
X0066020Y0076094D01*
X0065923Y0076129D01*
X0065844Y0076195D01*
X0065792Y0076285D01*
X0065774Y0076386D01*
X0065792Y0076488D01*
X0065844Y0076577D01*
X0065923Y0076643D01*
X0066020Y0076679D01*
X0066123Y0076679D01*
X0066220Y0076643D01*
X0066299Y0076577D01*
X0066351Y0076483D02*
X0065791Y0076483D01*
X0065792Y0076285D02*
X0066350Y0076285D01*
X0063582Y0081011D02*
X0063485Y0080976D01*
X0063382Y0080976D01*
X0063285Y0081011D01*
X0063206Y0081077D01*
X0063155Y0081167D01*
X0063137Y0081268D01*
X0063155Y0081370D01*
X0063206Y0081459D01*
X0063285Y0081525D01*
X0063382Y0081560D01*
X0063485Y0081560D01*
X0063582Y0081525D01*
X0063661Y0081459D01*
X0063712Y0081370D01*
X0063730Y0081268D01*
X0063712Y0081167D01*
X0063661Y0081077D01*
X0063582Y0081011D01*
X0063627Y0081049D02*
X0063240Y0081049D01*
X0063140Y0081247D02*
X0063727Y0081247D01*
X0063668Y0081446D02*
X0063198Y0081446D01*
X0059557Y0076524D02*
X0059636Y0076458D01*
X0059687Y0076368D01*
X0059705Y0076267D01*
X0059687Y0076165D01*
X0059636Y0076076D01*
X0059557Y0076010D01*
X0059460Y0075975D01*
X0059357Y0075975D01*
X0059260Y0076010D01*
X0059181Y0076076D01*
X0059129Y0076165D01*
X0059111Y0076267D01*
X0059129Y0076368D01*
X0059181Y0076458D01*
X0059260Y0076524D01*
X0059357Y0076559D01*
X0059460Y0076559D01*
X0059557Y0076524D01*
X0059606Y0076483D02*
X0059211Y0076483D01*
X0059115Y0076285D02*
X0059702Y0076285D01*
X0059641Y0076086D02*
X0059175Y0076086D01*
X0074081Y0078119D02*
X0074099Y0078220D01*
X0074151Y0078309D01*
X0074230Y0078376D01*
X0074327Y0078411D01*
X0074430Y0078411D01*
X0074527Y0078376D01*
X0074606Y0078309D01*
X0074657Y0078220D01*
X0074675Y0078119D01*
X0074657Y0078017D01*
X0074606Y0077928D01*
X0074527Y0077861D01*
X0074430Y0077826D01*
X0074327Y0077826D01*
X0074230Y0077861D01*
X0074151Y0077928D01*
X0074099Y0078017D01*
X0074081Y0078119D01*
X0074090Y0078071D02*
X0074667Y0078071D01*
X0074629Y0078270D02*
X0074128Y0078270D01*
X0074217Y0077873D02*
X0074540Y0077873D01*
X0064169Y0089814D02*
X0064090Y0089748D01*
X0063993Y0089713D01*
X0063890Y0089713D01*
X0063793Y0089748D01*
X0063714Y0089814D01*
X0063662Y0089904D01*
X0063644Y0090005D01*
X0063662Y0090107D01*
X0063714Y0090196D01*
X0063793Y0090262D01*
X0063890Y0090297D01*
X0063993Y0090297D01*
X0064090Y0090262D01*
X0064169Y0090196D01*
X0064220Y0090107D01*
X0064238Y0090005D01*
X0064220Y0089904D01*
X0064169Y0089814D01*
X0064132Y0089783D02*
X0063751Y0089783D01*
X0063649Y0089982D02*
X0064234Y0089982D01*
X0064178Y0090180D02*
X0063705Y0090180D01*
X0075674Y0092781D02*
X0075726Y0092691D01*
X0075805Y0092625D01*
X0075902Y0092590D01*
X0076005Y0092590D01*
X0076102Y0092625D01*
X0076181Y0092691D01*
X0076232Y0092781D01*
X0076250Y0092882D01*
X0076232Y0092984D01*
X0076181Y0093073D01*
X0076102Y0093139D01*
X0076005Y0093175D01*
X0075902Y0093175D01*
X0075805Y0093139D01*
X0075726Y0093073D01*
X0075674Y0092984D01*
X0075656Y0092882D01*
X0075674Y0092781D01*
X0075686Y0092761D02*
X0076221Y0092761D01*
X0076236Y0092959D02*
X0075670Y0092959D01*
X0075856Y0093158D02*
X0076050Y0093158D01*
X0077245Y0092959D02*
X0077811Y0092959D01*
X0077807Y0092984D02*
X0077825Y0092882D01*
X0077807Y0092781D01*
X0077755Y0092691D01*
X0077676Y0092625D01*
X0077580Y0092590D01*
X0077476Y0092590D01*
X0077380Y0092625D01*
X0077301Y0092691D01*
X0077249Y0092781D01*
X0077231Y0092882D01*
X0077249Y0092984D01*
X0077301Y0093073D01*
X0077380Y0093139D01*
X0077476Y0093175D01*
X0077580Y0093175D01*
X0077676Y0093139D01*
X0077755Y0093073D01*
X0077807Y0092984D01*
X0077795Y0092761D02*
X0077260Y0092761D01*
X0077431Y0093158D02*
X0077625Y0093158D01*
X0078820Y0092959D02*
X0079386Y0092959D01*
X0079382Y0092984D02*
X0079400Y0092882D01*
X0079382Y0092781D01*
X0079330Y0092691D01*
X0079251Y0092625D01*
X0079154Y0092590D01*
X0079051Y0092590D01*
X0078954Y0092625D01*
X0078875Y0092691D01*
X0078824Y0092781D01*
X0078806Y0092882D01*
X0078824Y0092984D01*
X0078875Y0093073D01*
X0078954Y0093139D01*
X0079051Y0093175D01*
X0079154Y0093175D01*
X0079251Y0093139D01*
X0079330Y0093073D01*
X0079382Y0092984D01*
X0079370Y0092761D02*
X0078835Y0092761D01*
X0079006Y0093158D02*
X0079200Y0093158D01*
X0093108Y0085542D02*
X0093160Y0085631D01*
X0093239Y0085697D01*
X0093336Y0085732D01*
X0093439Y0085732D01*
X0093536Y0085697D01*
X0093615Y0085631D01*
X0093666Y0085542D01*
X0093684Y0085440D01*
X0093666Y0085339D01*
X0093615Y0085249D01*
X0093536Y0085183D01*
X0093439Y0085148D01*
X0093336Y0085148D01*
X0093239Y0085183D01*
X0093160Y0085249D01*
X0093108Y0085339D01*
X0093090Y0085440D01*
X0093108Y0085542D01*
X0093150Y0085615D02*
X0093624Y0085615D01*
X0093680Y0085416D02*
X0093095Y0085416D01*
X0093198Y0085218D02*
X0093577Y0085218D01*
X0094230Y0086208D02*
X0094151Y0086274D01*
X0094099Y0086363D01*
X0094081Y0086465D01*
X0094099Y0086566D01*
X0094151Y0086656D01*
X0094230Y0086722D01*
X0094327Y0086757D01*
X0094430Y0086757D01*
X0094527Y0086722D01*
X0094606Y0086656D01*
X0094657Y0086566D01*
X0094675Y0086465D01*
X0094657Y0086363D01*
X0094606Y0086274D01*
X0094527Y0086208D01*
X0094430Y0086173D01*
X0094327Y0086173D01*
X0094230Y0086208D01*
X0094227Y0086210D02*
X0094529Y0086210D01*
X0094665Y0086409D02*
X0094091Y0086409D01*
X0094123Y0086607D02*
X0094634Y0086607D01*
X0083720Y0054534D02*
X0083817Y0054499D01*
X0083896Y0054433D01*
X0083947Y0054344D01*
X0083965Y0054242D01*
X0083947Y0054141D01*
X0083896Y0054051D01*
X0083441Y0054051D01*
X0083390Y0054141D01*
X0083372Y0054242D01*
X0083390Y0054344D01*
X0083441Y0054433D01*
X0083520Y0054499D01*
X0083617Y0054534D01*
X0083720Y0054534D01*
X0083878Y0054448D02*
X0083459Y0054448D01*
X0083373Y0054250D02*
X0083964Y0054250D01*
X0083896Y0054051D02*
X0083817Y0053985D01*
X0083720Y0053950D01*
X0083617Y0053950D01*
X0083520Y0053985D01*
X0083441Y0054051D01*
X0081997Y0054242D02*
X0081979Y0054141D01*
X0081927Y0054051D01*
X0081473Y0054051D01*
X0081421Y0054141D01*
X0081403Y0054242D01*
X0081421Y0054344D01*
X0081473Y0054433D01*
X0081552Y0054499D01*
X0081648Y0054534D01*
X0081752Y0054534D01*
X0081848Y0054499D01*
X0081927Y0054433D01*
X0081979Y0054344D01*
X0081997Y0054242D01*
X0081995Y0054250D02*
X0081404Y0054250D01*
X0081473Y0054051D02*
X0081552Y0053985D01*
X0081648Y0053950D01*
X0081752Y0053950D01*
X0081848Y0053985D01*
X0081927Y0054051D01*
X0081909Y0054448D02*
X0081491Y0054448D01*
X0079192Y0048038D02*
X0079289Y0048003D01*
X0079368Y0047937D01*
X0079420Y0047848D01*
X0079438Y0047746D01*
X0079420Y0047645D01*
X0079368Y0047555D01*
X0079289Y0047489D01*
X0079192Y0047454D01*
X0079089Y0047454D01*
X0078993Y0047489D01*
X0078914Y0047555D01*
X0078862Y0047645D01*
X0078844Y0047746D01*
X0078862Y0047848D01*
X0078914Y0047937D01*
X0078993Y0048003D01*
X0079089Y0048038D01*
X0079192Y0048038D01*
X0079391Y0047897D02*
X0078891Y0047897D01*
X0078852Y0047699D02*
X0079429Y0047699D01*
X0079303Y0047500D02*
X0078979Y0047500D01*
X0079089Y0046070D02*
X0079192Y0046070D01*
X0079289Y0046035D01*
X0079368Y0045968D01*
X0079420Y0045879D01*
X0079438Y0045778D01*
X0079420Y0045676D01*
X0079368Y0045587D01*
X0079289Y0045520D01*
X0079192Y0045485D01*
X0079089Y0045485D01*
X0078993Y0045520D01*
X0078914Y0045587D01*
X0078862Y0045676D01*
X0078844Y0045778D01*
X0078862Y0045879D01*
X0078914Y0045968D01*
X0078993Y0046035D01*
X0079089Y0046070D01*
X0078881Y0045912D02*
X0079401Y0045912D01*
X0079427Y0045714D02*
X0078855Y0045714D01*
X0079007Y0045515D02*
X0079275Y0045515D01*
X0079192Y0044101D02*
X0079289Y0044066D01*
X0079368Y0044000D01*
X0079420Y0043911D01*
X0079438Y0043809D01*
X0079420Y0043708D01*
X0079368Y0043618D01*
X0079289Y0043552D01*
X0079192Y0043517D01*
X0079089Y0043517D01*
X0078993Y0043552D01*
X0078914Y0043618D01*
X0078862Y0043708D01*
X0078844Y0043809D01*
X0078862Y0043911D01*
X0078914Y0044000D01*
X0078993Y0044066D01*
X0079089Y0044101D01*
X0079192Y0044101D01*
X0079410Y0043927D02*
X0078872Y0043927D01*
X0078858Y0043729D02*
X0079424Y0043729D01*
X0079229Y0043530D02*
X0079052Y0043530D01*
X0079089Y0042133D02*
X0079192Y0042133D01*
X0079289Y0042098D01*
X0079368Y0042031D01*
X0079420Y0041942D01*
X0078862Y0041942D01*
X0078914Y0042031D01*
X0078993Y0042098D01*
X0079089Y0042133D01*
X0078862Y0041942D02*
X0078844Y0041841D01*
X0078862Y0041739D01*
X0078914Y0041650D01*
X0078993Y0041583D01*
X0079089Y0041548D01*
X0079192Y0041548D01*
X0079289Y0041583D01*
X0079368Y0041650D01*
X0079420Y0041739D01*
X0079438Y0041841D01*
X0079420Y0041942D01*
X0079421Y0041744D02*
X0078861Y0041744D01*
X0079089Y0040164D02*
X0079192Y0040164D01*
X0079289Y0040129D01*
X0079368Y0040063D01*
X0079420Y0039974D01*
X0079438Y0039872D01*
X0079420Y0039771D01*
X0079368Y0039681D01*
X0079289Y0039615D01*
X0079192Y0039580D01*
X0079089Y0039580D01*
X0078993Y0039615D01*
X0078914Y0039681D01*
X0078862Y0039771D01*
X0078844Y0039872D01*
X0078862Y0039974D01*
X0078914Y0040063D01*
X0078993Y0040129D01*
X0079089Y0040164D01*
X0079065Y0040155D02*
X0079217Y0040155D01*
X0079423Y0039957D02*
X0078859Y0039957D01*
X0078869Y0039758D02*
X0079413Y0039758D01*
X0079192Y0038196D02*
X0079289Y0038161D01*
X0079368Y0038094D01*
X0079420Y0038005D01*
X0079438Y0037904D01*
X0079420Y0037802D01*
X0079368Y0037713D01*
X0079289Y0037646D01*
X0079192Y0037611D01*
X0079089Y0037611D01*
X0078993Y0037646D01*
X0078914Y0037713D01*
X0078862Y0037802D01*
X0078844Y0037904D01*
X0078862Y0038005D01*
X0078914Y0038094D01*
X0078993Y0038161D01*
X0079089Y0038196D01*
X0079192Y0038196D01*
X0079263Y0038170D02*
X0079019Y0038170D01*
X0078856Y0037972D02*
X0079426Y0037972D01*
X0079403Y0037773D02*
X0078879Y0037773D01*
X0076705Y0038698D02*
X0076653Y0038609D01*
X0076574Y0038542D01*
X0076477Y0038507D01*
X0076374Y0038507D01*
X0076277Y0038542D01*
X0076198Y0038609D01*
X0076147Y0038698D01*
X0076129Y0038799D01*
X0076147Y0038901D01*
X0076198Y0038990D01*
X0076277Y0039056D01*
X0076374Y0039092D01*
X0076477Y0039092D01*
X0076574Y0039056D01*
X0076653Y0038990D01*
X0076705Y0038901D01*
X0076722Y0038799D01*
X0076705Y0038698D01*
X0076717Y0038766D02*
X0076135Y0038766D01*
X0076183Y0038964D02*
X0076668Y0038964D01*
X0076604Y0038567D02*
X0076247Y0038567D01*
X0081301Y0035535D02*
X0081410Y0035644D01*
X0081547Y0035714D01*
X0081700Y0035738D01*
X0081853Y0035714D01*
X0081990Y0035644D01*
X0082099Y0035535D01*
X0082170Y0035397D01*
X0082194Y0035244D01*
X0082170Y0035092D01*
X0082099Y0034954D01*
X0081990Y0034845D01*
X0081853Y0034775D01*
X0081700Y0034751D01*
X0081547Y0034775D01*
X0081410Y0034845D01*
X0081301Y0034954D01*
X0081230Y0035092D01*
X0081206Y0035244D01*
X0081230Y0035397D01*
X0081301Y0035535D01*
X0081356Y0035590D02*
X0082044Y0035590D01*
X0082170Y0035391D02*
X0081230Y0035391D01*
X0081215Y0035193D02*
X0082186Y0035193D01*
X0082120Y0034994D02*
X0081280Y0034994D01*
X0081507Y0034796D02*
X0081893Y0034796D01*
X0083390Y0035243D02*
X0083441Y0035154D01*
X0083520Y0035087D01*
X0083617Y0035052D01*
X0083720Y0035052D01*
X0083817Y0035087D01*
X0083896Y0035154D01*
X0083947Y0035243D01*
X0083965Y0035344D01*
X0083947Y0035446D01*
X0083896Y0035535D01*
X0083817Y0035602D01*
X0083720Y0035637D01*
X0083617Y0035637D01*
X0083520Y0035602D01*
X0083441Y0035535D01*
X0083390Y0035446D01*
X0083372Y0035344D01*
X0083390Y0035243D01*
X0083419Y0035193D02*
X0083918Y0035193D01*
X0083957Y0035391D02*
X0083380Y0035391D01*
X0083506Y0035590D02*
X0083831Y0035590D01*
X0085340Y0035344D02*
X0085358Y0035446D01*
X0085410Y0035535D01*
X0085489Y0035602D01*
X0085585Y0035637D01*
X0085689Y0035637D01*
X0085785Y0035602D01*
X0085864Y0035535D01*
X0085916Y0035446D01*
X0085934Y0035344D01*
X0085916Y0035243D01*
X0085864Y0035154D01*
X0085785Y0035087D01*
X0085689Y0035052D01*
X0085585Y0035052D01*
X0085489Y0035087D01*
X0085410Y0035154D01*
X0085358Y0035243D01*
X0085340Y0035344D01*
X0085348Y0035391D02*
X0085926Y0035391D01*
X0085887Y0035193D02*
X0085387Y0035193D01*
X0085474Y0035590D02*
X0085800Y0035590D01*
X0088687Y0036132D02*
X0088705Y0036233D01*
X0088756Y0036323D01*
X0088835Y0036389D01*
X0088932Y0036424D01*
X0089035Y0036424D01*
X0089132Y0036389D01*
X0089211Y0036323D01*
X0089262Y0036233D01*
X0089280Y0036132D01*
X0089262Y0036030D01*
X0089211Y0035941D01*
X0089132Y0035875D01*
X0089035Y0035840D01*
X0088932Y0035840D01*
X0088835Y0035875D01*
X0088756Y0035941D01*
X0088705Y0036030D01*
X0088687Y0036132D01*
X0088696Y0036185D02*
X0089271Y0036185D01*
X0089237Y0035987D02*
X0088730Y0035987D01*
X0088829Y0036384D02*
X0089138Y0036384D01*
X0091264Y0035446D02*
X0091315Y0035535D01*
X0091394Y0035602D01*
X0091491Y0035637D01*
X0091594Y0035637D01*
X0091691Y0035602D01*
X0091770Y0035535D01*
X0091821Y0035446D01*
X0091839Y0035344D01*
X0091821Y0035243D01*
X0091770Y0035154D01*
X0091691Y0035087D01*
X0091594Y0035052D01*
X0091491Y0035052D01*
X0091394Y0035087D01*
X0091315Y0035154D01*
X0091264Y0035243D01*
X0091246Y0035344D01*
X0091264Y0035446D01*
X0091254Y0035391D02*
X0091831Y0035391D01*
X0091792Y0035193D02*
X0091293Y0035193D01*
X0091380Y0035590D02*
X0091705Y0035590D01*
X0093232Y0036424D02*
X0093284Y0036335D01*
X0093363Y0036269D01*
X0093459Y0036233D01*
X0093563Y0036233D01*
X0093659Y0036269D01*
X0093738Y0036335D01*
X0093790Y0036424D01*
X0093808Y0036526D01*
X0093790Y0036627D01*
X0093738Y0036716D01*
X0093659Y0036783D01*
X0093563Y0036818D01*
X0093459Y0036818D01*
X0093363Y0036783D01*
X0093284Y0036716D01*
X0093232Y0036627D01*
X0093214Y0036526D01*
X0093232Y0036424D01*
X0093255Y0036384D02*
X0093767Y0036384D01*
X0093798Y0036582D02*
X0093224Y0036582D01*
X0093360Y0036781D02*
X0093662Y0036781D01*
X0094500Y0037325D02*
X0094449Y0037415D01*
X0094431Y0037516D01*
X0094449Y0037618D01*
X0094500Y0037707D01*
X0094579Y0037773D01*
X0094676Y0037808D01*
X0094779Y0037808D01*
X0094876Y0037773D01*
X0094955Y0037707D01*
X0095007Y0037618D01*
X0095024Y0037516D01*
X0095007Y0037415D01*
X0094955Y0037325D01*
X0094876Y0037259D01*
X0094779Y0037224D01*
X0094676Y0037224D01*
X0094579Y0037259D01*
X0094500Y0037325D01*
X0094471Y0037376D02*
X0094984Y0037376D01*
X0095014Y0037575D02*
X0094441Y0037575D01*
X0094580Y0037773D02*
X0094876Y0037773D01*
X0095673Y0038558D02*
X0095622Y0038647D01*
X0095604Y0038748D01*
X0095622Y0038850D01*
X0095673Y0038939D01*
X0095752Y0039005D01*
X0095849Y0039041D01*
X0095952Y0039041D01*
X0096049Y0039005D01*
X0096128Y0038939D01*
X0096180Y0038850D01*
X0096198Y0038748D01*
X0096180Y0038647D01*
X0096128Y0038558D01*
X0096049Y0038491D01*
X0095952Y0038456D01*
X0095849Y0038456D01*
X0095752Y0038491D01*
X0095673Y0038558D01*
X0095668Y0038567D02*
X0096134Y0038567D01*
X0096195Y0038766D02*
X0095607Y0038766D01*
X0095703Y0038964D02*
X0096098Y0038964D01*
X0096827Y0039681D02*
X0096775Y0039771D01*
X0096757Y0039872D01*
X0096775Y0039974D01*
X0096827Y0040063D01*
X0096906Y0040129D01*
X0097003Y0040164D01*
X0097106Y0040164D01*
X0097203Y0040129D01*
X0097282Y0040063D01*
X0097333Y0039974D01*
X0097351Y0039872D01*
X0097333Y0039771D01*
X0097282Y0039681D01*
X0097203Y0039615D01*
X0097106Y0039580D01*
X0097003Y0039580D01*
X0096906Y0039615D01*
X0096827Y0039681D01*
X0096782Y0039758D02*
X0097326Y0039758D01*
X0097336Y0039957D02*
X0096772Y0039957D01*
X0096978Y0040155D02*
X0097130Y0040155D01*
X0097868Y0041605D02*
X0097790Y0041671D01*
X0097738Y0041761D01*
X0097720Y0041862D01*
X0097738Y0041964D01*
X0097790Y0042053D01*
X0097868Y0042119D01*
X0097965Y0042155D01*
X0098068Y0042155D01*
X0098165Y0042119D01*
X0098244Y0042053D01*
X0098296Y0041964D01*
X0098314Y0041862D01*
X0098296Y0041761D01*
X0098244Y0041671D01*
X0098165Y0041605D01*
X0098068Y0041570D01*
X0097965Y0041570D01*
X0097868Y0041605D01*
X0097748Y0041744D02*
X0098286Y0041744D01*
X0098300Y0041942D02*
X0097734Y0041942D01*
X0097927Y0042141D02*
X0098107Y0042141D01*
X0097147Y0043946D02*
X0097050Y0043910D01*
X0096947Y0043910D01*
X0096850Y0043946D01*
X0096771Y0044012D01*
X0096719Y0044101D01*
X0096702Y0044203D01*
X0096719Y0044304D01*
X0096771Y0044394D01*
X0096850Y0044460D01*
X0096947Y0044495D01*
X0097050Y0044495D01*
X0097147Y0044460D01*
X0097226Y0044394D01*
X0097277Y0044304D01*
X0097295Y0044203D01*
X0097277Y0044101D01*
X0097226Y0044012D01*
X0097147Y0043946D01*
X0097096Y0043927D02*
X0096901Y0043927D01*
X0096715Y0044126D02*
X0097282Y0044126D01*
X0097266Y0044324D02*
X0096731Y0044324D01*
X0096337Y0048495D02*
X0096234Y0048495D01*
X0096137Y0048531D01*
X0096058Y0048597D01*
X0096007Y0048686D01*
X0095989Y0048788D01*
X0096007Y0048889D01*
X0096058Y0048979D01*
X0096137Y0049045D01*
X0096234Y0049080D01*
X0096337Y0049080D01*
X0096434Y0049045D01*
X0096513Y0048979D01*
X0096565Y0048889D01*
X0096583Y0048788D01*
X0096565Y0048686D01*
X0096513Y0048597D01*
X0096434Y0048531D01*
X0096337Y0048495D01*
X0096566Y0048691D02*
X0096006Y0048691D01*
X0096007Y0048890D02*
X0096564Y0048890D01*
X0104392Y0048451D02*
X0104410Y0048350D01*
X0104462Y0048260D01*
X0104541Y0048194D01*
X0104637Y0048159D01*
X0104741Y0048159D01*
X0104837Y0048194D01*
X0104916Y0048260D01*
X0104968Y0048350D01*
X0104986Y0048451D01*
X0104968Y0048553D01*
X0104916Y0048642D01*
X0104837Y0048708D01*
X0104741Y0048744D01*
X0104637Y0048744D01*
X0104541Y0048708D01*
X0104462Y0048642D01*
X0104410Y0048553D01*
X0104392Y0048451D01*
X0104399Y0048493D02*
X0104978Y0048493D01*
X0104936Y0048294D02*
X0104442Y0048294D01*
X0104521Y0048691D02*
X0104857Y0048691D01*
X0088062Y0030843D02*
X0088106Y0030768D01*
X0088121Y0030683D01*
X0088106Y0030597D01*
X0088062Y0030522D01*
X0087996Y0030466D01*
X0087914Y0030436D01*
X0087827Y0030436D01*
X0087746Y0030466D01*
X0087679Y0030522D01*
X0087636Y0030597D01*
X0087621Y0030683D01*
X0087636Y0030768D01*
X0087679Y0030843D01*
X0087746Y0030899D01*
X0087827Y0030929D01*
X0087914Y0030929D01*
X0087996Y0030899D01*
X0088062Y0030843D01*
X0088073Y0030825D02*
X0087669Y0030825D01*
X0087630Y0030627D02*
X0088111Y0030627D01*
X0079613Y0028908D02*
X0079628Y0028822D01*
X0079613Y0028737D01*
X0079570Y0028661D01*
X0079503Y0028606D01*
X0079422Y0028576D01*
X0079335Y0028576D01*
X0079253Y0028606D01*
X0079187Y0028661D01*
X0079143Y0028737D01*
X0079128Y0028822D01*
X0079143Y0028908D01*
X0079187Y0028983D01*
X0079253Y0029039D01*
X0079335Y0029068D01*
X0079422Y0029068D01*
X0079503Y0029039D01*
X0079254Y0029039D01*
X0079131Y0028840D02*
X0079625Y0028840D01*
X0079613Y0028908D02*
X0079570Y0028983D01*
X0079503Y0029039D01*
X0079546Y0028642D02*
X0079210Y0028642D01*
X0072586Y0030431D02*
X0072534Y0030342D01*
X0072456Y0030276D01*
X0072359Y0030240D01*
X0072256Y0030240D01*
X0072159Y0030276D01*
X0072080Y0030342D01*
X0072028Y0030431D01*
X0072010Y0030533D01*
X0072028Y0030634D01*
X0072080Y0030723D01*
X0072159Y0030790D01*
X0072256Y0030825D01*
X0072359Y0030825D01*
X0072456Y0030790D01*
X0072534Y0030723D01*
X0072586Y0030634D01*
X0072604Y0030533D01*
X0072586Y0030431D01*
X0072584Y0030428D02*
X0072030Y0030428D01*
X0072027Y0030627D02*
X0072587Y0030627D01*
X0071531Y0030493D02*
X0071514Y0030392D01*
X0071462Y0030302D01*
X0071383Y0030236D01*
X0071286Y0030201D01*
X0071183Y0030201D01*
X0071086Y0030236D01*
X0071007Y0030302D01*
X0070956Y0030392D01*
X0070938Y0030493D01*
X0070956Y0030595D01*
X0071007Y0030684D01*
X0071086Y0030750D01*
X0071183Y0030786D01*
X0071286Y0030786D01*
X0071383Y0030750D01*
X0071462Y0030684D01*
X0071514Y0030595D01*
X0071531Y0030493D01*
X0071520Y0030428D02*
X0070949Y0030428D01*
X0070974Y0030627D02*
X0071495Y0030627D01*
X0071366Y0030230D02*
X0071104Y0030230D01*
X0070493Y0027348D02*
X0070590Y0027313D01*
X0070669Y0027246D01*
X0070720Y0027157D01*
X0070738Y0027056D01*
X0070720Y0026954D01*
X0070669Y0026865D01*
X0070590Y0026798D01*
X0070493Y0026763D01*
X0070390Y0026763D01*
X0070293Y0026798D01*
X0070214Y0026865D01*
X0070162Y0026954D01*
X0070144Y0027056D01*
X0070162Y0027157D01*
X0070214Y0027246D01*
X0070293Y0027313D01*
X0070390Y0027348D01*
X0070493Y0027348D01*
X0070662Y0027252D02*
X0070221Y0027252D01*
X0070145Y0027054D02*
X0070738Y0027054D01*
X0070657Y0026855D02*
X0070225Y0026855D01*
X0071986Y0025475D02*
X0072065Y0025541D01*
X0072161Y0025576D01*
X0072265Y0025576D01*
X0072361Y0025541D01*
X0072440Y0025475D01*
X0072492Y0025385D01*
X0072510Y0025284D01*
X0072492Y0025182D01*
X0072440Y0025093D01*
X0072361Y0025027D01*
X0072265Y0024992D01*
X0072161Y0024992D01*
X0072065Y0025027D01*
X0071986Y0025093D01*
X0071934Y0025182D01*
X0071916Y0025284D01*
X0071934Y0025385D01*
X0071986Y0025475D01*
X0071980Y0025466D02*
X0072446Y0025466D01*
X0072507Y0025267D02*
X0071919Y0025267D01*
X0072015Y0025069D02*
X0072411Y0025069D01*
X0070594Y0034145D02*
X0070441Y0034121D01*
X0070289Y0034145D01*
X0070151Y0034215D01*
X0070042Y0034324D01*
X0069972Y0034462D01*
X0069948Y0034615D01*
X0069972Y0034767D01*
X0070042Y0034905D01*
X0070151Y0035014D01*
X0070289Y0035084D01*
X0070441Y0035108D01*
X0070594Y0035084D01*
X0070732Y0035014D01*
X0070841Y0034905D01*
X0070911Y0034767D01*
X0070935Y0034615D01*
X0070911Y0034462D01*
X0070841Y0034324D01*
X0070732Y0034215D01*
X0070594Y0034145D01*
X0070702Y0034200D02*
X0070181Y0034200D01*
X0070004Y0034399D02*
X0070879Y0034399D01*
X0070932Y0034597D02*
X0069950Y0034597D01*
X0069986Y0034796D02*
X0070896Y0034796D01*
X0070751Y0034994D02*
X0070131Y0034994D01*
X0070311Y0037039D02*
X0070214Y0037074D01*
X0070135Y0037140D01*
X0070084Y0037230D01*
X0070066Y0037331D01*
X0070084Y0037433D01*
X0070135Y0037522D01*
X0070214Y0037588D01*
X0070311Y0037623D01*
X0070414Y0037623D01*
X0070511Y0037588D01*
X0070590Y0037522D01*
X0070642Y0037433D01*
X0070660Y0037331D01*
X0070642Y0037230D01*
X0070590Y0037140D01*
X0070511Y0037074D01*
X0070414Y0037039D01*
X0070311Y0037039D01*
X0070114Y0037178D02*
X0070612Y0037178D01*
X0070652Y0037376D02*
X0070074Y0037376D01*
X0070199Y0037575D02*
X0070527Y0037575D01*
X0064055Y0044817D02*
X0063976Y0044751D01*
X0063879Y0044716D01*
X0063776Y0044716D01*
X0063679Y0044751D01*
X0063600Y0044817D01*
X0063548Y0044907D01*
X0063530Y0045008D01*
X0063548Y0045110D01*
X0063600Y0045199D01*
X0063679Y0045265D01*
X0063776Y0045301D01*
X0063879Y0045301D01*
X0063976Y0045265D01*
X0064055Y0045199D01*
X0064106Y0045110D01*
X0064124Y0045008D01*
X0064106Y0044907D01*
X0064055Y0044817D01*
X0064108Y0044920D02*
X0063546Y0044920D01*
X0063553Y0045118D02*
X0064101Y0045118D01*
X0063893Y0044721D02*
X0063761Y0044721D01*
X0065989Y0046009D02*
X0066041Y0045920D01*
X0066120Y0045854D01*
X0066217Y0045818D01*
X0066320Y0045818D01*
X0066417Y0045854D01*
X0066496Y0045920D01*
X0066547Y0046009D01*
X0066565Y0046111D01*
X0065971Y0046111D01*
X0065989Y0046212D01*
X0066041Y0046301D01*
X0066120Y0046368D01*
X0066217Y0046403D01*
X0066320Y0046403D01*
X0066417Y0046368D01*
X0066496Y0046301D01*
X0066547Y0046212D01*
X0066565Y0046111D01*
X0066486Y0046309D02*
X0066050Y0046309D01*
X0065971Y0046111D02*
X0065989Y0046009D01*
X0066050Y0045912D02*
X0066487Y0045912D01*
X0058700Y0043918D02*
X0058718Y0043816D01*
X0058700Y0043715D01*
X0058649Y0043625D01*
X0058570Y0043559D01*
X0058473Y0043524D01*
X0058370Y0043524D01*
X0058273Y0043559D01*
X0058194Y0043625D01*
X0058142Y0043715D01*
X0058124Y0043816D01*
X0058142Y0043918D01*
X0058194Y0044007D01*
X0058273Y0044073D01*
X0058370Y0044108D01*
X0058473Y0044108D01*
X0058570Y0044073D01*
X0058649Y0044007D01*
X0058700Y0043918D01*
X0058695Y0043927D02*
X0058148Y0043927D01*
X0058140Y0043729D02*
X0058703Y0043729D01*
X0058490Y0043530D02*
X0058352Y0043530D01*
X0053464Y0051833D02*
X0053367Y0051798D01*
X0053264Y0051798D01*
X0053167Y0051833D01*
X0053088Y0051899D01*
X0053036Y0051989D01*
X0053019Y0052090D01*
X0053036Y0052192D01*
X0053088Y0052281D01*
X0053167Y0052347D01*
X0053264Y0052382D01*
X0053367Y0052382D01*
X0053464Y0052347D01*
X0053543Y0052281D01*
X0053594Y0052192D01*
X0053612Y0052090D01*
X0053594Y0051989D01*
X0053543Y0051899D01*
X0053464Y0051833D01*
X0053505Y0051868D02*
X0053126Y0051868D01*
X0053023Y0052066D02*
X0053608Y0052066D01*
X0053552Y0052265D02*
X0053079Y0052265D01*
X0050126Y0053448D02*
X0050075Y0053359D01*
X0049996Y0053292D01*
X0049899Y0053257D01*
X0049796Y0053257D01*
X0049699Y0053292D01*
X0049620Y0053359D01*
X0049568Y0053448D01*
X0049551Y0053549D01*
X0049568Y0053651D01*
X0049620Y0053740D01*
X0049699Y0053806D01*
X0049796Y0053842D01*
X0049899Y0053842D01*
X0049996Y0053806D01*
X0050075Y0053740D01*
X0050126Y0053651D01*
X0050144Y0053549D01*
X0050126Y0053448D01*
X0050128Y0053456D02*
X0049567Y0053456D01*
X0049570Y0053654D02*
X0050124Y0053654D01*
X0049899Y0053257D02*
X0049795Y0053257D01*
X0036375Y0052640D02*
X0036357Y0052538D01*
X0036305Y0052449D01*
X0036226Y0052383D01*
X0036129Y0052347D01*
X0036026Y0052347D01*
X0035929Y0052383D01*
X0035850Y0052449D01*
X0035799Y0052538D01*
X0035781Y0052640D01*
X0035799Y0052741D01*
X0035850Y0052830D01*
X0035929Y0052897D01*
X0036026Y0052932D01*
X0036129Y0052932D01*
X0036226Y0052897D01*
X0036305Y0052830D01*
X0036357Y0052741D01*
X0036375Y0052640D01*
X0036371Y0052662D02*
X0035785Y0052662D01*
X0035842Y0052463D02*
X0036313Y0052463D01*
X0036270Y0052860D02*
X0035886Y0052860D01*
X0046884Y0034534D02*
X0046981Y0034569D01*
X0047084Y0034569D01*
X0047181Y0034534D01*
X0047260Y0034467D01*
X0047311Y0034378D01*
X0047329Y0034277D01*
X0047311Y0034175D01*
X0047260Y0034086D01*
X0047181Y0034019D01*
X0047084Y0033984D01*
X0046981Y0033984D01*
X0046884Y0034019D01*
X0046805Y0034086D01*
X0046753Y0034175D01*
X0046736Y0034277D01*
X0046753Y0034378D01*
X0046805Y0034467D01*
X0046884Y0034534D01*
X0046765Y0034399D02*
X0047300Y0034399D01*
X0047316Y0034200D02*
X0046749Y0034200D01*
X0046933Y0034002D02*
X0047132Y0034002D01*
X0052301Y0030278D02*
X0052380Y0030344D01*
X0052476Y0030379D01*
X0052580Y0030379D01*
X0052676Y0030344D01*
X0052755Y0030278D01*
X0052807Y0030189D01*
X0052825Y0030087D01*
X0052807Y0029985D01*
X0052755Y0029896D01*
X0052676Y0029830D01*
X0052580Y0029795D01*
X0052476Y0029795D01*
X0052380Y0029830D01*
X0052301Y0029896D01*
X0052249Y0029985D01*
X0052231Y0030087D01*
X0052249Y0030189D01*
X0052301Y0030278D01*
X0052273Y0030230D02*
X0052783Y0030230D01*
X0052815Y0030031D02*
X0052241Y0030031D01*
X0052376Y0029833D02*
X0052680Y0029833D01*
X0054200Y0030087D02*
X0054218Y0030189D01*
X0054269Y0030278D01*
X0054348Y0030344D01*
X0054445Y0030379D01*
X0054548Y0030379D01*
X0054645Y0030344D01*
X0054724Y0030278D01*
X0054775Y0030189D01*
X0054793Y0030087D01*
X0054775Y0029985D01*
X0054724Y0029896D01*
X0054645Y0029830D01*
X0054548Y0029795D01*
X0054445Y0029795D01*
X0054348Y0029830D01*
X0054269Y0029896D01*
X0054218Y0029985D01*
X0054200Y0030087D01*
X0054209Y0030031D02*
X0054784Y0030031D01*
X0054752Y0030230D02*
X0054241Y0030230D01*
X0054345Y0029833D02*
X0054648Y0029833D01*
X0055339Y0027811D02*
X0055435Y0027846D01*
X0055539Y0027846D01*
X0055635Y0027811D01*
X0055714Y0027744D01*
X0055766Y0027655D01*
X0055784Y0027553D01*
X0055766Y0027452D01*
X0055714Y0027363D01*
X0055635Y0027296D01*
X0055539Y0027261D01*
X0055435Y0027261D01*
X0055339Y0027296D01*
X0055260Y0027363D01*
X0055208Y0027452D01*
X0055190Y0027553D01*
X0055208Y0027655D01*
X0055260Y0027744D01*
X0055339Y0027811D01*
X0055207Y0027649D02*
X0055767Y0027649D01*
X0055765Y0027451D02*
X0055209Y0027451D01*
X0040893Y0079683D02*
X0040790Y0079683D01*
X0040693Y0079718D01*
X0040614Y0079784D01*
X0040562Y0079874D01*
X0040544Y0079975D01*
X0040562Y0080077D01*
X0040614Y0080166D01*
X0040693Y0080232D01*
X0040790Y0080268D01*
X0040893Y0080268D01*
X0040990Y0080232D01*
X0041069Y0080166D01*
X0041120Y0080077D01*
X0041138Y0079975D01*
X0041120Y0079874D01*
X0041069Y0079784D01*
X0040990Y0079718D01*
X0040893Y0079683D01*
X0041111Y0079858D02*
X0040572Y0079858D01*
X0040559Y0080056D02*
X0041124Y0080056D01*
X0040928Y0080255D02*
X0040755Y0080255D01*
D17*
X0071071Y0035244D02*
X0070441Y0034615D01*
X0071071Y0035244D02*
X0081700Y0035244D01*
D18*
X0088237Y0077640D02*
X0088715Y0078119D01*
X0095441Y0078119D01*
D19*
X0103296Y0073985D02*
X0103315Y0073965D01*
X0103315Y0071622D01*
X0099181Y0067489D01*
X0099181Y0065619D01*
M02*
