G75*
%MOIN*%
%OFA0B0*%
%FSLAX25Y25*%
%IPPOS*%
%LPD*%
%AMOC8*
5,1,8,0,0,1.08239X$1,22.5*
%
%ADD10R,0.05118X0.02756*%
%ADD11R,0.01969X0.02756*%
%ADD12R,0.02362X0.05906*%
%ADD13R,0.01969X0.02362*%
%ADD14C,0.01969*%
%ADD15C,0.02953*%
%ADD16C,0.01981*%
%ADD17C,0.01575*%
%ADD18C,0.00400*%
%ADD19C,0.01587*%
%ADD20C,0.00500*%
%ADD21C,0.00394*%
D10*
X0051197Y0046236D03*
X0051197Y0054110D03*
X0051197Y0085606D03*
X0051197Y0093480D03*
X0051197Y0124976D03*
X0051197Y0132850D03*
X0051197Y0164346D03*
X0051197Y0172220D03*
X0051197Y0203717D03*
X0051197Y0211591D03*
X0090567Y0211591D03*
X0090567Y0203717D03*
X0090567Y0172220D03*
X0090567Y0164346D03*
X0090567Y0132850D03*
X0090567Y0124976D03*
X0090567Y0093480D03*
X0090567Y0085606D03*
X0090567Y0054110D03*
X0090567Y0046236D03*
X0129937Y0046236D03*
X0129937Y0054110D03*
X0129937Y0085606D03*
X0129937Y0093480D03*
X0129937Y0124976D03*
X0129937Y0132850D03*
X0129937Y0164346D03*
X0129937Y0172220D03*
X0129937Y0203717D03*
X0129937Y0211591D03*
X0169307Y0211591D03*
X0169307Y0203717D03*
X0169307Y0172220D03*
X0169307Y0164346D03*
X0169307Y0132850D03*
X0169307Y0124976D03*
X0169307Y0093480D03*
X0169307Y0085606D03*
X0169307Y0054110D03*
X0169307Y0046236D03*
X0208677Y0046236D03*
X0208677Y0054110D03*
X0208677Y0085606D03*
X0208677Y0093480D03*
X0208677Y0124976D03*
X0208677Y0132850D03*
X0208677Y0164346D03*
X0208677Y0172220D03*
X0208677Y0203717D03*
X0208677Y0211591D03*
D11*
X0217732Y0203362D03*
X0178362Y0203362D03*
X0138992Y0203362D03*
X0099622Y0203362D03*
X0060252Y0203362D03*
X0060252Y0163992D03*
X0099622Y0163992D03*
X0138992Y0163992D03*
X0138992Y0124622D03*
X0099622Y0124622D03*
X0060252Y0124622D03*
X0060252Y0085252D03*
X0099622Y0085252D03*
X0138992Y0085252D03*
X0138992Y0045882D03*
X0099622Y0045882D03*
X0060252Y0045882D03*
X0178362Y0045882D03*
X0217732Y0045882D03*
X0217732Y0085252D03*
X0178362Y0085252D03*
X0178362Y0124622D03*
X0217732Y0124622D03*
X0217732Y0163992D03*
X0178362Y0163992D03*
D12*
X0174425Y0168323D03*
X0182299Y0168323D03*
X0213795Y0168323D03*
X0221669Y0168323D03*
X0221669Y0207693D03*
X0213795Y0207693D03*
X0182299Y0207693D03*
X0174425Y0207693D03*
X0142929Y0207693D03*
X0135055Y0207693D03*
X0103559Y0207693D03*
X0095685Y0207693D03*
X0064189Y0207693D03*
X0056315Y0207693D03*
X0056315Y0168323D03*
X0064189Y0168323D03*
X0095685Y0168323D03*
X0103559Y0168323D03*
X0135055Y0168323D03*
X0142929Y0168323D03*
X0142929Y0128953D03*
X0135055Y0128953D03*
X0103559Y0128953D03*
X0095685Y0128953D03*
X0064189Y0128953D03*
X0056315Y0128953D03*
X0056315Y0089583D03*
X0064189Y0089583D03*
X0095685Y0089583D03*
X0103559Y0089583D03*
X0135055Y0089583D03*
X0142929Y0089583D03*
X0174425Y0089583D03*
X0182299Y0089583D03*
X0213795Y0089583D03*
X0221669Y0089583D03*
X0221669Y0128953D03*
X0213795Y0128953D03*
X0182299Y0128953D03*
X0174425Y0128953D03*
X0174425Y0050213D03*
X0182299Y0050213D03*
X0213795Y0050213D03*
X0221669Y0050213D03*
X0142929Y0050213D03*
X0135055Y0050213D03*
X0103559Y0050213D03*
X0095685Y0050213D03*
X0064189Y0050213D03*
X0056315Y0050213D03*
D13*
X0060252Y0054150D03*
X0099622Y0054150D03*
X0138992Y0054150D03*
X0138992Y0093520D03*
X0099622Y0093520D03*
X0060252Y0093520D03*
X0060252Y0132890D03*
X0099622Y0132890D03*
X0138992Y0132890D03*
X0138992Y0172260D03*
X0099622Y0172260D03*
X0060252Y0172260D03*
X0060252Y0211630D03*
X0099622Y0211630D03*
X0138992Y0211630D03*
X0178362Y0211630D03*
X0217732Y0211630D03*
X0217732Y0172260D03*
X0178362Y0172260D03*
X0178362Y0132890D03*
X0217732Y0132890D03*
X0217732Y0093520D03*
X0178362Y0093520D03*
X0178362Y0054150D03*
X0217732Y0054150D03*
D14*
X0023638Y0044307D02*
X0023640Y0044369D01*
X0023646Y0044432D01*
X0023656Y0044493D01*
X0023670Y0044554D01*
X0023687Y0044614D01*
X0023708Y0044673D01*
X0023734Y0044730D01*
X0023762Y0044785D01*
X0023794Y0044839D01*
X0023830Y0044890D01*
X0023868Y0044940D01*
X0023910Y0044986D01*
X0023954Y0045030D01*
X0024002Y0045071D01*
X0024051Y0045109D01*
X0024103Y0045143D01*
X0024157Y0045174D01*
X0024213Y0045202D01*
X0024271Y0045226D01*
X0024330Y0045247D01*
X0024390Y0045263D01*
X0024451Y0045276D01*
X0024513Y0045285D01*
X0024575Y0045290D01*
X0024638Y0045291D01*
X0024700Y0045288D01*
X0024762Y0045281D01*
X0024824Y0045270D01*
X0024884Y0045255D01*
X0024944Y0045237D01*
X0025002Y0045215D01*
X0025059Y0045189D01*
X0025114Y0045159D01*
X0025167Y0045126D01*
X0025218Y0045090D01*
X0025266Y0045051D01*
X0025312Y0045008D01*
X0025355Y0044963D01*
X0025395Y0044915D01*
X0025432Y0044865D01*
X0025466Y0044812D01*
X0025497Y0044758D01*
X0025523Y0044702D01*
X0025547Y0044644D01*
X0025566Y0044584D01*
X0025582Y0044524D01*
X0025594Y0044462D01*
X0025602Y0044401D01*
X0025606Y0044338D01*
X0025606Y0044276D01*
X0025602Y0044213D01*
X0025594Y0044152D01*
X0025582Y0044090D01*
X0025566Y0044030D01*
X0025547Y0043970D01*
X0025523Y0043912D01*
X0025497Y0043856D01*
X0025466Y0043802D01*
X0025432Y0043749D01*
X0025395Y0043699D01*
X0025355Y0043651D01*
X0025312Y0043606D01*
X0025266Y0043563D01*
X0025218Y0043524D01*
X0025167Y0043488D01*
X0025114Y0043455D01*
X0025059Y0043425D01*
X0025002Y0043399D01*
X0024944Y0043377D01*
X0024884Y0043359D01*
X0024824Y0043344D01*
X0024762Y0043333D01*
X0024700Y0043326D01*
X0024638Y0043323D01*
X0024575Y0043324D01*
X0024513Y0043329D01*
X0024451Y0043338D01*
X0024390Y0043351D01*
X0024330Y0043367D01*
X0024271Y0043388D01*
X0024213Y0043412D01*
X0024157Y0043440D01*
X0024103Y0043471D01*
X0024051Y0043505D01*
X0024002Y0043543D01*
X0023954Y0043584D01*
X0023910Y0043628D01*
X0023868Y0043674D01*
X0023830Y0043724D01*
X0023794Y0043775D01*
X0023762Y0043829D01*
X0023734Y0043884D01*
X0023708Y0043941D01*
X0023687Y0044000D01*
X0023670Y0044060D01*
X0023656Y0044121D01*
X0023646Y0044182D01*
X0023640Y0044245D01*
X0023638Y0044307D01*
X0240173Y0193913D02*
X0240175Y0193975D01*
X0240181Y0194038D01*
X0240191Y0194099D01*
X0240205Y0194160D01*
X0240222Y0194220D01*
X0240243Y0194279D01*
X0240269Y0194336D01*
X0240297Y0194391D01*
X0240329Y0194445D01*
X0240365Y0194496D01*
X0240403Y0194546D01*
X0240445Y0194592D01*
X0240489Y0194636D01*
X0240537Y0194677D01*
X0240586Y0194715D01*
X0240638Y0194749D01*
X0240692Y0194780D01*
X0240748Y0194808D01*
X0240806Y0194832D01*
X0240865Y0194853D01*
X0240925Y0194869D01*
X0240986Y0194882D01*
X0241048Y0194891D01*
X0241110Y0194896D01*
X0241173Y0194897D01*
X0241235Y0194894D01*
X0241297Y0194887D01*
X0241359Y0194876D01*
X0241419Y0194861D01*
X0241479Y0194843D01*
X0241537Y0194821D01*
X0241594Y0194795D01*
X0241649Y0194765D01*
X0241702Y0194732D01*
X0241753Y0194696D01*
X0241801Y0194657D01*
X0241847Y0194614D01*
X0241890Y0194569D01*
X0241930Y0194521D01*
X0241967Y0194471D01*
X0242001Y0194418D01*
X0242032Y0194364D01*
X0242058Y0194308D01*
X0242082Y0194250D01*
X0242101Y0194190D01*
X0242117Y0194130D01*
X0242129Y0194068D01*
X0242137Y0194007D01*
X0242141Y0193944D01*
X0242141Y0193882D01*
X0242137Y0193819D01*
X0242129Y0193758D01*
X0242117Y0193696D01*
X0242101Y0193636D01*
X0242082Y0193576D01*
X0242058Y0193518D01*
X0242032Y0193462D01*
X0242001Y0193408D01*
X0241967Y0193355D01*
X0241930Y0193305D01*
X0241890Y0193257D01*
X0241847Y0193212D01*
X0241801Y0193169D01*
X0241753Y0193130D01*
X0241702Y0193094D01*
X0241649Y0193061D01*
X0241594Y0193031D01*
X0241537Y0193005D01*
X0241479Y0192983D01*
X0241419Y0192965D01*
X0241359Y0192950D01*
X0241297Y0192939D01*
X0241235Y0192932D01*
X0241173Y0192929D01*
X0241110Y0192930D01*
X0241048Y0192935D01*
X0240986Y0192944D01*
X0240925Y0192957D01*
X0240865Y0192973D01*
X0240806Y0192994D01*
X0240748Y0193018D01*
X0240692Y0193046D01*
X0240638Y0193077D01*
X0240586Y0193111D01*
X0240537Y0193149D01*
X0240489Y0193190D01*
X0240445Y0193234D01*
X0240403Y0193280D01*
X0240365Y0193330D01*
X0240329Y0193381D01*
X0240297Y0193435D01*
X0240269Y0193490D01*
X0240243Y0193547D01*
X0240222Y0193606D01*
X0240205Y0193666D01*
X0240191Y0193727D01*
X0240181Y0193788D01*
X0240175Y0193851D01*
X0240173Y0193913D01*
X0255922Y0052181D02*
X0255924Y0052243D01*
X0255930Y0052306D01*
X0255940Y0052367D01*
X0255954Y0052428D01*
X0255971Y0052488D01*
X0255992Y0052547D01*
X0256018Y0052604D01*
X0256046Y0052659D01*
X0256078Y0052713D01*
X0256114Y0052764D01*
X0256152Y0052814D01*
X0256194Y0052860D01*
X0256238Y0052904D01*
X0256286Y0052945D01*
X0256335Y0052983D01*
X0256387Y0053017D01*
X0256441Y0053048D01*
X0256497Y0053076D01*
X0256555Y0053100D01*
X0256614Y0053121D01*
X0256674Y0053137D01*
X0256735Y0053150D01*
X0256797Y0053159D01*
X0256859Y0053164D01*
X0256922Y0053165D01*
X0256984Y0053162D01*
X0257046Y0053155D01*
X0257108Y0053144D01*
X0257168Y0053129D01*
X0257228Y0053111D01*
X0257286Y0053089D01*
X0257343Y0053063D01*
X0257398Y0053033D01*
X0257451Y0053000D01*
X0257502Y0052964D01*
X0257550Y0052925D01*
X0257596Y0052882D01*
X0257639Y0052837D01*
X0257679Y0052789D01*
X0257716Y0052739D01*
X0257750Y0052686D01*
X0257781Y0052632D01*
X0257807Y0052576D01*
X0257831Y0052518D01*
X0257850Y0052458D01*
X0257866Y0052398D01*
X0257878Y0052336D01*
X0257886Y0052275D01*
X0257890Y0052212D01*
X0257890Y0052150D01*
X0257886Y0052087D01*
X0257878Y0052026D01*
X0257866Y0051964D01*
X0257850Y0051904D01*
X0257831Y0051844D01*
X0257807Y0051786D01*
X0257781Y0051730D01*
X0257750Y0051676D01*
X0257716Y0051623D01*
X0257679Y0051573D01*
X0257639Y0051525D01*
X0257596Y0051480D01*
X0257550Y0051437D01*
X0257502Y0051398D01*
X0257451Y0051362D01*
X0257398Y0051329D01*
X0257343Y0051299D01*
X0257286Y0051273D01*
X0257228Y0051251D01*
X0257168Y0051233D01*
X0257108Y0051218D01*
X0257046Y0051207D01*
X0256984Y0051200D01*
X0256922Y0051197D01*
X0256859Y0051198D01*
X0256797Y0051203D01*
X0256735Y0051212D01*
X0256674Y0051225D01*
X0256614Y0051241D01*
X0256555Y0051262D01*
X0256497Y0051286D01*
X0256441Y0051314D01*
X0256387Y0051345D01*
X0256335Y0051379D01*
X0256286Y0051417D01*
X0256238Y0051458D01*
X0256194Y0051502D01*
X0256152Y0051548D01*
X0256114Y0051598D01*
X0256078Y0051649D01*
X0256046Y0051703D01*
X0256018Y0051758D01*
X0255992Y0051815D01*
X0255971Y0051874D01*
X0255954Y0051934D01*
X0255940Y0051995D01*
X0255930Y0052056D01*
X0255924Y0052119D01*
X0255922Y0052181D01*
D15*
X0223244Y0040764D03*
X0219307Y0040764D03*
X0215370Y0040764D03*
X0211433Y0040764D03*
X0207496Y0040764D03*
X0183874Y0040764D03*
X0179937Y0040764D03*
X0176000Y0040764D03*
X0172063Y0040764D03*
X0168126Y0040764D03*
X0144504Y0040764D03*
X0140567Y0040764D03*
X0136630Y0040764D03*
X0132693Y0040764D03*
X0128756Y0040764D03*
X0105134Y0040764D03*
X0101197Y0040764D03*
X0097260Y0040764D03*
X0093323Y0040764D03*
X0089386Y0040764D03*
X0065764Y0040764D03*
X0061827Y0040764D03*
X0057890Y0040764D03*
X0053953Y0040764D03*
X0050016Y0040764D03*
X0050016Y0080134D03*
X0053953Y0080134D03*
X0057890Y0080134D03*
X0061827Y0080134D03*
X0065764Y0080134D03*
X0089386Y0080134D03*
X0093323Y0080134D03*
X0097260Y0080134D03*
X0101197Y0080134D03*
X0105134Y0080134D03*
X0128756Y0080134D03*
X0132693Y0080134D03*
X0136630Y0080134D03*
X0140567Y0080134D03*
X0144504Y0080134D03*
X0168126Y0080134D03*
X0172063Y0080134D03*
X0176000Y0080134D03*
X0179937Y0080134D03*
X0183874Y0080134D03*
X0207496Y0080134D03*
X0211433Y0080134D03*
X0215370Y0080134D03*
X0219307Y0080134D03*
X0223244Y0080134D03*
X0223244Y0119504D03*
X0219307Y0119504D03*
X0215370Y0119504D03*
X0211433Y0119504D03*
X0207496Y0119504D03*
X0183874Y0119504D03*
X0179937Y0119504D03*
X0176000Y0119504D03*
X0172063Y0119504D03*
X0168126Y0119504D03*
X0144504Y0119504D03*
X0140567Y0119504D03*
X0136630Y0119504D03*
X0132693Y0119504D03*
X0128756Y0119504D03*
X0105134Y0119504D03*
X0101197Y0119504D03*
X0097260Y0119504D03*
X0093323Y0119504D03*
X0089386Y0119504D03*
X0065764Y0119504D03*
X0061827Y0119504D03*
X0057890Y0119504D03*
X0053953Y0119504D03*
X0050016Y0119504D03*
X0050016Y0158874D03*
X0053953Y0158874D03*
X0057890Y0158874D03*
X0061827Y0158874D03*
X0065764Y0158874D03*
X0089386Y0158874D03*
X0093323Y0158874D03*
X0097260Y0158874D03*
X0101197Y0158874D03*
X0105134Y0158874D03*
X0128756Y0158874D03*
X0132693Y0158874D03*
X0136630Y0158874D03*
X0140567Y0158874D03*
X0144504Y0158874D03*
X0168126Y0158874D03*
X0172063Y0158874D03*
X0176000Y0158874D03*
X0179937Y0158874D03*
X0183874Y0158874D03*
X0207496Y0158874D03*
X0211433Y0158874D03*
X0215370Y0158874D03*
X0219307Y0158874D03*
X0223244Y0158874D03*
X0223244Y0198244D03*
X0219307Y0198244D03*
X0215370Y0198244D03*
X0211433Y0198244D03*
X0207496Y0198244D03*
X0183874Y0198244D03*
X0179937Y0198244D03*
X0176000Y0198244D03*
X0172063Y0198244D03*
X0168126Y0198244D03*
X0144504Y0198244D03*
X0140567Y0198244D03*
X0136630Y0198244D03*
X0132693Y0198244D03*
X0128756Y0198244D03*
X0105134Y0198244D03*
X0101197Y0198244D03*
X0097260Y0198244D03*
X0093323Y0198244D03*
X0089386Y0198244D03*
X0065764Y0198244D03*
X0061827Y0198244D03*
X0057890Y0198244D03*
X0053953Y0198244D03*
X0050016Y0198244D03*
D16*
X0049622Y0210252D03*
X0088992Y0210252D03*
X0128362Y0210252D03*
X0128362Y0170882D03*
X0088992Y0170882D03*
X0049622Y0170882D03*
X0049622Y0131512D03*
X0088992Y0131512D03*
X0128362Y0131512D03*
X0128362Y0092142D03*
X0088992Y0092142D03*
X0049622Y0092142D03*
X0049622Y0052772D03*
X0088992Y0052772D03*
X0128362Y0052772D03*
X0167732Y0052772D03*
X0207102Y0052772D03*
X0207102Y0092142D03*
X0167732Y0092142D03*
X0167732Y0131512D03*
X0207102Y0131512D03*
X0207102Y0170882D03*
X0167732Y0170882D03*
X0167732Y0210252D03*
X0207102Y0210252D03*
D17*
X0208441Y0211591D01*
X0208677Y0211591D01*
X0208677Y0203746D02*
X0208313Y0203746D01*
X0208677Y0203746D02*
X0208677Y0203717D01*
X0209110Y0203717D01*
X0211236Y0201591D01*
X0217339Y0201591D01*
X0217732Y0201984D01*
X0217732Y0203362D01*
X0217339Y0201591D02*
X0219307Y0199622D01*
X0219307Y0198244D01*
X0208677Y0172220D02*
X0208441Y0172220D01*
X0207102Y0170882D01*
X0208313Y0164376D02*
X0208677Y0164376D01*
X0208677Y0164346D01*
X0209110Y0164346D01*
X0211236Y0162220D01*
X0217339Y0162220D01*
X0217732Y0162614D01*
X0217732Y0163992D01*
X0217339Y0162220D02*
X0219307Y0160252D01*
X0219307Y0158874D01*
X0208677Y0132850D02*
X0208441Y0132850D01*
X0207102Y0131512D01*
X0208313Y0125006D02*
X0208677Y0125006D01*
X0208677Y0124976D01*
X0209110Y0124976D01*
X0211236Y0122850D01*
X0217339Y0122850D01*
X0217732Y0123244D01*
X0217732Y0124622D01*
X0217339Y0122850D02*
X0219307Y0120882D01*
X0219307Y0119504D01*
X0208677Y0093480D02*
X0208441Y0093480D01*
X0207102Y0092142D01*
X0208313Y0085636D02*
X0208677Y0085636D01*
X0208677Y0085606D01*
X0209110Y0085606D01*
X0211236Y0083480D01*
X0217339Y0083480D01*
X0217732Y0083874D01*
X0217732Y0085252D01*
X0217339Y0083480D02*
X0219307Y0081512D01*
X0219307Y0080134D01*
X0208677Y0054110D02*
X0208441Y0054110D01*
X0207102Y0052772D01*
X0208313Y0046266D02*
X0208677Y0046266D01*
X0208677Y0046236D01*
X0209110Y0046236D01*
X0211236Y0044110D01*
X0217339Y0044110D01*
X0217732Y0044504D01*
X0217732Y0045882D01*
X0217339Y0044110D02*
X0219307Y0042142D01*
X0219307Y0040764D01*
X0179937Y0040764D02*
X0179937Y0042142D01*
X0177969Y0044110D01*
X0178362Y0044504D01*
X0178362Y0045882D01*
X0177969Y0044110D02*
X0171866Y0044110D01*
X0169740Y0046236D01*
X0169307Y0046236D01*
X0169307Y0046266D01*
X0168943Y0046266D01*
X0167732Y0052772D02*
X0169071Y0054110D01*
X0169307Y0054110D01*
X0179937Y0080134D02*
X0179937Y0081512D01*
X0177969Y0083480D01*
X0178362Y0083874D01*
X0178362Y0085252D01*
X0177969Y0083480D02*
X0171866Y0083480D01*
X0169740Y0085606D01*
X0169307Y0085606D01*
X0169307Y0085636D01*
X0168943Y0085636D01*
X0167732Y0092142D02*
X0169071Y0093480D01*
X0169307Y0093480D01*
X0140567Y0081512D02*
X0140567Y0080134D01*
X0140567Y0081512D02*
X0138598Y0083480D01*
X0138992Y0083874D01*
X0138992Y0085252D01*
X0138598Y0083480D02*
X0132496Y0083480D01*
X0130370Y0085606D01*
X0129937Y0085606D01*
X0129937Y0085636D01*
X0129573Y0085636D01*
X0128362Y0092142D02*
X0129701Y0093480D01*
X0129937Y0093480D01*
X0140567Y0119504D02*
X0140567Y0120882D01*
X0138598Y0122850D01*
X0138992Y0123244D01*
X0138992Y0124622D01*
X0138598Y0122850D02*
X0132496Y0122850D01*
X0130370Y0124976D01*
X0129937Y0124976D01*
X0129937Y0125006D01*
X0129573Y0125006D01*
X0128362Y0131512D02*
X0129701Y0132850D01*
X0129937Y0132850D01*
X0140567Y0158874D02*
X0140567Y0160252D01*
X0138598Y0162220D01*
X0138992Y0162614D01*
X0138992Y0163992D01*
X0138598Y0162220D02*
X0132496Y0162220D01*
X0130370Y0164346D01*
X0129937Y0164346D01*
X0129937Y0164376D01*
X0129573Y0164376D01*
X0128362Y0170882D02*
X0129701Y0172220D01*
X0129937Y0172220D01*
X0140567Y0198244D02*
X0140567Y0199622D01*
X0138598Y0201591D01*
X0138992Y0201984D01*
X0138992Y0203362D01*
X0138598Y0201591D02*
X0132496Y0201591D01*
X0130370Y0203717D01*
X0129937Y0203717D01*
X0129937Y0203746D01*
X0129573Y0203746D01*
X0128362Y0210252D02*
X0129701Y0211591D01*
X0129937Y0211591D01*
X0101197Y0199622D02*
X0099228Y0201591D01*
X0099622Y0201984D01*
X0099622Y0203362D01*
X0099228Y0201591D02*
X0093126Y0201591D01*
X0091000Y0203717D01*
X0090567Y0203717D01*
X0090567Y0203746D01*
X0090203Y0203746D01*
X0088992Y0210252D02*
X0090331Y0211591D01*
X0090567Y0211591D01*
X0101197Y0199622D02*
X0101197Y0198244D01*
X0090567Y0172220D02*
X0090331Y0172220D01*
X0088992Y0170882D01*
X0090203Y0164376D02*
X0090567Y0164376D01*
X0090567Y0164346D01*
X0091000Y0164346D01*
X0093126Y0162220D01*
X0099228Y0162220D01*
X0099622Y0162614D01*
X0099622Y0163992D01*
X0099228Y0162220D02*
X0101197Y0160252D01*
X0101197Y0158874D01*
X0090567Y0132850D02*
X0090331Y0132850D01*
X0088992Y0131512D01*
X0090203Y0125006D02*
X0090567Y0125006D01*
X0090567Y0124976D01*
X0091000Y0124976D01*
X0093126Y0122850D01*
X0099228Y0122850D01*
X0099622Y0123244D01*
X0099622Y0124622D01*
X0099228Y0122850D02*
X0101197Y0120882D01*
X0101197Y0119504D01*
X0090567Y0093480D02*
X0090331Y0093480D01*
X0088992Y0092142D01*
X0090203Y0085636D02*
X0090567Y0085636D01*
X0090567Y0085606D01*
X0091000Y0085606D01*
X0093126Y0083480D01*
X0099228Y0083480D01*
X0099622Y0083874D01*
X0099622Y0085252D01*
X0099228Y0083480D02*
X0101197Y0081512D01*
X0101197Y0080134D01*
X0090567Y0054110D02*
X0090331Y0054110D01*
X0088992Y0052772D01*
X0090203Y0046266D02*
X0090567Y0046266D01*
X0090567Y0046236D01*
X0091000Y0046236D01*
X0093126Y0044110D01*
X0099228Y0044110D01*
X0099622Y0044504D01*
X0099622Y0045882D01*
X0099228Y0044110D02*
X0101197Y0042142D01*
X0101197Y0040764D01*
X0128362Y0052772D02*
X0129701Y0054110D01*
X0129937Y0054110D01*
X0129937Y0046266D02*
X0129573Y0046266D01*
X0129937Y0046266D02*
X0129937Y0046236D01*
X0130370Y0046236D01*
X0132496Y0044110D01*
X0138598Y0044110D01*
X0138992Y0044504D01*
X0138992Y0045882D01*
X0138598Y0044110D02*
X0140567Y0042142D01*
X0140567Y0040764D01*
X0061827Y0040764D02*
X0061827Y0042142D01*
X0059858Y0044110D01*
X0060252Y0044504D01*
X0060252Y0045882D01*
X0059858Y0044110D02*
X0053756Y0044110D01*
X0051630Y0046236D01*
X0051197Y0046236D01*
X0051197Y0046266D01*
X0050833Y0046266D01*
X0049622Y0052772D02*
X0050961Y0054110D01*
X0051197Y0054110D01*
X0061827Y0080134D02*
X0061827Y0081512D01*
X0059858Y0083480D01*
X0060252Y0083874D01*
X0060252Y0085252D01*
X0059858Y0083480D02*
X0053756Y0083480D01*
X0051630Y0085606D01*
X0051197Y0085606D01*
X0051197Y0085636D01*
X0050833Y0085636D01*
X0049622Y0092142D02*
X0050961Y0093480D01*
X0051197Y0093480D01*
X0061827Y0119504D02*
X0061827Y0120882D01*
X0059858Y0122850D01*
X0060252Y0123244D01*
X0060252Y0124622D01*
X0059858Y0122850D02*
X0053756Y0122850D01*
X0051630Y0124976D01*
X0051197Y0124976D01*
X0051197Y0125006D01*
X0050833Y0125006D01*
X0049622Y0131512D02*
X0050961Y0132850D01*
X0051197Y0132850D01*
X0061827Y0158874D02*
X0061827Y0160252D01*
X0059858Y0162220D01*
X0060252Y0162614D01*
X0060252Y0163992D01*
X0059858Y0162220D02*
X0053756Y0162220D01*
X0051630Y0164346D01*
X0051197Y0164346D01*
X0051197Y0164376D01*
X0050833Y0164376D01*
X0049622Y0170882D02*
X0050961Y0172220D01*
X0051197Y0172220D01*
X0061827Y0198244D02*
X0061827Y0199622D01*
X0059858Y0201591D01*
X0060252Y0201984D01*
X0060252Y0203362D01*
X0059858Y0201591D02*
X0053756Y0201591D01*
X0051630Y0203717D01*
X0051197Y0203717D01*
X0051197Y0203746D01*
X0050833Y0203746D01*
X0049622Y0210252D02*
X0050961Y0211591D01*
X0051197Y0211591D01*
X0167732Y0210252D02*
X0169071Y0211591D01*
X0169307Y0211591D01*
X0169307Y0203746D02*
X0168943Y0203746D01*
X0169307Y0203746D02*
X0169307Y0203717D01*
X0169740Y0203717D01*
X0171866Y0201591D01*
X0177969Y0201591D01*
X0178362Y0201984D01*
X0178362Y0203362D01*
X0177969Y0201591D02*
X0179937Y0199622D01*
X0179937Y0198244D01*
X0169307Y0172220D02*
X0169071Y0172220D01*
X0167732Y0170882D01*
X0168943Y0164376D02*
X0169307Y0164376D01*
X0169307Y0164346D01*
X0169740Y0164346D01*
X0171866Y0162220D01*
X0177969Y0162220D01*
X0178362Y0162614D01*
X0178362Y0163992D01*
X0177969Y0162220D02*
X0179937Y0160252D01*
X0179937Y0158874D01*
X0169307Y0132850D02*
X0169071Y0132850D01*
X0167732Y0131512D01*
X0168943Y0125006D02*
X0169307Y0125006D01*
X0169307Y0124976D01*
X0169740Y0124976D01*
X0171866Y0122850D01*
X0177969Y0122850D01*
X0178362Y0123244D01*
X0178362Y0124622D01*
X0177969Y0122850D02*
X0179937Y0120882D01*
X0179937Y0119504D01*
D18*
X0181355Y0120952D02*
X0185446Y0120952D01*
X0185446Y0121350D02*
X0181274Y0121350D01*
X0181274Y0121436D02*
X0179795Y0122915D01*
X0179896Y0123016D01*
X0179896Y0125721D01*
X0180840Y0125721D01*
X0181003Y0125885D01*
X0181003Y0131824D01*
X0180840Y0131987D01*
X0175491Y0131987D01*
X0175328Y0131824D01*
X0175328Y0125885D01*
X0175491Y0125721D01*
X0176828Y0125721D01*
X0176828Y0124188D01*
X0172420Y0124188D01*
X0172416Y0124192D01*
X0172416Y0126582D01*
X0172094Y0126904D01*
X0166554Y0126904D01*
X0166554Y0130511D01*
X0167094Y0129971D01*
X0168370Y0129971D01*
X0169273Y0130874D01*
X0169273Y0130922D01*
X0172094Y0130922D01*
X0172416Y0131245D01*
X0172416Y0134456D01*
X0172094Y0134778D01*
X0166554Y0134778D01*
X0166554Y0135252D01*
X0166574Y0135404D01*
X0166726Y0135667D01*
X0166990Y0135819D01*
X0167142Y0135839D01*
X0174507Y0135839D01*
X0174853Y0136039D01*
X0181477Y0136039D01*
X0181824Y0135839D01*
X0184858Y0135839D01*
X0185010Y0135819D01*
X0185274Y0135667D01*
X0185426Y0135404D01*
X0185446Y0135252D01*
X0185446Y0119704D01*
X0181963Y0119704D01*
X0181963Y0120343D01*
X0181274Y0121032D01*
X0181274Y0121436D01*
X0180961Y0121749D02*
X0185446Y0121749D01*
X0185446Y0122147D02*
X0180563Y0122147D01*
X0180164Y0122546D02*
X0185446Y0122546D01*
X0185446Y0122944D02*
X0179825Y0122944D01*
X0179896Y0123343D02*
X0185446Y0123343D01*
X0185446Y0123741D02*
X0179896Y0123741D01*
X0179896Y0124140D02*
X0185446Y0124140D01*
X0185446Y0124539D02*
X0179896Y0124539D01*
X0179896Y0124937D02*
X0185446Y0124937D01*
X0185446Y0125336D02*
X0179896Y0125336D01*
X0180853Y0125734D02*
X0185446Y0125734D01*
X0185446Y0126133D02*
X0181003Y0126133D01*
X0181003Y0126531D02*
X0185446Y0126531D01*
X0185446Y0126930D02*
X0181003Y0126930D01*
X0181003Y0127328D02*
X0185446Y0127328D01*
X0185446Y0127727D02*
X0181003Y0127727D01*
X0181003Y0128125D02*
X0185446Y0128125D01*
X0185446Y0128524D02*
X0181003Y0128524D01*
X0181003Y0128922D02*
X0185446Y0128922D01*
X0185446Y0129321D02*
X0181003Y0129321D01*
X0181003Y0129719D02*
X0185446Y0129719D01*
X0185446Y0130118D02*
X0181003Y0130118D01*
X0181003Y0130516D02*
X0185446Y0130516D01*
X0185446Y0130915D02*
X0181003Y0130915D01*
X0181003Y0131313D02*
X0185446Y0131313D01*
X0185446Y0131712D02*
X0181003Y0131712D01*
X0185446Y0132110D02*
X0172416Y0132110D01*
X0172416Y0131712D02*
X0175328Y0131712D01*
X0175328Y0131313D02*
X0172416Y0131313D01*
X0172416Y0132509D02*
X0185446Y0132509D01*
X0185446Y0132907D02*
X0172416Y0132907D01*
X0172416Y0133306D02*
X0185446Y0133306D01*
X0185446Y0133704D02*
X0172416Y0133704D01*
X0172416Y0134103D02*
X0185446Y0134103D01*
X0185446Y0134501D02*
X0172371Y0134501D01*
X0175328Y0130915D02*
X0169273Y0130915D01*
X0168915Y0130516D02*
X0175328Y0130516D01*
X0175328Y0130118D02*
X0168517Y0130118D01*
X0166948Y0130118D02*
X0166554Y0130118D01*
X0166554Y0129719D02*
X0175328Y0129719D01*
X0175328Y0129321D02*
X0166554Y0129321D01*
X0166554Y0128922D02*
X0175328Y0128922D01*
X0175328Y0128524D02*
X0166554Y0128524D01*
X0166554Y0128125D02*
X0175328Y0128125D01*
X0175328Y0127727D02*
X0166554Y0127727D01*
X0166554Y0127328D02*
X0175328Y0127328D01*
X0175328Y0126930D02*
X0166554Y0126930D01*
X0172416Y0126531D02*
X0175328Y0126531D01*
X0175328Y0126133D02*
X0172416Y0126133D01*
X0172416Y0125734D02*
X0175478Y0125734D01*
X0176828Y0125336D02*
X0172416Y0125336D01*
X0172416Y0124937D02*
X0176828Y0124937D01*
X0176828Y0124539D02*
X0172416Y0124539D01*
X0181753Y0120553D02*
X0185446Y0120553D01*
X0185446Y0120155D02*
X0181963Y0120155D01*
X0181963Y0119756D02*
X0185446Y0119756D01*
X0185446Y0134900D02*
X0166554Y0134900D01*
X0166560Y0135298D02*
X0185440Y0135298D01*
X0185223Y0135697D02*
X0166777Y0135697D01*
X0146076Y0135252D02*
X0146076Y0119704D01*
X0142593Y0119704D01*
X0142593Y0120343D01*
X0141904Y0121032D01*
X0141904Y0121436D01*
X0140425Y0122915D01*
X0140526Y0123016D01*
X0140526Y0125721D01*
X0141470Y0125721D01*
X0141633Y0125885D01*
X0141633Y0131824D01*
X0141470Y0131987D01*
X0136121Y0131987D01*
X0135957Y0131824D01*
X0135957Y0125885D01*
X0136121Y0125721D01*
X0137458Y0125721D01*
X0137458Y0124188D01*
X0133050Y0124188D01*
X0133046Y0124192D01*
X0133046Y0126582D01*
X0132724Y0126904D01*
X0127184Y0126904D01*
X0127184Y0130511D01*
X0127724Y0129971D01*
X0129000Y0129971D01*
X0129903Y0130874D01*
X0129903Y0130922D01*
X0132724Y0130922D01*
X0133046Y0131245D01*
X0133046Y0134456D01*
X0132724Y0134778D01*
X0127184Y0134778D01*
X0127184Y0135252D01*
X0127204Y0135404D01*
X0127356Y0135667D01*
X0127620Y0135819D01*
X0127772Y0135839D01*
X0135137Y0135839D01*
X0135137Y0135839D01*
X0135483Y0136039D01*
X0142107Y0136039D01*
X0142454Y0135839D01*
X0145488Y0135839D01*
X0145640Y0135819D01*
X0145904Y0135667D01*
X0146056Y0135404D01*
X0146076Y0135252D01*
X0146069Y0135298D02*
X0127190Y0135298D01*
X0127184Y0134900D02*
X0146076Y0134900D01*
X0146076Y0134501D02*
X0133001Y0134501D01*
X0133046Y0134103D02*
X0146076Y0134103D01*
X0146076Y0133704D02*
X0133046Y0133704D01*
X0133046Y0133306D02*
X0146076Y0133306D01*
X0146076Y0132907D02*
X0133046Y0132907D01*
X0133046Y0132509D02*
X0146076Y0132509D01*
X0146076Y0132110D02*
X0133046Y0132110D01*
X0133046Y0131712D02*
X0135957Y0131712D01*
X0135957Y0131313D02*
X0133046Y0131313D01*
X0135957Y0130915D02*
X0129903Y0130915D01*
X0129545Y0130516D02*
X0135957Y0130516D01*
X0135957Y0130118D02*
X0129147Y0130118D01*
X0127578Y0130118D02*
X0127184Y0130118D01*
X0127184Y0129719D02*
X0135957Y0129719D01*
X0135957Y0129321D02*
X0127184Y0129321D01*
X0127184Y0128922D02*
X0135957Y0128922D01*
X0135957Y0128524D02*
X0127184Y0128524D01*
X0127184Y0128125D02*
X0135957Y0128125D01*
X0135957Y0127727D02*
X0127184Y0127727D01*
X0127184Y0127328D02*
X0135957Y0127328D01*
X0135957Y0126930D02*
X0127184Y0126930D01*
X0133046Y0126531D02*
X0135957Y0126531D01*
X0135957Y0126133D02*
X0133046Y0126133D01*
X0133046Y0125734D02*
X0136108Y0125734D01*
X0137458Y0125336D02*
X0133046Y0125336D01*
X0133046Y0124937D02*
X0137458Y0124937D01*
X0137458Y0124539D02*
X0133046Y0124539D01*
X0140526Y0124539D02*
X0146076Y0124539D01*
X0146076Y0124937D02*
X0140526Y0124937D01*
X0140526Y0125336D02*
X0146076Y0125336D01*
X0146076Y0125734D02*
X0141483Y0125734D01*
X0141633Y0126133D02*
X0146076Y0126133D01*
X0146076Y0126531D02*
X0141633Y0126531D01*
X0141633Y0126930D02*
X0146076Y0126930D01*
X0146076Y0127328D02*
X0141633Y0127328D01*
X0141633Y0127727D02*
X0146076Y0127727D01*
X0146076Y0128125D02*
X0141633Y0128125D01*
X0141633Y0128524D02*
X0146076Y0128524D01*
X0146076Y0128922D02*
X0141633Y0128922D01*
X0141633Y0129321D02*
X0146076Y0129321D01*
X0146076Y0129719D02*
X0141633Y0129719D01*
X0141633Y0130118D02*
X0146076Y0130118D01*
X0146076Y0130516D02*
X0141633Y0130516D01*
X0141633Y0130915D02*
X0146076Y0130915D01*
X0146076Y0131313D02*
X0141633Y0131313D01*
X0141633Y0131712D02*
X0146076Y0131712D01*
X0145852Y0135697D02*
X0127407Y0135697D01*
X0140526Y0124140D02*
X0146076Y0124140D01*
X0146076Y0123741D02*
X0140526Y0123741D01*
X0140526Y0123343D02*
X0146076Y0123343D01*
X0146076Y0122944D02*
X0140455Y0122944D01*
X0140794Y0122546D02*
X0146076Y0122546D01*
X0146076Y0122147D02*
X0141193Y0122147D01*
X0141591Y0121749D02*
X0146076Y0121749D01*
X0146076Y0121350D02*
X0141904Y0121350D01*
X0141985Y0120952D02*
X0146076Y0120952D01*
X0146076Y0120553D02*
X0142383Y0120553D01*
X0142593Y0120155D02*
X0146076Y0120155D01*
X0146076Y0119756D02*
X0142593Y0119756D01*
X0142107Y0096669D02*
X0135483Y0096669D01*
X0135137Y0096469D01*
X0127772Y0096469D01*
X0127620Y0096449D01*
X0127356Y0096297D01*
X0127204Y0096034D01*
X0127184Y0095882D01*
X0127184Y0095408D01*
X0132724Y0095408D01*
X0133046Y0095086D01*
X0133046Y0091875D01*
X0132724Y0091552D01*
X0129903Y0091552D01*
X0129903Y0091504D01*
X0129000Y0090601D01*
X0127724Y0090601D01*
X0127184Y0091141D01*
X0127184Y0087534D01*
X0132724Y0087534D01*
X0133046Y0087212D01*
X0133046Y0084822D01*
X0133050Y0084818D01*
X0137458Y0084818D01*
X0137458Y0086351D01*
X0136121Y0086351D01*
X0135957Y0086514D01*
X0135957Y0092454D01*
X0136121Y0092617D01*
X0141470Y0092617D01*
X0141633Y0092454D01*
X0141633Y0086514D01*
X0141470Y0086351D01*
X0140526Y0086351D01*
X0140526Y0083646D01*
X0140425Y0083545D01*
X0141904Y0082066D01*
X0141904Y0081662D01*
X0142593Y0080973D01*
X0142593Y0080334D01*
X0146076Y0080334D01*
X0146076Y0095882D01*
X0146056Y0096034D01*
X0145904Y0096297D01*
X0145640Y0096449D01*
X0145488Y0096469D01*
X0142454Y0096469D01*
X0142107Y0096669D01*
X0142153Y0096643D02*
X0135437Y0096643D01*
X0133046Y0095049D02*
X0146076Y0095049D01*
X0146076Y0095447D02*
X0127184Y0095447D01*
X0127184Y0095846D02*
X0146076Y0095846D01*
X0145934Y0096244D02*
X0127326Y0096244D01*
X0129861Y0091462D02*
X0135957Y0091462D01*
X0135957Y0091064D02*
X0129463Y0091064D01*
X0129064Y0090665D02*
X0135957Y0090665D01*
X0135957Y0090267D02*
X0127184Y0090267D01*
X0127184Y0090665D02*
X0127660Y0090665D01*
X0127262Y0091064D02*
X0127184Y0091064D01*
X0127184Y0089868D02*
X0135957Y0089868D01*
X0135957Y0089470D02*
X0127184Y0089470D01*
X0127184Y0089071D02*
X0135957Y0089071D01*
X0135957Y0088672D02*
X0127184Y0088672D01*
X0127184Y0088274D02*
X0135957Y0088274D01*
X0135957Y0087875D02*
X0127184Y0087875D01*
X0132781Y0087477D02*
X0135957Y0087477D01*
X0135957Y0087078D02*
X0133046Y0087078D01*
X0133046Y0086680D02*
X0135957Y0086680D01*
X0137458Y0086281D02*
X0133046Y0086281D01*
X0133046Y0085883D02*
X0137458Y0085883D01*
X0137458Y0085484D02*
X0133046Y0085484D01*
X0133046Y0085086D02*
X0137458Y0085086D01*
X0140526Y0085086D02*
X0146076Y0085086D01*
X0146076Y0085484D02*
X0140526Y0085484D01*
X0140526Y0085883D02*
X0146076Y0085883D01*
X0146076Y0086281D02*
X0140526Y0086281D01*
X0141633Y0086680D02*
X0146076Y0086680D01*
X0146076Y0087078D02*
X0141633Y0087078D01*
X0141633Y0087477D02*
X0146076Y0087477D01*
X0146076Y0087875D02*
X0141633Y0087875D01*
X0141633Y0088274D02*
X0146076Y0088274D01*
X0146076Y0088672D02*
X0141633Y0088672D01*
X0141633Y0089071D02*
X0146076Y0089071D01*
X0146076Y0089470D02*
X0141633Y0089470D01*
X0141633Y0089868D02*
X0146076Y0089868D01*
X0146076Y0090267D02*
X0141633Y0090267D01*
X0141633Y0090665D02*
X0146076Y0090665D01*
X0146076Y0091064D02*
X0141633Y0091064D01*
X0141633Y0091462D02*
X0146076Y0091462D01*
X0146076Y0091861D02*
X0141633Y0091861D01*
X0141633Y0092259D02*
X0146076Y0092259D01*
X0146076Y0092658D02*
X0133046Y0092658D01*
X0133046Y0093056D02*
X0146076Y0093056D01*
X0146076Y0093455D02*
X0133046Y0093455D01*
X0133046Y0093853D02*
X0146076Y0093853D01*
X0146076Y0094252D02*
X0133046Y0094252D01*
X0133046Y0094650D02*
X0146076Y0094650D01*
X0146076Y0084687D02*
X0140526Y0084687D01*
X0140526Y0084289D02*
X0146076Y0084289D01*
X0146076Y0083890D02*
X0140526Y0083890D01*
X0140478Y0083492D02*
X0146076Y0083492D01*
X0146076Y0083093D02*
X0140877Y0083093D01*
X0141275Y0082695D02*
X0146076Y0082695D01*
X0146076Y0082296D02*
X0141674Y0082296D01*
X0141904Y0081898D02*
X0146076Y0081898D01*
X0146076Y0081499D02*
X0142067Y0081499D01*
X0142466Y0081101D02*
X0146076Y0081101D01*
X0146076Y0080702D02*
X0142593Y0080702D01*
X0135957Y0091861D02*
X0133032Y0091861D01*
X0133046Y0092259D02*
X0135957Y0092259D01*
X0106706Y0092259D02*
X0102263Y0092259D01*
X0102263Y0092454D02*
X0102100Y0092617D01*
X0096751Y0092617D01*
X0096587Y0092454D01*
X0096587Y0086514D01*
X0096751Y0086351D01*
X0098088Y0086351D01*
X0098088Y0084818D01*
X0093680Y0084818D01*
X0093676Y0084822D01*
X0093676Y0087212D01*
X0093354Y0087534D01*
X0087814Y0087534D01*
X0087814Y0091141D01*
X0088354Y0090601D01*
X0089630Y0090601D01*
X0090533Y0091504D01*
X0090533Y0091552D01*
X0093354Y0091552D01*
X0093676Y0091875D01*
X0093676Y0095086D01*
X0093354Y0095408D01*
X0087814Y0095408D01*
X0087814Y0095882D01*
X0087834Y0096034D01*
X0087986Y0096297D01*
X0088250Y0096449D01*
X0088402Y0096469D01*
X0095767Y0096469D01*
X0095767Y0096469D01*
X0096113Y0096669D01*
X0102737Y0096669D01*
X0103083Y0096469D01*
X0106118Y0096469D01*
X0106270Y0096449D01*
X0106533Y0096297D01*
X0106685Y0096034D01*
X0106706Y0095882D01*
X0106706Y0080334D01*
X0103223Y0080334D01*
X0103223Y0080973D01*
X0102534Y0081662D01*
X0102534Y0082066D01*
X0101055Y0083545D01*
X0101156Y0083646D01*
X0101156Y0086351D01*
X0102100Y0086351D01*
X0102263Y0086514D01*
X0102263Y0092454D01*
X0102263Y0091861D02*
X0106706Y0091861D01*
X0106706Y0091462D02*
X0102263Y0091462D01*
X0102263Y0091064D02*
X0106706Y0091064D01*
X0106706Y0090665D02*
X0102263Y0090665D01*
X0102263Y0090267D02*
X0106706Y0090267D01*
X0106706Y0089868D02*
X0102263Y0089868D01*
X0102263Y0089470D02*
X0106706Y0089470D01*
X0106706Y0089071D02*
X0102263Y0089071D01*
X0102263Y0088672D02*
X0106706Y0088672D01*
X0106706Y0088274D02*
X0102263Y0088274D01*
X0102263Y0087875D02*
X0106706Y0087875D01*
X0106706Y0087477D02*
X0102263Y0087477D01*
X0102263Y0087078D02*
X0106706Y0087078D01*
X0106706Y0086680D02*
X0102263Y0086680D01*
X0101156Y0086281D02*
X0106706Y0086281D01*
X0106706Y0085883D02*
X0101156Y0085883D01*
X0101156Y0085484D02*
X0106706Y0085484D01*
X0106706Y0085086D02*
X0101156Y0085086D01*
X0101156Y0084687D02*
X0106706Y0084687D01*
X0106706Y0084289D02*
X0101156Y0084289D01*
X0101156Y0083890D02*
X0106706Y0083890D01*
X0106706Y0083492D02*
X0101108Y0083492D01*
X0101507Y0083093D02*
X0106706Y0083093D01*
X0106706Y0082695D02*
X0101905Y0082695D01*
X0102304Y0082296D02*
X0106706Y0082296D01*
X0106706Y0081898D02*
X0102534Y0081898D01*
X0102697Y0081499D02*
X0106706Y0081499D01*
X0106706Y0081101D02*
X0103096Y0081101D01*
X0103223Y0080702D02*
X0106706Y0080702D01*
X0098088Y0085086D02*
X0093676Y0085086D01*
X0093676Y0085484D02*
X0098088Y0085484D01*
X0098088Y0085883D02*
X0093676Y0085883D01*
X0093676Y0086281D02*
X0098088Y0086281D01*
X0096587Y0086680D02*
X0093676Y0086680D01*
X0093676Y0087078D02*
X0096587Y0087078D01*
X0096587Y0087477D02*
X0093411Y0087477D01*
X0096587Y0087875D02*
X0087814Y0087875D01*
X0087814Y0088274D02*
X0096587Y0088274D01*
X0096587Y0088672D02*
X0087814Y0088672D01*
X0087814Y0089071D02*
X0096587Y0089071D01*
X0096587Y0089470D02*
X0087814Y0089470D01*
X0087814Y0089868D02*
X0096587Y0089868D01*
X0096587Y0090267D02*
X0087814Y0090267D01*
X0087814Y0090665D02*
X0088290Y0090665D01*
X0087892Y0091064D02*
X0087814Y0091064D01*
X0089694Y0090665D02*
X0096587Y0090665D01*
X0096587Y0091064D02*
X0090093Y0091064D01*
X0090491Y0091462D02*
X0096587Y0091462D01*
X0096587Y0091861D02*
X0093662Y0091861D01*
X0093676Y0092259D02*
X0096587Y0092259D01*
X0093676Y0092658D02*
X0106706Y0092658D01*
X0106706Y0093056D02*
X0093676Y0093056D01*
X0093676Y0093455D02*
X0106706Y0093455D01*
X0106706Y0093853D02*
X0093676Y0093853D01*
X0093676Y0094252D02*
X0106706Y0094252D01*
X0106706Y0094650D02*
X0093676Y0094650D01*
X0093676Y0095049D02*
X0106706Y0095049D01*
X0106706Y0095447D02*
X0087814Y0095447D01*
X0087814Y0095846D02*
X0106706Y0095846D01*
X0106564Y0096244D02*
X0087956Y0096244D01*
X0096067Y0096643D02*
X0102783Y0096643D01*
X0103223Y0119704D02*
X0103223Y0120343D01*
X0102534Y0121032D01*
X0102534Y0121436D01*
X0101055Y0122915D01*
X0101156Y0123016D01*
X0101156Y0125721D01*
X0102100Y0125721D01*
X0102263Y0125885D01*
X0102263Y0131824D01*
X0102100Y0131987D01*
X0096751Y0131987D01*
X0096587Y0131824D01*
X0096587Y0125885D01*
X0096751Y0125721D01*
X0098088Y0125721D01*
X0098088Y0124188D01*
X0093680Y0124188D01*
X0093676Y0124192D01*
X0093676Y0126582D01*
X0093354Y0126904D01*
X0087814Y0126904D01*
X0087814Y0130511D01*
X0088354Y0129971D01*
X0089630Y0129971D01*
X0090533Y0130874D01*
X0090533Y0130922D01*
X0093354Y0130922D01*
X0093676Y0131245D01*
X0093676Y0134456D01*
X0093354Y0134778D01*
X0087814Y0134778D01*
X0087814Y0135252D01*
X0087834Y0135404D01*
X0087986Y0135667D01*
X0088250Y0135819D01*
X0088402Y0135839D01*
X0095767Y0135839D01*
X0096113Y0136039D01*
X0102737Y0136039D01*
X0103083Y0135839D01*
X0106118Y0135839D01*
X0106270Y0135819D01*
X0106533Y0135667D01*
X0106685Y0135404D01*
X0106706Y0135252D01*
X0106706Y0119704D01*
X0103223Y0119704D01*
X0103223Y0119756D02*
X0106706Y0119756D01*
X0106706Y0120155D02*
X0103223Y0120155D01*
X0103013Y0120553D02*
X0106706Y0120553D01*
X0106706Y0120952D02*
X0102615Y0120952D01*
X0102534Y0121350D02*
X0106706Y0121350D01*
X0106706Y0121749D02*
X0102221Y0121749D01*
X0101823Y0122147D02*
X0106706Y0122147D01*
X0106706Y0122546D02*
X0101424Y0122546D01*
X0101084Y0122944D02*
X0106706Y0122944D01*
X0106706Y0123343D02*
X0101156Y0123343D01*
X0101156Y0123741D02*
X0106706Y0123741D01*
X0106706Y0124140D02*
X0101156Y0124140D01*
X0101156Y0124539D02*
X0106706Y0124539D01*
X0106706Y0124937D02*
X0101156Y0124937D01*
X0101156Y0125336D02*
X0106706Y0125336D01*
X0106706Y0125734D02*
X0102112Y0125734D01*
X0102263Y0126133D02*
X0106706Y0126133D01*
X0106706Y0126531D02*
X0102263Y0126531D01*
X0102263Y0126930D02*
X0106706Y0126930D01*
X0106706Y0127328D02*
X0102263Y0127328D01*
X0102263Y0127727D02*
X0106706Y0127727D01*
X0106706Y0128125D02*
X0102263Y0128125D01*
X0102263Y0128524D02*
X0106706Y0128524D01*
X0106706Y0128922D02*
X0102263Y0128922D01*
X0102263Y0129321D02*
X0106706Y0129321D01*
X0106706Y0129719D02*
X0102263Y0129719D01*
X0102263Y0130118D02*
X0106706Y0130118D01*
X0106706Y0130516D02*
X0102263Y0130516D01*
X0102263Y0130915D02*
X0106706Y0130915D01*
X0106706Y0131313D02*
X0102263Y0131313D01*
X0102263Y0131712D02*
X0106706Y0131712D01*
X0106706Y0132110D02*
X0093676Y0132110D01*
X0093676Y0131712D02*
X0096587Y0131712D01*
X0096587Y0131313D02*
X0093676Y0131313D01*
X0093676Y0132509D02*
X0106706Y0132509D01*
X0106706Y0132907D02*
X0093676Y0132907D01*
X0093676Y0133306D02*
X0106706Y0133306D01*
X0106706Y0133704D02*
X0093676Y0133704D01*
X0093676Y0134103D02*
X0106706Y0134103D01*
X0106706Y0134501D02*
X0093631Y0134501D01*
X0096587Y0130915D02*
X0090533Y0130915D01*
X0090175Y0130516D02*
X0096587Y0130516D01*
X0096587Y0130118D02*
X0089777Y0130118D01*
X0088208Y0130118D02*
X0087814Y0130118D01*
X0087814Y0129719D02*
X0096587Y0129719D01*
X0096587Y0129321D02*
X0087814Y0129321D01*
X0087814Y0128922D02*
X0096587Y0128922D01*
X0096587Y0128524D02*
X0087814Y0128524D01*
X0087814Y0128125D02*
X0096587Y0128125D01*
X0096587Y0127727D02*
X0087814Y0127727D01*
X0087814Y0127328D02*
X0096587Y0127328D01*
X0096587Y0126930D02*
X0087814Y0126930D01*
X0093676Y0126531D02*
X0096587Y0126531D01*
X0096587Y0126133D02*
X0093676Y0126133D01*
X0093676Y0125734D02*
X0096738Y0125734D01*
X0098088Y0125336D02*
X0093676Y0125336D01*
X0093676Y0124937D02*
X0098088Y0124937D01*
X0098088Y0124539D02*
X0093676Y0124539D01*
X0087814Y0134900D02*
X0106706Y0134900D01*
X0106699Y0135298D02*
X0087820Y0135298D01*
X0088037Y0135697D02*
X0106482Y0135697D01*
X0106706Y0159074D02*
X0103223Y0159074D01*
X0103223Y0159713D01*
X0102534Y0160402D01*
X0102534Y0160806D01*
X0101055Y0162285D01*
X0101156Y0162386D01*
X0101156Y0165091D01*
X0102100Y0165091D01*
X0102263Y0165255D01*
X0102263Y0171194D01*
X0102100Y0171357D01*
X0096751Y0171357D01*
X0096587Y0171194D01*
X0096587Y0165255D01*
X0096751Y0165091D01*
X0098088Y0165091D01*
X0098088Y0163558D01*
X0093680Y0163558D01*
X0093676Y0163562D01*
X0093676Y0165952D01*
X0093354Y0166274D01*
X0087814Y0166274D01*
X0087814Y0169881D01*
X0088354Y0169341D01*
X0089630Y0169341D01*
X0090533Y0170244D01*
X0090533Y0170293D01*
X0093354Y0170293D01*
X0093676Y0170615D01*
X0093676Y0173826D01*
X0093354Y0174148D01*
X0087814Y0174148D01*
X0087814Y0174622D01*
X0087834Y0174774D01*
X0087986Y0175037D01*
X0088250Y0175189D01*
X0088402Y0175209D01*
X0095767Y0175209D01*
X0096113Y0175409D01*
X0102737Y0175409D01*
X0103083Y0175209D01*
X0106118Y0175209D01*
X0106270Y0175189D01*
X0106533Y0175037D01*
X0106685Y0174774D01*
X0106706Y0174622D01*
X0106706Y0159074D01*
X0106706Y0159209D02*
X0103223Y0159209D01*
X0103223Y0159608D02*
X0106706Y0159608D01*
X0106706Y0160006D02*
X0102931Y0160006D01*
X0102534Y0160405D02*
X0106706Y0160405D01*
X0106706Y0160803D02*
X0102534Y0160803D01*
X0102139Y0161202D02*
X0106706Y0161202D01*
X0106706Y0161600D02*
X0101740Y0161600D01*
X0101342Y0161999D02*
X0106706Y0161999D01*
X0106706Y0162397D02*
X0101156Y0162397D01*
X0101156Y0162796D02*
X0106706Y0162796D01*
X0106706Y0163194D02*
X0101156Y0163194D01*
X0101156Y0163593D02*
X0106706Y0163593D01*
X0106706Y0163991D02*
X0101156Y0163991D01*
X0101156Y0164390D02*
X0106706Y0164390D01*
X0106706Y0164788D02*
X0101156Y0164788D01*
X0102195Y0165187D02*
X0106706Y0165187D01*
X0106706Y0165585D02*
X0102263Y0165585D01*
X0102263Y0165984D02*
X0106706Y0165984D01*
X0106706Y0166382D02*
X0102263Y0166382D01*
X0102263Y0166781D02*
X0106706Y0166781D01*
X0106706Y0167179D02*
X0102263Y0167179D01*
X0102263Y0167578D02*
X0106706Y0167578D01*
X0106706Y0167976D02*
X0102263Y0167976D01*
X0102263Y0168375D02*
X0106706Y0168375D01*
X0106706Y0168773D02*
X0102263Y0168773D01*
X0102263Y0169172D02*
X0106706Y0169172D01*
X0106706Y0169570D02*
X0102263Y0169570D01*
X0102263Y0169969D02*
X0106706Y0169969D01*
X0106706Y0170367D02*
X0102263Y0170367D01*
X0102263Y0170766D02*
X0106706Y0170766D01*
X0106706Y0171164D02*
X0102263Y0171164D01*
X0106706Y0171563D02*
X0093676Y0171563D01*
X0093676Y0171961D02*
X0106706Y0171961D01*
X0106706Y0172360D02*
X0093676Y0172360D01*
X0093676Y0172758D02*
X0106706Y0172758D01*
X0106706Y0173157D02*
X0093676Y0173157D01*
X0093676Y0173555D02*
X0106706Y0173555D01*
X0106706Y0173954D02*
X0093548Y0173954D01*
X0093676Y0171164D02*
X0096587Y0171164D01*
X0096587Y0170766D02*
X0093676Y0170766D01*
X0093429Y0170367D02*
X0096587Y0170367D01*
X0096587Y0169969D02*
X0090258Y0169969D01*
X0089859Y0169570D02*
X0096587Y0169570D01*
X0096587Y0169172D02*
X0087814Y0169172D01*
X0087814Y0169570D02*
X0088125Y0169570D01*
X0087814Y0168773D02*
X0096587Y0168773D01*
X0096587Y0168375D02*
X0087814Y0168375D01*
X0087814Y0167976D02*
X0096587Y0167976D01*
X0096587Y0167578D02*
X0087814Y0167578D01*
X0087814Y0167179D02*
X0096587Y0167179D01*
X0096587Y0166781D02*
X0087814Y0166781D01*
X0087814Y0166382D02*
X0096587Y0166382D01*
X0096587Y0165984D02*
X0093645Y0165984D01*
X0093676Y0165585D02*
X0096587Y0165585D01*
X0096655Y0165187D02*
X0093676Y0165187D01*
X0093676Y0164788D02*
X0098088Y0164788D01*
X0098088Y0164390D02*
X0093676Y0164390D01*
X0093676Y0163991D02*
X0098088Y0163991D01*
X0098088Y0163593D02*
X0093676Y0163593D01*
X0087814Y0174352D02*
X0106706Y0174352D01*
X0106689Y0174751D02*
X0087831Y0174751D01*
X0088180Y0175149D02*
X0106339Y0175149D01*
X0127184Y0174622D02*
X0127204Y0174774D01*
X0127356Y0175037D01*
X0127620Y0175189D01*
X0127772Y0175209D01*
X0135137Y0175209D01*
X0135483Y0175409D01*
X0142107Y0175409D01*
X0142454Y0175209D01*
X0145488Y0175209D01*
X0145640Y0175189D01*
X0145904Y0175037D01*
X0146056Y0174774D01*
X0146076Y0174622D01*
X0146076Y0159074D01*
X0142593Y0159074D01*
X0142593Y0159713D01*
X0141904Y0160402D01*
X0141904Y0160806D01*
X0140425Y0162285D01*
X0140526Y0162386D01*
X0140526Y0165091D01*
X0141470Y0165091D01*
X0141633Y0165255D01*
X0141633Y0171194D01*
X0141470Y0171357D01*
X0136121Y0171357D01*
X0135957Y0171194D01*
X0135957Y0165255D01*
X0136121Y0165091D01*
X0137458Y0165091D01*
X0137458Y0163558D01*
X0133050Y0163558D01*
X0133046Y0163562D01*
X0133046Y0165952D01*
X0132724Y0166274D01*
X0127184Y0166274D01*
X0127184Y0169881D01*
X0127724Y0169341D01*
X0129000Y0169341D01*
X0129903Y0170244D01*
X0129903Y0170293D01*
X0132724Y0170293D01*
X0133046Y0170615D01*
X0133046Y0173826D01*
X0132724Y0174148D01*
X0127184Y0174148D01*
X0127184Y0174622D01*
X0127201Y0174751D02*
X0146059Y0174751D01*
X0146076Y0174352D02*
X0127184Y0174352D01*
X0127550Y0175149D02*
X0145709Y0175149D01*
X0146076Y0173954D02*
X0132918Y0173954D01*
X0133046Y0173555D02*
X0146076Y0173555D01*
X0146076Y0173157D02*
X0133046Y0173157D01*
X0133046Y0172758D02*
X0146076Y0172758D01*
X0146076Y0172360D02*
X0133046Y0172360D01*
X0133046Y0171961D02*
X0146076Y0171961D01*
X0146076Y0171563D02*
X0133046Y0171563D01*
X0133046Y0171164D02*
X0135957Y0171164D01*
X0135957Y0170766D02*
X0133046Y0170766D01*
X0132799Y0170367D02*
X0135957Y0170367D01*
X0135957Y0169969D02*
X0129628Y0169969D01*
X0129229Y0169570D02*
X0135957Y0169570D01*
X0135957Y0169172D02*
X0127184Y0169172D01*
X0127184Y0169570D02*
X0127495Y0169570D01*
X0127184Y0168773D02*
X0135957Y0168773D01*
X0135957Y0168375D02*
X0127184Y0168375D01*
X0127184Y0167976D02*
X0135957Y0167976D01*
X0135957Y0167578D02*
X0127184Y0167578D01*
X0127184Y0167179D02*
X0135957Y0167179D01*
X0135957Y0166781D02*
X0127184Y0166781D01*
X0127184Y0166382D02*
X0135957Y0166382D01*
X0135957Y0165984D02*
X0133015Y0165984D01*
X0133046Y0165585D02*
X0135957Y0165585D01*
X0136025Y0165187D02*
X0133046Y0165187D01*
X0133046Y0164788D02*
X0137458Y0164788D01*
X0137458Y0164390D02*
X0133046Y0164390D01*
X0133046Y0163991D02*
X0137458Y0163991D01*
X0137458Y0163593D02*
X0133046Y0163593D01*
X0140526Y0163593D02*
X0146076Y0163593D01*
X0146076Y0163991D02*
X0140526Y0163991D01*
X0140526Y0164390D02*
X0146076Y0164390D01*
X0146076Y0164788D02*
X0140526Y0164788D01*
X0141565Y0165187D02*
X0146076Y0165187D01*
X0146076Y0165585D02*
X0141633Y0165585D01*
X0141633Y0165984D02*
X0146076Y0165984D01*
X0146076Y0166382D02*
X0141633Y0166382D01*
X0141633Y0166781D02*
X0146076Y0166781D01*
X0146076Y0167179D02*
X0141633Y0167179D01*
X0141633Y0167578D02*
X0146076Y0167578D01*
X0146076Y0167976D02*
X0141633Y0167976D01*
X0141633Y0168375D02*
X0146076Y0168375D01*
X0146076Y0168773D02*
X0141633Y0168773D01*
X0141633Y0169172D02*
X0146076Y0169172D01*
X0146076Y0169570D02*
X0141633Y0169570D01*
X0141633Y0169969D02*
X0146076Y0169969D01*
X0146076Y0170367D02*
X0141633Y0170367D01*
X0141633Y0170766D02*
X0146076Y0170766D01*
X0146076Y0171164D02*
X0141633Y0171164D01*
X0140526Y0163194D02*
X0146076Y0163194D01*
X0146076Y0162796D02*
X0140526Y0162796D01*
X0140526Y0162397D02*
X0146076Y0162397D01*
X0146076Y0161999D02*
X0140712Y0161999D01*
X0141110Y0161600D02*
X0146076Y0161600D01*
X0146076Y0161202D02*
X0141509Y0161202D01*
X0141904Y0160803D02*
X0146076Y0160803D01*
X0146076Y0160405D02*
X0141904Y0160405D01*
X0142301Y0160006D02*
X0146076Y0160006D01*
X0146076Y0159608D02*
X0142593Y0159608D01*
X0142593Y0159209D02*
X0146076Y0159209D01*
X0166554Y0166274D02*
X0166554Y0169881D01*
X0167094Y0169341D01*
X0168370Y0169341D01*
X0169273Y0170244D01*
X0169273Y0170293D01*
X0172094Y0170293D01*
X0172416Y0170615D01*
X0172416Y0173826D01*
X0172094Y0174148D01*
X0166554Y0174148D01*
X0166554Y0174622D01*
X0166574Y0174774D01*
X0166726Y0175037D01*
X0166990Y0175189D01*
X0167142Y0175209D01*
X0174507Y0175209D01*
X0174507Y0175209D01*
X0174853Y0175409D01*
X0181477Y0175409D01*
X0181824Y0175209D01*
X0184858Y0175209D01*
X0185010Y0175189D01*
X0185274Y0175037D01*
X0185426Y0174774D01*
X0185446Y0174622D01*
X0185446Y0159074D01*
X0181963Y0159074D01*
X0181963Y0159713D01*
X0181274Y0160402D01*
X0181274Y0160806D01*
X0179795Y0162285D01*
X0179896Y0162386D01*
X0179896Y0165091D01*
X0180840Y0165091D01*
X0181003Y0165255D01*
X0181003Y0171194D01*
X0180840Y0171357D01*
X0175491Y0171357D01*
X0175328Y0171194D01*
X0175328Y0165255D01*
X0175491Y0165091D01*
X0176828Y0165091D01*
X0176828Y0163558D01*
X0172420Y0163558D01*
X0172416Y0163562D01*
X0172416Y0165952D01*
X0172094Y0166274D01*
X0166554Y0166274D01*
X0166554Y0166382D02*
X0175328Y0166382D01*
X0175328Y0165984D02*
X0172385Y0165984D01*
X0172416Y0165585D02*
X0175328Y0165585D01*
X0175396Y0165187D02*
X0172416Y0165187D01*
X0172416Y0164788D02*
X0176828Y0164788D01*
X0176828Y0164390D02*
X0172416Y0164390D01*
X0172416Y0163991D02*
X0176828Y0163991D01*
X0176828Y0163593D02*
X0172416Y0163593D01*
X0175328Y0166781D02*
X0166554Y0166781D01*
X0166554Y0167179D02*
X0175328Y0167179D01*
X0175328Y0167578D02*
X0166554Y0167578D01*
X0166554Y0167976D02*
X0175328Y0167976D01*
X0175328Y0168375D02*
X0166554Y0168375D01*
X0166554Y0168773D02*
X0175328Y0168773D01*
X0175328Y0169172D02*
X0166554Y0169172D01*
X0166554Y0169570D02*
X0166865Y0169570D01*
X0168599Y0169570D02*
X0175328Y0169570D01*
X0175328Y0169969D02*
X0168998Y0169969D01*
X0172169Y0170367D02*
X0175328Y0170367D01*
X0175328Y0170766D02*
X0172416Y0170766D01*
X0172416Y0171164D02*
X0175328Y0171164D01*
X0172416Y0171563D02*
X0185446Y0171563D01*
X0185446Y0171961D02*
X0172416Y0171961D01*
X0172416Y0172360D02*
X0185446Y0172360D01*
X0185446Y0172758D02*
X0172416Y0172758D01*
X0172416Y0173157D02*
X0185446Y0173157D01*
X0185446Y0173555D02*
X0172416Y0173555D01*
X0172288Y0173954D02*
X0185446Y0173954D01*
X0185446Y0174352D02*
X0166554Y0174352D01*
X0166571Y0174751D02*
X0185429Y0174751D01*
X0185080Y0175149D02*
X0166920Y0175149D01*
X0179896Y0164788D02*
X0185446Y0164788D01*
X0185446Y0164390D02*
X0179896Y0164390D01*
X0179896Y0163991D02*
X0185446Y0163991D01*
X0185446Y0163593D02*
X0179896Y0163593D01*
X0179896Y0163194D02*
X0185446Y0163194D01*
X0185446Y0162796D02*
X0179896Y0162796D01*
X0179896Y0162397D02*
X0185446Y0162397D01*
X0185446Y0161999D02*
X0180082Y0161999D01*
X0180480Y0161600D02*
X0185446Y0161600D01*
X0185446Y0161202D02*
X0180879Y0161202D01*
X0181274Y0160803D02*
X0185446Y0160803D01*
X0185446Y0160405D02*
X0181274Y0160405D01*
X0181671Y0160006D02*
X0185446Y0160006D01*
X0185446Y0159608D02*
X0181963Y0159608D01*
X0181963Y0159209D02*
X0185446Y0159209D01*
X0185446Y0165187D02*
X0180935Y0165187D01*
X0181003Y0165585D02*
X0185446Y0165585D01*
X0185446Y0165984D02*
X0181003Y0165984D01*
X0181003Y0166382D02*
X0185446Y0166382D01*
X0185446Y0166781D02*
X0181003Y0166781D01*
X0181003Y0167179D02*
X0185446Y0167179D01*
X0185446Y0167578D02*
X0181003Y0167578D01*
X0181003Y0167976D02*
X0185446Y0167976D01*
X0185446Y0168375D02*
X0181003Y0168375D01*
X0181003Y0168773D02*
X0185446Y0168773D01*
X0185446Y0169172D02*
X0181003Y0169172D01*
X0181003Y0169570D02*
X0185446Y0169570D01*
X0185446Y0169969D02*
X0181003Y0169969D01*
X0181003Y0170367D02*
X0185446Y0170367D01*
X0185446Y0170766D02*
X0181003Y0170766D01*
X0181003Y0171164D02*
X0185446Y0171164D01*
X0205924Y0169881D02*
X0205924Y0166274D01*
X0211464Y0166274D01*
X0211786Y0165952D01*
X0211786Y0163562D01*
X0211790Y0163558D01*
X0216198Y0163558D01*
X0216198Y0165091D01*
X0214861Y0165091D01*
X0214698Y0165255D01*
X0214698Y0171194D01*
X0214861Y0171357D01*
X0220210Y0171357D01*
X0220373Y0171194D01*
X0220373Y0165255D01*
X0220210Y0165091D01*
X0219267Y0165091D01*
X0219267Y0162386D01*
X0219165Y0162285D01*
X0220644Y0160806D01*
X0220644Y0160402D01*
X0221333Y0159713D01*
X0221333Y0159074D01*
X0224816Y0159074D01*
X0224816Y0174622D01*
X0224796Y0174774D01*
X0224644Y0175037D01*
X0224380Y0175189D01*
X0224228Y0175209D01*
X0221194Y0175209D01*
X0220847Y0175409D01*
X0214224Y0175409D01*
X0213877Y0175209D01*
X0206512Y0175209D01*
X0206360Y0175189D01*
X0206096Y0175037D01*
X0205944Y0174774D01*
X0205924Y0174622D01*
X0205924Y0174148D01*
X0211464Y0174148D01*
X0211786Y0173826D01*
X0211786Y0170615D01*
X0211464Y0170293D01*
X0208643Y0170293D01*
X0208643Y0170244D01*
X0207740Y0169341D01*
X0206464Y0169341D01*
X0205924Y0169881D01*
X0205924Y0169570D02*
X0206235Y0169570D01*
X0205924Y0169172D02*
X0214698Y0169172D01*
X0214698Y0169570D02*
X0207969Y0169570D01*
X0208368Y0169969D02*
X0214698Y0169969D01*
X0214698Y0170367D02*
X0211539Y0170367D01*
X0211786Y0170766D02*
X0214698Y0170766D01*
X0214698Y0171164D02*
X0211786Y0171164D01*
X0211786Y0171563D02*
X0224816Y0171563D01*
X0224816Y0171961D02*
X0211786Y0171961D01*
X0211786Y0172360D02*
X0224816Y0172360D01*
X0224816Y0172758D02*
X0211786Y0172758D01*
X0211786Y0173157D02*
X0224816Y0173157D01*
X0224816Y0173555D02*
X0211786Y0173555D01*
X0211659Y0173954D02*
X0224816Y0173954D01*
X0224816Y0174352D02*
X0205924Y0174352D01*
X0205941Y0174751D02*
X0224799Y0174751D01*
X0224450Y0175149D02*
X0206291Y0175149D01*
X0205924Y0168773D02*
X0214698Y0168773D01*
X0214698Y0168375D02*
X0205924Y0168375D01*
X0205924Y0167976D02*
X0214698Y0167976D01*
X0214698Y0167578D02*
X0205924Y0167578D01*
X0205924Y0167179D02*
X0214698Y0167179D01*
X0214698Y0166781D02*
X0205924Y0166781D01*
X0205924Y0166382D02*
X0214698Y0166382D01*
X0214698Y0165984D02*
X0211755Y0165984D01*
X0211786Y0165585D02*
X0214698Y0165585D01*
X0214766Y0165187D02*
X0211786Y0165187D01*
X0211786Y0164788D02*
X0216198Y0164788D01*
X0216198Y0164390D02*
X0211786Y0164390D01*
X0211786Y0163991D02*
X0216198Y0163991D01*
X0216198Y0163593D02*
X0211786Y0163593D01*
X0219267Y0163593D02*
X0224816Y0163593D01*
X0224816Y0163991D02*
X0219267Y0163991D01*
X0219267Y0164390D02*
X0224816Y0164390D01*
X0224816Y0164788D02*
X0219267Y0164788D01*
X0220305Y0165187D02*
X0224816Y0165187D01*
X0224816Y0165585D02*
X0220373Y0165585D01*
X0220373Y0165984D02*
X0224816Y0165984D01*
X0224816Y0166382D02*
X0220373Y0166382D01*
X0220373Y0166781D02*
X0224816Y0166781D01*
X0224816Y0167179D02*
X0220373Y0167179D01*
X0220373Y0167578D02*
X0224816Y0167578D01*
X0224816Y0167976D02*
X0220373Y0167976D01*
X0220373Y0168375D02*
X0224816Y0168375D01*
X0224816Y0168773D02*
X0220373Y0168773D01*
X0220373Y0169172D02*
X0224816Y0169172D01*
X0224816Y0169570D02*
X0220373Y0169570D01*
X0220373Y0169969D02*
X0224816Y0169969D01*
X0224816Y0170367D02*
X0220373Y0170367D01*
X0220373Y0170766D02*
X0224816Y0170766D01*
X0224816Y0171164D02*
X0220373Y0171164D01*
X0219267Y0163194D02*
X0224816Y0163194D01*
X0224816Y0162796D02*
X0219267Y0162796D01*
X0219267Y0162397D02*
X0224816Y0162397D01*
X0224816Y0161999D02*
X0219452Y0161999D01*
X0219850Y0161600D02*
X0224816Y0161600D01*
X0224816Y0161202D02*
X0220249Y0161202D01*
X0220644Y0160803D02*
X0224816Y0160803D01*
X0224816Y0160405D02*
X0220644Y0160405D01*
X0221041Y0160006D02*
X0224816Y0160006D01*
X0224816Y0159608D02*
X0221333Y0159608D01*
X0221333Y0159209D02*
X0224816Y0159209D01*
X0224228Y0135839D02*
X0221194Y0135839D01*
X0220847Y0136039D01*
X0214224Y0136039D01*
X0213877Y0135839D01*
X0206512Y0135839D01*
X0206360Y0135819D01*
X0206096Y0135667D01*
X0205944Y0135404D01*
X0205924Y0135252D01*
X0205924Y0134778D01*
X0211464Y0134778D01*
X0211786Y0134456D01*
X0211786Y0131245D01*
X0211464Y0130922D01*
X0208643Y0130922D01*
X0208643Y0130874D01*
X0207740Y0129971D01*
X0206464Y0129971D01*
X0205924Y0130511D01*
X0205924Y0126904D01*
X0211464Y0126904D01*
X0211786Y0126582D01*
X0211786Y0124192D01*
X0211790Y0124188D01*
X0216198Y0124188D01*
X0216198Y0125721D01*
X0214861Y0125721D01*
X0214698Y0125885D01*
X0214698Y0131824D01*
X0214861Y0131987D01*
X0220210Y0131987D01*
X0220373Y0131824D01*
X0220373Y0125885D01*
X0220210Y0125721D01*
X0219267Y0125721D01*
X0219267Y0123016D01*
X0219165Y0122915D01*
X0220644Y0121436D01*
X0220644Y0121032D01*
X0221333Y0120343D01*
X0221333Y0119704D01*
X0224816Y0119704D01*
X0224816Y0135252D01*
X0224796Y0135404D01*
X0224644Y0135667D01*
X0224380Y0135819D01*
X0224228Y0135839D01*
X0224593Y0135697D02*
X0206148Y0135697D01*
X0205930Y0135298D02*
X0224810Y0135298D01*
X0224816Y0134900D02*
X0205924Y0134900D01*
X0205924Y0130118D02*
X0206318Y0130118D01*
X0205924Y0129719D02*
X0214698Y0129719D01*
X0214698Y0129321D02*
X0205924Y0129321D01*
X0205924Y0128922D02*
X0214698Y0128922D01*
X0214698Y0128524D02*
X0205924Y0128524D01*
X0205924Y0128125D02*
X0214698Y0128125D01*
X0214698Y0127727D02*
X0205924Y0127727D01*
X0205924Y0127328D02*
X0214698Y0127328D01*
X0214698Y0126930D02*
X0205924Y0126930D01*
X0207887Y0130118D02*
X0214698Y0130118D01*
X0214698Y0130516D02*
X0208285Y0130516D01*
X0208643Y0130915D02*
X0214698Y0130915D01*
X0214698Y0131313D02*
X0211786Y0131313D01*
X0211786Y0131712D02*
X0214698Y0131712D01*
X0211786Y0132110D02*
X0224816Y0132110D01*
X0224816Y0131712D02*
X0220373Y0131712D01*
X0220373Y0131313D02*
X0224816Y0131313D01*
X0224816Y0130915D02*
X0220373Y0130915D01*
X0220373Y0130516D02*
X0224816Y0130516D01*
X0224816Y0130118D02*
X0220373Y0130118D01*
X0220373Y0129719D02*
X0224816Y0129719D01*
X0224816Y0129321D02*
X0220373Y0129321D01*
X0220373Y0128922D02*
X0224816Y0128922D01*
X0224816Y0128524D02*
X0220373Y0128524D01*
X0220373Y0128125D02*
X0224816Y0128125D01*
X0224816Y0127727D02*
X0220373Y0127727D01*
X0220373Y0127328D02*
X0224816Y0127328D01*
X0224816Y0126930D02*
X0220373Y0126930D01*
X0220373Y0126531D02*
X0224816Y0126531D01*
X0224816Y0126133D02*
X0220373Y0126133D01*
X0220223Y0125734D02*
X0224816Y0125734D01*
X0224816Y0125336D02*
X0219267Y0125336D01*
X0219267Y0124937D02*
X0224816Y0124937D01*
X0224816Y0124539D02*
X0219267Y0124539D01*
X0219267Y0124140D02*
X0224816Y0124140D01*
X0224816Y0123741D02*
X0219267Y0123741D01*
X0219267Y0123343D02*
X0224816Y0123343D01*
X0224816Y0122944D02*
X0219195Y0122944D01*
X0219534Y0122546D02*
X0224816Y0122546D01*
X0224816Y0122147D02*
X0219933Y0122147D01*
X0220331Y0121749D02*
X0224816Y0121749D01*
X0224816Y0121350D02*
X0220644Y0121350D01*
X0220725Y0120952D02*
X0224816Y0120952D01*
X0224816Y0120553D02*
X0221123Y0120553D01*
X0221333Y0120155D02*
X0224816Y0120155D01*
X0224816Y0119756D02*
X0221333Y0119756D01*
X0216198Y0124539D02*
X0211786Y0124539D01*
X0211786Y0124937D02*
X0216198Y0124937D01*
X0216198Y0125336D02*
X0211786Y0125336D01*
X0211786Y0125734D02*
X0214848Y0125734D01*
X0214698Y0126133D02*
X0211786Y0126133D01*
X0211786Y0126531D02*
X0214698Y0126531D01*
X0211786Y0132509D02*
X0224816Y0132509D01*
X0224816Y0132907D02*
X0211786Y0132907D01*
X0211786Y0133306D02*
X0224816Y0133306D01*
X0224816Y0133704D02*
X0211786Y0133704D01*
X0211786Y0134103D02*
X0224816Y0134103D01*
X0224816Y0134501D02*
X0211741Y0134501D01*
X0214224Y0096669D02*
X0220847Y0096669D01*
X0221194Y0096469D01*
X0224228Y0096469D01*
X0224380Y0096449D01*
X0224644Y0096297D01*
X0224796Y0096034D01*
X0224816Y0095882D01*
X0224816Y0080334D01*
X0221333Y0080334D01*
X0221333Y0080973D01*
X0220644Y0081662D01*
X0220644Y0082066D01*
X0219165Y0083545D01*
X0219267Y0083646D01*
X0219267Y0086351D01*
X0220210Y0086351D01*
X0220373Y0086514D01*
X0220373Y0092454D01*
X0220210Y0092617D01*
X0214861Y0092617D01*
X0214698Y0092454D01*
X0214698Y0086514D01*
X0214861Y0086351D01*
X0216198Y0086351D01*
X0216198Y0084818D01*
X0211790Y0084818D01*
X0211786Y0084822D01*
X0211786Y0087212D01*
X0211464Y0087534D01*
X0205924Y0087534D01*
X0205924Y0091141D01*
X0206464Y0090601D01*
X0207740Y0090601D01*
X0208643Y0091504D01*
X0208643Y0091552D01*
X0211464Y0091552D01*
X0211786Y0091875D01*
X0211786Y0095086D01*
X0211464Y0095408D01*
X0205924Y0095408D01*
X0205924Y0095882D01*
X0205944Y0096034D01*
X0206096Y0096297D01*
X0206360Y0096449D01*
X0206512Y0096469D01*
X0213877Y0096469D01*
X0214224Y0096669D01*
X0214177Y0096643D02*
X0220893Y0096643D01*
X0224674Y0096244D02*
X0206066Y0096244D01*
X0205924Y0095846D02*
X0224816Y0095846D01*
X0224816Y0095447D02*
X0205924Y0095447D01*
X0208601Y0091462D02*
X0214698Y0091462D01*
X0214698Y0091064D02*
X0208203Y0091064D01*
X0207804Y0090665D02*
X0214698Y0090665D01*
X0214698Y0090267D02*
X0205924Y0090267D01*
X0205924Y0090665D02*
X0206400Y0090665D01*
X0206002Y0091064D02*
X0205924Y0091064D01*
X0205924Y0089868D02*
X0214698Y0089868D01*
X0214698Y0089470D02*
X0205924Y0089470D01*
X0205924Y0089071D02*
X0214698Y0089071D01*
X0214698Y0088672D02*
X0205924Y0088672D01*
X0205924Y0088274D02*
X0214698Y0088274D01*
X0214698Y0087875D02*
X0205924Y0087875D01*
X0211521Y0087477D02*
X0214698Y0087477D01*
X0214698Y0087078D02*
X0211786Y0087078D01*
X0211786Y0086680D02*
X0214698Y0086680D01*
X0216198Y0086281D02*
X0211786Y0086281D01*
X0211786Y0085883D02*
X0216198Y0085883D01*
X0216198Y0085484D02*
X0211786Y0085484D01*
X0211786Y0085086D02*
X0216198Y0085086D01*
X0219267Y0085086D02*
X0224816Y0085086D01*
X0224816Y0085484D02*
X0219267Y0085484D01*
X0219267Y0085883D02*
X0224816Y0085883D01*
X0224816Y0086281D02*
X0219267Y0086281D01*
X0220373Y0086680D02*
X0224816Y0086680D01*
X0224816Y0087078D02*
X0220373Y0087078D01*
X0220373Y0087477D02*
X0224816Y0087477D01*
X0224816Y0087875D02*
X0220373Y0087875D01*
X0220373Y0088274D02*
X0224816Y0088274D01*
X0224816Y0088672D02*
X0220373Y0088672D01*
X0220373Y0089071D02*
X0224816Y0089071D01*
X0224816Y0089470D02*
X0220373Y0089470D01*
X0220373Y0089868D02*
X0224816Y0089868D01*
X0224816Y0090267D02*
X0220373Y0090267D01*
X0220373Y0090665D02*
X0224816Y0090665D01*
X0224816Y0091064D02*
X0220373Y0091064D01*
X0220373Y0091462D02*
X0224816Y0091462D01*
X0224816Y0091861D02*
X0220373Y0091861D01*
X0220373Y0092259D02*
X0224816Y0092259D01*
X0224816Y0092658D02*
X0211786Y0092658D01*
X0211786Y0093056D02*
X0224816Y0093056D01*
X0224816Y0093455D02*
X0211786Y0093455D01*
X0211786Y0093853D02*
X0224816Y0093853D01*
X0224816Y0094252D02*
X0211786Y0094252D01*
X0211786Y0094650D02*
X0224816Y0094650D01*
X0224816Y0095049D02*
X0211786Y0095049D01*
X0211786Y0092259D02*
X0214698Y0092259D01*
X0214698Y0091861D02*
X0211772Y0091861D01*
X0219267Y0084687D02*
X0224816Y0084687D01*
X0224816Y0084289D02*
X0219267Y0084289D01*
X0219267Y0083890D02*
X0224816Y0083890D01*
X0224816Y0083492D02*
X0219218Y0083492D01*
X0219617Y0083093D02*
X0224816Y0083093D01*
X0224816Y0082695D02*
X0220015Y0082695D01*
X0220414Y0082296D02*
X0224816Y0082296D01*
X0224816Y0081898D02*
X0220644Y0081898D01*
X0220807Y0081499D02*
X0224816Y0081499D01*
X0224816Y0081101D02*
X0221206Y0081101D01*
X0221333Y0080702D02*
X0224816Y0080702D01*
X0224228Y0057099D02*
X0221194Y0057099D01*
X0220847Y0057299D01*
X0214224Y0057299D01*
X0213877Y0057099D01*
X0206512Y0057099D01*
X0206360Y0057079D01*
X0206096Y0056927D01*
X0205944Y0056664D01*
X0205924Y0056512D01*
X0205924Y0056038D01*
X0211464Y0056038D01*
X0211786Y0055716D01*
X0211786Y0052504D01*
X0211464Y0052182D01*
X0208643Y0052182D01*
X0208643Y0052134D01*
X0207740Y0051231D01*
X0206464Y0051231D01*
X0205924Y0051771D01*
X0205924Y0048164D01*
X0211464Y0048164D01*
X0211786Y0047842D01*
X0211786Y0045452D01*
X0211790Y0045448D01*
X0216198Y0045448D01*
X0216198Y0046981D01*
X0214861Y0046981D01*
X0214698Y0047144D01*
X0214698Y0053084D01*
X0214861Y0053247D01*
X0220210Y0053247D01*
X0220373Y0053084D01*
X0220373Y0047144D01*
X0220210Y0046981D01*
X0219267Y0046981D01*
X0219267Y0044276D01*
X0219165Y0044175D01*
X0220644Y0042696D01*
X0220644Y0042292D01*
X0221333Y0041603D01*
X0221333Y0040964D01*
X0224816Y0040964D01*
X0224816Y0056512D01*
X0224796Y0056664D01*
X0224644Y0056927D01*
X0224380Y0057079D01*
X0224228Y0057099D01*
X0224722Y0056792D02*
X0206018Y0056792D01*
X0205924Y0056393D02*
X0224816Y0056393D01*
X0224816Y0055995D02*
X0211508Y0055995D01*
X0211786Y0055596D02*
X0224816Y0055596D01*
X0224816Y0055198D02*
X0211786Y0055198D01*
X0211786Y0054799D02*
X0224816Y0054799D01*
X0224816Y0054401D02*
X0211786Y0054401D01*
X0211786Y0054002D02*
X0224816Y0054002D01*
X0224816Y0053603D02*
X0211786Y0053603D01*
X0211786Y0053205D02*
X0214819Y0053205D01*
X0214698Y0052806D02*
X0211786Y0052806D01*
X0211690Y0052408D02*
X0214698Y0052408D01*
X0214698Y0052009D02*
X0208519Y0052009D01*
X0208120Y0051611D02*
X0214698Y0051611D01*
X0214698Y0051212D02*
X0205924Y0051212D01*
X0205924Y0050814D02*
X0214698Y0050814D01*
X0214698Y0050415D02*
X0205924Y0050415D01*
X0205924Y0050017D02*
X0214698Y0050017D01*
X0214698Y0049618D02*
X0205924Y0049618D01*
X0205924Y0049220D02*
X0214698Y0049220D01*
X0214698Y0048821D02*
X0205924Y0048821D01*
X0205924Y0048423D02*
X0214698Y0048423D01*
X0214698Y0048024D02*
X0211604Y0048024D01*
X0211786Y0047626D02*
X0214698Y0047626D01*
X0214698Y0047227D02*
X0211786Y0047227D01*
X0211786Y0046829D02*
X0216198Y0046829D01*
X0216198Y0046430D02*
X0211786Y0046430D01*
X0211786Y0046032D02*
X0216198Y0046032D01*
X0216198Y0045633D02*
X0211786Y0045633D01*
X0219267Y0045633D02*
X0224816Y0045633D01*
X0224816Y0045235D02*
X0219267Y0045235D01*
X0219267Y0044836D02*
X0224816Y0044836D01*
X0224816Y0044438D02*
X0219267Y0044438D01*
X0219301Y0044039D02*
X0224816Y0044039D01*
X0224816Y0043641D02*
X0219699Y0043641D01*
X0220098Y0043242D02*
X0224816Y0043242D01*
X0224816Y0042844D02*
X0220496Y0042844D01*
X0220644Y0042445D02*
X0224816Y0042445D01*
X0224816Y0042047D02*
X0220890Y0042047D01*
X0221288Y0041648D02*
X0224816Y0041648D01*
X0224816Y0041250D02*
X0221333Y0041250D01*
X0219267Y0046032D02*
X0224816Y0046032D01*
X0224816Y0046430D02*
X0219267Y0046430D01*
X0219267Y0046829D02*
X0224816Y0046829D01*
X0224816Y0047227D02*
X0220373Y0047227D01*
X0220373Y0047626D02*
X0224816Y0047626D01*
X0224816Y0048024D02*
X0220373Y0048024D01*
X0220373Y0048423D02*
X0224816Y0048423D01*
X0224816Y0048821D02*
X0220373Y0048821D01*
X0220373Y0049220D02*
X0224816Y0049220D01*
X0224816Y0049618D02*
X0220373Y0049618D01*
X0220373Y0050017D02*
X0224816Y0050017D01*
X0224816Y0050415D02*
X0220373Y0050415D01*
X0220373Y0050814D02*
X0224816Y0050814D01*
X0224816Y0051212D02*
X0220373Y0051212D01*
X0220373Y0051611D02*
X0224816Y0051611D01*
X0224816Y0052009D02*
X0220373Y0052009D01*
X0220373Y0052408D02*
X0224816Y0052408D01*
X0224816Y0052806D02*
X0220373Y0052806D01*
X0220252Y0053205D02*
X0224816Y0053205D01*
X0221036Y0057190D02*
X0214035Y0057190D01*
X0206084Y0051611D02*
X0205924Y0051611D01*
X0185446Y0051611D02*
X0181003Y0051611D01*
X0181003Y0052009D02*
X0185446Y0052009D01*
X0185446Y0052408D02*
X0181003Y0052408D01*
X0181003Y0052806D02*
X0185446Y0052806D01*
X0185446Y0053205D02*
X0180882Y0053205D01*
X0180840Y0053247D02*
X0175491Y0053247D01*
X0175328Y0053084D01*
X0175328Y0047144D01*
X0175491Y0046981D01*
X0176828Y0046981D01*
X0176828Y0045448D01*
X0172420Y0045448D01*
X0172416Y0045452D01*
X0172416Y0047842D01*
X0172094Y0048164D01*
X0166554Y0048164D01*
X0166554Y0051771D01*
X0167094Y0051231D01*
X0168370Y0051231D01*
X0169273Y0052134D01*
X0169273Y0052182D01*
X0172094Y0052182D01*
X0172416Y0052504D01*
X0172416Y0055716D01*
X0172094Y0056038D01*
X0166554Y0056038D01*
X0166554Y0056512D01*
X0166574Y0056664D01*
X0166726Y0056927D01*
X0166990Y0057079D01*
X0167142Y0057099D01*
X0174507Y0057099D01*
X0174853Y0057299D01*
X0181477Y0057299D01*
X0181824Y0057099D01*
X0184858Y0057099D01*
X0185010Y0057079D01*
X0185274Y0056927D01*
X0185426Y0056664D01*
X0185446Y0056512D01*
X0185446Y0040964D01*
X0181963Y0040964D01*
X0181963Y0041603D01*
X0181274Y0042292D01*
X0181274Y0042696D01*
X0179795Y0044175D01*
X0179896Y0044276D01*
X0179896Y0046981D01*
X0180840Y0046981D01*
X0181003Y0047144D01*
X0181003Y0053084D01*
X0180840Y0053247D01*
X0181003Y0051212D02*
X0185446Y0051212D01*
X0185446Y0050814D02*
X0181003Y0050814D01*
X0181003Y0050415D02*
X0185446Y0050415D01*
X0185446Y0050017D02*
X0181003Y0050017D01*
X0181003Y0049618D02*
X0185446Y0049618D01*
X0185446Y0049220D02*
X0181003Y0049220D01*
X0181003Y0048821D02*
X0185446Y0048821D01*
X0185446Y0048423D02*
X0181003Y0048423D01*
X0181003Y0048024D02*
X0185446Y0048024D01*
X0185446Y0047626D02*
X0181003Y0047626D01*
X0181003Y0047227D02*
X0185446Y0047227D01*
X0185446Y0046829D02*
X0179896Y0046829D01*
X0179896Y0046430D02*
X0185446Y0046430D01*
X0185446Y0046032D02*
X0179896Y0046032D01*
X0179896Y0045633D02*
X0185446Y0045633D01*
X0185446Y0045235D02*
X0179896Y0045235D01*
X0179896Y0044836D02*
X0185446Y0044836D01*
X0185446Y0044438D02*
X0179896Y0044438D01*
X0179931Y0044039D02*
X0185446Y0044039D01*
X0185446Y0043641D02*
X0180329Y0043641D01*
X0180728Y0043242D02*
X0185446Y0043242D01*
X0185446Y0042844D02*
X0181126Y0042844D01*
X0181274Y0042445D02*
X0185446Y0042445D01*
X0185446Y0042047D02*
X0181520Y0042047D01*
X0181918Y0041648D02*
X0185446Y0041648D01*
X0185446Y0041250D02*
X0181963Y0041250D01*
X0176828Y0045633D02*
X0172416Y0045633D01*
X0172416Y0046032D02*
X0176828Y0046032D01*
X0176828Y0046430D02*
X0172416Y0046430D01*
X0172416Y0046829D02*
X0176828Y0046829D01*
X0175328Y0047227D02*
X0172416Y0047227D01*
X0172416Y0047626D02*
X0175328Y0047626D01*
X0175328Y0048024D02*
X0172234Y0048024D01*
X0175328Y0048423D02*
X0166554Y0048423D01*
X0166554Y0048821D02*
X0175328Y0048821D01*
X0175328Y0049220D02*
X0166554Y0049220D01*
X0166554Y0049618D02*
X0175328Y0049618D01*
X0175328Y0050017D02*
X0166554Y0050017D01*
X0166554Y0050415D02*
X0175328Y0050415D01*
X0175328Y0050814D02*
X0166554Y0050814D01*
X0166554Y0051212D02*
X0175328Y0051212D01*
X0175328Y0051611D02*
X0168750Y0051611D01*
X0169149Y0052009D02*
X0175328Y0052009D01*
X0175328Y0052408D02*
X0172320Y0052408D01*
X0172416Y0052806D02*
X0175328Y0052806D01*
X0175449Y0053205D02*
X0172416Y0053205D01*
X0172416Y0053603D02*
X0185446Y0053603D01*
X0185446Y0054002D02*
X0172416Y0054002D01*
X0172416Y0054401D02*
X0185446Y0054401D01*
X0185446Y0054799D02*
X0172416Y0054799D01*
X0172416Y0055198D02*
X0185446Y0055198D01*
X0185446Y0055596D02*
X0172416Y0055596D01*
X0172138Y0055995D02*
X0185446Y0055995D01*
X0185446Y0056393D02*
X0166554Y0056393D01*
X0166648Y0056792D02*
X0185352Y0056792D01*
X0181666Y0057190D02*
X0174664Y0057190D01*
X0166714Y0051611D02*
X0166554Y0051611D01*
X0146076Y0051611D02*
X0141633Y0051611D01*
X0141633Y0052009D02*
X0146076Y0052009D01*
X0146076Y0052408D02*
X0141633Y0052408D01*
X0141633Y0052806D02*
X0146076Y0052806D01*
X0146076Y0053205D02*
X0141512Y0053205D01*
X0141470Y0053247D02*
X0136121Y0053247D01*
X0135957Y0053084D01*
X0135957Y0047144D01*
X0136121Y0046981D01*
X0137458Y0046981D01*
X0137458Y0045448D01*
X0133050Y0045448D01*
X0133046Y0045452D01*
X0133046Y0047842D01*
X0132724Y0048164D01*
X0127184Y0048164D01*
X0127184Y0051771D01*
X0127724Y0051231D01*
X0129000Y0051231D01*
X0129903Y0052134D01*
X0129903Y0052182D01*
X0132724Y0052182D01*
X0133046Y0052504D01*
X0133046Y0055716D01*
X0132724Y0056038D01*
X0127184Y0056038D01*
X0127184Y0056512D01*
X0127204Y0056664D01*
X0127356Y0056927D01*
X0127620Y0057079D01*
X0127772Y0057099D01*
X0135137Y0057099D01*
X0135483Y0057299D01*
X0142107Y0057299D01*
X0142454Y0057099D01*
X0145488Y0057099D01*
X0145640Y0057079D01*
X0145904Y0056927D01*
X0146056Y0056664D01*
X0146076Y0056512D01*
X0146076Y0040964D01*
X0142593Y0040964D01*
X0142593Y0041603D01*
X0141904Y0042292D01*
X0141904Y0042696D01*
X0140425Y0044175D01*
X0140526Y0044276D01*
X0140526Y0046981D01*
X0141470Y0046981D01*
X0141633Y0047144D01*
X0141633Y0053084D01*
X0141470Y0053247D01*
X0141633Y0051212D02*
X0146076Y0051212D01*
X0146076Y0050814D02*
X0141633Y0050814D01*
X0141633Y0050415D02*
X0146076Y0050415D01*
X0146076Y0050017D02*
X0141633Y0050017D01*
X0141633Y0049618D02*
X0146076Y0049618D01*
X0146076Y0049220D02*
X0141633Y0049220D01*
X0141633Y0048821D02*
X0146076Y0048821D01*
X0146076Y0048423D02*
X0141633Y0048423D01*
X0141633Y0048024D02*
X0146076Y0048024D01*
X0146076Y0047626D02*
X0141633Y0047626D01*
X0141633Y0047227D02*
X0146076Y0047227D01*
X0146076Y0046829D02*
X0140526Y0046829D01*
X0140526Y0046430D02*
X0146076Y0046430D01*
X0146076Y0046032D02*
X0140526Y0046032D01*
X0140526Y0045633D02*
X0146076Y0045633D01*
X0146076Y0045235D02*
X0140526Y0045235D01*
X0140526Y0044836D02*
X0146076Y0044836D01*
X0146076Y0044438D02*
X0140526Y0044438D01*
X0140561Y0044039D02*
X0146076Y0044039D01*
X0146076Y0043641D02*
X0140959Y0043641D01*
X0141358Y0043242D02*
X0146076Y0043242D01*
X0146076Y0042844D02*
X0141756Y0042844D01*
X0141904Y0042445D02*
X0146076Y0042445D01*
X0146076Y0042047D02*
X0142150Y0042047D01*
X0142548Y0041648D02*
X0146076Y0041648D01*
X0146076Y0041250D02*
X0142593Y0041250D01*
X0137458Y0045633D02*
X0133046Y0045633D01*
X0133046Y0046032D02*
X0137458Y0046032D01*
X0137458Y0046430D02*
X0133046Y0046430D01*
X0133046Y0046829D02*
X0137458Y0046829D01*
X0135957Y0047227D02*
X0133046Y0047227D01*
X0133046Y0047626D02*
X0135957Y0047626D01*
X0135957Y0048024D02*
X0132864Y0048024D01*
X0135957Y0048423D02*
X0127184Y0048423D01*
X0127184Y0048821D02*
X0135957Y0048821D01*
X0135957Y0049220D02*
X0127184Y0049220D01*
X0127184Y0049618D02*
X0135957Y0049618D01*
X0135957Y0050017D02*
X0127184Y0050017D01*
X0127184Y0050415D02*
X0135957Y0050415D01*
X0135957Y0050814D02*
X0127184Y0050814D01*
X0127184Y0051212D02*
X0135957Y0051212D01*
X0135957Y0051611D02*
X0129380Y0051611D01*
X0129779Y0052009D02*
X0135957Y0052009D01*
X0135957Y0052408D02*
X0132950Y0052408D01*
X0133046Y0052806D02*
X0135957Y0052806D01*
X0136079Y0053205D02*
X0133046Y0053205D01*
X0133046Y0053603D02*
X0146076Y0053603D01*
X0146076Y0054002D02*
X0133046Y0054002D01*
X0133046Y0054401D02*
X0146076Y0054401D01*
X0146076Y0054799D02*
X0133046Y0054799D01*
X0133046Y0055198D02*
X0146076Y0055198D01*
X0146076Y0055596D02*
X0133046Y0055596D01*
X0132767Y0055995D02*
X0146076Y0055995D01*
X0146076Y0056393D02*
X0127184Y0056393D01*
X0127278Y0056792D02*
X0145982Y0056792D01*
X0142296Y0057190D02*
X0135294Y0057190D01*
X0127344Y0051611D02*
X0127184Y0051611D01*
X0106706Y0051611D02*
X0102263Y0051611D01*
X0102263Y0052009D02*
X0106706Y0052009D01*
X0106706Y0052408D02*
X0102263Y0052408D01*
X0102263Y0052806D02*
X0106706Y0052806D01*
X0106706Y0053205D02*
X0102142Y0053205D01*
X0102100Y0053247D02*
X0096751Y0053247D01*
X0096587Y0053084D01*
X0096587Y0047144D01*
X0096751Y0046981D01*
X0098088Y0046981D01*
X0098088Y0045448D01*
X0093680Y0045448D01*
X0093676Y0045452D01*
X0093676Y0047842D01*
X0093354Y0048164D01*
X0087814Y0048164D01*
X0087814Y0051771D01*
X0088354Y0051231D01*
X0089630Y0051231D01*
X0090533Y0052134D01*
X0090533Y0052182D01*
X0093354Y0052182D01*
X0093676Y0052504D01*
X0093676Y0055716D01*
X0093354Y0056038D01*
X0087814Y0056038D01*
X0087814Y0056512D01*
X0087834Y0056664D01*
X0087986Y0056927D01*
X0088250Y0057079D01*
X0088402Y0057099D01*
X0095767Y0057099D01*
X0096113Y0057299D01*
X0102737Y0057299D01*
X0103083Y0057099D01*
X0106118Y0057099D01*
X0106270Y0057079D01*
X0106533Y0056927D01*
X0106685Y0056664D01*
X0106706Y0056512D01*
X0106706Y0040964D01*
X0103223Y0040964D01*
X0103223Y0041603D01*
X0102534Y0042292D01*
X0102534Y0042696D01*
X0101055Y0044175D01*
X0101156Y0044276D01*
X0101156Y0046981D01*
X0102100Y0046981D01*
X0102263Y0047144D01*
X0102263Y0053084D01*
X0102100Y0053247D01*
X0102263Y0051212D02*
X0106706Y0051212D01*
X0106706Y0050814D02*
X0102263Y0050814D01*
X0102263Y0050415D02*
X0106706Y0050415D01*
X0106706Y0050017D02*
X0102263Y0050017D01*
X0102263Y0049618D02*
X0106706Y0049618D01*
X0106706Y0049220D02*
X0102263Y0049220D01*
X0102263Y0048821D02*
X0106706Y0048821D01*
X0106706Y0048423D02*
X0102263Y0048423D01*
X0102263Y0048024D02*
X0106706Y0048024D01*
X0106706Y0047626D02*
X0102263Y0047626D01*
X0102263Y0047227D02*
X0106706Y0047227D01*
X0106706Y0046829D02*
X0101156Y0046829D01*
X0101156Y0046430D02*
X0106706Y0046430D01*
X0106706Y0046032D02*
X0101156Y0046032D01*
X0101156Y0045633D02*
X0106706Y0045633D01*
X0106706Y0045235D02*
X0101156Y0045235D01*
X0101156Y0044836D02*
X0106706Y0044836D01*
X0106706Y0044438D02*
X0101156Y0044438D01*
X0101191Y0044039D02*
X0106706Y0044039D01*
X0106706Y0043641D02*
X0101589Y0043641D01*
X0101988Y0043242D02*
X0106706Y0043242D01*
X0106706Y0042844D02*
X0102386Y0042844D01*
X0102534Y0042445D02*
X0106706Y0042445D01*
X0106706Y0042047D02*
X0102780Y0042047D01*
X0103178Y0041648D02*
X0106706Y0041648D01*
X0106706Y0041250D02*
X0103223Y0041250D01*
X0098088Y0045633D02*
X0093676Y0045633D01*
X0093676Y0046032D02*
X0098088Y0046032D01*
X0098088Y0046430D02*
X0093676Y0046430D01*
X0093676Y0046829D02*
X0098088Y0046829D01*
X0096587Y0047227D02*
X0093676Y0047227D01*
X0093676Y0047626D02*
X0096587Y0047626D01*
X0096587Y0048024D02*
X0093494Y0048024D01*
X0096587Y0048423D02*
X0087814Y0048423D01*
X0087814Y0048821D02*
X0096587Y0048821D01*
X0096587Y0049220D02*
X0087814Y0049220D01*
X0087814Y0049618D02*
X0096587Y0049618D01*
X0096587Y0050017D02*
X0087814Y0050017D01*
X0087814Y0050415D02*
X0096587Y0050415D01*
X0096587Y0050814D02*
X0087814Y0050814D01*
X0087814Y0051212D02*
X0096587Y0051212D01*
X0096587Y0051611D02*
X0090010Y0051611D01*
X0090409Y0052009D02*
X0096587Y0052009D01*
X0096587Y0052408D02*
X0093579Y0052408D01*
X0093676Y0052806D02*
X0096587Y0052806D01*
X0096708Y0053205D02*
X0093676Y0053205D01*
X0093676Y0053603D02*
X0106706Y0053603D01*
X0106706Y0054002D02*
X0093676Y0054002D01*
X0093676Y0054401D02*
X0106706Y0054401D01*
X0106706Y0054799D02*
X0093676Y0054799D01*
X0093676Y0055198D02*
X0106706Y0055198D01*
X0106706Y0055596D02*
X0093676Y0055596D01*
X0093397Y0055995D02*
X0106706Y0055995D01*
X0106706Y0056393D02*
X0087814Y0056393D01*
X0087908Y0056792D02*
X0106612Y0056792D01*
X0102926Y0057190D02*
X0095924Y0057190D01*
X0087974Y0051611D02*
X0087814Y0051611D01*
X0067335Y0051611D02*
X0062893Y0051611D01*
X0062893Y0052009D02*
X0067335Y0052009D01*
X0067335Y0052408D02*
X0062893Y0052408D01*
X0062893Y0052806D02*
X0067335Y0052806D01*
X0067335Y0053205D02*
X0062772Y0053205D01*
X0062730Y0053247D02*
X0057381Y0053247D01*
X0057217Y0053084D01*
X0057217Y0047144D01*
X0057381Y0046981D01*
X0058718Y0046981D01*
X0058718Y0045448D01*
X0054310Y0045448D01*
X0054306Y0045452D01*
X0054306Y0047842D01*
X0053984Y0048164D01*
X0048444Y0048164D01*
X0048444Y0051771D01*
X0048984Y0051231D01*
X0050260Y0051231D01*
X0051163Y0052134D01*
X0051163Y0052182D01*
X0053984Y0052182D01*
X0054306Y0052504D01*
X0054306Y0055716D01*
X0053984Y0056038D01*
X0048444Y0056038D01*
X0048444Y0056512D01*
X0048464Y0056664D01*
X0048616Y0056927D01*
X0048879Y0057079D01*
X0049031Y0057099D01*
X0056397Y0057099D01*
X0056743Y0057299D01*
X0063367Y0057299D01*
X0063713Y0057099D01*
X0066748Y0057099D01*
X0066900Y0057079D01*
X0067163Y0056927D01*
X0067315Y0056664D01*
X0067335Y0056512D01*
X0067335Y0040964D01*
X0063853Y0040964D01*
X0063853Y0041603D01*
X0063164Y0042292D01*
X0063164Y0042696D01*
X0061685Y0044175D01*
X0061786Y0044276D01*
X0061786Y0046981D01*
X0062730Y0046981D01*
X0062893Y0047144D01*
X0062893Y0053084D01*
X0062730Y0053247D01*
X0062893Y0051212D02*
X0067335Y0051212D01*
X0067335Y0050814D02*
X0062893Y0050814D01*
X0062893Y0050415D02*
X0067335Y0050415D01*
X0067335Y0050017D02*
X0062893Y0050017D01*
X0062893Y0049618D02*
X0067335Y0049618D01*
X0067335Y0049220D02*
X0062893Y0049220D01*
X0062893Y0048821D02*
X0067335Y0048821D01*
X0067335Y0048423D02*
X0062893Y0048423D01*
X0062893Y0048024D02*
X0067335Y0048024D01*
X0067335Y0047626D02*
X0062893Y0047626D01*
X0062893Y0047227D02*
X0067335Y0047227D01*
X0067335Y0046829D02*
X0061786Y0046829D01*
X0061786Y0046430D02*
X0067335Y0046430D01*
X0067335Y0046032D02*
X0061786Y0046032D01*
X0061786Y0045633D02*
X0067335Y0045633D01*
X0067335Y0045235D02*
X0061786Y0045235D01*
X0061786Y0044836D02*
X0067335Y0044836D01*
X0067335Y0044438D02*
X0061786Y0044438D01*
X0061821Y0044039D02*
X0067335Y0044039D01*
X0067335Y0043641D02*
X0062219Y0043641D01*
X0062618Y0043242D02*
X0067335Y0043242D01*
X0067335Y0042844D02*
X0063016Y0042844D01*
X0063164Y0042445D02*
X0067335Y0042445D01*
X0067335Y0042047D02*
X0063410Y0042047D01*
X0063808Y0041648D02*
X0067335Y0041648D01*
X0067335Y0041250D02*
X0063853Y0041250D01*
X0058718Y0045633D02*
X0054306Y0045633D01*
X0054306Y0046032D02*
X0058718Y0046032D01*
X0058718Y0046430D02*
X0054306Y0046430D01*
X0054306Y0046829D02*
X0058718Y0046829D01*
X0057217Y0047227D02*
X0054306Y0047227D01*
X0054306Y0047626D02*
X0057217Y0047626D01*
X0057217Y0048024D02*
X0054124Y0048024D01*
X0057217Y0048423D02*
X0048444Y0048423D01*
X0048444Y0048821D02*
X0057217Y0048821D01*
X0057217Y0049220D02*
X0048444Y0049220D01*
X0048444Y0049618D02*
X0057217Y0049618D01*
X0057217Y0050017D02*
X0048444Y0050017D01*
X0048444Y0050415D02*
X0057217Y0050415D01*
X0057217Y0050814D02*
X0048444Y0050814D01*
X0048444Y0051212D02*
X0057217Y0051212D01*
X0057217Y0051611D02*
X0050640Y0051611D01*
X0051039Y0052009D02*
X0057217Y0052009D01*
X0057217Y0052408D02*
X0054209Y0052408D01*
X0054306Y0052806D02*
X0057217Y0052806D01*
X0057338Y0053205D02*
X0054306Y0053205D01*
X0054306Y0053603D02*
X0067335Y0053603D01*
X0067335Y0054002D02*
X0054306Y0054002D01*
X0054306Y0054401D02*
X0067335Y0054401D01*
X0067335Y0054799D02*
X0054306Y0054799D01*
X0054306Y0055198D02*
X0067335Y0055198D01*
X0067335Y0055596D02*
X0054306Y0055596D01*
X0054027Y0055995D02*
X0067335Y0055995D01*
X0067335Y0056393D02*
X0048444Y0056393D01*
X0048538Y0056792D02*
X0067242Y0056792D01*
X0063556Y0057190D02*
X0056554Y0057190D01*
X0048604Y0051611D02*
X0048444Y0051611D01*
X0063853Y0080334D02*
X0063853Y0080973D01*
X0063164Y0081662D01*
X0063164Y0082066D01*
X0061685Y0083545D01*
X0061786Y0083646D01*
X0061786Y0086351D01*
X0062730Y0086351D01*
X0062893Y0086514D01*
X0062893Y0092454D01*
X0062730Y0092617D01*
X0057381Y0092617D01*
X0057217Y0092454D01*
X0057217Y0086514D01*
X0057381Y0086351D01*
X0058718Y0086351D01*
X0058718Y0084818D01*
X0054310Y0084818D01*
X0054306Y0084822D01*
X0054306Y0087212D01*
X0053984Y0087534D01*
X0048444Y0087534D01*
X0048444Y0091141D01*
X0048984Y0090601D01*
X0050260Y0090601D01*
X0051163Y0091504D01*
X0051163Y0091552D01*
X0053984Y0091552D01*
X0054306Y0091875D01*
X0054306Y0095086D01*
X0053984Y0095408D01*
X0048444Y0095408D01*
X0048444Y0095882D01*
X0048464Y0096034D01*
X0048616Y0096297D01*
X0048879Y0096449D01*
X0049031Y0096469D01*
X0056397Y0096469D01*
X0056743Y0096669D01*
X0063367Y0096669D01*
X0063713Y0096469D01*
X0066748Y0096469D01*
X0066900Y0096449D01*
X0067163Y0096297D01*
X0067315Y0096034D01*
X0067335Y0095882D01*
X0067335Y0080334D01*
X0063853Y0080334D01*
X0063853Y0080702D02*
X0067335Y0080702D01*
X0067335Y0081101D02*
X0063726Y0081101D01*
X0063327Y0081499D02*
X0067335Y0081499D01*
X0067335Y0081898D02*
X0063164Y0081898D01*
X0062934Y0082296D02*
X0067335Y0082296D01*
X0067335Y0082695D02*
X0062535Y0082695D01*
X0062137Y0083093D02*
X0067335Y0083093D01*
X0067335Y0083492D02*
X0061738Y0083492D01*
X0061786Y0083890D02*
X0067335Y0083890D01*
X0067335Y0084289D02*
X0061786Y0084289D01*
X0061786Y0084687D02*
X0067335Y0084687D01*
X0067335Y0085086D02*
X0061786Y0085086D01*
X0061786Y0085484D02*
X0067335Y0085484D01*
X0067335Y0085883D02*
X0061786Y0085883D01*
X0061786Y0086281D02*
X0067335Y0086281D01*
X0067335Y0086680D02*
X0062893Y0086680D01*
X0062893Y0087078D02*
X0067335Y0087078D01*
X0067335Y0087477D02*
X0062893Y0087477D01*
X0062893Y0087875D02*
X0067335Y0087875D01*
X0067335Y0088274D02*
X0062893Y0088274D01*
X0062893Y0088672D02*
X0067335Y0088672D01*
X0067335Y0089071D02*
X0062893Y0089071D01*
X0062893Y0089470D02*
X0067335Y0089470D01*
X0067335Y0089868D02*
X0062893Y0089868D01*
X0062893Y0090267D02*
X0067335Y0090267D01*
X0067335Y0090665D02*
X0062893Y0090665D01*
X0062893Y0091064D02*
X0067335Y0091064D01*
X0067335Y0091462D02*
X0062893Y0091462D01*
X0062893Y0091861D02*
X0067335Y0091861D01*
X0067335Y0092259D02*
X0062893Y0092259D01*
X0063413Y0096643D02*
X0056697Y0096643D01*
X0054306Y0095049D02*
X0067335Y0095049D01*
X0067335Y0095447D02*
X0048444Y0095447D01*
X0048444Y0095846D02*
X0067335Y0095846D01*
X0067194Y0096244D02*
X0048586Y0096244D01*
X0051121Y0091462D02*
X0057217Y0091462D01*
X0057217Y0091064D02*
X0050723Y0091064D01*
X0050324Y0090665D02*
X0057217Y0090665D01*
X0057217Y0090267D02*
X0048444Y0090267D01*
X0048444Y0090665D02*
X0048920Y0090665D01*
X0048522Y0091064D02*
X0048444Y0091064D01*
X0048444Y0089868D02*
X0057217Y0089868D01*
X0057217Y0089470D02*
X0048444Y0089470D01*
X0048444Y0089071D02*
X0057217Y0089071D01*
X0057217Y0088672D02*
X0048444Y0088672D01*
X0048444Y0088274D02*
X0057217Y0088274D01*
X0057217Y0087875D02*
X0048444Y0087875D01*
X0054041Y0087477D02*
X0057217Y0087477D01*
X0057217Y0087078D02*
X0054306Y0087078D01*
X0054306Y0086680D02*
X0057217Y0086680D01*
X0058718Y0086281D02*
X0054306Y0086281D01*
X0054306Y0085883D02*
X0058718Y0085883D01*
X0058718Y0085484D02*
X0054306Y0085484D01*
X0054306Y0085086D02*
X0058718Y0085086D01*
X0057217Y0091861D02*
X0054292Y0091861D01*
X0054306Y0092259D02*
X0057217Y0092259D01*
X0054306Y0092658D02*
X0067335Y0092658D01*
X0067335Y0093056D02*
X0054306Y0093056D01*
X0054306Y0093455D02*
X0067335Y0093455D01*
X0067335Y0093853D02*
X0054306Y0093853D01*
X0054306Y0094252D02*
X0067335Y0094252D01*
X0067335Y0094650D02*
X0054306Y0094650D01*
X0063853Y0119704D02*
X0063853Y0120343D01*
X0063164Y0121032D01*
X0063164Y0121436D01*
X0061685Y0122915D01*
X0061786Y0123016D01*
X0061786Y0125721D01*
X0062730Y0125721D01*
X0062893Y0125885D01*
X0062893Y0131824D01*
X0062730Y0131987D01*
X0057381Y0131987D01*
X0057217Y0131824D01*
X0057217Y0125885D01*
X0057381Y0125721D01*
X0058718Y0125721D01*
X0058718Y0124188D01*
X0054310Y0124188D01*
X0054306Y0124192D01*
X0054306Y0126582D01*
X0053984Y0126904D01*
X0048444Y0126904D01*
X0048444Y0130511D01*
X0048984Y0129971D01*
X0050260Y0129971D01*
X0051163Y0130874D01*
X0051163Y0130922D01*
X0053984Y0130922D01*
X0054306Y0131245D01*
X0054306Y0134456D01*
X0053984Y0134778D01*
X0048444Y0134778D01*
X0048444Y0135252D01*
X0048464Y0135404D01*
X0048616Y0135667D01*
X0048879Y0135819D01*
X0049031Y0135839D01*
X0056397Y0135839D01*
X0056743Y0136039D01*
X0063367Y0136039D01*
X0063713Y0135839D01*
X0066748Y0135839D01*
X0066900Y0135819D01*
X0067163Y0135667D01*
X0067315Y0135404D01*
X0067335Y0135252D01*
X0067335Y0119704D01*
X0063853Y0119704D01*
X0063853Y0119756D02*
X0067335Y0119756D01*
X0067335Y0120155D02*
X0063853Y0120155D01*
X0063643Y0120553D02*
X0067335Y0120553D01*
X0067335Y0120952D02*
X0063245Y0120952D01*
X0063164Y0121350D02*
X0067335Y0121350D01*
X0067335Y0121749D02*
X0062851Y0121749D01*
X0062453Y0122147D02*
X0067335Y0122147D01*
X0067335Y0122546D02*
X0062054Y0122546D01*
X0061714Y0122944D02*
X0067335Y0122944D01*
X0067335Y0123343D02*
X0061786Y0123343D01*
X0061786Y0123741D02*
X0067335Y0123741D01*
X0067335Y0124140D02*
X0061786Y0124140D01*
X0061786Y0124539D02*
X0067335Y0124539D01*
X0067335Y0124937D02*
X0061786Y0124937D01*
X0061786Y0125336D02*
X0067335Y0125336D01*
X0067335Y0125734D02*
X0062742Y0125734D01*
X0062893Y0126133D02*
X0067335Y0126133D01*
X0067335Y0126531D02*
X0062893Y0126531D01*
X0062893Y0126930D02*
X0067335Y0126930D01*
X0067335Y0127328D02*
X0062893Y0127328D01*
X0062893Y0127727D02*
X0067335Y0127727D01*
X0067335Y0128125D02*
X0062893Y0128125D01*
X0062893Y0128524D02*
X0067335Y0128524D01*
X0067335Y0128922D02*
X0062893Y0128922D01*
X0062893Y0129321D02*
X0067335Y0129321D01*
X0067335Y0129719D02*
X0062893Y0129719D01*
X0062893Y0130118D02*
X0067335Y0130118D01*
X0067335Y0130516D02*
X0062893Y0130516D01*
X0062893Y0130915D02*
X0067335Y0130915D01*
X0067335Y0131313D02*
X0062893Y0131313D01*
X0062893Y0131712D02*
X0067335Y0131712D01*
X0067335Y0132110D02*
X0054306Y0132110D01*
X0054306Y0131712D02*
X0057217Y0131712D01*
X0057217Y0131313D02*
X0054306Y0131313D01*
X0054306Y0132509D02*
X0067335Y0132509D01*
X0067335Y0132907D02*
X0054306Y0132907D01*
X0054306Y0133306D02*
X0067335Y0133306D01*
X0067335Y0133704D02*
X0054306Y0133704D01*
X0054306Y0134103D02*
X0067335Y0134103D01*
X0067335Y0134501D02*
X0054261Y0134501D01*
X0057217Y0130915D02*
X0051163Y0130915D01*
X0050805Y0130516D02*
X0057217Y0130516D01*
X0057217Y0130118D02*
X0050407Y0130118D01*
X0048838Y0130118D02*
X0048444Y0130118D01*
X0048444Y0129719D02*
X0057217Y0129719D01*
X0057217Y0129321D02*
X0048444Y0129321D01*
X0048444Y0128922D02*
X0057217Y0128922D01*
X0057217Y0128524D02*
X0048444Y0128524D01*
X0048444Y0128125D02*
X0057217Y0128125D01*
X0057217Y0127727D02*
X0048444Y0127727D01*
X0048444Y0127328D02*
X0057217Y0127328D01*
X0057217Y0126930D02*
X0048444Y0126930D01*
X0054306Y0126531D02*
X0057217Y0126531D01*
X0057217Y0126133D02*
X0054306Y0126133D01*
X0054306Y0125734D02*
X0057368Y0125734D01*
X0058718Y0125336D02*
X0054306Y0125336D01*
X0054306Y0124937D02*
X0058718Y0124937D01*
X0058718Y0124539D02*
X0054306Y0124539D01*
X0048444Y0134900D02*
X0067335Y0134900D01*
X0067329Y0135298D02*
X0048450Y0135298D01*
X0048667Y0135697D02*
X0067112Y0135697D01*
X0067335Y0159074D02*
X0063853Y0159074D01*
X0063853Y0159713D01*
X0063164Y0160402D01*
X0063164Y0160806D01*
X0061685Y0162285D01*
X0061786Y0162386D01*
X0061786Y0165091D01*
X0062730Y0165091D01*
X0062893Y0165255D01*
X0062893Y0171194D01*
X0062730Y0171357D01*
X0057381Y0171357D01*
X0057217Y0171194D01*
X0057217Y0165255D01*
X0057381Y0165091D01*
X0058718Y0165091D01*
X0058718Y0163558D01*
X0054310Y0163558D01*
X0054306Y0163562D01*
X0054306Y0165952D01*
X0053984Y0166274D01*
X0048444Y0166274D01*
X0048444Y0169881D01*
X0048984Y0169341D01*
X0050260Y0169341D01*
X0051163Y0170244D01*
X0051163Y0170293D01*
X0053984Y0170293D01*
X0054306Y0170615D01*
X0054306Y0173826D01*
X0053984Y0174148D01*
X0048444Y0174148D01*
X0048444Y0174622D01*
X0048464Y0174774D01*
X0048616Y0175037D01*
X0048879Y0175189D01*
X0049031Y0175209D01*
X0056397Y0175209D01*
X0056743Y0175409D01*
X0063367Y0175409D01*
X0063713Y0175209D01*
X0066748Y0175209D01*
X0066900Y0175189D01*
X0067163Y0175037D01*
X0067315Y0174774D01*
X0067335Y0174622D01*
X0067335Y0159074D01*
X0067335Y0159209D02*
X0063853Y0159209D01*
X0063853Y0159608D02*
X0067335Y0159608D01*
X0067335Y0160006D02*
X0063560Y0160006D01*
X0063164Y0160405D02*
X0067335Y0160405D01*
X0067335Y0160803D02*
X0063164Y0160803D01*
X0062769Y0161202D02*
X0067335Y0161202D01*
X0067335Y0161600D02*
X0062370Y0161600D01*
X0061972Y0161999D02*
X0067335Y0161999D01*
X0067335Y0162397D02*
X0061786Y0162397D01*
X0061786Y0162796D02*
X0067335Y0162796D01*
X0067335Y0163194D02*
X0061786Y0163194D01*
X0061786Y0163593D02*
X0067335Y0163593D01*
X0067335Y0163991D02*
X0061786Y0163991D01*
X0061786Y0164390D02*
X0067335Y0164390D01*
X0067335Y0164788D02*
X0061786Y0164788D01*
X0062825Y0165187D02*
X0067335Y0165187D01*
X0067335Y0165585D02*
X0062893Y0165585D01*
X0062893Y0165984D02*
X0067335Y0165984D01*
X0067335Y0166382D02*
X0062893Y0166382D01*
X0062893Y0166781D02*
X0067335Y0166781D01*
X0067335Y0167179D02*
X0062893Y0167179D01*
X0062893Y0167578D02*
X0067335Y0167578D01*
X0067335Y0167976D02*
X0062893Y0167976D01*
X0062893Y0168375D02*
X0067335Y0168375D01*
X0067335Y0168773D02*
X0062893Y0168773D01*
X0062893Y0169172D02*
X0067335Y0169172D01*
X0067335Y0169570D02*
X0062893Y0169570D01*
X0062893Y0169969D02*
X0067335Y0169969D01*
X0067335Y0170367D02*
X0062893Y0170367D01*
X0062893Y0170766D02*
X0067335Y0170766D01*
X0067335Y0171164D02*
X0062893Y0171164D01*
X0067335Y0171563D02*
X0054306Y0171563D01*
X0054306Y0171961D02*
X0067335Y0171961D01*
X0067335Y0172360D02*
X0054306Y0172360D01*
X0054306Y0172758D02*
X0067335Y0172758D01*
X0067335Y0173157D02*
X0054306Y0173157D01*
X0054306Y0173555D02*
X0067335Y0173555D01*
X0067335Y0173954D02*
X0054178Y0173954D01*
X0054306Y0171164D02*
X0057217Y0171164D01*
X0057217Y0170766D02*
X0054306Y0170766D01*
X0054059Y0170367D02*
X0057217Y0170367D01*
X0057217Y0169969D02*
X0050888Y0169969D01*
X0050489Y0169570D02*
X0057217Y0169570D01*
X0057217Y0169172D02*
X0048444Y0169172D01*
X0048444Y0169570D02*
X0048755Y0169570D01*
X0048444Y0168773D02*
X0057217Y0168773D01*
X0057217Y0168375D02*
X0048444Y0168375D01*
X0048444Y0167976D02*
X0057217Y0167976D01*
X0057217Y0167578D02*
X0048444Y0167578D01*
X0048444Y0167179D02*
X0057217Y0167179D01*
X0057217Y0166781D02*
X0048444Y0166781D01*
X0048444Y0166382D02*
X0057217Y0166382D01*
X0057217Y0165984D02*
X0054274Y0165984D01*
X0054306Y0165585D02*
X0057217Y0165585D01*
X0057285Y0165187D02*
X0054306Y0165187D01*
X0054306Y0164788D02*
X0058718Y0164788D01*
X0058718Y0164390D02*
X0054306Y0164390D01*
X0054306Y0163991D02*
X0058718Y0163991D01*
X0058718Y0163593D02*
X0054306Y0163593D01*
X0048444Y0174352D02*
X0067335Y0174352D01*
X0067318Y0174751D02*
X0048461Y0174751D01*
X0048810Y0175149D02*
X0066969Y0175149D01*
X0067335Y0198444D02*
X0063853Y0198444D01*
X0063853Y0199083D01*
X0063164Y0199772D01*
X0063164Y0200176D01*
X0061685Y0201655D01*
X0061786Y0201756D01*
X0061786Y0204461D01*
X0062730Y0204461D01*
X0062893Y0204625D01*
X0062893Y0210564D01*
X0062730Y0210728D01*
X0057381Y0210728D01*
X0057217Y0210564D01*
X0057217Y0204625D01*
X0057381Y0204461D01*
X0058718Y0204461D01*
X0058718Y0202928D01*
X0054310Y0202928D01*
X0054306Y0202932D01*
X0054306Y0205322D01*
X0053984Y0205644D01*
X0048444Y0205644D01*
X0048444Y0209251D01*
X0048984Y0208711D01*
X0050260Y0208711D01*
X0051163Y0209614D01*
X0051163Y0209663D01*
X0053984Y0209663D01*
X0054306Y0209985D01*
X0054306Y0213196D01*
X0053984Y0213518D01*
X0048444Y0213518D01*
X0048444Y0213992D01*
X0048464Y0214144D01*
X0048616Y0214407D01*
X0048879Y0214560D01*
X0049031Y0214580D01*
X0056397Y0214580D01*
X0056743Y0214780D01*
X0063367Y0214780D01*
X0063713Y0214580D01*
X0066748Y0214580D01*
X0066900Y0214560D01*
X0067163Y0214407D01*
X0067315Y0214144D01*
X0067335Y0213992D01*
X0067335Y0198444D01*
X0067335Y0198662D02*
X0063853Y0198662D01*
X0063853Y0199060D02*
X0067335Y0199060D01*
X0067335Y0199459D02*
X0063478Y0199459D01*
X0063164Y0199857D02*
X0067335Y0199857D01*
X0067335Y0200256D02*
X0063085Y0200256D01*
X0062686Y0200654D02*
X0067335Y0200654D01*
X0067335Y0201053D02*
X0062287Y0201053D01*
X0061889Y0201451D02*
X0067335Y0201451D01*
X0067335Y0201850D02*
X0061786Y0201850D01*
X0061786Y0202248D02*
X0067335Y0202248D01*
X0067335Y0202647D02*
X0061786Y0202647D01*
X0061786Y0203045D02*
X0067335Y0203045D01*
X0067335Y0203444D02*
X0061786Y0203444D01*
X0061786Y0203842D02*
X0067335Y0203842D01*
X0067335Y0204241D02*
X0061786Y0204241D01*
X0062893Y0204639D02*
X0067335Y0204639D01*
X0067335Y0205038D02*
X0062893Y0205038D01*
X0062893Y0205436D02*
X0067335Y0205436D01*
X0067335Y0205835D02*
X0062893Y0205835D01*
X0062893Y0206233D02*
X0067335Y0206233D01*
X0067335Y0206632D02*
X0062893Y0206632D01*
X0062893Y0207030D02*
X0067335Y0207030D01*
X0067335Y0207429D02*
X0062893Y0207429D01*
X0062893Y0207827D02*
X0067335Y0207827D01*
X0067335Y0208226D02*
X0062893Y0208226D01*
X0062893Y0208624D02*
X0067335Y0208624D01*
X0067335Y0209023D02*
X0062893Y0209023D01*
X0062893Y0209421D02*
X0067335Y0209421D01*
X0067335Y0209820D02*
X0062893Y0209820D01*
X0062893Y0210218D02*
X0067335Y0210218D01*
X0067335Y0210617D02*
X0062840Y0210617D01*
X0063674Y0214602D02*
X0056436Y0214602D01*
X0054096Y0213407D02*
X0067335Y0213407D01*
X0067335Y0213805D02*
X0048444Y0213805D01*
X0048498Y0214204D02*
X0067281Y0214204D01*
X0067335Y0213008D02*
X0054306Y0213008D01*
X0054306Y0212610D02*
X0067335Y0212610D01*
X0067335Y0212211D02*
X0054306Y0212211D01*
X0054306Y0211812D02*
X0067335Y0211812D01*
X0067335Y0211414D02*
X0054306Y0211414D01*
X0054306Y0211015D02*
X0067335Y0211015D01*
X0058718Y0204241D02*
X0054306Y0204241D01*
X0054306Y0204639D02*
X0057217Y0204639D01*
X0057217Y0205038D02*
X0054306Y0205038D01*
X0054192Y0205436D02*
X0057217Y0205436D01*
X0057217Y0205835D02*
X0048444Y0205835D01*
X0048444Y0206233D02*
X0057217Y0206233D01*
X0057217Y0206632D02*
X0048444Y0206632D01*
X0048444Y0207030D02*
X0057217Y0207030D01*
X0057217Y0207429D02*
X0048444Y0207429D01*
X0048444Y0207827D02*
X0057217Y0207827D01*
X0057217Y0208226D02*
X0048444Y0208226D01*
X0048444Y0208624D02*
X0057217Y0208624D01*
X0057217Y0209023D02*
X0050572Y0209023D01*
X0050970Y0209421D02*
X0057217Y0209421D01*
X0057217Y0209820D02*
X0054141Y0209820D01*
X0054306Y0210218D02*
X0057217Y0210218D01*
X0057270Y0210617D02*
X0054306Y0210617D01*
X0048672Y0209023D02*
X0048444Y0209023D01*
X0054306Y0203842D02*
X0058718Y0203842D01*
X0058718Y0203444D02*
X0054306Y0203444D01*
X0054306Y0203045D02*
X0058718Y0203045D01*
X0087814Y0205644D02*
X0087814Y0209251D01*
X0088354Y0208711D01*
X0089630Y0208711D01*
X0090533Y0209614D01*
X0090533Y0209663D01*
X0093354Y0209663D01*
X0093676Y0209985D01*
X0093676Y0213196D01*
X0093354Y0213518D01*
X0087814Y0213518D01*
X0087814Y0213992D01*
X0087834Y0214144D01*
X0087986Y0214407D01*
X0088250Y0214560D01*
X0088402Y0214580D01*
X0095767Y0214580D01*
X0096113Y0214780D01*
X0102737Y0214780D01*
X0103083Y0214580D01*
X0106118Y0214580D01*
X0106270Y0214560D01*
X0106533Y0214407D01*
X0106685Y0214144D01*
X0106706Y0213992D01*
X0106706Y0198444D01*
X0103223Y0198444D01*
X0103223Y0199083D01*
X0102534Y0199772D01*
X0102534Y0200176D01*
X0101055Y0201655D01*
X0101156Y0201756D01*
X0101156Y0204461D01*
X0102100Y0204461D01*
X0102263Y0204625D01*
X0102263Y0210564D01*
X0102100Y0210728D01*
X0096751Y0210728D01*
X0096587Y0210564D01*
X0096587Y0204625D01*
X0096751Y0204461D01*
X0098088Y0204461D01*
X0098088Y0202928D01*
X0093680Y0202928D01*
X0093676Y0202932D01*
X0093676Y0205322D01*
X0093354Y0205644D01*
X0087814Y0205644D01*
X0087814Y0205835D02*
X0096587Y0205835D01*
X0096587Y0206233D02*
X0087814Y0206233D01*
X0087814Y0206632D02*
X0096587Y0206632D01*
X0096587Y0207030D02*
X0087814Y0207030D01*
X0087814Y0207429D02*
X0096587Y0207429D01*
X0096587Y0207827D02*
X0087814Y0207827D01*
X0087814Y0208226D02*
X0096587Y0208226D01*
X0096587Y0208624D02*
X0087814Y0208624D01*
X0087814Y0209023D02*
X0088043Y0209023D01*
X0089942Y0209023D02*
X0096587Y0209023D01*
X0096587Y0209421D02*
X0090340Y0209421D01*
X0093511Y0209820D02*
X0096587Y0209820D01*
X0096587Y0210218D02*
X0093676Y0210218D01*
X0093676Y0210617D02*
X0096640Y0210617D01*
X0093676Y0211015D02*
X0106706Y0211015D01*
X0106706Y0210617D02*
X0102210Y0210617D01*
X0102263Y0210218D02*
X0106706Y0210218D01*
X0106706Y0209820D02*
X0102263Y0209820D01*
X0102263Y0209421D02*
X0106706Y0209421D01*
X0106706Y0209023D02*
X0102263Y0209023D01*
X0102263Y0208624D02*
X0106706Y0208624D01*
X0106706Y0208226D02*
X0102263Y0208226D01*
X0102263Y0207827D02*
X0106706Y0207827D01*
X0106706Y0207429D02*
X0102263Y0207429D01*
X0102263Y0207030D02*
X0106706Y0207030D01*
X0106706Y0206632D02*
X0102263Y0206632D01*
X0102263Y0206233D02*
X0106706Y0206233D01*
X0106706Y0205835D02*
X0102263Y0205835D01*
X0102263Y0205436D02*
X0106706Y0205436D01*
X0106706Y0205038D02*
X0102263Y0205038D01*
X0102263Y0204639D02*
X0106706Y0204639D01*
X0106706Y0204241D02*
X0101156Y0204241D01*
X0101156Y0203842D02*
X0106706Y0203842D01*
X0106706Y0203444D02*
X0101156Y0203444D01*
X0101156Y0203045D02*
X0106706Y0203045D01*
X0106706Y0202647D02*
X0101156Y0202647D01*
X0101156Y0202248D02*
X0106706Y0202248D01*
X0106706Y0201850D02*
X0101156Y0201850D01*
X0101259Y0201451D02*
X0106706Y0201451D01*
X0106706Y0201053D02*
X0101658Y0201053D01*
X0102056Y0200654D02*
X0106706Y0200654D01*
X0106706Y0200256D02*
X0102455Y0200256D01*
X0102534Y0199857D02*
X0106706Y0199857D01*
X0106706Y0199459D02*
X0102848Y0199459D01*
X0103223Y0199060D02*
X0106706Y0199060D01*
X0106706Y0198662D02*
X0103223Y0198662D01*
X0098088Y0203045D02*
X0093676Y0203045D01*
X0093676Y0203444D02*
X0098088Y0203444D01*
X0098088Y0203842D02*
X0093676Y0203842D01*
X0093676Y0204241D02*
X0098088Y0204241D01*
X0096587Y0204639D02*
X0093676Y0204639D01*
X0093676Y0205038D02*
X0096587Y0205038D01*
X0096587Y0205436D02*
X0093562Y0205436D01*
X0093676Y0211414D02*
X0106706Y0211414D01*
X0106706Y0211812D02*
X0093676Y0211812D01*
X0093676Y0212211D02*
X0106706Y0212211D01*
X0106706Y0212610D02*
X0093676Y0212610D01*
X0093676Y0213008D02*
X0106706Y0213008D01*
X0106706Y0213407D02*
X0093466Y0213407D01*
X0095806Y0214602D02*
X0103044Y0214602D01*
X0106651Y0214204D02*
X0087868Y0214204D01*
X0087814Y0213805D02*
X0106706Y0213805D01*
X0127184Y0213805D02*
X0146076Y0213805D01*
X0146076Y0213992D02*
X0146076Y0198444D01*
X0142593Y0198444D01*
X0142593Y0199083D01*
X0141904Y0199772D01*
X0141904Y0200176D01*
X0140425Y0201655D01*
X0140526Y0201756D01*
X0140526Y0204461D01*
X0141470Y0204461D01*
X0141633Y0204625D01*
X0141633Y0210564D01*
X0141470Y0210728D01*
X0136121Y0210728D01*
X0135957Y0210564D01*
X0135957Y0204625D01*
X0136121Y0204461D01*
X0137458Y0204461D01*
X0137458Y0202928D01*
X0133050Y0202928D01*
X0133046Y0202932D01*
X0133046Y0205322D01*
X0132724Y0205644D01*
X0127184Y0205644D01*
X0127184Y0209251D01*
X0127724Y0208711D01*
X0129000Y0208711D01*
X0129903Y0209614D01*
X0129903Y0209663D01*
X0132724Y0209663D01*
X0133046Y0209985D01*
X0133046Y0213196D01*
X0132724Y0213518D01*
X0127184Y0213518D01*
X0127184Y0213992D01*
X0127204Y0214144D01*
X0127356Y0214407D01*
X0127620Y0214560D01*
X0127772Y0214580D01*
X0135137Y0214580D01*
X0135483Y0214780D01*
X0142107Y0214780D01*
X0142454Y0214580D01*
X0145488Y0214580D01*
X0145640Y0214560D01*
X0145904Y0214407D01*
X0146056Y0214144D01*
X0146076Y0213992D01*
X0146021Y0214204D02*
X0127239Y0214204D01*
X0127184Y0209023D02*
X0127413Y0209023D01*
X0127184Y0208624D02*
X0135957Y0208624D01*
X0135957Y0208226D02*
X0127184Y0208226D01*
X0127184Y0207827D02*
X0135957Y0207827D01*
X0135957Y0207429D02*
X0127184Y0207429D01*
X0127184Y0207030D02*
X0135957Y0207030D01*
X0135957Y0206632D02*
X0127184Y0206632D01*
X0127184Y0206233D02*
X0135957Y0206233D01*
X0135957Y0205835D02*
X0127184Y0205835D01*
X0129312Y0209023D02*
X0135957Y0209023D01*
X0135957Y0209421D02*
X0129710Y0209421D01*
X0132881Y0209820D02*
X0135957Y0209820D01*
X0135957Y0210218D02*
X0133046Y0210218D01*
X0133046Y0210617D02*
X0136010Y0210617D01*
X0133046Y0211015D02*
X0146076Y0211015D01*
X0146076Y0210617D02*
X0141580Y0210617D01*
X0141633Y0210218D02*
X0146076Y0210218D01*
X0146076Y0209820D02*
X0141633Y0209820D01*
X0141633Y0209421D02*
X0146076Y0209421D01*
X0146076Y0209023D02*
X0141633Y0209023D01*
X0141633Y0208624D02*
X0146076Y0208624D01*
X0146076Y0208226D02*
X0141633Y0208226D01*
X0141633Y0207827D02*
X0146076Y0207827D01*
X0146076Y0207429D02*
X0141633Y0207429D01*
X0141633Y0207030D02*
X0146076Y0207030D01*
X0146076Y0206632D02*
X0141633Y0206632D01*
X0141633Y0206233D02*
X0146076Y0206233D01*
X0146076Y0205835D02*
X0141633Y0205835D01*
X0141633Y0205436D02*
X0146076Y0205436D01*
X0146076Y0205038D02*
X0141633Y0205038D01*
X0141633Y0204639D02*
X0146076Y0204639D01*
X0146076Y0204241D02*
X0140526Y0204241D01*
X0140526Y0203842D02*
X0146076Y0203842D01*
X0146076Y0203444D02*
X0140526Y0203444D01*
X0140526Y0203045D02*
X0146076Y0203045D01*
X0146076Y0202647D02*
X0140526Y0202647D01*
X0140526Y0202248D02*
X0146076Y0202248D01*
X0146076Y0201850D02*
X0140526Y0201850D01*
X0140629Y0201451D02*
X0146076Y0201451D01*
X0146076Y0201053D02*
X0141028Y0201053D01*
X0141426Y0200654D02*
X0146076Y0200654D01*
X0146076Y0200256D02*
X0141825Y0200256D01*
X0141904Y0199857D02*
X0146076Y0199857D01*
X0146076Y0199459D02*
X0142218Y0199459D01*
X0142593Y0199060D02*
X0146076Y0199060D01*
X0146076Y0198662D02*
X0142593Y0198662D01*
X0137458Y0203045D02*
X0133046Y0203045D01*
X0133046Y0203444D02*
X0137458Y0203444D01*
X0137458Y0203842D02*
X0133046Y0203842D01*
X0133046Y0204241D02*
X0137458Y0204241D01*
X0135957Y0204639D02*
X0133046Y0204639D01*
X0133046Y0205038D02*
X0135957Y0205038D01*
X0135957Y0205436D02*
X0132932Y0205436D01*
X0133046Y0211414D02*
X0146076Y0211414D01*
X0146076Y0211812D02*
X0133046Y0211812D01*
X0133046Y0212211D02*
X0146076Y0212211D01*
X0146076Y0212610D02*
X0133046Y0212610D01*
X0133046Y0213008D02*
X0146076Y0213008D01*
X0146076Y0213407D02*
X0132836Y0213407D01*
X0135176Y0214602D02*
X0142415Y0214602D01*
X0166554Y0213992D02*
X0166574Y0214144D01*
X0166726Y0214407D01*
X0166990Y0214560D01*
X0167142Y0214580D01*
X0174507Y0214580D01*
X0174853Y0214780D01*
X0181477Y0214780D01*
X0181824Y0214580D01*
X0184858Y0214580D01*
X0185010Y0214560D01*
X0185274Y0214407D01*
X0185426Y0214144D01*
X0185446Y0213992D01*
X0185446Y0198444D01*
X0181963Y0198444D01*
X0181963Y0199083D01*
X0181274Y0199772D01*
X0181274Y0200176D01*
X0179795Y0201655D01*
X0179896Y0201756D01*
X0179896Y0204461D01*
X0180840Y0204461D01*
X0181003Y0204625D01*
X0181003Y0210564D01*
X0180840Y0210728D01*
X0175491Y0210728D01*
X0175328Y0210564D01*
X0175328Y0204625D01*
X0175491Y0204461D01*
X0176828Y0204461D01*
X0176828Y0202928D01*
X0172420Y0202928D01*
X0172416Y0202932D01*
X0172416Y0205322D01*
X0172094Y0205644D01*
X0166554Y0205644D01*
X0166554Y0209251D01*
X0167094Y0208711D01*
X0168370Y0208711D01*
X0169273Y0209614D01*
X0169273Y0209663D01*
X0172094Y0209663D01*
X0172416Y0209985D01*
X0172416Y0213196D01*
X0172094Y0213518D01*
X0166554Y0213518D01*
X0166554Y0213992D01*
X0166554Y0213805D02*
X0185446Y0213805D01*
X0185446Y0213407D02*
X0172206Y0213407D01*
X0172416Y0213008D02*
X0185446Y0213008D01*
X0185446Y0212610D02*
X0172416Y0212610D01*
X0172416Y0212211D02*
X0185446Y0212211D01*
X0185446Y0211812D02*
X0172416Y0211812D01*
X0172416Y0211414D02*
X0185446Y0211414D01*
X0185446Y0211015D02*
X0172416Y0211015D01*
X0172416Y0210617D02*
X0175380Y0210617D01*
X0175328Y0210218D02*
X0172416Y0210218D01*
X0172251Y0209820D02*
X0175328Y0209820D01*
X0175328Y0209421D02*
X0169080Y0209421D01*
X0168682Y0209023D02*
X0175328Y0209023D01*
X0175328Y0208624D02*
X0166554Y0208624D01*
X0166554Y0208226D02*
X0175328Y0208226D01*
X0175328Y0207827D02*
X0166554Y0207827D01*
X0166554Y0207429D02*
X0175328Y0207429D01*
X0175328Y0207030D02*
X0166554Y0207030D01*
X0166554Y0206632D02*
X0175328Y0206632D01*
X0175328Y0206233D02*
X0166554Y0206233D01*
X0166554Y0205835D02*
X0175328Y0205835D01*
X0175328Y0205436D02*
X0172302Y0205436D01*
X0172416Y0205038D02*
X0175328Y0205038D01*
X0175328Y0204639D02*
X0172416Y0204639D01*
X0172416Y0204241D02*
X0176828Y0204241D01*
X0176828Y0203842D02*
X0172416Y0203842D01*
X0172416Y0203444D02*
X0176828Y0203444D01*
X0176828Y0203045D02*
X0172416Y0203045D01*
X0179896Y0203045D02*
X0185446Y0203045D01*
X0185446Y0202647D02*
X0179896Y0202647D01*
X0179896Y0202248D02*
X0185446Y0202248D01*
X0185446Y0201850D02*
X0179896Y0201850D01*
X0179999Y0201451D02*
X0185446Y0201451D01*
X0185446Y0201053D02*
X0180398Y0201053D01*
X0180796Y0200654D02*
X0185446Y0200654D01*
X0185446Y0200256D02*
X0181195Y0200256D01*
X0181274Y0199857D02*
X0185446Y0199857D01*
X0185446Y0199459D02*
X0181588Y0199459D01*
X0181963Y0199060D02*
X0185446Y0199060D01*
X0185446Y0198662D02*
X0181963Y0198662D01*
X0179896Y0203444D02*
X0185446Y0203444D01*
X0185446Y0203842D02*
X0179896Y0203842D01*
X0179896Y0204241D02*
X0185446Y0204241D01*
X0185446Y0204639D02*
X0181003Y0204639D01*
X0181003Y0205038D02*
X0185446Y0205038D01*
X0185446Y0205436D02*
X0181003Y0205436D01*
X0181003Y0205835D02*
X0185446Y0205835D01*
X0185446Y0206233D02*
X0181003Y0206233D01*
X0181003Y0206632D02*
X0185446Y0206632D01*
X0185446Y0207030D02*
X0181003Y0207030D01*
X0181003Y0207429D02*
X0185446Y0207429D01*
X0185446Y0207827D02*
X0181003Y0207827D01*
X0181003Y0208226D02*
X0185446Y0208226D01*
X0185446Y0208624D02*
X0181003Y0208624D01*
X0181003Y0209023D02*
X0185446Y0209023D01*
X0185446Y0209421D02*
X0181003Y0209421D01*
X0181003Y0209820D02*
X0185446Y0209820D01*
X0185446Y0210218D02*
X0181003Y0210218D01*
X0180950Y0210617D02*
X0185446Y0210617D01*
X0185391Y0214204D02*
X0166609Y0214204D01*
X0166554Y0209023D02*
X0166783Y0209023D01*
X0174546Y0214602D02*
X0181785Y0214602D01*
X0205924Y0213992D02*
X0205944Y0214144D01*
X0206096Y0214407D01*
X0206360Y0214560D01*
X0206512Y0214580D01*
X0213877Y0214580D01*
X0214224Y0214780D01*
X0220847Y0214780D01*
X0221194Y0214580D01*
X0224228Y0214580D01*
X0224380Y0214560D01*
X0224644Y0214407D01*
X0224796Y0214144D01*
X0224816Y0213992D01*
X0224816Y0198444D01*
X0221333Y0198444D01*
X0221333Y0199083D01*
X0220644Y0199772D01*
X0220644Y0200176D01*
X0219165Y0201655D01*
X0219267Y0201756D01*
X0219267Y0204461D01*
X0220210Y0204461D01*
X0220373Y0204625D01*
X0220373Y0210564D01*
X0220210Y0210728D01*
X0214861Y0210728D01*
X0214698Y0210564D01*
X0214698Y0204625D01*
X0214861Y0204461D01*
X0216198Y0204461D01*
X0216198Y0202928D01*
X0211790Y0202928D01*
X0211786Y0202932D01*
X0211786Y0205322D01*
X0211464Y0205644D01*
X0205924Y0205644D01*
X0205924Y0209251D01*
X0206464Y0208711D01*
X0207740Y0208711D01*
X0208643Y0209614D01*
X0208643Y0209663D01*
X0211464Y0209663D01*
X0211786Y0209985D01*
X0211786Y0213196D01*
X0211464Y0213518D01*
X0205924Y0213518D01*
X0205924Y0213992D01*
X0205924Y0213805D02*
X0224816Y0213805D01*
X0224816Y0213407D02*
X0211576Y0213407D01*
X0211786Y0213008D02*
X0224816Y0213008D01*
X0224816Y0212610D02*
X0211786Y0212610D01*
X0211786Y0212211D02*
X0224816Y0212211D01*
X0224816Y0211812D02*
X0211786Y0211812D01*
X0211786Y0211414D02*
X0224816Y0211414D01*
X0224816Y0211015D02*
X0211786Y0211015D01*
X0211786Y0210617D02*
X0214750Y0210617D01*
X0214698Y0210218D02*
X0211786Y0210218D01*
X0211621Y0209820D02*
X0214698Y0209820D01*
X0214698Y0209421D02*
X0208450Y0209421D01*
X0208052Y0209023D02*
X0214698Y0209023D01*
X0214698Y0208624D02*
X0205924Y0208624D01*
X0205924Y0208226D02*
X0214698Y0208226D01*
X0214698Y0207827D02*
X0205924Y0207827D01*
X0205924Y0207429D02*
X0214698Y0207429D01*
X0214698Y0207030D02*
X0205924Y0207030D01*
X0205924Y0206632D02*
X0214698Y0206632D01*
X0214698Y0206233D02*
X0205924Y0206233D01*
X0205924Y0205835D02*
X0214698Y0205835D01*
X0214698Y0205436D02*
X0211672Y0205436D01*
X0211786Y0205038D02*
X0214698Y0205038D01*
X0214698Y0204639D02*
X0211786Y0204639D01*
X0211786Y0204241D02*
X0216198Y0204241D01*
X0216198Y0203842D02*
X0211786Y0203842D01*
X0211786Y0203444D02*
X0216198Y0203444D01*
X0216198Y0203045D02*
X0211786Y0203045D01*
X0219267Y0203045D02*
X0224816Y0203045D01*
X0224816Y0202647D02*
X0219267Y0202647D01*
X0219267Y0202248D02*
X0224816Y0202248D01*
X0224816Y0201850D02*
X0219267Y0201850D01*
X0219369Y0201451D02*
X0224816Y0201451D01*
X0224816Y0201053D02*
X0219768Y0201053D01*
X0220166Y0200654D02*
X0224816Y0200654D01*
X0224816Y0200256D02*
X0220565Y0200256D01*
X0220644Y0199857D02*
X0224816Y0199857D01*
X0224816Y0199459D02*
X0220958Y0199459D01*
X0221333Y0199060D02*
X0224816Y0199060D01*
X0224816Y0198662D02*
X0221333Y0198662D01*
X0219267Y0203444D02*
X0224816Y0203444D01*
X0224816Y0203842D02*
X0219267Y0203842D01*
X0219267Y0204241D02*
X0224816Y0204241D01*
X0224816Y0204639D02*
X0220373Y0204639D01*
X0220373Y0205038D02*
X0224816Y0205038D01*
X0224816Y0205436D02*
X0220373Y0205436D01*
X0220373Y0205835D02*
X0224816Y0205835D01*
X0224816Y0206233D02*
X0220373Y0206233D01*
X0220373Y0206632D02*
X0224816Y0206632D01*
X0224816Y0207030D02*
X0220373Y0207030D01*
X0220373Y0207429D02*
X0224816Y0207429D01*
X0224816Y0207827D02*
X0220373Y0207827D01*
X0220373Y0208226D02*
X0224816Y0208226D01*
X0224816Y0208624D02*
X0220373Y0208624D01*
X0220373Y0209023D02*
X0224816Y0209023D01*
X0224816Y0209421D02*
X0220373Y0209421D01*
X0220373Y0209820D02*
X0224816Y0209820D01*
X0224816Y0210218D02*
X0220373Y0210218D01*
X0220321Y0210617D02*
X0224816Y0210617D01*
X0224761Y0214204D02*
X0205979Y0214204D01*
X0205924Y0209023D02*
X0206153Y0209023D01*
X0213877Y0214580D02*
X0213877Y0214580D01*
X0213916Y0214602D02*
X0221155Y0214602D01*
X0181477Y0096669D02*
X0174853Y0096669D01*
X0174507Y0096469D01*
X0167142Y0096469D01*
X0166990Y0096449D01*
X0166726Y0096297D01*
X0166574Y0096034D01*
X0166554Y0095882D01*
X0166554Y0095408D01*
X0172094Y0095408D01*
X0172416Y0095086D01*
X0172416Y0091875D01*
X0172094Y0091552D01*
X0169273Y0091552D01*
X0169273Y0091504D01*
X0168370Y0090601D01*
X0167094Y0090601D01*
X0166554Y0091141D01*
X0166554Y0087534D01*
X0172094Y0087534D01*
X0172416Y0087212D01*
X0172416Y0084822D01*
X0172420Y0084818D01*
X0176828Y0084818D01*
X0176828Y0086351D01*
X0175491Y0086351D01*
X0175328Y0086514D01*
X0175328Y0092454D01*
X0175491Y0092617D01*
X0180840Y0092617D01*
X0181003Y0092454D01*
X0181003Y0086514D01*
X0180840Y0086351D01*
X0179896Y0086351D01*
X0179896Y0083646D01*
X0179795Y0083545D01*
X0181274Y0082066D01*
X0181274Y0081662D01*
X0181963Y0080973D01*
X0181963Y0080334D01*
X0185446Y0080334D01*
X0185446Y0095882D01*
X0185426Y0096034D01*
X0185274Y0096297D01*
X0185010Y0096449D01*
X0184858Y0096469D01*
X0181824Y0096469D01*
X0181477Y0096669D01*
X0181523Y0096643D02*
X0174807Y0096643D01*
X0172416Y0095049D02*
X0185446Y0095049D01*
X0185446Y0095447D02*
X0166554Y0095447D01*
X0166554Y0095846D02*
X0185446Y0095846D01*
X0185304Y0096244D02*
X0166696Y0096244D01*
X0169231Y0091462D02*
X0175328Y0091462D01*
X0175328Y0091064D02*
X0168833Y0091064D01*
X0168434Y0090665D02*
X0175328Y0090665D01*
X0175328Y0090267D02*
X0166554Y0090267D01*
X0166554Y0090665D02*
X0167030Y0090665D01*
X0166632Y0091064D02*
X0166554Y0091064D01*
X0166554Y0089868D02*
X0175328Y0089868D01*
X0175328Y0089470D02*
X0166554Y0089470D01*
X0166554Y0089071D02*
X0175328Y0089071D01*
X0175328Y0088672D02*
X0166554Y0088672D01*
X0166554Y0088274D02*
X0175328Y0088274D01*
X0175328Y0087875D02*
X0166554Y0087875D01*
X0172151Y0087477D02*
X0175328Y0087477D01*
X0175328Y0087078D02*
X0172416Y0087078D01*
X0172416Y0086680D02*
X0175328Y0086680D01*
X0176828Y0086281D02*
X0172416Y0086281D01*
X0172416Y0085883D02*
X0176828Y0085883D01*
X0176828Y0085484D02*
X0172416Y0085484D01*
X0172416Y0085086D02*
X0176828Y0085086D01*
X0179896Y0085086D02*
X0185446Y0085086D01*
X0185446Y0085484D02*
X0179896Y0085484D01*
X0179896Y0085883D02*
X0185446Y0085883D01*
X0185446Y0086281D02*
X0179896Y0086281D01*
X0181003Y0086680D02*
X0185446Y0086680D01*
X0185446Y0087078D02*
X0181003Y0087078D01*
X0181003Y0087477D02*
X0185446Y0087477D01*
X0185446Y0087875D02*
X0181003Y0087875D01*
X0181003Y0088274D02*
X0185446Y0088274D01*
X0185446Y0088672D02*
X0181003Y0088672D01*
X0181003Y0089071D02*
X0185446Y0089071D01*
X0185446Y0089470D02*
X0181003Y0089470D01*
X0181003Y0089868D02*
X0185446Y0089868D01*
X0185446Y0090267D02*
X0181003Y0090267D01*
X0181003Y0090665D02*
X0185446Y0090665D01*
X0185446Y0091064D02*
X0181003Y0091064D01*
X0181003Y0091462D02*
X0185446Y0091462D01*
X0185446Y0091861D02*
X0181003Y0091861D01*
X0181003Y0092259D02*
X0185446Y0092259D01*
X0185446Y0092658D02*
X0172416Y0092658D01*
X0172416Y0093056D02*
X0185446Y0093056D01*
X0185446Y0093455D02*
X0172416Y0093455D01*
X0172416Y0093853D02*
X0185446Y0093853D01*
X0185446Y0094252D02*
X0172416Y0094252D01*
X0172416Y0094650D02*
X0185446Y0094650D01*
X0175328Y0092259D02*
X0172416Y0092259D01*
X0172402Y0091861D02*
X0175328Y0091861D01*
X0179896Y0084687D02*
X0185446Y0084687D01*
X0185446Y0084289D02*
X0179896Y0084289D01*
X0179896Y0083890D02*
X0185446Y0083890D01*
X0185446Y0083492D02*
X0179848Y0083492D01*
X0180247Y0083093D02*
X0185446Y0083093D01*
X0185446Y0082695D02*
X0180645Y0082695D01*
X0181044Y0082296D02*
X0185446Y0082296D01*
X0185446Y0081898D02*
X0181274Y0081898D01*
X0181437Y0081499D02*
X0185446Y0081499D01*
X0185446Y0081101D02*
X0181836Y0081101D01*
X0181963Y0080702D02*
X0185446Y0080702D01*
D19*
X0183126Y0082969D03*
X0184110Y0092024D03*
X0177220Y0095764D03*
X0174071Y0092220D03*
X0172299Y0090449D03*
X0170331Y0090449D03*
X0167339Y0086157D03*
X0144740Y0092024D03*
X0137850Y0095764D03*
X0134701Y0092220D03*
X0132929Y0090449D03*
X0130961Y0090449D03*
X0127969Y0086157D03*
X0143756Y0082969D03*
X0137850Y0056394D03*
X0134701Y0052850D03*
X0132929Y0051079D03*
X0130961Y0051079D03*
X0127969Y0046787D03*
X0143756Y0043598D03*
X0144740Y0052654D03*
X0167339Y0046787D03*
X0170331Y0051079D03*
X0172299Y0051079D03*
X0174071Y0052850D03*
X0177220Y0056394D03*
X0184110Y0052654D03*
X0183126Y0043598D03*
X0206709Y0046787D03*
X0209701Y0051079D03*
X0211669Y0051079D03*
X0213441Y0052850D03*
X0216591Y0056394D03*
X0223480Y0052654D03*
X0222496Y0043598D03*
X0222496Y0082969D03*
X0223480Y0092024D03*
X0216591Y0095764D03*
X0213441Y0092220D03*
X0211669Y0090449D03*
X0209701Y0090449D03*
X0206709Y0086157D03*
X0222496Y0122339D03*
X0223480Y0131394D03*
X0216591Y0135134D03*
X0213441Y0131591D03*
X0211669Y0129819D03*
X0209701Y0129819D03*
X0206709Y0125528D03*
X0184110Y0131394D03*
X0177220Y0135134D03*
X0174071Y0131591D03*
X0172299Y0129819D03*
X0170331Y0129819D03*
X0167339Y0125528D03*
X0183126Y0122339D03*
X0143756Y0122339D03*
X0144740Y0131394D03*
X0137850Y0135134D03*
X0134701Y0131591D03*
X0132929Y0129819D03*
X0130961Y0129819D03*
X0127969Y0125528D03*
X0105370Y0131394D03*
X0098480Y0135134D03*
X0095331Y0131591D03*
X0093559Y0129819D03*
X0091591Y0129819D03*
X0088598Y0125528D03*
X0104386Y0122339D03*
X0098480Y0095764D03*
X0095331Y0092220D03*
X0093559Y0090449D03*
X0091591Y0090449D03*
X0088598Y0086157D03*
X0104386Y0082969D03*
X0105370Y0092024D03*
X0098480Y0056394D03*
X0095331Y0052850D03*
X0093559Y0051079D03*
X0091591Y0051079D03*
X0088598Y0046787D03*
X0104386Y0043598D03*
X0105370Y0052654D03*
X0066000Y0052654D03*
X0059110Y0056394D03*
X0055961Y0052850D03*
X0054189Y0051079D03*
X0052220Y0051079D03*
X0049228Y0046787D03*
X0065016Y0043598D03*
X0065016Y0082969D03*
X0066000Y0092024D03*
X0059110Y0095764D03*
X0055961Y0092220D03*
X0054189Y0090449D03*
X0052220Y0090449D03*
X0049228Y0086157D03*
X0065016Y0122339D03*
X0066000Y0131394D03*
X0059110Y0135134D03*
X0055961Y0131591D03*
X0054189Y0129819D03*
X0052220Y0129819D03*
X0049228Y0125528D03*
X0065016Y0161709D03*
X0066000Y0170764D03*
X0059110Y0174504D03*
X0055961Y0170961D03*
X0054189Y0169189D03*
X0052220Y0169189D03*
X0049228Y0164898D03*
X0088598Y0164898D03*
X0091591Y0169189D03*
X0093559Y0169189D03*
X0095331Y0170961D03*
X0098480Y0174504D03*
X0105370Y0170764D03*
X0104386Y0161709D03*
X0127969Y0164898D03*
X0130961Y0169189D03*
X0132929Y0169189D03*
X0134701Y0170961D03*
X0137850Y0174504D03*
X0144740Y0170764D03*
X0143756Y0161709D03*
X0167339Y0164898D03*
X0170331Y0169189D03*
X0172299Y0169189D03*
X0174071Y0170961D03*
X0177220Y0174504D03*
X0184110Y0170764D03*
X0183126Y0161709D03*
X0206709Y0164898D03*
X0209701Y0169189D03*
X0211669Y0169189D03*
X0213441Y0170961D03*
X0216591Y0174504D03*
X0223480Y0170764D03*
X0222496Y0161709D03*
X0222496Y0201079D03*
X0223480Y0210134D03*
X0216591Y0213874D03*
X0213441Y0210331D03*
X0211669Y0208559D03*
X0209701Y0208559D03*
X0206709Y0204268D03*
X0184110Y0210134D03*
X0177220Y0213874D03*
X0174071Y0210331D03*
X0172299Y0208559D03*
X0170331Y0208559D03*
X0167339Y0204268D03*
X0183126Y0201079D03*
X0143756Y0201079D03*
X0144740Y0210134D03*
X0137850Y0213874D03*
X0134701Y0210331D03*
X0132929Y0208559D03*
X0130961Y0208559D03*
X0127969Y0204268D03*
X0105370Y0210134D03*
X0098480Y0213874D03*
X0095331Y0210331D03*
X0093559Y0208559D03*
X0091591Y0208559D03*
X0088598Y0204268D03*
X0104386Y0201079D03*
X0066000Y0210134D03*
X0059110Y0213874D03*
X0055961Y0210331D03*
X0054189Y0208559D03*
X0052220Y0208559D03*
X0049228Y0204268D03*
X0065016Y0201079D03*
D20*
X0050833Y0203746D02*
X0049877Y0203746D01*
X0089247Y0203746D02*
X0090203Y0203746D01*
X0128617Y0203746D02*
X0129573Y0203746D01*
X0167987Y0203746D02*
X0168943Y0203746D01*
X0207357Y0203746D02*
X0208313Y0203746D01*
X0208313Y0164376D02*
X0207357Y0164376D01*
X0168943Y0164376D02*
X0167987Y0164376D01*
X0129573Y0164376D02*
X0128617Y0164376D01*
X0090203Y0164376D02*
X0089247Y0164376D01*
X0050833Y0164376D02*
X0049877Y0164376D01*
X0049877Y0125006D02*
X0050833Y0125006D01*
X0089247Y0125006D02*
X0090203Y0125006D01*
X0128617Y0125006D02*
X0129573Y0125006D01*
X0167987Y0125006D02*
X0168943Y0125006D01*
X0207357Y0125006D02*
X0208313Y0125006D01*
X0208313Y0085636D02*
X0207357Y0085636D01*
X0168943Y0085636D02*
X0167987Y0085636D01*
X0129573Y0085636D02*
X0128617Y0085636D01*
X0090203Y0085636D02*
X0089247Y0085636D01*
X0050833Y0085636D02*
X0049877Y0085636D01*
X0049877Y0046266D02*
X0050833Y0046266D01*
X0089247Y0046266D02*
X0090203Y0046266D01*
X0128617Y0046266D02*
X0129573Y0046266D01*
X0167987Y0046266D02*
X0168943Y0046266D01*
X0207357Y0046266D02*
X0208313Y0046266D01*
D21*
X0208677Y0046266D02*
X0207230Y0046266D01*
X0206709Y0046787D01*
X0169307Y0046266D02*
X0167860Y0046266D01*
X0167339Y0046787D01*
X0129937Y0046266D02*
X0128490Y0046266D01*
X0127969Y0046787D01*
X0090567Y0046266D02*
X0089120Y0046266D01*
X0088598Y0046787D01*
X0051197Y0046266D02*
X0049750Y0046266D01*
X0049228Y0046787D01*
X0049750Y0085636D02*
X0049228Y0086157D01*
X0049750Y0085636D02*
X0051197Y0085636D01*
X0088598Y0086157D02*
X0089120Y0085636D01*
X0090567Y0085636D01*
X0127969Y0086157D02*
X0128490Y0085636D01*
X0129937Y0085636D01*
X0167339Y0086157D02*
X0167860Y0085636D01*
X0169307Y0085636D01*
X0206709Y0086157D02*
X0207230Y0085636D01*
X0208677Y0085636D01*
X0208677Y0125006D02*
X0207230Y0125006D01*
X0206709Y0125528D01*
X0169307Y0125006D02*
X0167860Y0125006D01*
X0167339Y0125528D01*
X0129937Y0125006D02*
X0128490Y0125006D01*
X0127969Y0125528D01*
X0090567Y0125006D02*
X0089120Y0125006D01*
X0088598Y0125528D01*
X0051197Y0125006D02*
X0049750Y0125006D01*
X0049228Y0125528D01*
X0049750Y0164376D02*
X0049228Y0164898D01*
X0049750Y0164376D02*
X0051197Y0164376D01*
X0088598Y0164898D02*
X0089120Y0164376D01*
X0090567Y0164376D01*
X0127969Y0164898D02*
X0128490Y0164376D01*
X0129937Y0164376D01*
X0167339Y0164898D02*
X0167860Y0164376D01*
X0169307Y0164376D01*
X0206709Y0164898D02*
X0207230Y0164376D01*
X0208677Y0164376D01*
X0208677Y0203746D02*
X0207230Y0203746D01*
X0206709Y0204268D01*
X0169307Y0203746D02*
X0167860Y0203746D01*
X0167339Y0204268D01*
X0129937Y0203746D02*
X0128490Y0203746D01*
X0127969Y0204268D01*
X0090567Y0203746D02*
X0089120Y0203746D01*
X0088598Y0204268D01*
X0051197Y0203746D02*
X0049750Y0203746D01*
X0049228Y0204268D01*
M02*
