%
M48
M72
T01C0.00787
T02C0.01181
T03C0.01575
%
T01
X49228Y46787
X52220Y51079
X54189Y51079
X55961Y52850
X59110Y56394
X66000Y52654
X65016Y43598
X88598Y46787
X91591Y51079
X93559Y51079
X95331Y52850
X98480Y56394
X105370Y52654
X104386Y43598
X127969Y46787
X130961Y51079
X132929Y51079
X134701Y52850
X137850Y56394
X144740Y52654
X143756Y43598
X167339Y46787
X170331Y51079
X172299Y51079
X174071Y52850
X177220Y56394
X184110Y52654
X183126Y43598
X206709Y46787
X209701Y51079
X211669Y51079
X213441Y52850
X216591Y56394
X223480Y52654
X222496Y43598
X222496Y82969
X223480Y92024
X216591Y95764
X213441Y92220
X211669Y90449
X209701Y90449
X206709Y86157
X184110Y92024
X177220Y95764
X174071Y92220
X172299Y90449
X170331Y90449
X167339Y86157
X183126Y82969
X143756Y82969
X144740Y92024
X137850Y95764
X134701Y92220
X132929Y90449
X130961Y90449
X127969Y86157
X105370Y92024
X98480Y95764
X95331Y92220
X93559Y90449
X91591Y90449
X88598Y86157
X104386Y82969
X66000Y92024
X59110Y95764
X55961Y92220
X54189Y90449
X52220Y90449
X49228Y86157
X65016Y82969
X65016Y122339
X66000Y131394
X59110Y135134
X55961Y131591
X54189Y129819
X52220Y129819
X49228Y125528
X65016Y161709
X66000Y170764
X59110Y174504
X55961Y170961
X54189Y169189
X52220Y169189
X49228Y164898
X88598Y164898
X91591Y169189
X93559Y169189
X95331Y170961
X98480Y174504
X105370Y170764
X104386Y161709
X127969Y164898
X130961Y169189
X132929Y169189
X134701Y170961
X137850Y174504
X144740Y170764
X143756Y161709
X167339Y164898
X170331Y169189
X172299Y169189
X174071Y170961
X177220Y174504
X184110Y170764
X183126Y161709
X206709Y164898
X209701Y169189
X211669Y169189
X213441Y170961
X216591Y174504
X223480Y170764
X222496Y161709
X216591Y135134
X213441Y131591
X211669Y129819
X209701Y129819
X206709Y125528
X222496Y122339
X223480Y131394
X184110Y131394
X177220Y135134
X174071Y131591
X172299Y129819
X170331Y129819
X167339Y125528
X183126Y122339
X143756Y122339
X144740Y131394
X137850Y135134
X134701Y131591
X132929Y129819
X130961Y129819
X127969Y125528
X105370Y131394
X98480Y135134
X95331Y131591
X93559Y129819
X91591Y129819
X88598Y125528
X104386Y122339
X104386Y201079
X105370Y210134
X98480Y213874
X95331Y210331
X93559Y208559
X91591Y208559
X88598Y204268
X66000Y210134
X59110Y213874
X55961Y210331
X54189Y208559
X52220Y208559
X49228Y204268
X65016Y201079
X127969Y204268
X130961Y208559
X132929Y208559
X134701Y210331
X137850Y213874
X144740Y210134
X143756Y201079
X167339Y204268
X170331Y208559
X172299Y208559
X174071Y210331
X177220Y213874
X184110Y210134
X183126Y201079
X206709Y204268
X209701Y208559
X211669Y208559
X213441Y210331
X216591Y213874
X223480Y210134
X222496Y201079
T02
X219504Y216157
X217535Y216157
X215567Y216157
X215567Y219701
X217535Y219701
X219504Y219701
X207102Y210252
X180134Y216157
X178165Y216157
X176197Y216157
X176197Y219701
X178165Y219701
X180134Y219701
X167732Y210252
X140764Y216157
X138795Y216157
X136827Y216157
X136827Y219701
X138795Y219701
X140764Y219701
X128362Y210252
X101394Y216157
X99425Y216157
X97457Y216157
X97457Y219701
X99425Y219701
X101394Y219701
X88992Y210252
X62024Y216157
X60055Y216157
X58087Y216157
X58087Y219701
X60055Y219701
X62024Y219701
X49622Y210252
X58087Y180331
X60055Y180331
X62024Y180331
X62024Y176787
X60055Y176787
X58087Y176787
X49622Y170882
X58087Y140961
X60055Y140961
X62024Y140961
X62024Y137417
X60055Y137417
X58087Y137417
X49622Y131512
X58087Y101591
X60055Y101591
X62024Y101591
X62024Y98047
X60055Y98047
X58087Y98047
X49622Y92142
X58087Y62220
X60055Y62220
X62024Y62220
X62024Y58677
X60055Y58677
X58087Y58677
X49622Y52772
X88992Y52772
X97457Y58677
X99425Y58677
X101394Y58677
X101394Y62220
X99425Y62220
X97457Y62220
X128362Y52772
X136827Y58677
X138795Y58677
X140764Y58677
X140764Y62220
X138795Y62220
X136827Y62220
X167732Y52772
X176197Y58677
X178165Y58677
X180134Y58677
X180134Y62220
X178165Y62220
X176197Y62220
X207102Y52772
X215567Y58677
X217535Y58677
X219504Y58677
X219504Y62220
X217535Y62220
X215567Y62220
X207102Y92142
X215567Y98047
X217535Y98047
X219504Y98047
X219504Y101591
X217535Y101591
X215567Y101591
X207102Y131512
X215567Y137417
X217535Y137417
X219504Y137417
X219504Y140961
X217535Y140961
X215567Y140961
X207102Y170882
X215567Y176787
X217535Y176787
X219504Y176787
X219504Y180331
X217535Y180331
X215567Y180331
X180134Y180331
X178165Y180331
X176197Y180331
X176197Y176787
X178165Y176787
X180134Y176787
X167732Y170882
X140764Y176787
X138795Y176787
X136827Y176787
X136827Y180331
X138795Y180331
X140764Y180331
X128362Y170882
X101394Y176787
X99425Y176787
X97457Y176787
X97457Y180331
X99425Y180331
X101394Y180331
X88992Y170882
X97457Y140961
X99425Y140961
X101394Y140961
X101394Y137417
X99425Y137417
X97457Y137417
X88992Y131512
X97457Y101591
X99425Y101591
X101394Y101591
X101394Y98047
X99425Y98047
X97457Y98047
X88992Y92142
X128362Y92142
X136827Y98047
X138795Y98047
X140764Y98047
X140764Y101591
X138795Y101591
X136827Y101591
X128362Y131512
X136827Y137417
X138795Y137417
X140764Y137417
X140764Y140961
X138795Y140961
X136827Y140961
X167732Y131512
X176197Y137417
X178165Y137417
X180134Y137417
X180134Y140961
X178165Y140961
X176197Y140961
X176197Y101591
X178165Y101591
X180134Y101591
X180134Y98047
X178165Y98047
X176197Y98047
X167732Y92142
T03
X50016Y40764
X53953Y40764
X57890Y40764
X61827Y40764
X65764Y40764
X89386Y40764
X93323Y40764
X97260Y40764
X101197Y40764
X105134Y40764
X128756Y40764
X132693Y40764
X136630Y40764
X140567Y40764
X144504Y40764
X168126Y40764
X172063Y40764
X176000Y40764
X179937Y40764
X183874Y40764
X207496Y40764
X211433Y40764
X215370Y40764
X219307Y40764
X223244Y40764
X223244Y80134
X219307Y80134
X215370Y80134
X211433Y80134
X207496Y80134
X183874Y80134
X179937Y80134
X176000Y80134
X172063Y80134
X168126Y80134
X144504Y80134
X140567Y80134
X136630Y80134
X132693Y80134
X128756Y80134
X105134Y80134
X101197Y80134
X97260Y80134
X93323Y80134
X89386Y80134
X65764Y80134
X61827Y80134
X57890Y80134
X53953Y80134
X50016Y80134
X50016Y119504
X53953Y119504
X57890Y119504
X61827Y119504
X65764Y119504
X89386Y119504
X93323Y119504
X97260Y119504
X101197Y119504
X105134Y119504
X128756Y119504
X132693Y119504
X136630Y119504
X140567Y119504
X144504Y119504
X168126Y119504
X172063Y119504
X176000Y119504
X179937Y119504
X183874Y119504
X207496Y119504
X211433Y119504
X215370Y119504
X219307Y119504
X223244Y119504
X223244Y158874
X219307Y158874
X215370Y158874
X211433Y158874
X207496Y158874
X183874Y158874
X179937Y158874
X176000Y158874
X172063Y158874
X168126Y158874
X144504Y158874
X140567Y158874
X136630Y158874
X132693Y158874
X128756Y158874
X105134Y158874
X101197Y158874
X97260Y158874
X93323Y158874
X89386Y158874
X65764Y158874
X61827Y158874
X57890Y158874
X53953Y158874
X50016Y158874
X50016Y198244
X53953Y198244
X57890Y198244
X61827Y198244
X65764Y198244
X89386Y198244
X93323Y198244
X97260Y198244
X101197Y198244
X105134Y198244
X128756Y198244
X132693Y198244
X136630Y198244
X140567Y198244
X144504Y198244
X168126Y198244
X172063Y198244
X176000Y198244
X179937Y198244
X183874Y198244
X207496Y198244
X211433Y198244
X215370Y198244
X219307Y198244
X223244Y198244
M30
