G75*
%MOIN*%
%OFA0B0*%
%FSLAX25Y25*%
%IPPOS*%
%LPD*%
%AMOC8*
5,1,8,0,0,1.08239X$1,22.5*
%
%ADD10C,0.01381*%
%ADD11R,0.01775X0.01381*%
%ADD12R,0.01775X0.02562*%
%ADD13C,0.03153*%
%ADD14R,0.03350X0.01381*%
%ADD15R,0.03743X0.02956*%
D10*
X0058087Y0058677D03*
X0060055Y0058677D03*
X0062024Y0058677D03*
X0062024Y0062220D03*
X0060055Y0062220D03*
X0058087Y0062220D03*
X0058087Y0098047D03*
X0060055Y0098047D03*
X0062024Y0098047D03*
X0062024Y0101591D03*
X0060055Y0101591D03*
X0058087Y0101591D03*
X0058087Y0137417D03*
X0060055Y0137417D03*
X0062024Y0137417D03*
X0062024Y0140961D03*
X0060055Y0140961D03*
X0058087Y0140961D03*
X0058087Y0176787D03*
X0060055Y0176787D03*
X0062024Y0176787D03*
X0062024Y0180331D03*
X0060055Y0180331D03*
X0058087Y0180331D03*
X0058087Y0216157D03*
X0060055Y0216157D03*
X0062024Y0216157D03*
X0062024Y0219701D03*
X0060055Y0219701D03*
X0058087Y0219701D03*
X0097457Y0219701D03*
X0099425Y0219701D03*
X0101394Y0219701D03*
X0101394Y0216157D03*
X0099425Y0216157D03*
X0097457Y0216157D03*
X0097457Y0180331D03*
X0099425Y0180331D03*
X0101394Y0180331D03*
X0101394Y0176787D03*
X0099425Y0176787D03*
X0097457Y0176787D03*
X0097457Y0140961D03*
X0099425Y0140961D03*
X0101394Y0140961D03*
X0101394Y0137417D03*
X0099425Y0137417D03*
X0097457Y0137417D03*
X0097457Y0101591D03*
X0099425Y0101591D03*
X0101394Y0101591D03*
X0101394Y0098047D03*
X0099425Y0098047D03*
X0097457Y0098047D03*
X0097457Y0062220D03*
X0099425Y0062220D03*
X0101394Y0062220D03*
X0101394Y0058677D03*
X0099425Y0058677D03*
X0097457Y0058677D03*
X0136827Y0058677D03*
X0138795Y0058677D03*
X0140764Y0058677D03*
X0140764Y0062220D03*
X0138795Y0062220D03*
X0136827Y0062220D03*
X0136827Y0098047D03*
X0138795Y0098047D03*
X0140764Y0098047D03*
X0140764Y0101591D03*
X0138795Y0101591D03*
X0136827Y0101591D03*
X0136827Y0137417D03*
X0138795Y0137417D03*
X0140764Y0137417D03*
X0140764Y0140961D03*
X0138795Y0140961D03*
X0136827Y0140961D03*
X0136827Y0176787D03*
X0138795Y0176787D03*
X0140764Y0176787D03*
X0140764Y0180331D03*
X0138795Y0180331D03*
X0136827Y0180331D03*
X0136827Y0216157D03*
X0138795Y0216157D03*
X0140764Y0216157D03*
X0140764Y0219701D03*
X0138795Y0219701D03*
X0136827Y0219701D03*
X0176197Y0219701D03*
X0178165Y0219701D03*
X0180134Y0219701D03*
X0180134Y0216157D03*
X0178165Y0216157D03*
X0176197Y0216157D03*
X0176197Y0180331D03*
X0178165Y0180331D03*
X0180134Y0180331D03*
X0180134Y0176787D03*
X0178165Y0176787D03*
X0176197Y0176787D03*
X0176197Y0140961D03*
X0178165Y0140961D03*
X0180134Y0140961D03*
X0180134Y0137417D03*
X0178165Y0137417D03*
X0176197Y0137417D03*
X0176197Y0101591D03*
X0178165Y0101591D03*
X0180134Y0101591D03*
X0180134Y0098047D03*
X0178165Y0098047D03*
X0176197Y0098047D03*
X0176197Y0062220D03*
X0178165Y0062220D03*
X0180134Y0062220D03*
X0180134Y0058677D03*
X0178165Y0058677D03*
X0176197Y0058677D03*
X0215567Y0058677D03*
X0217535Y0058677D03*
X0219504Y0058677D03*
X0219504Y0062220D03*
X0217535Y0062220D03*
X0215567Y0062220D03*
X0215567Y0098047D03*
X0217535Y0098047D03*
X0219504Y0098047D03*
X0219504Y0101591D03*
X0217535Y0101591D03*
X0215567Y0101591D03*
X0215567Y0137417D03*
X0217535Y0137417D03*
X0219504Y0137417D03*
X0219504Y0140961D03*
X0217535Y0140961D03*
X0215567Y0140961D03*
X0215567Y0176787D03*
X0217535Y0176787D03*
X0219504Y0176787D03*
X0219504Y0180331D03*
X0217535Y0180331D03*
X0215567Y0180331D03*
X0215567Y0216157D03*
X0217535Y0216157D03*
X0219504Y0216157D03*
X0219504Y0219701D03*
X0217535Y0219701D03*
X0215567Y0219701D03*
D11*
X0206945Y0202890D03*
X0206945Y0200528D03*
X0206945Y0163520D03*
X0206945Y0161157D03*
X0167575Y0161157D03*
X0167575Y0163520D03*
X0167575Y0200528D03*
X0167575Y0202890D03*
X0128205Y0202890D03*
X0128205Y0200528D03*
X0128205Y0163520D03*
X0128205Y0161157D03*
X0088835Y0161157D03*
X0088835Y0163520D03*
X0088835Y0200528D03*
X0088835Y0202890D03*
X0049465Y0202890D03*
X0049465Y0200528D03*
X0049465Y0163520D03*
X0049465Y0161157D03*
X0049465Y0124150D03*
X0049465Y0121787D03*
X0049465Y0084780D03*
X0049465Y0082417D03*
X0088835Y0082417D03*
X0088835Y0084780D03*
X0088835Y0121787D03*
X0088835Y0124150D03*
X0128205Y0124150D03*
X0128205Y0121787D03*
X0128205Y0084780D03*
X0128205Y0082417D03*
X0128205Y0045409D03*
X0128205Y0043047D03*
X0088835Y0043047D03*
X0088835Y0045409D03*
X0049465Y0045409D03*
X0049465Y0043047D03*
X0167575Y0043047D03*
X0167575Y0045409D03*
X0206945Y0045409D03*
X0206945Y0043047D03*
X0206945Y0082417D03*
X0206945Y0084780D03*
X0206945Y0121787D03*
X0206945Y0124150D03*
X0167575Y0124150D03*
X0167575Y0121787D03*
X0167575Y0084780D03*
X0167575Y0082417D03*
D12*
X0169963Y0084465D03*
X0174163Y0084465D03*
X0180199Y0094504D03*
X0184399Y0094504D03*
X0209333Y0084465D03*
X0213533Y0084465D03*
X0219569Y0094504D03*
X0223769Y0094504D03*
X0213533Y0123835D03*
X0209333Y0123835D03*
X0219569Y0133874D03*
X0223769Y0133874D03*
X0213533Y0163205D03*
X0209333Y0163205D03*
X0219569Y0173244D03*
X0223769Y0173244D03*
X0213533Y0202575D03*
X0209333Y0202575D03*
X0219569Y0212614D03*
X0223769Y0212614D03*
X0184399Y0212614D03*
X0180199Y0212614D03*
X0174163Y0202575D03*
X0169963Y0202575D03*
X0145029Y0212614D03*
X0140829Y0212614D03*
X0134793Y0202575D03*
X0130593Y0202575D03*
X0105659Y0212614D03*
X0101459Y0212614D03*
X0095423Y0202575D03*
X0091223Y0202575D03*
X0066289Y0212614D03*
X0062089Y0212614D03*
X0056053Y0202575D03*
X0051853Y0202575D03*
X0062089Y0173244D03*
X0066289Y0173244D03*
X0056053Y0163205D03*
X0051853Y0163205D03*
X0062089Y0133874D03*
X0066289Y0133874D03*
X0056053Y0123835D03*
X0051853Y0123835D03*
X0062089Y0094504D03*
X0066289Y0094504D03*
X0056053Y0084465D03*
X0051853Y0084465D03*
X0062089Y0055134D03*
X0066289Y0055134D03*
X0056053Y0045094D03*
X0051853Y0045094D03*
X0091223Y0045094D03*
X0095423Y0045094D03*
X0101459Y0055134D03*
X0105659Y0055134D03*
X0130593Y0045094D03*
X0134793Y0045094D03*
X0140829Y0055134D03*
X0145029Y0055134D03*
X0169963Y0045094D03*
X0174163Y0045094D03*
X0180199Y0055134D03*
X0184399Y0055134D03*
X0209333Y0045094D03*
X0213533Y0045094D03*
X0219569Y0055134D03*
X0223769Y0055134D03*
X0174163Y0123835D03*
X0169963Y0123835D03*
X0180199Y0133874D03*
X0184399Y0133874D03*
X0174163Y0163205D03*
X0169963Y0163205D03*
X0180199Y0173244D03*
X0184399Y0173244D03*
X0145029Y0173244D03*
X0140829Y0173244D03*
X0134793Y0163205D03*
X0130593Y0163205D03*
X0105659Y0173244D03*
X0101459Y0173244D03*
X0095423Y0163205D03*
X0091223Y0163205D03*
X0101459Y0133874D03*
X0105659Y0133874D03*
X0095423Y0123835D03*
X0091223Y0123835D03*
X0101459Y0094504D03*
X0105659Y0094504D03*
X0095423Y0084465D03*
X0091223Y0084465D03*
X0130593Y0084465D03*
X0134793Y0084465D03*
X0140829Y0094504D03*
X0145029Y0094504D03*
X0134793Y0123835D03*
X0130593Y0123835D03*
X0140829Y0133874D03*
X0145029Y0133874D03*
D13*
X0050016Y0040764D03*
X0053953Y0040764D03*
X0057890Y0040764D03*
X0061827Y0040764D03*
X0065764Y0040764D03*
X0089386Y0040764D03*
X0093323Y0040764D03*
X0097260Y0040764D03*
X0101197Y0040764D03*
X0105134Y0040764D03*
X0128756Y0040764D03*
X0132693Y0040764D03*
X0136630Y0040764D03*
X0140567Y0040764D03*
X0144504Y0040764D03*
X0168126Y0040764D03*
X0172063Y0040764D03*
X0176000Y0040764D03*
X0179937Y0040764D03*
X0183874Y0040764D03*
X0207496Y0040764D03*
X0211433Y0040764D03*
X0215370Y0040764D03*
X0219307Y0040764D03*
X0223244Y0040764D03*
X0223244Y0080134D03*
X0219307Y0080134D03*
X0215370Y0080134D03*
X0211433Y0080134D03*
X0207496Y0080134D03*
X0183874Y0080134D03*
X0179937Y0080134D03*
X0176000Y0080134D03*
X0172063Y0080134D03*
X0168126Y0080134D03*
X0144504Y0080134D03*
X0140567Y0080134D03*
X0136630Y0080134D03*
X0132693Y0080134D03*
X0128756Y0080134D03*
X0105134Y0080134D03*
X0101197Y0080134D03*
X0097260Y0080134D03*
X0093323Y0080134D03*
X0089386Y0080134D03*
X0065764Y0080134D03*
X0061827Y0080134D03*
X0057890Y0080134D03*
X0053953Y0080134D03*
X0050016Y0080134D03*
X0050016Y0119504D03*
X0053953Y0119504D03*
X0057890Y0119504D03*
X0061827Y0119504D03*
X0065764Y0119504D03*
X0089386Y0119504D03*
X0093323Y0119504D03*
X0097260Y0119504D03*
X0101197Y0119504D03*
X0105134Y0119504D03*
X0128756Y0119504D03*
X0132693Y0119504D03*
X0136630Y0119504D03*
X0140567Y0119504D03*
X0144504Y0119504D03*
X0168126Y0119504D03*
X0172063Y0119504D03*
X0176000Y0119504D03*
X0179937Y0119504D03*
X0183874Y0119504D03*
X0207496Y0119504D03*
X0211433Y0119504D03*
X0215370Y0119504D03*
X0219307Y0119504D03*
X0223244Y0119504D03*
X0223244Y0158874D03*
X0219307Y0158874D03*
X0215370Y0158874D03*
X0211433Y0158874D03*
X0207496Y0158874D03*
X0183874Y0158874D03*
X0179937Y0158874D03*
X0176000Y0158874D03*
X0172063Y0158874D03*
X0168126Y0158874D03*
X0144504Y0158874D03*
X0140567Y0158874D03*
X0136630Y0158874D03*
X0132693Y0158874D03*
X0128756Y0158874D03*
X0105134Y0158874D03*
X0101197Y0158874D03*
X0097260Y0158874D03*
X0093323Y0158874D03*
X0089386Y0158874D03*
X0065764Y0158874D03*
X0061827Y0158874D03*
X0057890Y0158874D03*
X0053953Y0158874D03*
X0050016Y0158874D03*
X0050016Y0198244D03*
X0053953Y0198244D03*
X0057890Y0198244D03*
X0061827Y0198244D03*
X0065764Y0198244D03*
X0089386Y0198244D03*
X0093323Y0198244D03*
X0097260Y0198244D03*
X0101197Y0198244D03*
X0105134Y0198244D03*
X0128756Y0198244D03*
X0132693Y0198244D03*
X0136630Y0198244D03*
X0140567Y0198244D03*
X0144504Y0198244D03*
X0168126Y0198244D03*
X0172063Y0198244D03*
X0176000Y0198244D03*
X0179937Y0198244D03*
X0183874Y0198244D03*
X0207496Y0198244D03*
X0211433Y0198244D03*
X0215370Y0198244D03*
X0219307Y0198244D03*
X0223244Y0198244D03*
D14*
X0223480Y0203165D03*
X0223480Y0205134D03*
X0223480Y0207102D03*
X0223480Y0209071D03*
X0216315Y0209071D03*
X0216315Y0207102D03*
X0216315Y0205134D03*
X0216315Y0203165D03*
X0184110Y0203165D03*
X0184110Y0205134D03*
X0184110Y0207102D03*
X0184110Y0209071D03*
X0176945Y0209071D03*
X0176945Y0207102D03*
X0176945Y0205134D03*
X0176945Y0203165D03*
X0144740Y0203165D03*
X0144740Y0205134D03*
X0144740Y0207102D03*
X0144740Y0209071D03*
X0137575Y0209071D03*
X0137575Y0207102D03*
X0137575Y0205134D03*
X0137575Y0203165D03*
X0105370Y0203165D03*
X0105370Y0205134D03*
X0105370Y0207102D03*
X0105370Y0209071D03*
X0098205Y0209071D03*
X0098205Y0207102D03*
X0098205Y0205134D03*
X0098205Y0203165D03*
X0066000Y0203165D03*
X0066000Y0205134D03*
X0066000Y0207102D03*
X0066000Y0209071D03*
X0058835Y0209071D03*
X0058835Y0207102D03*
X0058835Y0205134D03*
X0058835Y0203165D03*
X0058835Y0169701D03*
X0058835Y0167732D03*
X0058835Y0165764D03*
X0058835Y0163795D03*
X0066000Y0163795D03*
X0066000Y0165764D03*
X0066000Y0167732D03*
X0066000Y0169701D03*
X0098205Y0169701D03*
X0098205Y0167732D03*
X0098205Y0165764D03*
X0098205Y0163795D03*
X0105370Y0163795D03*
X0105370Y0165764D03*
X0105370Y0167732D03*
X0105370Y0169701D03*
X0137575Y0169701D03*
X0137575Y0167732D03*
X0137575Y0165764D03*
X0137575Y0163795D03*
X0144740Y0163795D03*
X0144740Y0165764D03*
X0144740Y0167732D03*
X0144740Y0169701D03*
X0176945Y0169701D03*
X0176945Y0167732D03*
X0176945Y0165764D03*
X0176945Y0163795D03*
X0184110Y0163795D03*
X0184110Y0165764D03*
X0184110Y0167732D03*
X0184110Y0169701D03*
X0216315Y0169701D03*
X0216315Y0167732D03*
X0216315Y0165764D03*
X0216315Y0163795D03*
X0223480Y0163795D03*
X0223480Y0165764D03*
X0223480Y0167732D03*
X0223480Y0169701D03*
X0223480Y0130331D03*
X0223480Y0128362D03*
X0223480Y0126394D03*
X0223480Y0124425D03*
X0216315Y0124425D03*
X0216315Y0126394D03*
X0216315Y0128362D03*
X0216315Y0130331D03*
X0184110Y0130331D03*
X0184110Y0128362D03*
X0184110Y0126394D03*
X0184110Y0124425D03*
X0176945Y0124425D03*
X0176945Y0126394D03*
X0176945Y0128362D03*
X0176945Y0130331D03*
X0144740Y0130331D03*
X0144740Y0128362D03*
X0144740Y0126394D03*
X0144740Y0124425D03*
X0137575Y0124425D03*
X0137575Y0126394D03*
X0137575Y0128362D03*
X0137575Y0130331D03*
X0105370Y0130331D03*
X0105370Y0128362D03*
X0105370Y0126394D03*
X0105370Y0124425D03*
X0098205Y0124425D03*
X0098205Y0126394D03*
X0098205Y0128362D03*
X0098205Y0130331D03*
X0066000Y0130331D03*
X0066000Y0128362D03*
X0066000Y0126394D03*
X0066000Y0124425D03*
X0058835Y0124425D03*
X0058835Y0126394D03*
X0058835Y0128362D03*
X0058835Y0130331D03*
X0058835Y0090961D03*
X0058835Y0088992D03*
X0058835Y0087024D03*
X0058835Y0085055D03*
X0066000Y0085055D03*
X0066000Y0087024D03*
X0066000Y0088992D03*
X0066000Y0090961D03*
X0098205Y0090961D03*
X0098205Y0088992D03*
X0098205Y0087024D03*
X0098205Y0085055D03*
X0105370Y0085055D03*
X0105370Y0087024D03*
X0105370Y0088992D03*
X0105370Y0090961D03*
X0137575Y0090961D03*
X0137575Y0088992D03*
X0137575Y0087024D03*
X0137575Y0085055D03*
X0144740Y0085055D03*
X0144740Y0087024D03*
X0144740Y0088992D03*
X0144740Y0090961D03*
X0176945Y0090961D03*
X0176945Y0088992D03*
X0176945Y0087024D03*
X0176945Y0085055D03*
X0184110Y0085055D03*
X0184110Y0087024D03*
X0184110Y0088992D03*
X0184110Y0090961D03*
X0216315Y0090961D03*
X0216315Y0088992D03*
X0216315Y0087024D03*
X0216315Y0085055D03*
X0223480Y0085055D03*
X0223480Y0087024D03*
X0223480Y0088992D03*
X0223480Y0090961D03*
X0223480Y0051591D03*
X0223480Y0049622D03*
X0223480Y0047654D03*
X0223480Y0045685D03*
X0216315Y0045685D03*
X0216315Y0047654D03*
X0216315Y0049622D03*
X0216315Y0051591D03*
X0184110Y0051591D03*
X0184110Y0049622D03*
X0184110Y0047654D03*
X0184110Y0045685D03*
X0176945Y0045685D03*
X0176945Y0047654D03*
X0176945Y0049622D03*
X0176945Y0051591D03*
X0144740Y0051591D03*
X0144740Y0049622D03*
X0144740Y0047654D03*
X0144740Y0045685D03*
X0137575Y0045685D03*
X0137575Y0047654D03*
X0137575Y0049622D03*
X0137575Y0051591D03*
X0105370Y0051591D03*
X0105370Y0049622D03*
X0105370Y0047654D03*
X0105370Y0045685D03*
X0098205Y0045685D03*
X0098205Y0047654D03*
X0098205Y0049622D03*
X0098205Y0051591D03*
X0066000Y0051591D03*
X0066000Y0049622D03*
X0066000Y0047654D03*
X0066000Y0045685D03*
X0058835Y0045685D03*
X0058835Y0047654D03*
X0058835Y0049622D03*
X0058835Y0051591D03*
D15*
X0054543Y0049346D03*
X0050213Y0049346D03*
X0050213Y0055803D03*
X0054543Y0055803D03*
X0054543Y0088717D03*
X0050213Y0088717D03*
X0050213Y0095173D03*
X0054543Y0095173D03*
X0054543Y0128087D03*
X0050213Y0128087D03*
X0050213Y0134543D03*
X0054543Y0134543D03*
X0054543Y0167457D03*
X0050213Y0167457D03*
X0050213Y0173913D03*
X0054543Y0173913D03*
X0054543Y0206827D03*
X0050213Y0206827D03*
X0050213Y0213283D03*
X0054543Y0213283D03*
X0089583Y0213283D03*
X0093913Y0213283D03*
X0093913Y0206827D03*
X0089583Y0206827D03*
X0089583Y0173913D03*
X0093913Y0173913D03*
X0093913Y0167457D03*
X0089583Y0167457D03*
X0089583Y0134543D03*
X0093913Y0134543D03*
X0093913Y0128087D03*
X0089583Y0128087D03*
X0089583Y0095173D03*
X0093913Y0095173D03*
X0093913Y0088717D03*
X0089583Y0088717D03*
X0089583Y0055803D03*
X0093913Y0055803D03*
X0093913Y0049346D03*
X0089583Y0049346D03*
X0128953Y0049346D03*
X0133283Y0049346D03*
X0133283Y0055803D03*
X0128953Y0055803D03*
X0128953Y0088717D03*
X0133283Y0088717D03*
X0133283Y0095173D03*
X0128953Y0095173D03*
X0128953Y0128087D03*
X0133283Y0128087D03*
X0133283Y0134543D03*
X0128953Y0134543D03*
X0128953Y0167457D03*
X0133283Y0167457D03*
X0133283Y0173913D03*
X0128953Y0173913D03*
X0128953Y0206827D03*
X0133283Y0206827D03*
X0133283Y0213283D03*
X0128953Y0213283D03*
X0168323Y0213283D03*
X0172654Y0213283D03*
X0172654Y0206827D03*
X0168323Y0206827D03*
X0168323Y0173913D03*
X0172654Y0173913D03*
X0172654Y0167457D03*
X0168323Y0167457D03*
X0168323Y0134543D03*
X0172654Y0134543D03*
X0172654Y0128087D03*
X0168323Y0128087D03*
X0168323Y0095173D03*
X0172654Y0095173D03*
X0172654Y0088717D03*
X0168323Y0088717D03*
X0168323Y0055803D03*
X0172654Y0055803D03*
X0172654Y0049346D03*
X0168323Y0049346D03*
X0207693Y0049346D03*
X0212024Y0049346D03*
X0212024Y0055803D03*
X0207693Y0055803D03*
X0207693Y0088717D03*
X0212024Y0088717D03*
X0212024Y0095173D03*
X0207693Y0095173D03*
X0207693Y0128087D03*
X0212024Y0128087D03*
X0212024Y0134543D03*
X0207693Y0134543D03*
X0207693Y0167457D03*
X0212024Y0167457D03*
X0212024Y0173913D03*
X0207693Y0173913D03*
X0207693Y0206827D03*
X0212024Y0206827D03*
X0212024Y0213283D03*
X0207693Y0213283D03*
M02*
